<?xml version="1.0" encoding="UTF-8" standalone="no"?>
<!-- Created with Inkscape (http://www.inkscape.org/) -->

<svg
   xmlns:ns1="http://www.iki.fi/pav/software/textext/"
   xmlns:dc="http://purl.org/dc/elements/1.1/"
   xmlns:cc="http://creativecommons.org/ns#"
   xmlns:rdf="http://www.w3.org/1999/02/22-rdf-syntax-ns#"
   xmlns:svg="http://www.w3.org/2000/svg"
   xmlns="http://www.w3.org/2000/svg"
   xmlns:sodipodi="http://sodipodi.sourceforge.net/DTD/sodipodi-0.dtd"
   xmlns:inkscape="http://www.inkscape.org/namespaces/inkscape"
   width="129.23331mm"
   height="48.294865mm"
   viewBox="0 0 129.23331 48.294864"
   version="1.1"
   id="svg8"
   inkscape:version="0.92.3 (2405546, 2018-03-11)"
   sodipodi:docname="dock_pins.svg">
  <sodipodi:namedview
     id="base"
     pagecolor="#ffffff"
     bordercolor="#666666"
     borderopacity="1.0"
     inkscape:pageopacity="0.0"
     inkscape:pageshadow="2"
     inkscape:zoom="2.8"
     inkscape:cx="253.60618"
     inkscape:cy="112.97409"
     inkscape:document-units="mm"
     inkscape:current-layer="layer1"
     showgrid="false"
     inkscape:window-width="1916"
     inkscape:window-height="1160"
     inkscape:window-x="0"
     inkscape:window-y="18"
     inkscape:window-maximized="0"
     fit-margin-top="0"
     fit-margin-left="0"
     fit-margin-right="0"
     fit-margin-bottom="0"
     showguides="true"
     inkscape:guide-bbox="true">
    <inkscape:grid
       originy="1.6323718"
       originx="0.96224938"
       type="xygrid"
       id="grid834"
       units="cm"
       spacingx="1"
       spacingy="1" />
    <sodipodi:guide
       inkscape:locked="false"
       id="guide6871"
       orientation="0,1"
       position="83.824384,33.124575" />
  </sodipodi:namedview>
  <defs
     id="defs2">
    <marker
       inkscape:stockid="TriangleOutL"
       orient="auto"
       refY="0"
       refX="0"
       id="TriangleOutL"
       style="overflow:visible"
       inkscape:isstock="true">
      <path
         inkscape:connector-curvature="0"
         id="path2045"
         d="M 5.77,0 -2.88,5 V -5 Z"
         style="fill:#000000;fill-opacity:1;fill-rule:evenodd;stroke:#000000;stroke-width:1.00000003pt;stroke-opacity:1"
         transform="scale(0.8)" />
    </marker>
    <marker
       inkscape:stockid="Arrow2Mend"
       orient="auto"
       refY="0"
       refX="0"
       id="Arrow2Mend"
       style="overflow:visible"
       inkscape:isstock="true">
      <path
         inkscape:connector-curvature="0"
         id="path1930"
         style="fill:#000000;fill-opacity:1;fill-rule:evenodd;stroke:#000000;stroke-width:0.625;stroke-linejoin:round;stroke-opacity:1"
         d="M 8.7185878,4.0337352 -2.2072895,0.01601326 8.7185884,-4.0017078 c -1.7454984,2.3720609 -1.7354408,5.6174519 -6e-7,8.035443 z"
         transform="scale(-0.6)" />
    </marker>
  </defs>
  <metadata
     id="metadata5">
    <rdf:RDF>
      <cc:Work
         rdf:about="">
        <dc:format>image/svg+xml</dc:format>
        <dc:type
           rdf:resource="http://purl.org/dc/dcmitype/StillImage" />
        <dc:title></dc:title>
      </cc:Work>
    </rdf:RDF>
  </metadata>
  <g
     transform="translate(0.96224938,-250.3375)"
     inkscape:label="Layer 1"
     inkscape:groupmode="layer"
     id="layer1">
    <circle
       style="opacity:1;fill:none;fill-opacity:1;fill-rule:evenodd;stroke:#000000;stroke-width:0.15000001;stroke-linecap:round;stroke-linejoin:round;stroke-miterlimit:4;stroke-dasharray:none;stroke-dashoffset:0;stroke-opacity:1"
       id="path840-8"
       cx="19.938244"
       cy="277.0145"
       r="9" />
    <circle
       style="opacity:1;fill:none;fill-opacity:1;fill-rule:evenodd;stroke:#000000;stroke-width:0.5;stroke-linecap:round;stroke-linejoin:round;stroke-miterlimit:4;stroke-dasharray:none;stroke-dashoffset:0;stroke-opacity:1"
       id="path836"
       cx="20"
       cy="277"
       r="20" />
    <circle
       style="opacity:1;fill:none;fill-opacity:1;fill-rule:evenodd;stroke:#000000;stroke-width:0.15000001;stroke-linecap:round;stroke-linejoin:round;stroke-miterlimit:4;stroke-dasharray:none;stroke-dashoffset:0;stroke-opacity:1"
       id="path838"
       cx="20"
       cy="277"
       r="17" />
    <circle
       style="opacity:1;fill:none;fill-opacity:1;fill-rule:evenodd;stroke:#000000;stroke-width:0.15000001;stroke-linecap:round;stroke-linejoin:round;stroke-miterlimit:4;stroke-dasharray:none;stroke-dashoffset:0;stroke-opacity:1"
       id="path840"
       cx="20"
       cy="277"
       r="13" />
    <g
       inkscape:tile-y0="288.41056"
       inkscape:tile-x0="18.45"
       inkscape:transform-center-y="14.967094"
       id="use918"
       transform="rotate(15,20.009812,277.01319)"
       style="stroke:#808080;stroke-opacity:1">
      <circle
         style="opacity:1;fill:#180000;fill-opacity:1;fill-rule:evenodd;stroke:#808080;stroke-width:0.5;stroke-linecap:round;stroke-linejoin:round;stroke-miterlimit:4;stroke-dasharray:none;stroke-dashoffset:0;stroke-opacity:1"
         id="circle991"
         cx="20"
         cy="294"
         r="1.3" />
      <circle
         style="opacity:1;fill:#9ef766;fill-opacity:1;fill-rule:evenodd;stroke:#808080;stroke-width:0.5;stroke-linecap:round;stroke-linejoin:round;stroke-miterlimit:4;stroke-dasharray:none;stroke-dashoffset:0;stroke-opacity:1"
         id="circle993"
         cx="20.019625"
         cy="289.96057"
         r="1.3" />
    </g>
    <g
       inkscape:tile-y0="288.41056"
       inkscape:tile-x0="18.45"
       inkscape:transform-center-y="14.967094"
       id="use920"
       transform="rotate(30,20.009812,277.01319)"
       style="stroke:#808080;stroke-opacity:1">
      <circle
         style="opacity:1;fill:#ff8080;fill-opacity:1;fill-rule:evenodd;stroke:#808080;stroke-width:0.5;stroke-linecap:round;stroke-linejoin:round;stroke-miterlimit:4;stroke-dasharray:none;stroke-dashoffset:0;stroke-opacity:1"
         id="circle997"
         cx="20"
         cy="294"
         r="1.3" />
      <circle
         style="opacity:1;fill:#80ccff;fill-opacity:1;fill-rule:evenodd;stroke:#808080;stroke-width:0.5;stroke-linecap:round;stroke-linejoin:round;stroke-miterlimit:4;stroke-dasharray:none;stroke-dashoffset:0;stroke-opacity:1"
         id="circle999"
         cx="20.019625"
         cy="289.96057"
         r="1.3" />
    </g>
    <g
       inkscape:tile-y0="288.41056"
       inkscape:tile-x0="18.45"
       inkscape:transform-center-y="14.967094"
       id="use924"
       transform="rotate(60,20.009812,277.01319)"
       style="fill:#808080;fill-opacity:1;stroke-width:0.80000001;stroke-miterlimit:4;stroke-dasharray:none">
      <circle
         style="opacity:1;fill:#808080;fill-opacity:1;fill-rule:evenodd;stroke:#ff8080;stroke-width:0.80000001;stroke-linecap:round;stroke-linejoin:round;stroke-miterlimit:4;stroke-dasharray:none;stroke-dashoffset:0;stroke-opacity:1"
         id="circle1003"
         cx="20"
         cy="294"
         r="1.3" />
      <circle
         style="opacity:1;fill:#808080;fill-opacity:1;fill-rule:evenodd;stroke:#80ccff;stroke-width:0.80000001;stroke-linecap:round;stroke-linejoin:round;stroke-miterlimit:4;stroke-dasharray:none;stroke-dashoffset:0;stroke-opacity:1"
         id="circle1005"
         cx="20.019625"
         cy="289.96057"
         r="1.3" />
    </g>
    <g
       inkscape:tile-y0="288.41056"
       inkscape:tile-x0="18.45"
       inkscape:transform-center-y="14.967094"
       id="use926"
       transform="rotate(75,20.009812,277.01319)"
       style="fill:#808080;stroke-width:0.80000001;stroke-miterlimit:4;stroke-dasharray:none">
      <circle
         style="opacity:1;fill:#808080;fill-opacity:1;fill-rule:evenodd;stroke:#000000;stroke-width:0.80000001;stroke-linecap:round;stroke-linejoin:round;stroke-miterlimit:4;stroke-dasharray:none;stroke-dashoffset:0;stroke-opacity:1"
         id="circle1009"
         cx="20"
         cy="294"
         r="1.3" />
      <circle
         style="opacity:1;fill:#808080;fill-opacity:1;fill-rule:evenodd;stroke:#9ef766;stroke-width:0.80000001;stroke-linecap:round;stroke-linejoin:round;stroke-miterlimit:4;stroke-dasharray:none;stroke-dashoffset:0;stroke-opacity:1"
         id="circle1011"
         cx="20.019625"
         cy="289.96057"
         r="1.3" />
    </g>
    <g
       inkscape:tile-y0="288.41056"
       inkscape:tile-x0="18.45"
       inkscape:transform-center-y="14.967094"
       id="use936"
       transform="rotate(150,20.009812,277.01319)"
       style="fill:#808080;stroke-width:0.80000001;stroke-miterlimit:4;stroke-dasharray:none">
      <circle
         style="opacity:1;fill:#808080;fill-opacity:1;fill-rule:evenodd;stroke:#ff8080;stroke-width:0.80000001;stroke-linecap:round;stroke-linejoin:round;stroke-miterlimit:4;stroke-dasharray:none;stroke-dashoffset:0;stroke-opacity:1"
         id="circle1039"
         cx="20"
         cy="294"
         r="1.3" />
      <circle
         style="opacity:1;fill:#808080;fill-opacity:1;fill-rule:evenodd;stroke:#80ccff;stroke-width:0.80000001;stroke-linecap:round;stroke-linejoin:round;stroke-miterlimit:4;stroke-dasharray:none;stroke-dashoffset:0;stroke-opacity:1"
         id="circle1041"
         cx="20.019625"
         cy="289.96057"
         r="1.3" />
    </g>
    <g
       inkscape:tile-y0="288.41056"
       inkscape:tile-x0="18.45"
       inkscape:transform-center-y="14.967094"
       id="use938"
       transform="rotate(165,20.009812,277.01319)"
       style="opacity:1;fill:#808080;stroke-width:0.80000001;stroke-miterlimit:4;stroke-dasharray:none">
      <circle
         style="opacity:1;fill:#808080;fill-opacity:1;fill-rule:evenodd;stroke:#000000;stroke-width:0.80000001;stroke-linecap:round;stroke-linejoin:round;stroke-miterlimit:4;stroke-dasharray:none;stroke-dashoffset:0;stroke-opacity:1"
         id="circle1045"
         cx="20"
         cy="294"
         r="1.3" />
      <circle
         style="opacity:1;fill:#808080;fill-opacity:1;fill-rule:evenodd;stroke:#9ef766;stroke-width:0.80000001;stroke-linecap:round;stroke-linejoin:round;stroke-miterlimit:4;stroke-dasharray:none;stroke-dashoffset:0;stroke-opacity:1"
         id="circle1047"
         cx="20.019625"
         cy="289.96057"
         r="1.3" />
      <circle
         style="opacity:1;fill:#808080;fill-opacity:1;fill-rule:evenodd;stroke:#fff106;stroke-width:0.80000001;stroke-linecap:round;stroke-linejoin:round;stroke-miterlimit:4;stroke-dasharray:none;stroke-dashoffset:0;stroke-opacity:1"
         id="circle1047-3"
         cx="20.840855"
         cy="285.90854"
         r="1.3" />
      <circle
         style="opacity:1;fill:#808080;fill-opacity:1;fill-rule:evenodd;stroke:#fff106;stroke-width:0.80000001;stroke-linecap:round;stroke-linejoin:round;stroke-miterlimit:4;stroke-dasharray:none;stroke-dashoffset:0;stroke-opacity:1"
         id="circle1047-3-4"
         cx="28.938311"
         cy="275.69601"
         r="1.3" />
    </g>
    <g
       inkscape:tile-y0="288.41056"
       inkscape:tile-x0="18.45"
       inkscape:transform-center-y="14.967094"
       id="use944"
       transform="rotate(-150,20.009812,277.01319)">
      <circle
         style="opacity:1;fill:#ff8080;fill-opacity:1;fill-rule:evenodd;stroke:#808080;stroke-width:0.5;stroke-linecap:round;stroke-linejoin:round;stroke-miterlimit:4;stroke-dasharray:none;stroke-dashoffset:0;stroke-opacity:1"
         id="circle1063"
         cx="20"
         cy="294"
         r="1.3" />
      <circle
         style="opacity:1;fill:#80ccff;fill-opacity:1;fill-rule:evenodd;stroke:#808080;stroke-width:0.5;stroke-linecap:round;stroke-linejoin:round;stroke-miterlimit:4;stroke-dasharray:none;stroke-dashoffset:0;stroke-opacity:1"
         id="circle1065"
         cx="20.019625"
         cy="289.96057"
         r="1.3" />
      <circle
         style="opacity:1;fill:#fff106;fill-opacity:1;fill-rule:evenodd;stroke:#808080;stroke-width:0.5;stroke-linecap:round;stroke-linejoin:round;stroke-miterlimit:4;stroke-dasharray:none;stroke-dashoffset:0;stroke-opacity:1"
         id="circle1065-8"
         cx="21.259214"
         cy="285.83765"
         r="1.3" />
      <circle
         style="opacity:1;fill:#fff106;fill-opacity:1;fill-rule:evenodd;stroke:#808080;stroke-width:0.5;stroke-linecap:round;stroke-linejoin:round;stroke-miterlimit:4;stroke-dasharray:none;stroke-dashoffset:0;stroke-opacity:1"
         id="circle1065-8-4"
         cx="18.74225"
         cy="268.20679"
         r="1.3" />
    </g>
    <path
       style="fill:none;fill-rule:evenodd;stroke:#000000;stroke-width:0.26458332;stroke-linecap:butt;stroke-linejoin:miter;stroke-miterlimit:4;stroke-dasharray:1.05833327, 1.05833327;stroke-dashoffset:0;stroke-opacity:1"
       d="M 5,292 35,262"
       id="path964"
       inkscape:connector-curvature="0"
       sodipodi:nodetypes="cc" />
    <path
       style="fill:none;fill-rule:evenodd;stroke:#000000;stroke-width:0.26458332;stroke-linecap:butt;stroke-linejoin:miter;stroke-miterlimit:4;stroke-dasharray:0.79374995, 0.79374995;stroke-dashoffset:0;stroke-opacity:1"
       d="m 5,262 30,30"
       id="path966"
       inkscape:connector-curvature="0"
       sodipodi:nodetypes="cc" />
    <path
       style="fill:none;fill-rule:evenodd;stroke:#000000;stroke-width:0.26499999;stroke-linecap:butt;stroke-linejoin:miter;stroke-miterlimit:4;stroke-dasharray:none;stroke-opacity:1;marker-end:url(#TriangleOutL)"
       d="M 20,297 V 255"
       id="path968"
       inkscape:connector-curvature="0"
       sodipodi:nodetypes="cc" />
    <path
       style="fill:none;fill-rule:evenodd;stroke:#000000;stroke-width:0.26458332px;stroke-linecap:butt;stroke-linejoin:miter;stroke-opacity:1"
       d="M 0,276.99999 H 39.999999"
       id="path970"
       inkscape:connector-curvature="0" />
    <g
       transform="matrix(0.352778,0,0,0.352778,-36.365565,205.23726)"
       ns1:version="0.8.1"
       ns1:texconverter="pdflatex"
       ns1:pdfconverter="pdf2svg"
       ns1:text="\\textsf{north}"
       ns1:preamble="/home/xmrazek7/.config/inkscape/extensions/default_packages.tex"
       ns1:scale="0.999999978612"
       ns1:alignment="middle center"
       inkscapeversion="0.92.3"
       ns1:jacobian_sqrt="0.352778"
       id="g4198">
      <g
         id="surface1">
        <g
           style="fill:#000000;fill-opacity:1"
           id="g4187">
          <path
             inkscape:connector-curvature="0"
             style="stroke:none;stroke-width:0"
             d="m 4.34375,-2.96875 c 0,-0.65625 -0.15625,-1.5625 -1.375,-1.5625 -0.890625,0 -1.390625,0.671875 -1.4375,0.75 V -4.484375 H 0.8125 V 0 h 0.765625 v -2.4375 c 0,-0.65625 0.25,-1.484375 1.015625,-1.484375 0.953125,0 0.96875,0.703125 0.96875,1.015625 V 0 h 0.78125 z m 0,0"
             transform="translate(148.712,134.765)"
             id="path4183" />
          <path
             inkscape:connector-curvature="0"
             style="stroke:none;stroke-width:0"
             d="m 4.671875,-2.1875 c 0,-1.34375 -1,-2.40625 -2.171875,-2.40625 -1.234375,0 -2.203125,1.09375 -2.203125,2.40625 0,1.3125 1.015625,2.296875 2.1875,2.296875 1.1875,0 2.1875,-1 2.1875,-2.296875 z m -2.1875,1.65625 c -0.6875,0 -1.40625,-0.5625 -1.40625,-1.765625 0,-1.203125 0.75,-1.6875 1.40625,-1.6875 0.703125,0 1.40625,0.515625 1.40625,1.6875 0,1.1875 -0.671875,1.765625 -1.40625,1.765625 z m 0,0"
             transform="translate(153.85967,134.765)"
             id="path4185" />
        </g>
        <g
           style="fill:#000000;fill-opacity:1"
           id="g4195">
          <path
             inkscape:connector-curvature="0"
             style="stroke:none;stroke-width:0"
             d="M 1.5625,-2.140625 C 1.5625,-3.125 2.28125,-3.84375 3.265625,-3.875 v -0.65625 c -0.890625,0 -1.4375,0.5 -1.75,0.953125 v -0.90625 H 0.8125 V 0 h 0.75 z m 0,0"
             transform="translate(158.56202,134.765)"
             id="path4189" />
          <path
             inkscape:connector-curvature="0"
             style="stroke:none;stroke-width:0"
             d="M 1.75,-3.84375 H 3.15625 V -4.421875 H 1.75 V -5.6875 H 1.0625 v 1.265625 h -0.875 v 0.578125 h 0.84375 v 2.65625 c 0,0.59375 0.140625,1.296875 0.828125,1.296875 0.6875,0 1.203125,-0.25 1.453125,-0.375 L 3.15625,-0.859375 C 2.890625,-0.640625 2.578125,-0.53125 2.25,-0.53125 c -0.359375,0 -0.5,-0.296875 -0.5,-0.828125 z m 0,0"
             transform="translate(161.96624,134.765)"
             id="path4191" />
          <path
             inkscape:connector-curvature="0"
             style="stroke:none;stroke-width:0"
             d="m 4.34375,-2.96875 c 0,-0.65625 -0.15625,-1.5625 -1.375,-1.5625 -0.609375,0 -1.09375,0.296875 -1.40625,0.71875 v -3.109375 h -0.75 V 0 h 0.765625 v -2.4375 c 0,-0.65625 0.25,-1.484375 1.015625,-1.484375 0.953125,0 0.96875,0.703125 0.96875,1.015625 V 0 h 0.78125 z m 0,0"
             transform="translate(165.56374,134.765)"
             id="path4193" />
        </g>
      </g>
    </g>
    <circle
       style="opacity:1;fill:#ff8080;fill-opacity:1;fill-rule:evenodd;stroke:#808080;stroke-width:0.5;stroke-linecap:round;stroke-linejoin:round;stroke-miterlimit:4;stroke-dasharray:none;stroke-dashoffset:0;stroke-opacity:1"
       id="circle1063-4"
       cx="79.419403"
       cy="267.95206"
       r="1.3" />
    <g
       inkscape:tile-y0="288.41056"
       inkscape:tile-x0="18.45"
       inkscape:transform-center-y="14.967094"
       id="use942"
       transform="rotate(-165,20.009812,277.01319)">
      <circle
         style="opacity:1;fill:#000000;fill-opacity:1;fill-rule:evenodd;stroke:#808080;stroke-width:0.5;stroke-linecap:round;stroke-linejoin:round;stroke-miterlimit:4;stroke-dasharray:none;stroke-dashoffset:0;stroke-opacity:1"
         id="circle1057"
         cx="20"
         cy="294"
         r="1.3" />
      <circle
         style="opacity:1;fill:#9ef766;fill-opacity:1;fill-rule:evenodd;stroke:#808080;stroke-width:0.5;stroke-linecap:round;stroke-linejoin:round;stroke-miterlimit:4;stroke-dasharray:none;stroke-dashoffset:0;stroke-opacity:1"
         id="circle1059"
         cx="20.019625"
         cy="289.96057"
         r="1.3" />
    </g>
    <circle
       style="opacity:1;fill:#000000;fill-opacity:1;fill-rule:evenodd;stroke:#808080;stroke-width:0.5;stroke-linecap:round;stroke-linejoin:round;stroke-miterlimit:4;stroke-dasharray:none;stroke-dashoffset:0;stroke-opacity:1"
       id="circle1057-0"
       cx="79.419159"
       cy="271.73602"
       r="1.3" />
    <circle
       style="opacity:1;fill:#80ccff;fill-opacity:1;fill-rule:evenodd;stroke:#808080;stroke-width:0.5;stroke-linecap:round;stroke-linejoin:round;stroke-miterlimit:4;stroke-dasharray:none;stroke-dashoffset:0;stroke-opacity:1"
       id="circle1065-9"
       cx="79.418922"
       cy="276.2637"
       r="1.3" />
    <circle
       style="opacity:1;fill:#9ef766;fill-opacity:1;fill-rule:evenodd;stroke:#808080;stroke-width:0.5;stroke-linecap:round;stroke-linejoin:round;stroke-miterlimit:4;stroke-dasharray:none;stroke-dashoffset:0;stroke-opacity:1"
       id="circle1059-5"
       cx="-149.42505"
       cy="-250.80807"
       r="1.3"
       transform="rotate(-165)" />
    <circle
       style="opacity:1;fill:#fff106;fill-opacity:1;fill-rule:evenodd;stroke:#808080;stroke-width:0.5;stroke-linecap:round;stroke-linejoin:round;stroke-miterlimit:4;stroke-dasharray:none;stroke-dashoffset:0;stroke-opacity:1"
       id="circle1065-8-48"
       cx="-211.46826"
       cy="-207.43399"
       r="1.3"
       transform="rotate(-150)" />
    <circle
       style="opacity:1;fill:#808080;fill-opacity:1;fill-rule:evenodd;stroke:#ff8080;stroke-width:0.80000001;stroke-linecap:round;stroke-linejoin:round;stroke-miterlimit:4;stroke-dasharray:none;stroke-dashoffset:0;stroke-opacity:1"
       id="circle1039-7"
       cx="88.981918"
       cy="-258.07483"
       r="1.3"
       transform="rotate(150)" />
    <circle
       style="opacity:1;fill:#808080;fill-opacity:1;fill-rule:evenodd;stroke:#000000;stroke-width:0.80000001;stroke-linecap:round;stroke-linejoin:round;stroke-miterlimit:4;stroke-dasharray:none;stroke-dashoffset:0;stroke-opacity:1"
       id="circle1009-7"
       cx="276.46396"
       cy="20.269335"
       r="1.3"
       transform="rotate(75)" />
    <circle
       style="opacity:1;fill:#808080;fill-opacity:1;fill-rule:evenodd;stroke:#80ccff;stroke-width:0.80000001;stroke-linecap:round;stroke-linejoin:round;stroke-miterlimit:4;stroke-dasharray:none;stroke-dashoffset:0;stroke-opacity:1"
       id="circle1041-1"
       cx="93.28141"
       cy="-265.52173"
       r="1.3"
       transform="rotate(150)" />
    <circle
       style="opacity:1;fill:#808080;fill-opacity:1;fill-rule:evenodd;stroke:#9ef766;stroke-width:0.80000001;stroke-linecap:round;stroke-linejoin:round;stroke-miterlimit:4;stroke-dasharray:none;stroke-dashoffset:0;stroke-opacity:1"
       id="circle1047-7"
       cx="22.494909"
       cy="-284.76993"
       r="1.3"
       transform="rotate(165)" />
    <circle
       style="opacity:1;fill:#808080;fill-opacity:1;fill-rule:evenodd;stroke:#fff106;stroke-width:0.80000001;stroke-linecap:round;stroke-linejoin:round;stroke-miterlimit:4;stroke-dasharray:none;stroke-dashoffset:0;stroke-opacity:1"
       id="circle1047-3-2"
       cx="23.607697"
       cy="-288.92291"
       r="1.3"
       transform="rotate(165)" />
    <g
       id="g5115"
       ns1:jacobian_sqrt="0.352778"
       inkscapeversion="0.92.3"
       ns1:alignment="middle center"
       ns1:scale="1.00000000696"
       ns1:preamble="/home/xmrazek7/.config/inkscape/extensions/default_packages.tex"
       ns1:text="\\textsf{1}"
       ns1:pdfconverter="pdf2svg"
       ns1:texconverter="pdflatex"
       ns1:version="0.8.1"
       transform="matrix(0.352778,0,0,0.352778,-23.945185,209.89084)">
      <g
         id="g5113">
        <g
           id="g5111"
           style="fill:#000000;fill-opacity:1">
          <path
             id="path5109"
             transform="translate(148.712,134.765)"
             d="M 2.984375,-6.765625 H 2.78125 C 2.1875,-6.15625 1.359375,-6.125 0.890625,-6.09375 v 0.578125 C 1.21875,-5.53125 1.6875,-5.546875 2.1875,-5.765625 v 5.1875 H 0.953125 V 0 h 3.28125 v -0.578125 h -1.25 z m 0,0"
             style="stroke:none;stroke-width:0"
             inkscape:connector-curvature="0" />
        </g>
      </g>
    </g>
    <g
       transform="matrix(0.352778,0,0,0.352778,-43.369617,251.09024)"
       ns1:version="0.8.1"
       ns1:texconverter="pdflatex"
       ns1:pdfconverter="pdf2svg"
       ns1:text="\\textsf{2}"
       ns1:preamble="/home/xmrazek7/.config/inkscape/extensions/default_packages.tex"
       ns1:scale="1.00000003531"
       ns1:alignment="middle center"
       inkscapeversion="0.92.3"
       ns1:jacobian_sqrt="0.352778"
       id="g5389">
      <g
         id="g5387">
        <g
           style="fill:#000000;fill-opacity:1"
           id="g5385">
          <path
             inkscape:connector-curvature="0"
             style="stroke:none;stroke-width:0"
             d="M 1.734375,-1.875 0.5,-0.640625 V 0 h 3.96875 v -0.703125 h -1.8125 c -0.109375,0 -0.234375,0 -0.359375,0 H 1.21875 c 0.3125,-0.28125 1.078125,-1.015625 1.390625,-1.3125 0.1875,-0.171875 0.6875,-0.59375 0.875,-0.78125 0.453125,-0.4375 0.984375,-0.96875 0.984375,-1.8125 0,-1.15625 -0.796875,-2.15625 -2.109375,-2.15625 -1.140625,0 -1.703125,0.78125 -1.9375,1.640625 0.109375,0.171875 0.171875,0.234375 0.1875,0.265625 0.015625,0.015625 0.125,0.140625 0.21875,0.28125 C 1.03125,-5.34375 1.3125,-6.125 2.21875,-6.125 c 0.9375,0 1.4375,0.75 1.4375,1.53125 0,0.84375 -0.5625,1.40625 -1.15625,2.015625 z m 0,0"
             transform="translate(148.712,134.765)"
             id="path5383" />
        </g>
      </g>
    </g>
    <g
       id="g5683"
       ns1:jacobian_sqrt="0.352778"
       inkscapeversion="0.92.3"
       ns1:alignment="middle center"
       ns1:scale="1.00000006366"
       ns1:preamble="/home/xmrazek7/.config/inkscape/extensions/default_packages.tex"
       ns1:text="\\textsf{A}"
       ns1:pdfconverter="pdf2svg"
       ns1:texconverter="pdflatex"
       ns1:version="0.8.1"
       transform="matrix(0.352778,0,0,0.352778,-42.260887,209.8239)">
      <g
         id="g5681">
        <g
           id="g5679"
           style="fill:#000000;fill-opacity:1">
          <path
             id="path5677"
             transform="translate(148.712,134.765)"
             d="M 3.765625,-6.921875 H 2.875 L 0.28125,0 H 1.015625 L 1.78125,-2.03125 H 4.6875 L 5.4375,0 H 6.359375 Z M 4.46875,-2.59375 H 2 l 0.640625,-1.796875 c 0.203125,-0.59375 0.515625,-1.4375 0.59375,-1.8125 0.03125,0.140625 0.09375,0.390625 0.328125,1.046875 z m 0,0"
             style="stroke:none;stroke-width:0"
             inkscape:connector-curvature="0" />
        </g>
      </g>
    </g>
    <g
       transform="matrix(0.352778,0,0,0.352778,-53.766325,241.38491)"
       ns1:version="0.8.1"
       ns1:texconverter="pdflatex"
       ns1:pdfconverter="pdf2svg"
       ns1:text="\\textsf{B}"
       ns1:preamble="/home/xmrazek7/.config/inkscape/extensions/default_packages.tex"
       ns1:scale="1.00000006366"
       ns1:alignment="middle center"
       inkscapeversion="0.92.3"
       ns1:jacobian_sqrt="0.352778"
       id="g5961">
      <g
         id="g5959">
        <g
           style="fill:#000000;fill-opacity:1"
           id="g5957">
          <path
             inkscape:connector-curvature="0"
             style="stroke:none;stroke-width:0"
             d="M 0.96875,-6.921875 V 0 h 2.625 c 1.4375,0 2.484375,-0.890625 2.484375,-1.875 0,-0.859375 -0.859375,-1.578125 -1.921875,-1.75 0.90625,-0.21875 1.65625,-0.796875 1.65625,-1.5625 0,-0.90625 -1.0625,-1.734375 -2.484375,-1.734375 z m 0.828125,3.03125 v -2.46875 h 1.25 c 1.109375,0 1.984375,0.53125 1.984375,1.1875 0,0.59375 -0.703125,1.28125 -2.078125,1.28125 z m 0,3.328125 v -2.734375 h 1.4375 c 1.0625,0 2.046875,0.609375 2.046875,1.40625 0,0.75 -0.890625,1.328125 -1.96875,1.328125 z m 0,0"
             transform="translate(148.712,134.765)"
             id="path5955" />
        </g>
      </g>
    </g>
    <g
       id="g7128"
       ns1:jacobian_sqrt="0.352778"
       inkscapeversion="0.92.3"
       ns1:alignment="middle center"
       ns1:scale="1.00000000696"
       ns1:preamble="/home/xmrazek7/.config/inkscape/extensions/default_packages.tex"
       ns1:text="\\begin{table}[]\n\\begin{tabular}{@{}cc@{}}\n\\textsf{orientation} &amp; \\textsf{conection} \\\\ \\midrule\n\\textsf{north}       &amp; \\textsf{A1}        \\\\\n\\textsf{east}        &amp; \\textsf{B2}        \\\\\n\\textsf{south}       &amp; \\textsf{A2}        \\\\\n\\textsf{west}        &amp; \\textsf{B1}       \n\\end{tabular}\n\\end{table}"
       ns1:pdfconverter="pdf2svg"
       ns1:texconverter="pdflatex"
       ns1:version="0.8.1"
       transform="matrix(0.352778,0,0,0.352778,42.441273,131.46543)">
      <g
         id="g7126">
        <g
           id="g7008"
           style="fill:#000000;fill-opacity:1">
          <path
             id="path7006"
             transform="translate(133.768,374.754)"
             d="m 4.671875,-2.1875 c 0,-1.34375 -1,-2.40625 -2.171875,-2.40625 -1.234375,0 -2.203125,1.09375 -2.203125,2.40625 0,1.3125 1.015625,2.296875 2.1875,2.296875 1.1875,0 2.1875,-1 2.1875,-2.296875 z m -2.1875,1.65625 c -0.6875,0 -1.40625,-0.5625 -1.40625,-1.765625 0,-1.203125 0.75,-1.6875 1.40625,-1.6875 0.703125,0 1.40625,0.515625 1.40625,1.6875 0,1.1875 -0.671875,1.765625 -1.40625,1.765625 z m 0,0"
             style="stroke:none;stroke-width:0"
             inkscape:connector-curvature="0" />
        </g>
        <g
           id="g7030"
           style="fill:#000000;fill-opacity:1">
          <path
             id="path7010"
             transform="translate(138.47035,374.754)"
             d="M 1.5625,-2.140625 C 1.5625,-3.125 2.28125,-3.84375 3.265625,-3.875 v -0.65625 c -0.890625,0 -1.4375,0.5 -1.75,0.953125 v -0.90625 H 0.8125 V 0 h 0.75 z m 0,0"
             style="stroke:none;stroke-width:0"
             inkscape:connector-curvature="0" />
          <path
             id="path7012"
             transform="translate(141.87457,374.754)"
             d="M 1.625,-6.78125 H 0.734375 v 0.890625 H 1.625 Z m -0.0625,2.359375 h -0.75 V 0 h 0.75 z m 0,0"
             style="stroke:none;stroke-width:0"
             inkscape:connector-curvature="0" />
          <path
             id="path7014"
             transform="translate(144.25463,374.754)"
             d="M 4.125,-2.1875 C 4.125,-2.515625 4.109375,-3.265625 3.734375,-3.875 3.3125,-4.484375 2.71875,-4.59375 2.359375,-4.59375 1.25,-4.59375 0.34375,-3.53125 0.34375,-2.25 c 0,1.3125 0.96875,2.359375 2.15625,2.359375 0.625,0 1.203125,-0.234375 1.59375,-0.515625 L 4.03125,-1.0625 C 3.40625,-0.53125 2.734375,-0.5 2.515625,-0.5 1.71875,-0.5 1.078125,-1.203125 1.046875,-2.1875 Z M 1.09375,-2.734375 c 0.15625,-0.75 0.6875,-1.25 1.265625,-1.25 0.515625,0 1.0625,0.328125 1.203125,1.25 z m 0,0"
             style="stroke:none;stroke-width:0"
             inkscape:connector-curvature="0" />
          <path
             id="path7016"
             transform="translate(148.68201,374.754)"
             d="m 4.34375,-2.96875 c 0,-0.65625 -0.15625,-1.5625 -1.375,-1.5625 -0.890625,0 -1.390625,0.671875 -1.4375,0.75 V -4.484375 H 0.8125 V 0 h 0.765625 v -2.4375 c 0,-0.65625 0.25,-1.484375 1.015625,-1.484375 0.953125,0 0.96875,0.703125 0.96875,1.015625 V 0 h 0.78125 z m 0,0"
             style="stroke:none;stroke-width:0"
             inkscape:connector-curvature="0" />
          <path
             id="path7018"
             transform="translate(153.82969,374.754)"
             d="M 1.75,-3.84375 H 3.15625 V -4.421875 H 1.75 V -5.6875 H 1.0625 v 1.265625 h -0.875 v 0.578125 h 0.84375 v 2.65625 c 0,0.59375 0.140625,1.296875 0.828125,1.296875 0.6875,0 1.203125,-0.25 1.453125,-0.375 L 3.15625,-0.859375 C 2.890625,-0.640625 2.578125,-0.53125 2.25,-0.53125 c -0.359375,0 -0.5,-0.296875 -0.5,-0.828125 z m 0,0"
             style="stroke:none;stroke-width:0"
             inkscape:connector-curvature="0" />
          <path
             id="path7020"
             transform="translate(157.42718,374.754)"
             d="m 3.984375,-2.875 c 0,-1.015625 -0.734375,-1.71875 -1.65625,-1.71875 -0.640625,0 -1.09375,0.15625 -1.5625,0.421875 l 0.0625,0.65625 C 1.34375,-3.875 1.84375,-4 2.328125,-4 c 0.46875,0 0.875,0.390625 0.875,1.125 v 0.4375 C 1.703125,-2.421875 0.4375,-2 0.4375,-1.125 c 0,0.421875 0.265625,1.234375 1.140625,1.234375 0.140625,0 1.078125,-0.015625 1.65625,-0.46875 V 0 h 0.75 z m -0.78125,1.5625 c 0,0.1875 0,0.4375 -0.34375,0.625 C 2.578125,-0.515625 2.1875,-0.5 2.078125,-0.5 1.609375,-0.5 1.15625,-0.734375 1.15625,-1.140625 c 0,-0.703125 1.609375,-0.765625 2.046875,-0.796875 z m 0,0"
             style="stroke:none;stroke-width:0"
             inkscape:connector-curvature="0" />
          <path
             id="path7022"
             transform="translate(162.21521,374.754)"
             d="M 1.75,-3.84375 H 3.15625 V -4.421875 H 1.75 V -5.6875 H 1.0625 v 1.265625 h -0.875 v 0.578125 h 0.84375 v 2.65625 c 0,0.59375 0.140625,1.296875 0.828125,1.296875 0.6875,0 1.203125,-0.25 1.453125,-0.375 L 3.15625,-0.859375 C 2.890625,-0.640625 2.578125,-0.53125 2.25,-0.53125 c -0.359375,0 -0.5,-0.296875 -0.5,-0.828125 z m 0,0"
             style="stroke:none;stroke-width:0"
             inkscape:connector-curvature="0" />
          <path
             id="path7024"
             transform="translate(165.8127,374.754)"
             d="M 1.625,-6.78125 H 0.734375 v 0.890625 H 1.625 Z m -0.0625,2.359375 h -0.75 V 0 h 0.75 z m 0,0"
             style="stroke:none;stroke-width:0"
             inkscape:connector-curvature="0" />
          <path
             id="path7026"
             transform="translate(168.19277,374.754)"
             d="m 4.671875,-2.1875 c 0,-1.34375 -1,-2.40625 -2.171875,-2.40625 -1.234375,0 -2.203125,1.09375 -2.203125,2.40625 0,1.3125 1.015625,2.296875 2.1875,2.296875 1.1875,0 2.1875,-1 2.1875,-2.296875 z m -2.1875,1.65625 c -0.6875,0 -1.40625,-0.5625 -1.40625,-1.765625 0,-1.203125 0.75,-1.6875 1.40625,-1.6875 0.703125,0 1.40625,0.515625 1.40625,1.6875 0,1.1875 -0.671875,1.765625 -1.40625,1.765625 z m 0,0"
             style="stroke:none;stroke-width:0"
             inkscape:connector-curvature="0" />
          <path
             id="path7028"
             transform="translate(173.17407,374.754)"
             d="m 4.34375,-2.96875 c 0,-0.65625 -0.15625,-1.5625 -1.375,-1.5625 -0.890625,0 -1.390625,0.671875 -1.4375,0.75 V -4.484375 H 0.8125 V 0 h 0.765625 v -2.4375 c 0,-0.65625 0.25,-1.484375 1.015625,-1.484375 0.953125,0 0.96875,0.703125 0.96875,1.015625 V 0 h 0.78125 z m 0,0"
             style="stroke:none;stroke-width:0"
             inkscape:connector-curvature="0" />
        </g>
        <g
           id="g7050"
           style="fill:#000000;fill-opacity:1">
          <path
             id="path7032"
             transform="translate(190.27686,374.754)"
             d="M 4.09375,-4.171875 C 3.5,-4.5 3.15625,-4.59375 2.546875,-4.59375 c -1.375,0 -2.1875,1.203125 -2.1875,2.375 0,1.234375 0.90625,2.328125 2.15625,2.328125 0.53125,0 1.078125,-0.140625 1.625,-0.515625 l -0.0625,-0.65625 c -0.515625,0.390625 -1.046875,0.53125 -1.5625,0.53125 -0.828125,0 -1.375,-0.71875 -1.375,-1.6875 C 1.140625,-3 1.5,-3.953125 2.5625,-3.953125 c 0.515625,0 0.859375,0.078125 1.40625,0.4375 z m 0,0"
             style="stroke:none;stroke-width:0"
             inkscape:connector-curvature="0" />
          <path
             id="path7034"
             transform="translate(194.70424,374.754)"
             d="m 4.671875,-2.1875 c 0,-1.34375 -1,-2.40625 -2.171875,-2.40625 -1.234375,0 -2.203125,1.09375 -2.203125,2.40625 0,1.3125 1.015625,2.296875 2.1875,2.296875 1.1875,0 2.1875,-1 2.1875,-2.296875 z m -2.1875,1.65625 c -0.6875,0 -1.40625,-0.5625 -1.40625,-1.765625 0,-1.203125 0.75,-1.6875 1.40625,-1.6875 0.703125,0 1.40625,0.515625 1.40625,1.6875 0,1.1875 -0.671875,1.765625 -1.40625,1.765625 z m 0,0"
             style="stroke:none;stroke-width:0"
             inkscape:connector-curvature="0" />
          <path
             id="path7036"
             transform="translate(199.68554,374.754)"
             d="m 4.34375,-2.96875 c 0,-0.65625 -0.15625,-1.5625 -1.375,-1.5625 -0.890625,0 -1.390625,0.671875 -1.4375,0.75 V -4.484375 H 0.8125 V 0 h 0.765625 v -2.4375 c 0,-0.65625 0.25,-1.484375 1.015625,-1.484375 0.953125,0 0.96875,0.703125 0.96875,1.015625 V 0 h 0.78125 z m 0,0"
             style="stroke:none;stroke-width:0"
             inkscape:connector-curvature="0" />
          <path
             id="path7038"
             transform="translate(204.83322,374.754)"
             d="M 4.125,-2.1875 C 4.125,-2.515625 4.109375,-3.265625 3.734375,-3.875 3.3125,-4.484375 2.71875,-4.59375 2.359375,-4.59375 1.25,-4.59375 0.34375,-3.53125 0.34375,-2.25 c 0,1.3125 0.96875,2.359375 2.15625,2.359375 0.625,0 1.203125,-0.234375 1.59375,-0.515625 L 4.03125,-1.0625 C 3.40625,-0.53125 2.734375,-0.5 2.515625,-0.5 1.71875,-0.5 1.078125,-1.203125 1.046875,-2.1875 Z M 1.09375,-2.734375 c 0.15625,-0.75 0.6875,-1.25 1.265625,-1.25 0.515625,0 1.0625,0.328125 1.203125,1.25 z m 0,0"
             style="stroke:none;stroke-width:0"
             inkscape:connector-curvature="0" />
          <path
             id="path7040"
             transform="translate(209.2606,374.754)"
             d="M 4.09375,-4.171875 C 3.5,-4.5 3.15625,-4.59375 2.546875,-4.59375 c -1.375,0 -2.1875,1.203125 -2.1875,2.375 0,1.234375 0.90625,2.328125 2.15625,2.328125 0.53125,0 1.078125,-0.140625 1.625,-0.515625 l -0.0625,-0.65625 c -0.515625,0.390625 -1.046875,0.53125 -1.5625,0.53125 -0.828125,0 -1.375,-0.71875 -1.375,-1.6875 C 1.140625,-3 1.5,-3.953125 2.5625,-3.953125 c 0.515625,0 0.859375,0.078125 1.40625,0.4375 z m 0,0"
             style="stroke:none;stroke-width:0"
             inkscape:connector-curvature="0" />
          <path
             id="path7042"
             transform="translate(213.68798,374.754)"
             d="M 1.75,-3.84375 H 3.15625 V -4.421875 H 1.75 V -5.6875 H 1.0625 v 1.265625 h -0.875 v 0.578125 h 0.84375 v 2.65625 c 0,0.59375 0.140625,1.296875 0.828125,1.296875 0.6875,0 1.203125,-0.25 1.453125,-0.375 L 3.15625,-0.859375 C 2.890625,-0.640625 2.578125,-0.53125 2.25,-0.53125 c -0.359375,0 -0.5,-0.296875 -0.5,-0.828125 z m 0,0"
             style="stroke:none;stroke-width:0"
             inkscape:connector-curvature="0" />
          <path
             id="path7044"
             transform="translate(217.28547,374.754)"
             d="M 1.625,-6.78125 H 0.734375 v 0.890625 H 1.625 Z m -0.0625,2.359375 h -0.75 V 0 h 0.75 z m 0,0"
             style="stroke:none;stroke-width:0"
             inkscape:connector-curvature="0" />
          <path
             id="path7046"
             transform="translate(219.66554,374.754)"
             d="m 4.671875,-2.1875 c 0,-1.34375 -1,-2.40625 -2.171875,-2.40625 -1.234375,0 -2.203125,1.09375 -2.203125,2.40625 0,1.3125 1.015625,2.296875 2.1875,2.296875 1.1875,0 2.1875,-1 2.1875,-2.296875 z m -2.1875,1.65625 c -0.6875,0 -1.40625,-0.5625 -1.40625,-1.765625 0,-1.203125 0.75,-1.6875 1.40625,-1.6875 0.703125,0 1.40625,0.515625 1.40625,1.6875 0,1.1875 -0.671875,1.765625 -1.40625,1.765625 z m 0,0"
             style="stroke:none;stroke-width:0"
             inkscape:connector-curvature="0" />
          <path
             id="path7048"
             transform="translate(224.64684,374.754)"
             d="m 4.34375,-2.96875 c 0,-0.65625 -0.15625,-1.5625 -1.375,-1.5625 -0.890625,0 -1.390625,0.671875 -1.4375,0.75 V -4.484375 H 0.8125 V 0 h 0.765625 v -2.4375 c 0,-0.65625 0.25,-1.484375 1.015625,-1.484375 0.953125,0 0.96875,0.703125 0.96875,1.015625 V 0 h 0.78125 z m 0,0"
             style="stroke:none;stroke-width:0"
             inkscape:connector-curvature="0" />
        </g>
        <path
           id="path7052"
           transform="matrix(1,0,0,-1,133.768,380.306)"
           d="M 0.00153125,0.0013125 H 96.028875"
           style="fill:none;stroke:#000000;stroke-width:0.498;stroke-linecap:butt;stroke-linejoin:miter;stroke-miterlimit:10;stroke-opacity:1"
           inkscape:connector-curvature="0" />
        <g
           id="g7058"
           style="fill:#000000;fill-opacity:1">
          <path
             id="path7054"
             transform="translate(145.046,391.711)"
             d="m 4.34375,-2.96875 c 0,-0.65625 -0.15625,-1.5625 -1.375,-1.5625 -0.890625,0 -1.390625,0.671875 -1.4375,0.75 V -4.484375 H 0.8125 V 0 h 0.765625 v -2.4375 c 0,-0.65625 0.25,-1.484375 1.015625,-1.484375 0.953125,0 0.96875,0.703125 0.96875,1.015625 V 0 h 0.78125 z m 0,0"
             style="stroke:none;stroke-width:0"
             inkscape:connector-curvature="0" />
          <path
             id="path7056"
             transform="translate(150.19368,391.711)"
             d="m 4.671875,-2.1875 c 0,-1.34375 -1,-2.40625 -2.171875,-2.40625 -1.234375,0 -2.203125,1.09375 -2.203125,2.40625 0,1.3125 1.015625,2.296875 2.1875,2.296875 1.1875,0 2.1875,-1 2.1875,-2.296875 z m -2.1875,1.65625 c -0.6875,0 -1.40625,-0.5625 -1.40625,-1.765625 0,-1.203125 0.75,-1.6875 1.40625,-1.6875 0.703125,0 1.40625,0.515625 1.40625,1.6875 0,1.1875 -0.671875,1.765625 -1.40625,1.765625 z m 0,0"
             style="stroke:none;stroke-width:0"
             inkscape:connector-curvature="0" />
        </g>
        <g
           id="g7066"
           style="fill:#000000;fill-opacity:1">
          <path
             id="path7060"
             transform="translate(154.89602,391.711)"
             d="M 1.5625,-2.140625 C 1.5625,-3.125 2.28125,-3.84375 3.265625,-3.875 v -0.65625 c -0.890625,0 -1.4375,0.5 -1.75,0.953125 v -0.90625 H 0.8125 V 0 h 0.75 z m 0,0"
             style="stroke:none;stroke-width:0"
             inkscape:connector-curvature="0" />
          <path
             id="path7062"
             transform="translate(158.30024,391.711)"
             d="M 1.75,-3.84375 H 3.15625 V -4.421875 H 1.75 V -5.6875 H 1.0625 v 1.265625 h -0.875 v 0.578125 h 0.84375 v 2.65625 c 0,0.59375 0.140625,1.296875 0.828125,1.296875 0.6875,0 1.203125,-0.25 1.453125,-0.375 L 3.15625,-0.859375 C 2.890625,-0.640625 2.578125,-0.53125 2.25,-0.53125 c -0.359375,0 -0.5,-0.296875 -0.5,-0.828125 z m 0,0"
             style="stroke:none;stroke-width:0"
             inkscape:connector-curvature="0" />
          <path
             id="path7064"
             transform="translate(161.89774,391.711)"
             d="m 4.34375,-2.96875 c 0,-0.65625 -0.15625,-1.5625 -1.375,-1.5625 -0.609375,0 -1.09375,0.296875 -1.40625,0.71875 v -3.109375 h -0.75 V 0 h 0.765625 v -2.4375 c 0,-0.65625 0.25,-1.484375 1.015625,-1.484375 0.953125,0 0.96875,0.703125 0.96875,1.015625 V 0 h 0.78125 z m 0,0"
             style="stroke:none;stroke-width:0"
             inkscape:connector-curvature="0" />
        </g>
        <g
           id="g7072"
           style="fill:#000000;fill-opacity:1">
          <path
             id="path7068"
             transform="translate(204.22584,391.711)"
             d="M 3.765625,-6.921875 H 2.875 L 0.28125,0 H 1.015625 L 1.78125,-2.03125 H 4.6875 L 5.4375,0 H 6.359375 Z M 4.46875,-2.59375 H 2 l 0.640625,-1.796875 c 0.203125,-0.59375 0.515625,-1.4375 0.59375,-1.8125 0.03125,0.140625 0.09375,0.390625 0.328125,1.046875 z m 0,0"
             style="stroke:none;stroke-width:0"
             inkscape:connector-curvature="0" />
          <path
             id="path7070"
             transform="translate(210.8679,391.711)"
             d="M 2.984375,-6.765625 H 2.78125 C 2.1875,-6.15625 1.359375,-6.125 0.890625,-6.09375 v 0.578125 C 1.21875,-5.53125 1.6875,-5.546875 2.1875,-5.765625 v 5.1875 H 0.953125 V 0 h 3.28125 v -0.578125 h -1.25 z m 0,0"
             style="stroke:none;stroke-width:0"
             inkscape:connector-curvature="0" />
        </g>
        <g
           id="g7082"
           style="fill:#000000;fill-opacity:1">
          <path
             id="path7074"
             transform="translate(147.73,403.667)"
             d="M 4.125,-2.1875 C 4.125,-2.515625 4.109375,-3.265625 3.734375,-3.875 3.3125,-4.484375 2.71875,-4.59375 2.359375,-4.59375 1.25,-4.59375 0.34375,-3.53125 0.34375,-2.25 c 0,1.3125 0.96875,2.359375 2.15625,2.359375 0.625,0 1.203125,-0.234375 1.59375,-0.515625 L 4.03125,-1.0625 C 3.40625,-0.53125 2.734375,-0.5 2.515625,-0.5 1.71875,-0.5 1.078125,-1.203125 1.046875,-2.1875 Z M 1.09375,-2.734375 c 0.15625,-0.75 0.6875,-1.25 1.265625,-1.25 0.515625,0 1.0625,0.328125 1.203125,1.25 z m 0,0"
             style="stroke:none;stroke-width:0"
             inkscape:connector-curvature="0" />
          <path
             id="path7076"
             transform="translate(152.15738,403.667)"
             d="m 3.984375,-2.875 c 0,-1.015625 -0.734375,-1.71875 -1.65625,-1.71875 -0.640625,0 -1.09375,0.15625 -1.5625,0.421875 l 0.0625,0.65625 C 1.34375,-3.875 1.84375,-4 2.328125,-4 c 0.46875,0 0.875,0.390625 0.875,1.125 v 0.4375 C 1.703125,-2.421875 0.4375,-2 0.4375,-1.125 c 0,0.421875 0.265625,1.234375 1.140625,1.234375 0.140625,0 1.078125,-0.015625 1.65625,-0.46875 V 0 h 0.75 z m -0.78125,1.5625 c 0,0.1875 0,0.4375 -0.34375,0.625 C 2.578125,-0.515625 2.1875,-0.5 2.078125,-0.5 1.609375,-0.5 1.15625,-0.734375 1.15625,-1.140625 c 0,-0.703125 1.609375,-0.765625 2.046875,-0.796875 z m 0,0"
             style="stroke:none;stroke-width:0"
             inkscape:connector-curvature="0" />
          <path
             id="path7078"
             transform="translate(156.9454,403.667)"
             d="M 3.421875,-4.28125 C 2.90625,-4.515625 2.5,-4.59375 1.984375,-4.59375 c -0.25,0 -1.65625,0 -1.65625,1.296875 0,0.5 0.296875,0.8125 0.546875,1 0.296875,0.21875 0.515625,0.265625 1.0625,0.375 0.359375,0.0625 0.9375,0.1875 0.9375,0.71875 0,0.6875 -0.78125,0.6875 -0.9375,0.6875 -0.796875,0 -1.359375,-0.375 -1.53125,-0.484375 l -0.125,0.671875 c 0.3125,0.15625 0.859375,0.4375 1.671875,0.4375 0.1875,0 0.734375,0 1.15625,-0.3125 0.3125,-0.25 0.484375,-0.640625 0.484375,-1.078125 0,-0.546875 -0.375,-0.875 -0.390625,-0.90625 C 2.8125,-2.546875 2.546875,-2.609375 2.046875,-2.6875 1.5,-2.796875 1.03125,-2.90625 1.03125,-3.390625 1.03125,-4 1.75,-4 1.890625,-4 c 0.3125,0 0.84375,0.03125 1.40625,0.375 z m 0,0"
             style="stroke:none;stroke-width:0"
             inkscape:connector-curvature="0" />
          <path
             id="path7080"
             transform="translate(160.76407,403.667)"
             d="M 1.75,-3.84375 H 3.15625 V -4.421875 H 1.75 V -5.6875 H 1.0625 v 1.265625 h -0.875 v 0.578125 h 0.84375 v 2.65625 c 0,0.59375 0.140625,1.296875 0.828125,1.296875 0.6875,0 1.203125,-0.25 1.453125,-0.375 L 3.15625,-0.859375 C 2.890625,-0.640625 2.578125,-0.53125 2.25,-0.53125 c -0.359375,0 -0.5,-0.296875 -0.5,-0.828125 z m 0,0"
             style="stroke:none;stroke-width:0"
             inkscape:connector-curvature="0" />
        </g>
        <g
           id="g7088"
           style="fill:#000000;fill-opacity:1">
          <path
             id="path7084"
             transform="translate(204.22193,403.667)"
             d="M 0.96875,-6.921875 V 0 h 2.625 c 1.4375,0 2.484375,-0.890625 2.484375,-1.875 0,-0.859375 -0.859375,-1.578125 -1.921875,-1.75 0.90625,-0.21875 1.65625,-0.796875 1.65625,-1.5625 0,-0.90625 -1.0625,-1.734375 -2.484375,-1.734375 z m 0.828125,3.03125 v -2.46875 h 1.25 c 1.109375,0 1.984375,0.53125 1.984375,1.1875 0,0.59375 -0.703125,1.28125 -2.078125,1.28125 z m 0,3.328125 v -2.734375 h 1.4375 c 1.0625,0 2.046875,0.609375 2.046875,1.40625 0,0.75 -0.890625,1.328125 -1.96875,1.328125 z m 0,0"
             style="stroke:none;stroke-width:0"
             inkscape:connector-curvature="0" />
          <path
             id="path7086"
             transform="translate(210.86399,403.667)"
             d="M 1.734375,-1.875 0.5,-0.640625 V 0 h 3.96875 v -0.703125 h -1.8125 c -0.109375,0 -0.234375,0 -0.359375,0 H 1.21875 c 0.3125,-0.28125 1.078125,-1.015625 1.390625,-1.3125 0.1875,-0.171875 0.6875,-0.59375 0.875,-0.78125 0.453125,-0.4375 0.984375,-0.96875 0.984375,-1.8125 0,-1.15625 -0.796875,-2.15625 -2.109375,-2.15625 -1.140625,0 -1.703125,0.78125 -1.9375,1.640625 0.109375,0.171875 0.171875,0.234375 0.1875,0.265625 0.015625,0.015625 0.125,0.140625 0.21875,0.28125 C 1.03125,-5.34375 1.3125,-6.125 2.21875,-6.125 c 0.9375,0 1.4375,0.75 1.4375,1.53125 0,0.84375 -0.5625,1.40625 -1.15625,2.015625 z m 0,0"
             style="stroke:none;stroke-width:0"
             inkscape:connector-curvature="0" />
        </g>
        <g
           id="g7100"
           style="fill:#000000;fill-opacity:1">
          <path
             id="path7090"
             transform="translate(144.7,415.622)"
             d="M 3.421875,-4.28125 C 2.90625,-4.515625 2.5,-4.59375 1.984375,-4.59375 c -0.25,0 -1.65625,0 -1.65625,1.296875 0,0.5 0.296875,0.8125 0.546875,1 0.296875,0.21875 0.515625,0.265625 1.0625,0.375 0.359375,0.0625 0.9375,0.1875 0.9375,0.71875 0,0.6875 -0.78125,0.6875 -0.9375,0.6875 -0.796875,0 -1.359375,-0.375 -1.53125,-0.484375 l -0.125,0.671875 c 0.3125,0.15625 0.859375,0.4375 1.671875,0.4375 0.1875,0 0.734375,0 1.15625,-0.3125 0.3125,-0.25 0.484375,-0.640625 0.484375,-1.078125 0,-0.546875 -0.375,-0.875 -0.390625,-0.90625 C 2.8125,-2.546875 2.546875,-2.609375 2.046875,-2.6875 1.5,-2.796875 1.03125,-2.90625 1.03125,-3.390625 1.03125,-4 1.75,-4 1.890625,-4 c 0.3125,0 0.84375,0.03125 1.40625,0.375 z m 0,0"
             style="stroke:none;stroke-width:0"
             inkscape:connector-curvature="0" />
          <path
             id="path7092"
             transform="translate(148.51866,415.622)"
             d="m 4.671875,-2.1875 c 0,-1.34375 -1,-2.40625 -2.171875,-2.40625 -1.234375,0 -2.203125,1.09375 -2.203125,2.40625 0,1.3125 1.015625,2.296875 2.1875,2.296875 1.1875,0 2.1875,-1 2.1875,-2.296875 z m -2.1875,1.65625 c -0.6875,0 -1.40625,-0.5625 -1.40625,-1.765625 0,-1.203125 0.75,-1.6875 1.40625,-1.6875 0.703125,0 1.40625,0.515625 1.40625,1.6875 0,1.1875 -0.671875,1.765625 -1.40625,1.765625 z m 0,0"
             style="stroke:none;stroke-width:0"
             inkscape:connector-curvature="0" />
          <path
             id="path7094"
             transform="translate(153.49996,415.622)"
             d="M 4.34375,-4.421875 H 3.5625 v 2.890625 c 0,0.75 -0.5625,1.09375 -1.203125,1.09375 -0.703125,0 -0.78125,-0.265625 -0.78125,-0.6875 V -4.421875 H 0.8125 v 3.328125 c 0,0.71875 0.21875,1.203125 1.046875,1.203125 0.53125,0 1.234375,-0.15625 1.734375,-0.59375 V 0 h 0.75 z m 0,0"
             style="stroke:none;stroke-width:0"
             inkscape:connector-curvature="0" />
          <path
             id="path7096"
             transform="translate(158.64764,415.622)"
             d="M 1.75,-3.84375 H 3.15625 V -4.421875 H 1.75 V -5.6875 H 1.0625 v 1.265625 h -0.875 v 0.578125 h 0.84375 v 2.65625 c 0,0.59375 0.140625,1.296875 0.828125,1.296875 0.6875,0 1.203125,-0.25 1.453125,-0.375 L 3.15625,-0.859375 C 2.890625,-0.640625 2.578125,-0.53125 2.25,-0.53125 c -0.359375,0 -0.5,-0.296875 -0.5,-0.828125 z m 0,0"
             style="stroke:none;stroke-width:0"
             inkscape:connector-curvature="0" />
          <path
             id="path7098"
             transform="translate(162.24513,415.622)"
             d="m 4.34375,-2.96875 c 0,-0.65625 -0.15625,-1.5625 -1.375,-1.5625 -0.609375,0 -1.09375,0.296875 -1.40625,0.71875 v -3.109375 h -0.75 V 0 h 0.765625 v -2.4375 c 0,-0.65625 0.25,-1.484375 1.015625,-1.484375 0.953125,0 0.96875,0.703125 0.96875,1.015625 V 0 h 0.78125 z m 0,0"
             style="stroke:none;stroke-width:0"
             inkscape:connector-curvature="0" />
        </g>
        <g
           id="g7106"
           style="fill:#000000;fill-opacity:1">
          <path
             id="path7102"
             transform="translate(204.22454,415.622)"
             d="M 3.765625,-6.921875 H 2.875 L 0.28125,0 H 1.015625 L 1.78125,-2.03125 H 4.6875 L 5.4375,0 H 6.359375 Z M 4.46875,-2.59375 H 2 l 0.640625,-1.796875 c 0.203125,-0.59375 0.515625,-1.4375 0.59375,-1.8125 0.03125,0.140625 0.09375,0.390625 0.328125,1.046875 z m 0,0"
             style="stroke:none;stroke-width:0"
             inkscape:connector-curvature="0" />
          <path
             id="path7104"
             transform="translate(210.86661,415.622)"
             d="M 1.734375,-1.875 0.5,-0.640625 V 0 h 3.96875 v -0.703125 h -1.8125 c -0.109375,0 -0.234375,0 -0.359375,0 H 1.21875 c 0.3125,-0.28125 1.078125,-1.015625 1.390625,-1.3125 0.1875,-0.171875 0.6875,-0.59375 0.875,-0.78125 0.453125,-0.4375 0.984375,-0.96875 0.984375,-1.8125 0,-1.15625 -0.796875,-2.15625 -2.109375,-2.15625 -1.140625,0 -1.703125,0.78125 -1.9375,1.640625 0.109375,0.171875 0.171875,0.234375 0.1875,0.265625 0.015625,0.015625 0.125,0.140625 0.21875,0.28125 C 1.03125,-5.34375 1.3125,-6.125 2.21875,-6.125 c 0.9375,0 1.4375,0.75 1.4375,1.53125 0,0.84375 -0.5625,1.40625 -1.15625,2.015625 z m 0,0"
             style="stroke:none;stroke-width:0"
             inkscape:connector-curvature="0" />
        </g>
        <g
           id="g7110"
           style="fill:#000000;fill-opacity:1">
          <path
             id="path7108"
             transform="translate(146.858,427.577)"
             d="M 6.65625,-4.421875 H 5.9375 L 5.296875,-2.3125 C 5.1875,-1.953125 4.890625,-0.96875 4.828125,-0.53125 4.78125,-0.84375 4.53125,-1.734375 4.359375,-2.296875 l -0.640625,-2.125 H 3.015625 l -0.5625,1.875 C 2.34375,-2.203125 2,-1.0625 1.96875,-0.546875 H 1.953125 C 1.90625,-1.03125 1.578125,-2.15625 1.421875,-2.703125 l -0.53125,-1.71875 h -0.75 L 1.5,0 H 2.296875 C 2.34375,-0.15625 2.6875,-1.28125 2.90625,-2.046875 3.046875,-2.515625 3.328125,-3.5 3.359375,-3.875 H 3.375 c 0.015625,0.28125 0.1875,0.96875 0.3125,1.40625 L 4.421875,0 h 0.875 z m 0,0"
             style="stroke:none;stroke-width:0"
             inkscape:connector-curvature="0" />
        </g>
        <g
           id="g7118"
           style="fill:#000000;fill-opacity:1">
          <path
             id="path7112"
             transform="translate(153.38649,427.577)"
             d="M 4.125,-2.1875 C 4.125,-2.515625 4.109375,-3.265625 3.734375,-3.875 3.3125,-4.484375 2.71875,-4.59375 2.359375,-4.59375 1.25,-4.59375 0.34375,-3.53125 0.34375,-2.25 c 0,1.3125 0.96875,2.359375 2.15625,2.359375 0.625,0 1.203125,-0.234375 1.59375,-0.515625 L 4.03125,-1.0625 C 3.40625,-0.53125 2.734375,-0.5 2.515625,-0.5 1.71875,-0.5 1.078125,-1.203125 1.046875,-2.1875 Z M 1.09375,-2.734375 c 0.15625,-0.75 0.6875,-1.25 1.265625,-1.25 0.515625,0 1.0625,0.328125 1.203125,1.25 z m 0,0"
             style="stroke:none;stroke-width:0"
             inkscape:connector-curvature="0" />
          <path
             id="path7114"
             transform="translate(157.81387,427.577)"
             d="M 3.421875,-4.28125 C 2.90625,-4.515625 2.5,-4.59375 1.984375,-4.59375 c -0.25,0 -1.65625,0 -1.65625,1.296875 0,0.5 0.296875,0.8125 0.546875,1 0.296875,0.21875 0.515625,0.265625 1.0625,0.375 0.359375,0.0625 0.9375,0.1875 0.9375,0.71875 0,0.6875 -0.78125,0.6875 -0.9375,0.6875 -0.796875,0 -1.359375,-0.375 -1.53125,-0.484375 l -0.125,0.671875 c 0.3125,0.15625 0.859375,0.4375 1.671875,0.4375 0.1875,0 0.734375,0 1.15625,-0.3125 0.3125,-0.25 0.484375,-0.640625 0.484375,-1.078125 0,-0.546875 -0.375,-0.875 -0.390625,-0.90625 C 2.8125,-2.546875 2.546875,-2.609375 2.046875,-2.6875 1.5,-2.796875 1.03125,-2.90625 1.03125,-3.390625 1.03125,-4 1.75,-4 1.890625,-4 c 0.3125,0 0.84375,0.03125 1.40625,0.375 z m 0,0"
             style="stroke:none;stroke-width:0"
             inkscape:connector-curvature="0" />
          <path
             id="path7116"
             transform="translate(161.63254,427.577)"
             d="M 1.75,-3.84375 H 3.15625 V -4.421875 H 1.75 V -5.6875 H 1.0625 v 1.265625 h -0.875 v 0.578125 h 0.84375 v 2.65625 c 0,0.59375 0.140625,1.296875 0.828125,1.296875 0.6875,0 1.203125,-0.25 1.453125,-0.375 L 3.15625,-0.859375 C 2.890625,-0.640625 2.578125,-0.53125 2.25,-0.53125 c -0.359375,0 -0.5,-0.296875 -0.5,-0.828125 z m 0,0"
             style="stroke:none;stroke-width:0"
             inkscape:connector-curvature="0" />
        </g>
        <g
           id="g7124"
           style="fill:#000000;fill-opacity:1">
          <path
             id="path7120"
             transform="translate(204.22365,427.577)"
             d="M 0.96875,-6.921875 V 0 h 2.625 c 1.4375,0 2.484375,-0.890625 2.484375,-1.875 0,-0.859375 -0.859375,-1.578125 -1.921875,-1.75 0.90625,-0.21875 1.65625,-0.796875 1.65625,-1.5625 0,-0.90625 -1.0625,-1.734375 -2.484375,-1.734375 z m 0.828125,3.03125 v -2.46875 h 1.25 c 1.109375,0 1.984375,0.53125 1.984375,1.1875 0,0.59375 -0.703125,1.28125 -2.078125,1.28125 z m 0,3.328125 v -2.734375 h 1.4375 c 1.0625,0 2.046875,0.609375 2.046875,1.40625 0,0.75 -0.890625,1.328125 -1.96875,1.328125 z m 0,0"
             style="stroke:none;stroke-width:0"
             inkscape:connector-curvature="0" />
          <path
             id="path7122"
             transform="translate(210.86571,427.577)"
             d="M 2.984375,-6.765625 H 2.78125 C 2.1875,-6.15625 1.359375,-6.125 0.890625,-6.09375 v 0.578125 C 1.21875,-5.53125 1.6875,-5.546875 2.1875,-5.765625 v 5.1875 H 0.953125 V 0 h 3.28125 v -0.578125 h -1.25 z m 0,0"
             style="stroke:none;stroke-width:0"
             inkscape:connector-curvature="0" />
        </g>
      </g>
    </g>
    <g
       id="g8011"
       ns1:jacobian_sqrt="0.352778"
       inkscapeversion="0.92.3"
       ns1:alignment="middle center"
       ns1:scale="1.00000000696"
       ns1:preamble="/home/xmrazek7/.config/inkscape/extensions/default_packages.tex"
       ns1:text="\\begin{table}[]\n\\begin{tabular}{@{}ccc@{}}\n\n\\textsf{pin} &amp; \\textsf{function}            &amp; \\textsf{pad} \\\\ \\midrule\n             &amp; \\textsf{48 V}                &amp;              \\\\\n             &amp; \\textsf{GND}                 &amp;              \\\\\n             &amp; \\textsf{TX $\\rightarrow$ RX} &amp;              \\\\\n             &amp; \\textsf{RX $\\leftarrow$ TX} &amp;              \\\\\n             &amp; \\textsf{sense}               &amp;              \\\\\n\\end{tabular}\n\\end{table}"
       ns1:pdfconverter="pdf2svg"
       ns1:texconverter="pdflatex"
       ns1:version="0.8.1"
       transform="matrix(0.352778,0,0,0.352778,2.238581,133.64186)">
      <g
         id="g8009">
        <g
           id="g7917"
           style="fill:#000000;fill-opacity:1">
          <path
             id="path7911"
             transform="translate(133.768,368.777)"
             d="m 1.59375,-0.453125 c 0.3125,0.28125 0.75,0.5625 1.34375,0.5625 0.96875,0 1.84375,-0.984375 1.84375,-2.328125 0,-1.203125 -0.625,-2.3125 -1.578125,-2.3125 -0.59375,0 -1.171875,0.203125 -1.640625,0.59375 v -0.484375 h -0.75 V 1.9375 h 0.78125 z m 0,-2.859375 c 0.234375,-0.359375 0.625,-0.578125 1.0625,-0.578125 0.75,0 1.34375,0.75 1.34375,1.671875 C 4,-1.203125 3.296875,-0.5 2.546875,-0.5 2.15625,-0.5 1.890625,-0.703125 1.6875,-0.96875 1.59375,-1.109375 1.59375,-1.140625 1.59375,-1.3125 Z m 0,0"
             style="stroke:none;stroke-width:0"
             inkscape:connector-curvature="0" />
          <path
             id="path7913"
             transform="translate(138.91567,368.777)"
             d="M 1.625,-6.78125 H 0.734375 v 0.890625 H 1.625 Z m -0.0625,2.359375 h -0.75 V 0 h 0.75 z m 0,0"
             style="stroke:none;stroke-width:0"
             inkscape:connector-curvature="0" />
          <path
             id="path7915"
             transform="translate(141.29574,368.777)"
             d="m 4.34375,-2.96875 c 0,-0.65625 -0.15625,-1.5625 -1.375,-1.5625 -0.890625,0 -1.390625,0.671875 -1.4375,0.75 V -4.484375 H 0.8125 V 0 h 0.765625 v -2.4375 c 0,-0.65625 0.25,-1.484375 1.015625,-1.484375 0.953125,0 0.96875,0.703125 0.96875,1.015625 V 0 h 0.78125 z m 0,0"
             style="stroke:none;stroke-width:0"
             inkscape:connector-curvature="0" />
        </g>
        <g
           id="g7935"
           style="fill:#000000;fill-opacity:1">
          <path
             id="path7919"
             transform="translate(163.01122,368.777)"
             d="m 1.75,-3.84375 h 1.09375 v -0.578125 h -1.125 v -1.1875 c 0,-0.734375 0.671875,-0.8125 0.9375,-0.8125 0.1875,0 0.46875,0.015625 0.796875,0.171875 V -6.921875 C 3.34375,-6.953125 3.03125,-7.03125 2.65625,-7.03125 1.71875,-7.03125 1,-6.3125 1,-5.328125 v 0.90625 H 0.265625 V -3.84375 H 1 V 0 h 0.75 z m 0,0"
             style="stroke:none;stroke-width:0"
             inkscape:connector-curvature="0" />
          <path
             id="path7921"
             transform="translate(166.05579,368.777)"
             d="M 4.34375,-4.421875 H 3.5625 v 2.890625 c 0,0.75 -0.5625,1.09375 -1.203125,1.09375 -0.703125,0 -0.78125,-0.265625 -0.78125,-0.6875 V -4.421875 H 0.8125 v 3.328125 c 0,0.71875 0.21875,1.203125 1.046875,1.203125 0.53125,0 1.234375,-0.15625 1.734375,-0.59375 V 0 h 0.75 z m 0,0"
             style="stroke:none;stroke-width:0"
             inkscape:connector-curvature="0" />
          <path
             id="path7923"
             transform="translate(171.20347,368.777)"
             d="m 4.34375,-2.96875 c 0,-0.65625 -0.15625,-1.5625 -1.375,-1.5625 -0.890625,0 -1.390625,0.671875 -1.4375,0.75 V -4.484375 H 0.8125 V 0 h 0.765625 v -2.4375 c 0,-0.65625 0.25,-1.484375 1.015625,-1.484375 0.953125,0 0.96875,0.703125 0.96875,1.015625 V 0 h 0.78125 z m 0,0"
             style="stroke:none;stroke-width:0"
             inkscape:connector-curvature="0" />
          <path
             id="path7925"
             transform="translate(176.35114,368.777)"
             d="M 4.09375,-4.171875 C 3.5,-4.5 3.15625,-4.59375 2.546875,-4.59375 c -1.375,0 -2.1875,1.203125 -2.1875,2.375 0,1.234375 0.90625,2.328125 2.15625,2.328125 0.53125,0 1.078125,-0.140625 1.625,-0.515625 l -0.0625,-0.65625 c -0.515625,0.390625 -1.046875,0.53125 -1.5625,0.53125 -0.828125,0 -1.375,-0.71875 -1.375,-1.6875 C 1.140625,-3 1.5,-3.953125 2.5625,-3.953125 c 0.515625,0 0.859375,0.078125 1.40625,0.4375 z m 0,0"
             style="stroke:none;stroke-width:0"
             inkscape:connector-curvature="0" />
          <path
             id="path7927"
             transform="translate(180.77852,368.777)"
             d="M 1.75,-3.84375 H 3.15625 V -4.421875 H 1.75 V -5.6875 H 1.0625 v 1.265625 h -0.875 v 0.578125 h 0.84375 v 2.65625 c 0,0.59375 0.140625,1.296875 0.828125,1.296875 0.6875,0 1.203125,-0.25 1.453125,-0.375 L 3.15625,-0.859375 C 2.890625,-0.640625 2.578125,-0.53125 2.25,-0.53125 c -0.359375,0 -0.5,-0.296875 -0.5,-0.828125 z m 0,0"
             style="stroke:none;stroke-width:0"
             inkscape:connector-curvature="0" />
          <path
             id="path7929"
             transform="translate(184.37601,368.777)"
             d="M 1.625,-6.78125 H 0.734375 v 0.890625 H 1.625 Z m -0.0625,2.359375 h -0.75 V 0 h 0.75 z m 0,0"
             style="stroke:none;stroke-width:0"
             inkscape:connector-curvature="0" />
          <path
             id="path7931"
             transform="translate(186.75608,368.777)"
             d="m 4.671875,-2.1875 c 0,-1.34375 -1,-2.40625 -2.171875,-2.40625 -1.234375,0 -2.203125,1.09375 -2.203125,2.40625 0,1.3125 1.015625,2.296875 2.1875,2.296875 1.1875,0 2.1875,-1 2.1875,-2.296875 z m -2.1875,1.65625 c -0.6875,0 -1.40625,-0.5625 -1.40625,-1.765625 0,-1.203125 0.75,-1.6875 1.40625,-1.6875 0.703125,0 1.40625,0.515625 1.40625,1.6875 0,1.1875 -0.671875,1.765625 -1.40625,1.765625 z m 0,0"
             style="stroke:none;stroke-width:0"
             inkscape:connector-curvature="0" />
          <path
             id="path7933"
             transform="translate(191.73738,368.777)"
             d="m 4.34375,-2.96875 c 0,-0.65625 -0.15625,-1.5625 -1.375,-1.5625 -0.890625,0 -1.390625,0.671875 -1.4375,0.75 V -4.484375 H 0.8125 V 0 h 0.765625 v -2.4375 c 0,-0.65625 0.25,-1.484375 1.015625,-1.484375 0.953125,0 0.96875,0.703125 0.96875,1.015625 V 0 h 0.78125 z m 0,0"
             style="stroke:none;stroke-width:0"
             inkscape:connector-curvature="0" />
        </g>
        <g
           id="g7943"
           style="fill:#000000;fill-opacity:1">
          <path
             id="path7937"
             transform="translate(213.45286,368.777)"
             d="m 1.59375,-0.453125 c 0.3125,0.28125 0.75,0.5625 1.34375,0.5625 0.96875,0 1.84375,-0.984375 1.84375,-2.328125 0,-1.203125 -0.625,-2.3125 -1.578125,-2.3125 -0.59375,0 -1.171875,0.203125 -1.640625,0.59375 v -0.484375 h -0.75 V 1.9375 h 0.78125 z m 0,-2.859375 c 0.234375,-0.359375 0.625,-0.578125 1.0625,-0.578125 0.75,0 1.34375,0.75 1.34375,1.671875 C 4,-1.203125 3.296875,-0.5 2.546875,-0.5 2.15625,-0.5 1.890625,-0.703125 1.6875,-0.96875 1.59375,-1.109375 1.59375,-1.140625 1.59375,-1.3125 Z m 0,0"
             style="stroke:none;stroke-width:0"
             inkscape:connector-curvature="0" />
          <path
             id="path7939"
             transform="translate(218.60053,368.777)"
             d="m 3.984375,-2.875 c 0,-1.015625 -0.734375,-1.71875 -1.65625,-1.71875 -0.640625,0 -1.09375,0.15625 -1.5625,0.421875 l 0.0625,0.65625 C 1.34375,-3.875 1.84375,-4 2.328125,-4 c 0.46875,0 0.875,0.390625 0.875,1.125 v 0.4375 C 1.703125,-2.421875 0.4375,-2 0.4375,-1.125 c 0,0.421875 0.265625,1.234375 1.140625,1.234375 0.140625,0 1.078125,-0.015625 1.65625,-0.46875 V 0 h 0.75 z m -0.78125,1.5625 c 0,0.1875 0,0.4375 -0.34375,0.625 C 2.578125,-0.515625 2.1875,-0.5 2.078125,-0.5 1.609375,-0.5 1.15625,-0.734375 1.15625,-1.140625 c 0,-0.703125 1.609375,-0.765625 2.046875,-0.796875 z m 0,0"
             style="stroke:none;stroke-width:0"
             inkscape:connector-curvature="0" />
          <path
             id="path7941"
             transform="translate(223.38856,368.777)"
             d="m 4.328125,-6.921875 h -0.75 v 2.9375 C 3.046875,-4.421875 2.5,-4.53125 2.125,-4.53125 c -0.984375,0 -1.765625,1.03125 -1.765625,2.3125 0,1.3125 0.765625,2.328125 1.71875,2.328125 0.328125,0 0.90625,-0.09375 1.46875,-0.625 V 0 h 0.78125 z m -0.78125,5.53125 C 3.546875,-1.25 3.53125,-1.0625 3.21875,-0.78125 2.984375,-0.578125 2.734375,-0.5 2.484375,-0.5 c -0.625,0 -1.34375,-0.46875 -1.34375,-1.703125 0,-1.3125 0.859375,-1.71875 1.4375,-1.71875 0.453125,0 0.75,0.21875 0.96875,0.546875 z m 0,0"
             style="stroke:none;stroke-width:0"
             inkscape:connector-curvature="0" />
        </g>
        <path
           id="path7945"
           transform="matrix(1,0,0,-1,133.768,374.328)"
           d="M 0.00153125,-1.25e-4 H 94.771062"
           style="fill:none;stroke:#000000;stroke-width:0.498;stroke-linecap:butt;stroke-linejoin:miter;stroke-miterlimit:10;stroke-opacity:1"
           inkscape:connector-curvature="0" />
        <g
           id="g7951"
           style="fill:#000000;fill-opacity:1">
          <path
             id="path7947"
             transform="translate(169.918,385.734)"
             d="M 3.703125,-1.703125 H 4.6875 V -2.3125 H 3.703125 V -6.546875 H 2.796875 L 0.28125,-2.3125 v 0.609375 H 2.921875 V 0 h 0.78125 z M 1.0625,-2.3125 c 0.515625,-0.859375 1.921875,-3.21875 1.921875,-3.78125 v 3.78125 z m 0,0"
             style="stroke:none;stroke-width:0"
             inkscape:connector-curvature="0" />
          <path
             id="path7949"
             transform="translate(174.8993,385.734)"
             d="m 3.1875,-3.53125 c 0.890625,-0.296875 1.234375,-0.953125 1.234375,-1.484375 0,-0.9375 -0.859375,-1.75 -1.921875,-1.75 -1.125,0 -1.9375,0.828125 -1.9375,1.75 0,0.53125 0.328125,1.1875 1.21875,1.484375 -0.71875,0.234375 -1.359375,0.875 -1.359375,1.734375 0,1.09375 0.90625,2.015625 2.0625,2.015625 1.1875,0 2.078125,-0.953125 2.078125,-2.015625 0,-0.90625 -0.703125,-1.515625 -1.375,-1.734375 z M 2.5,-3.84375 c -0.78125,0 -1.25,-0.484375 -1.25,-1.171875 0,-0.6875 0.5,-1.171875 1.234375,-1.171875 0.78125,0 1.234375,0.53125 1.234375,1.171875 0,0.71875 -0.515625,1.171875 -1.21875,1.171875 z m 0,3.453125 c -0.703125,0 -1.28125,-0.484375 -1.28125,-1.40625 0,-1.046875 0.71875,-1.4375 1.265625,-1.4375 0.578125,0 1.265625,0.40625 1.265625,1.4375 0,0.953125 -0.625,1.40625 -1.25,1.40625 z m 0,0"
             style="stroke:none;stroke-width:0"
             inkscape:connector-curvature="0" />
        </g>
        <g
           id="g7955"
           style="fill:#000000;fill-opacity:1">
          <path
             id="path7953"
             transform="translate(183.19815,385.734)"
             d="M 6.5,-6.921875 H 5.71875 l -1.328125,3.40625 C 4.234375,-3.09375 3.484375,-1.171875 3.40625,-0.71875 H 3.390625 C 3.3125,-1.109375 2.875,-2.21875 2.796875,-2.453125 L 1.0625,-6.921875 H 0.140625 L 2.859375,0 H 3.78125 Z m 0,0"
             style="stroke:none;stroke-width:0"
             inkscape:connector-curvature="0" />
        </g>
        <g
           id="g7963"
           style="fill:#000000;fill-opacity:1">
          <path
             id="path7957"
             transform="translate(169.502,397.689)"
             d="M 5.984375,-2.984375 H 3.875 v 0.625 h 1.3125 v 1.625 c -0.390625,0.140625 -0.875,0.203125 -1.296875,0.203125 -1.3125,0 -2.328125,-1.328125 -2.328125,-2.9375 0,-1.5625 0.984375,-2.921875 2.3125,-2.921875 0.796875,0 1.375,0.234375 1.875,0.65625 l 0.140625,-0.8125 c -0.5625,-0.34375 -1.328125,-0.484375 -2,-0.484375 -1.921875,0 -3.234375,1.734375 -3.234375,3.5625 0,1.8125 1.328125,3.578125 3.234375,3.578125 0.75,0 1.421875,-0.203125 2.09375,-0.484375 z m 0,0"
             style="stroke:none;stroke-width:0"
             inkscape:connector-curvature="0" />
          <path
             id="path7959"
             transform="translate(176.14406,397.689)"
             d="M 2.1875,-6.921875 H 0.953125 V 0 h 0.78125 V -6.203125 H 1.75 c 0.1875,0.40625 0.609375,1.25 0.65625,1.359375 L 4.859375,0 H 6.09375 V -6.921875 H 5.3125 v 6.21875 H 5.296875 c -0.1875,-0.40625 -0.609375,-1.265625 -0.65625,-1.375 z m 0,0"
             style="stroke:none;stroke-width:0"
             inkscape:connector-curvature="0" />
          <path
             id="path7961"
             transform="translate(183.20057,397.689)"
             d="M 0.953125,-6.921875 V 0 h 2.625 C 5.28125,0 6.625,-1.515625 6.625,-3.40625 6.625,-5.328125 5.28125,-6.921875 3.5625,-6.921875 Z M 1.8125,-0.5625 v -5.796875 h 1.53125 c 1.390625,0 2.421875,1.203125 2.421875,2.953125 0,1.703125 -1.03125,2.84375 -2.421875,2.84375 z m 0,0"
             style="stroke:none;stroke-width:0"
             inkscape:connector-curvature="0" />
        </g>
        <g
           id="g7969"
           style="fill:#000000;fill-opacity:1">
          <path
             id="path7965"
             transform="translate(158.398,409.644)"
             d="m 3.84375,-6.21875 h 0.875 c 0.125,0 0.25,0.015625 0.359375,0.015625 h 1.34375 v -0.65625 h -6.0625 v 0.65625 H 1.6875 c 0.125,0 0.25,-0.015625 0.359375,-0.015625 h 0.90625 V 0 H 3.84375 Z m 0,0"
             style="stroke:none;stroke-width:0"
             inkscape:connector-curvature="0" />
          <path
             id="path7967"
             transform="translate(165.17855,409.644)"
             d="m 3.671875,-3.65625 2.40625,-3.265625 H 5.125 L 3.25,-4.3125 1.3125,-6.921875 H 0.28125 L 2.828125,-3.65625 0.140625,0 H 1.09375 L 3.25,-3.046875 5.46875,0 H 6.5 Z m 0,0"
             style="stroke:none;stroke-width:0"
             inkscape:connector-curvature="0" />
        </g>
        <g
           id="g7973"
           style="fill:#000000;fill-opacity:1">
          <path
             id="path7971"
             transform="translate(175.141,409.644)"
             d="M 8.3125,-2.296875 C 7.765625,-1.875 7.5,-1.46875 7.421875,-1.328125 c -0.453125,0.6875 -0.53125,1.3125 -0.53125,1.3125 0,0.125 0.125,0.125 0.203125,0.125 C 7.25,0.109375 7.265625,0.09375 7.3125,-0.09375 7.53125,-1.0625 8.125,-1.90625 9.25,-2.359375 9.375,-2.40625 9.40625,-2.421875 9.40625,-2.5 c 0,-0.0625 -0.0625,-0.09375 -0.078125,-0.109375 C 8.875,-2.765625 7.671875,-3.265625 7.296875,-4.9375 7.265625,-5.0625 7.25,-5.09375 7.09375,-5.09375 c -0.078125,0 -0.203125,0 -0.203125,0.125 0,0.015625 0.09375,0.640625 0.5,1.3125 0.203125,0.296875 0.5,0.640625 0.921875,0.96875 H 0.90625 c -0.171875,0 -0.359375,0 -0.359375,0.1875 0,0.203125 0.1875,0.203125 0.359375,0.203125 z m 0,0"
             style="stroke:none;stroke-width:0"
             inkscape:connector-curvature="0" />
        </g>
        <g
           id="g7979"
           style="fill:#000000;fill-opacity:1">
          <path
             id="path7975"
             transform="translate(188.425,409.644)"
             d="M 4.171875,-3.25 C 5.203125,-3.546875 5.875,-4.25 5.875,-5.0625 5.875,-6.046875 4.78125,-6.921875 3.359375,-6.921875 H 0.953125 V 0 H 1.8125 V -3.15625 H 3.390625 L 5.265625,0 H 6.15625 Z M 1.8125,-3.765625 v -2.59375 H 3.25 c 1.15625,0 1.8125,0.59375 1.8125,1.296875 0,0.703125 -0.640625,1.296875 -1.8125,1.296875 z m 0,0"
             style="stroke:none;stroke-width:0"
             inkscape:connector-curvature="0" />
          <path
             id="path7977"
             transform="translate(194.85885,409.644)"
             d="m 3.671875,-3.65625 2.40625,-3.265625 H 5.125 L 3.25,-4.3125 1.3125,-6.921875 H 0.28125 L 2.828125,-3.65625 0.140625,0 H 1.09375 L 3.25,-3.046875 5.46875,0 H 6.5 Z m 0,0"
             style="stroke:none;stroke-width:0"
             inkscape:connector-curvature="0" />
        </g>
        <g
           id="g7985"
           style="fill:#000000;fill-opacity:1">
          <path
             id="path7981"
             transform="translate(158.398,421.599)"
             d="M 4.171875,-3.25 C 5.203125,-3.546875 5.875,-4.25 5.875,-5.0625 5.875,-6.046875 4.78125,-6.921875 3.359375,-6.921875 H 0.953125 V 0 H 1.8125 V -3.15625 H 3.390625 L 5.265625,0 H 6.15625 Z M 1.8125,-3.765625 v -2.59375 H 3.25 c 1.15625,0 1.8125,0.59375 1.8125,1.296875 0,0.703125 -0.640625,1.296875 -1.8125,1.296875 z m 0,0"
             style="stroke:none;stroke-width:0"
             inkscape:connector-curvature="0" />
          <path
             id="path7983"
             transform="translate(164.83185,421.599)"
             d="m 3.671875,-3.65625 2.40625,-3.265625 H 5.125 L 3.25,-4.3125 1.3125,-6.921875 H 0.28125 L 2.828125,-3.65625 0.140625,0 H 1.09375 L 3.25,-3.046875 5.46875,0 H 6.5 Z m 0,0"
             style="stroke:none;stroke-width:0"
             inkscape:connector-curvature="0" />
        </g>
        <g
           id="g7989"
           style="fill:#000000;fill-opacity:1">
          <path
             id="path7987"
             transform="translate(174.795,421.599)"
             d="m 9.046875,-2.296875 c 0.1875,0 0.359375,0 0.359375,-0.203125 0,-0.1875 -0.171875,-0.1875 -0.359375,-0.1875 h -7.40625 c 0.546875,-0.421875 0.828125,-0.828125 0.90625,-0.96875 0.4375,-0.6875 0.53125,-1.3125 0.53125,-1.3125 0,-0.125 -0.125,-0.125 -0.203125,-0.125 -0.171875,0 -0.1875,0.015625 -0.21875,0.203125 C 2.421875,-3.921875 1.828125,-3.09375 0.703125,-2.625 0.59375,-2.578125 0.5625,-2.5625 0.5625,-2.5 c 0,0.078125 0.046875,0.09375 0.140625,0.140625 1.046875,0.421875 1.703125,1.203125 1.953125,2.3125 0.03125,0.125 0.046875,0.15625 0.21875,0.15625 0.078125,0 0.203125,0 0.203125,-0.125 0,-0.015625 -0.09375,-0.640625 -0.515625,-1.3125 C 2.359375,-1.625 2.078125,-1.96875 1.640625,-2.296875 Z m 0,0"
             style="stroke:none;stroke-width:0"
             inkscape:connector-curvature="0" />
        </g>
        <g
           id="g7995"
           style="fill:#000000;fill-opacity:1">
          <path
             id="path7991"
             transform="translate(188.079,421.599)"
             d="m 3.84375,-6.21875 h 0.875 c 0.125,0 0.25,0.015625 0.359375,0.015625 h 1.34375 v -0.65625 h -6.0625 v 0.65625 H 1.6875 c 0.125,0 0.25,-0.015625 0.359375,-0.015625 h 0.90625 V 0 H 3.84375 Z m 0,0"
             style="stroke:none;stroke-width:0"
             inkscape:connector-curvature="0" />
          <path
             id="path7993"
             transform="translate(194.85955,421.599)"
             d="m 3.671875,-3.65625 2.40625,-3.265625 H 5.125 L 3.25,-4.3125 1.3125,-6.921875 H 0.28125 L 2.828125,-3.65625 0.140625,0 H 1.09375 L 3.25,-3.046875 5.46875,0 H 6.5 Z m 0,0"
             style="stroke:none;stroke-width:0"
             inkscape:connector-curvature="0" />
        </g>
        <g
           id="g8007"
           style="fill:#000000;fill-opacity:1">
          <path
             id="path7997"
             transform="translate(169.129,433.555)"
             d="M 3.421875,-4.28125 C 2.90625,-4.515625 2.5,-4.59375 1.984375,-4.59375 c -0.25,0 -1.65625,0 -1.65625,1.296875 0,0.5 0.296875,0.8125 0.546875,1 0.296875,0.21875 0.515625,0.265625 1.0625,0.375 0.359375,0.0625 0.9375,0.1875 0.9375,0.71875 0,0.6875 -0.78125,0.6875 -0.9375,0.6875 -0.796875,0 -1.359375,-0.375 -1.53125,-0.484375 l -0.125,0.671875 c 0.3125,0.15625 0.859375,0.4375 1.671875,0.4375 0.1875,0 0.734375,0 1.15625,-0.3125 0.3125,-0.25 0.484375,-0.640625 0.484375,-1.078125 0,-0.546875 -0.375,-0.875 -0.390625,-0.90625 C 2.8125,-2.546875 2.546875,-2.609375 2.046875,-2.6875 1.5,-2.796875 1.03125,-2.90625 1.03125,-3.390625 1.03125,-4 1.75,-4 1.890625,-4 c 0.3125,0 0.84375,0.03125 1.40625,0.375 z m 0,0"
             style="stroke:none;stroke-width:0"
             inkscape:connector-curvature="0" />
          <path
             id="path7999"
             transform="translate(172.94766,433.555)"
             d="M 4.125,-2.1875 C 4.125,-2.515625 4.109375,-3.265625 3.734375,-3.875 3.3125,-4.484375 2.71875,-4.59375 2.359375,-4.59375 1.25,-4.59375 0.34375,-3.53125 0.34375,-2.25 c 0,1.3125 0.96875,2.359375 2.15625,2.359375 0.625,0 1.203125,-0.234375 1.59375,-0.515625 L 4.03125,-1.0625 C 3.40625,-0.53125 2.734375,-0.5 2.515625,-0.5 1.71875,-0.5 1.078125,-1.203125 1.046875,-2.1875 Z M 1.09375,-2.734375 c 0.15625,-0.75 0.6875,-1.25 1.265625,-1.25 0.515625,0 1.0625,0.328125 1.203125,1.25 z m 0,0"
             style="stroke:none;stroke-width:0"
             inkscape:connector-curvature="0" />
          <path
             id="path8001"
             transform="translate(177.37504,433.555)"
             d="m 4.34375,-2.96875 c 0,-0.65625 -0.15625,-1.5625 -1.375,-1.5625 -0.890625,0 -1.390625,0.671875 -1.4375,0.75 V -4.484375 H 0.8125 V 0 h 0.765625 v -2.4375 c 0,-0.65625 0.25,-1.484375 1.015625,-1.484375 0.953125,0 0.96875,0.703125 0.96875,1.015625 V 0 h 0.78125 z m 0,0"
             style="stroke:none;stroke-width:0"
             inkscape:connector-curvature="0" />
          <path
             id="path8003"
             transform="translate(182.52272,433.555)"
             d="M 3.421875,-4.28125 C 2.90625,-4.515625 2.5,-4.59375 1.984375,-4.59375 c -0.25,0 -1.65625,0 -1.65625,1.296875 0,0.5 0.296875,0.8125 0.546875,1 0.296875,0.21875 0.515625,0.265625 1.0625,0.375 0.359375,0.0625 0.9375,0.1875 0.9375,0.71875 0,0.6875 -0.78125,0.6875 -0.9375,0.6875 -0.796875,0 -1.359375,-0.375 -1.53125,-0.484375 l -0.125,0.671875 c 0.3125,0.15625 0.859375,0.4375 1.671875,0.4375 0.1875,0 0.734375,0 1.15625,-0.3125 0.3125,-0.25 0.484375,-0.640625 0.484375,-1.078125 0,-0.546875 -0.375,-0.875 -0.390625,-0.90625 C 2.8125,-2.546875 2.546875,-2.609375 2.046875,-2.6875 1.5,-2.796875 1.03125,-2.90625 1.03125,-3.390625 1.03125,-4 1.75,-4 1.890625,-4 c 0.3125,0 0.84375,0.03125 1.40625,0.375 z m 0,0"
             style="stroke:none;stroke-width:0"
             inkscape:connector-curvature="0" />
          <path
             id="path8005"
             transform="translate(186.34138,433.555)"
             d="M 4.125,-2.1875 C 4.125,-2.515625 4.109375,-3.265625 3.734375,-3.875 3.3125,-4.484375 2.71875,-4.59375 2.359375,-4.59375 1.25,-4.59375 0.34375,-3.53125 0.34375,-2.25 c 0,1.3125 0.96875,2.359375 2.15625,2.359375 0.625,0 1.203125,-0.234375 1.59375,-0.515625 L 4.03125,-1.0625 C 3.40625,-0.53125 2.734375,-0.5 2.515625,-0.5 1.71875,-0.5 1.078125,-1.203125 1.046875,-2.1875 Z M 1.09375,-2.734375 c 0.15625,-0.75 0.6875,-1.25 1.265625,-1.25 0.515625,0 1.0625,0.328125 1.203125,1.25 z m 0,0"
             style="stroke:none;stroke-width:0"
             inkscape:connector-curvature="0" />
        </g>
      </g>
    </g>
  </g>
</svg>
