<?xml version="1.0" encoding="UTF-8" standalone="no"?>
<!-- Created with Inkscape (http://www.inkscape.org/) -->

<svg
   xmlns:dc="http://purl.org/dc/elements/1.1/"
   xmlns:cc="http://creativecommons.org/ns#"
   xmlns:rdf="http://www.w3.org/1999/02/22-rdf-syntax-ns#"
   xmlns:svg="http://www.w3.org/2000/svg"
   xmlns="http://www.w3.org/2000/svg"
   xmlns:sodipodi="http://sodipodi.sourceforge.net/DTD/sodipodi-0.dtd"
   xmlns:inkscape="http://www.inkscape.org/namespaces/inkscape"
   version="1.1"
   id="svg815"
   xml:space="preserve"
   width="178.13678mm"
   height="95.587425mm"
   viewBox="0 0 673.27284 361.27531"
   sodipodi:docname="rofi_reference.svg"
   inkscape:version="0.92.3 (2405546, 2018-03-11)"><metadata
     id="metadata821"><rdf:RDF><cc:Work
         rdf:about=""><dc:format>image/svg+xml</dc:format><dc:type
           rdf:resource="http://purl.org/dc/dcmitype/StillImage" /><dc:title></dc:title></cc:Work></rdf:RDF></metadata><defs
     id="defs819"><clipPath
       clipPathUnits="userSpaceOnUse"
       id="clipPath831"><path
         d="m 200833,174394 h 81101 v 46317 h -81101 v -46317"
         id="path829"
         inkscape:connector-curvature="0" /></clipPath><clipPath
       clipPathUnits="userSpaceOnUse"
       id="clipPath907"><path
         d="m 200833,229150 h 81101 v 41730 h -81101 v -41730"
         id="path905"
         inkscape:connector-curvature="0" /></clipPath><clipPath
       clipPathUnits="userSpaceOnUse"
       id="clipPath991"><path
         d="m 303308,191461 h 77443 v 65635 h -77443 v -65635"
         id="path989"
         inkscape:connector-curvature="0" /></clipPath><clipPath
       clipPathUnits="userSpaceOnUse"
       id="clipPath1145"><path
         d="m 141607,174394 h 41730 v 46317 h -41730 v -46317"
         id="path1143"
         inkscape:connector-curvature="0" /></clipPath><clipPath
       clipPathUnits="userSpaceOnUse"
       id="clipPath1193"><path
         d="M 0,0 H 467716 V 330708 H 0 V 0"
         id="path1191"
         inkscape:connector-curvature="0" /></clipPath><clipPath
       clipPathUnits="userSpaceOnUse"
       id="clipPath1253"><path
         d="M 0,0 H 467716 V 330708 H 0 V 0"
         id="path1251"
         inkscape:connector-curvature="0" /></clipPath><clipPath
       clipPathUnits="userSpaceOnUse"
       id="clipPath1265"><path
         d="M 0,0 H 467716 V 330708 H 0 V 0"
         id="path1263"
         inkscape:connector-curvature="0" /></clipPath></defs><sodipodi:namedview
     pagecolor="#ffffff"
     bordercolor="#666666"
     borderopacity="1"
     objecttolerance="10"
     gridtolerance="10"
     guidetolerance="10"
     inkscape:pageopacity="0"
     inkscape:pageshadow="2"
     inkscape:window-width="1916"
     inkscape:window-height="1040"
     id="namedview817"
     showgrid="false"
     inkscape:zoom="1.4142136"
     inkscape:cx="366.90925"
     inkscape:cy="201.15685"
     inkscape:window-x="0"
     inkscape:window-y="18"
     inkscape:window-maximized="0"
     inkscape:current-layer="g823"
     units="mm"
     fit-margin-top="5"
     fit-margin-right="5"
     fit-margin-bottom="5"
     fit-margin-left="5"><inkscape:grid
       type="xygrid"
       id="grid10226"
       units="cm"
       spacingx="113.38582"
       spacingy="113.38582"
       originx="-289.87398"
       originy="-389.08238" /></sodipodi:namedview><g
     id="g823"
     inkscape:groupmode="layer"
     inkscape:label="example_1 Drawing v0"
     transform="matrix(0.0024,0,0,-0.0024,-289.874,750.35769)"><path
   id="path10495"
   style="fill:none;fill-rule:evenodd;stroke:#2167ff;stroke-width:629.92125833;stroke-linecap:butt;stroke-linejoin:miter;stroke-miterlimit:4;stroke-dasharray:none;stroke-opacity:1"
   d="m 128654.85,188976.37 h 166220.46 m -166220.46,47244.09 h 166220.46 m -166220.46,47244.09 h 166220.46 m -11410.76,12244.09 V 178398.95 M 236220.46,295708.64 V 178398.95 M 188976.37,295708.64 V 178398.95 m -47244.09,117309.69 v -117309.69 0"
   inkscape:connector-curvature="0"
   sodipodi:nodetypes="ccccccccccccccc" /><g
   id="g985"
   transform="matrix(1.3310935,0,0,1.3310935,-106961.56,-59681.62)"
   style="stroke-width:0.75126201"><g
     id="g987"
     clip-path="url(#clipPath991)"
     style="stroke-width:0.75126201"><g
       id="g993"
       transform="matrix(0.49906,-0.86657,0.86657,0.49906,343421.5,225080.5)"
       style="stroke-width:0.75126201"><path
         d="M 15748.5,0 C 15748.5,5027.7246 8697.6572,9103.5 0,9103.5 -8697.6572,9103.5 -15748.5,5027.7246 -15748.5,0"
         style="fill:none;stroke:#000000;stroke-width:591.2432251;stroke-linecap:round;stroke-linejoin:round;stroke-miterlimit:10;stroke-dasharray:none;stroke-opacity:1"
         id="path995"
         inkscape:connector-curvature="0" /></g><g
       id="g997"
       transform="matrix(0.49906,-0.86657,0.86657,0.49906,342030.5,224279.5)"
       style="stroke-width:0.75126201"><path
         d="M 15748.5,0 C 15748.5,5027.7246 8697.6572,9103.5 0,9103.5 -8697.6572,9103.5 -15748.5,5027.7246 -15748.5,0"
         style="fill:none;stroke:#000000;stroke-width:591.2432251;stroke-linecap:round;stroke-linejoin:round;stroke-miterlimit:10;stroke-dasharray:none;stroke-opacity:1"
         id="path999"
         inkscape:connector-curvature="0" /></g><path
       d="m 352217,228567 -253,-146"
       style="fill:none;stroke:#000000;stroke-width:591.2432251;stroke-linecap:round;stroke-linejoin:round;stroke-miterlimit:10;stroke-dasharray:none;stroke-opacity:1"
       id="path1001"
       inkscape:connector-curvature="0" /><path
       d="m 341954,238688 7035,4051"
       style="fill:none;stroke:#000000;stroke-width:591.2432251;stroke-linecap:round;stroke-linejoin:round;stroke-miterlimit:10;stroke-dasharray:none;stroke-opacity:1"
       id="path1003"
       inkscape:connector-curvature="0" /><g
       id="g1005"
       transform="matrix(-0.49906,-0.86657,0.86657,-0.49906,348989.5,236302.5)"
       style="stroke-width:0.75126201"><path
         d="m -7874.5,0 c 0,-1204.109 825.4927,-2359.1548 2295.7212,-3212.2195"
         style="fill:none;stroke:#000000;stroke-width:591.2432251;stroke-linecap:round;stroke-linejoin:round;stroke-miterlimit:10;stroke-dasharray:none;stroke-opacity:1"
         id="path1007"
         inkscape:connector-curvature="0" /></g><path
       d="m 348989,242739 8634,-4971"
       style="fill:none;stroke:#000000;stroke-width:413.94537354;stroke-linecap:round;stroke-linejoin:round;stroke-miterlimit:10;stroke-dasharray:none;stroke-opacity:1"
       id="path1009"
       inkscape:connector-curvature="0" /><path
       d="m 334171,237926 1392,801"
       style="fill:none;stroke:#000000;stroke-width:591.2432251;stroke-linecap:round;stroke-linejoin:round;stroke-miterlimit:10;stroke-dasharray:none;stroke-opacity:1"
       id="path1011"
       inkscape:connector-curvature="0" /><path
       d="m 349888,210631 1392,802"
       style="fill:none;stroke:#000000;stroke-width:591.2432251;stroke-linecap:round;stroke-linejoin:round;stroke-miterlimit:10;stroke-dasharray:none;stroke-opacity:1"
       id="path1013"
       inkscape:connector-curvature="0" /><path
       d="m 352919,243126 6344,-3654"
       style="fill:none;stroke:#000000;stroke-width:591.2432251;stroke-linecap:round;stroke-linejoin:round;stroke-miterlimit:10;stroke-dasharray:none;stroke-opacity:1"
       id="path1015"
       inkscape:connector-curvature="0" /><g
       id="g1017"
       transform="matrix(0.49906,-0.86657,0.86657,0.49906,340638.5,223477.5)"
       style="stroke-width:0.75126201"><path
         d="M 15323.391,-2100.8899 C 16888.99,1714.7766 14051.553,5681.187 8281.2022,7743.2832 2510.8501,9805.3789 -4895.4712,9499.6836 -10100.434,6984.582 -15305.396,4469.4805 -17139.129,310.26773 -14651.55,-3338.104"
         style="fill:none;stroke:#000000;stroke-width:591.2432251;stroke-linecap:round;stroke-linejoin:round;stroke-miterlimit:10;stroke-dasharray:none;stroke-opacity:1"
         id="path1019"
         inkscape:connector-curvature="0" /></g><g
       id="g1021"
       transform="matrix(0.49906,-0.86657,0.86657,0.49906,342030.5,224279.5)"
       style="stroke-width:0.75126201"><path
         d="M 15748.5,0 C 15748.5,5027.7246 8697.6572,9103.5 0,9103.5 -8697.6572,9103.5 -15748.5,5027.7246 -15748.5,0"
         style="fill:none;stroke:#000000;stroke-width:591.2432251;stroke-linecap:round;stroke-linejoin:round;stroke-miterlimit:10;stroke-dasharray:none;stroke-opacity:1"
         id="path1023"
         inkscape:connector-curvature="0" /></g><path
       d="m 347597,225906 -13919,8016"
       style="fill:none;stroke:#000000;stroke-width:591.2432251;stroke-linecap:round;stroke-linejoin:round;stroke-miterlimit:10;stroke-dasharray:none;stroke-opacity:1"
       id="path1025"
       inkscape:connector-curvature="0" /><path
       d="m 347597,213032 v 447"
       style="fill:none;stroke:#000000;stroke-width:591.2432251;stroke-linecap:round;stroke-linejoin:round;stroke-miterlimit:10;stroke-dasharray:none;stroke-opacity:1"
       id="path1027"
       inkscape:connector-curvature="0" /><path
       d="m 347597,219047 v 6859 l -1835,-1057"
       style="fill:none;stroke:#000000;stroke-width:591.2432251;stroke-linecap:round;stroke-linejoin:round;stroke-miterlimit:10;stroke-dasharray:none;stroke-opacity:1"
       id="path1029"
       inkscape:connector-curvature="0" /><path
       d="m 347521,212988 76,44"
       style="fill:none;stroke:#000000;stroke-width:591.2432251;stroke-linecap:round;stroke-linejoin:round;stroke-miterlimit:10;stroke-dasharray:none;stroke-opacity:1"
       id="path1031"
       inkscape:connector-curvature="0" /><path
       d="m 322797,227657 10881,6265"
       style="fill:none;stroke:#000000;stroke-width:591.2432251;stroke-linecap:round;stroke-linejoin:round;stroke-miterlimit:10;stroke-dasharray:none;stroke-opacity:1"
       id="path1033"
       inkscape:connector-curvature="0" /><path
       d="m 329783,221737 -978,563"
       style="fill:none;stroke:#000000;stroke-width:413.94537354;stroke-linecap:round;stroke-linejoin:round;stroke-miterlimit:10;stroke-dasharray:none;stroke-opacity:1"
       id="path1035"
       inkscape:connector-curvature="0" /><path
       d="m 349888,210631 -1392,-801"
       style="fill:none;stroke:#000000;stroke-width:591.2432251;stroke-linecap:round;stroke-linejoin:round;stroke-miterlimit:10;stroke-dasharray:none;stroke-opacity:1"
       id="path1037"
       inkscape:connector-curvature="0" /><path
       d="m 334171,237926 -1392,-802"
       style="fill:none;stroke:#000000;stroke-width:591.2432251;stroke-linecap:round;stroke-linejoin:round;stroke-miterlimit:10;stroke-dasharray:none;stroke-opacity:1"
       id="path1039"
       inkscape:connector-curvature="0" /><g
       id="g1041"
       transform="matrix(-0.49906,-0.86657,0.86657,-0.49906,344813.5,238707.5)"
       style="stroke-width:0.75126201"><path
         d="m -3875.5808,-6449.5044 c 2212.9546,-444.3203 4604.50432,-498.2236 6870.5935,-154.8569"
         style="fill:none;stroke:#000000;stroke-width:591.2432251;stroke-linecap:round;stroke-linejoin:round;stroke-miterlimit:10;stroke-dasharray:none;stroke-opacity:1"
         id="path1043"
         inkscape:connector-curvature="0" /></g><g
       id="g1045"
       transform="matrix(-0.49906,0.86657,-0.86657,-0.49906,367085.5,238707.5)"
       style="stroke-width:0.75126201"><path
         d="m -3875.5808,-6449.5044 c 2510.162,-503.9941 5240.9996,-503.9941 7751.1616,0"
         style="fill:none;stroke:#000000;stroke-width:591.2432251;stroke-linecap:round;stroke-linejoin:round;stroke-miterlimit:10;stroke-dasharray:none;stroke-opacity:1"
         id="path1047"
         inkscape:connector-curvature="0" /></g><g
       id="g1049"
       transform="matrix(-0.49906,-0.86657,0.86657,-0.49906,367085.5,225882.5)"
       style="stroke-width:0.75126201"><path
         d="m 8335.9619,-4837.02 c 4621.5141,2661.1875 4635.8531,6984.113 32.0293,9655.5254 C 3764.1665,7489.918 -3714.4475,7498.207 -8335.9619,4837.02 -12957.476,2175.8325 -12971.815,-2147.093 -8367.9912,-4818.5054 -3764.1665,-7489.918 3714.4475,-7498.207 8335.9619,-4837.02"
         style="fill:none;stroke:#000000;stroke-width:591.2432251;stroke-linecap:round;stroke-linejoin:round;stroke-miterlimit:10;stroke-dasharray:none;stroke-opacity:1"
         id="path1051"
         inkscape:connector-curvature="0" /></g><g
       id="g1053"
       transform="matrix(-0.49906,-0.86657,0.86657,-0.49906,348989.5,236302.5)"
       style="stroke-width:0.75126201"><path
         d="m -16269.157,-2943.9744 c 2457.541,-4539.0793 10171.8479,-7415.9106 18338.1087,-6838.674"
         style="fill:none;stroke:#000000;stroke-width:591.2432251;stroke-linecap:round;stroke-linejoin:round;stroke-miterlimit:10;stroke-dasharray:none;stroke-opacity:1"
         id="path1055"
         inkscape:connector-curvature="0" /></g><path
       d="m 354557,242182 v 9688"
       style="fill:none;stroke:#000000;stroke-width:591.2432251;stroke-linecap:round;stroke-linejoin:round;stroke-miterlimit:10;stroke-dasharray:none;stroke-opacity:1"
       id="path1057"
       inkscape:connector-curvature="0" /><g
       id="g1059"
       transform="matrix(0.49906,0.86657,-0.86657,0.49906,362909.5,228286.5)"
       style="stroke-width:0.75126201"><path
         d="M 16269.157,2943.9744 C 14896.836,5478.6523 11813.038,7585.831 7716.5308,8788.04 3620.0232,9990.2481 -1142.3983,10185.711 -5491.6035,9330.1387"
         style="fill:none;stroke:#000000;stroke-width:591.2432251;stroke-linecap:round;stroke-linejoin:round;stroke-miterlimit:10;stroke-dasharray:none;stroke-opacity:1"
         id="path1061"
         inkscape:connector-curvature="0" /></g><g
       id="g1063"
       transform="matrix(-0.49906,-0.86657,0.86657,-0.49906,362909.5,228286.5)"
       style="stroke-width:0.75126201"><path
         d="M 16969.836,-939.67511 C 17251.437,760.01654 16764.375,2472.8457 15556.378,4030.9661"
         style="fill:none;stroke:#000000;stroke-width:591.2432251;stroke-linecap:round;stroke-linejoin:round;stroke-miterlimit:10;stroke-dasharray:none;stroke-opacity:1"
         id="path1065"
         inkscape:connector-curvature="0" /></g><g
       id="g1067"
       transform="matrix(0.49906,-0.86657,0.86657,0.49906,361517.5,235500.5)"
       style="stroke-width:0.75126201"><path
         d="M -3765.3623,10199.827 C -10748.112,9338.3926 -16195.145,6177.4526 -17658.51,2137.5635"
         style="fill:none;stroke:#000000;stroke-width:591.2432251;stroke-linecap:round;stroke-linejoin:round;stroke-miterlimit:10;stroke-dasharray:none;stroke-opacity:1"
         id="path1069"
         inkscape:connector-curvature="0" /></g><g
       id="g1071"
       transform="matrix(0.01016,-0.99995,0.99995,0.01016,355949.5,232294.5)"
       style="stroke-width:0.75126201"><path
         d="M -12839.445,14922.049 C -17185.689,11182.391 -19685.5,5733.6621 -19685.5,0"
         style="fill:none;stroke:#000000;stroke-width:591.2432251;stroke-linecap:round;stroke-linejoin:round;stroke-miterlimit:10;stroke-dasharray:none;stroke-opacity:1"
         id="path1073"
         inkscape:connector-curvature="0" /></g><g
       id="g1075"
       transform="matrix(-0.31868,0.94786,-0.94786,-0.31868,355949.5,232294.5)"
       style="stroke-width:0.75126201"><path
         d="M -11891.229,-15688.135 C -8469.4863,-18281.734 -4293.6094,-19685.5 0,-19685.5"
         style="fill:none;stroke:#000000;stroke-width:591.2432251;stroke-linecap:round;stroke-linejoin:round;stroke-miterlimit:10;stroke-dasharray:none;stroke-opacity:1"
         id="path1077"
         inkscape:connector-curvature="0" /></g><g
       id="g1079"
       transform="matrix(0.6599,0.75135,-0.75135,0.6599,355949.5,232294.5)"
       style="stroke-width:0.75126201"><path
         d="M -12878.03,-14888.763 C -9300.9473,-17982.758 -4729.5166,-19685.5 0,-19685.5"
         style="fill:none;stroke:#000000;stroke-width:591.2432251;stroke-linecap:round;stroke-linejoin:round;stroke-miterlimit:10;stroke-dasharray:none;stroke-opacity:1"
         id="path1081"
         inkscape:connector-curvature="0" /></g><g
       id="g1083"
       transform="matrix(0.75135,-0.6599,0.6599,0.75135,355949.5,232294.5)"
       style="stroke-width:0.75126201"><path
         d="M -14888.763,12878.03 C -17982.758,9300.9473 -19685.5,4729.5166 -19685.5,0"
         style="fill:none;stroke:#000000;stroke-width:591.2432251;stroke-linecap:round;stroke-linejoin:round;stroke-miterlimit:10;stroke-dasharray:none;stroke-opacity:1"
         id="path1085"
         inkscape:connector-curvature="0" /></g><g
       id="g1087"
       transform="matrix(-0.49906,-0.86657,0.86657,-0.49906,316974.5,222675.5)"
       style="stroke-width:0.75126201"><path
         d="m -3875.5808,-6449.5044 c 2510.162,-503.9941 5240.9996,-503.9941 7751.1616,0"
         style="fill:none;stroke:#000000;stroke-width:591.2432251;stroke-linecap:round;stroke-linejoin:round;stroke-miterlimit:10;stroke-dasharray:none;stroke-opacity:1"
         id="path1089"
         inkscape:connector-curvature="0" /></g><g
       id="g1091"
       transform="matrix(0.49906,-0.86657,0.86657,0.49906,316974.5,209850.5)"
       style="stroke-width:0.75126201"><path
         d="M -8335.9619,-4837.02 C -3714.4475,-7498.207 3764.1665,-7489.918 8367.9912,-4818.5054 12971.815,-2147.093 12957.476,2175.8325 8335.9619,4837.02 3714.4475,7498.207 -3764.1665,7489.918 -8367.9912,4818.5054 -12971.815,2147.093 -12957.476,-2175.8325 -8335.9619,-4837.02"
         style="fill:none;stroke:#000000;stroke-width:591.2432251;stroke-linecap:round;stroke-linejoin:round;stroke-miterlimit:10;stroke-dasharray:none;stroke-opacity:1"
         id="path1093"
         inkscape:connector-curvature="0" /></g><g
       id="g1095"
       transform="matrix(-0.49906,-0.86657,0.86657,-0.49906,339246.5,209850.5)"
       style="stroke-width:0.75126201"><path
         d="m 8335.9619,-4837.02 c 4621.5141,2661.1875 4635.8531,6984.113 32.0293,9655.5254 C 3764.1665,7489.918 -3714.4475,7498.207 -8335.9619,4837.02 -12957.476,2175.8325 -12971.815,-2147.093 -8367.9912,-4818.5054 -3764.1665,-7489.918 3714.4475,-7498.207 8335.9619,-4837.02"
         style="fill:none;stroke:#000000;stroke-width:591.2432251;stroke-linecap:round;stroke-linejoin:round;stroke-miterlimit:10;stroke-dasharray:none;stroke-opacity:1"
         id="path1097"
         inkscape:connector-curvature="0" /></g><g
       id="g1099"
       transform="matrix(-0.49906,-0.86657,0.86657,-0.49906,321150.5,220271.5)"
       style="stroke-width:0.75126201"><path
         d="m -16249.509,2980.0225 c -2846.85,-5188.2547 2120.474,-10728.3672 11094.8308,-12374.1885"
         style="fill:none;stroke:#000000;stroke-width:591.2432251;stroke-linecap:round;stroke-linejoin:round;stroke-miterlimit:10;stroke-dasharray:none;stroke-opacity:1"
         id="path1101"
         inkscape:connector-curvature="0" /></g><g
       id="g1103"
       transform="matrix(-0.49906,-0.86657,0.86657,-0.49906,335070.5,212255.5)"
       style="stroke-width:0.75126201"><path
         d="m 16269.157,2943.9744 c -200.39,370.1228 -438.398,733.0847 -712.779,1086.9917"
         style="fill:none;stroke:#000000;stroke-width:591.2432251;stroke-linecap:round;stroke-linejoin:round;stroke-miterlimit:10;stroke-dasharray:none;stroke-opacity:1"
         id="path1105"
         inkscape:connector-curvature="0" /></g><g
       id="g1107"
       transform="matrix(0.49906,0.86657,-0.86657,0.49906,335070.5,212255.5)"
       style="stroke-width:0.75126201"><path
         d="m 15556.378,-4030.9661 c 1987.581,2563.6566 1988.188,5495.8445 1.671,8059.7764 C 13571.532,6592.7422 9786.7324,8544.6856 5154.6782,9394.166"
         style="fill:none;stroke:#000000;stroke-width:591.2432251;stroke-linecap:round;stroke-linejoin:round;stroke-miterlimit:10;stroke-dasharray:none;stroke-opacity:1"
         id="path1109"
         inkscape:connector-curvature="0" /></g><g
       id="g1111"
       transform="matrix(-0.49906,0.86657,-0.86657,-0.49906,322542.5,213057.5)"
       style="stroke-width:0.75126201"><path
         d="m 3765.3623,-10199.827 c 6982.7497,861.4344 12429.7827,4022.3744 13893.1477,8062.2635"
         style="fill:none;stroke:#000000;stroke-width:591.2432251;stroke-linecap:round;stroke-linejoin:round;stroke-miterlimit:10;stroke-dasharray:none;stroke-opacity:1"
         id="path1113"
         inkscape:connector-curvature="0" /></g><g
       id="g1115"
       transform="matrix(0.49906,-0.86657,0.86657,0.49906,322542.5,213057.5)"
       style="stroke-width:0.75126201"><path
         d="m 17157.311,-3224.9849 c 200.796,356.9954 368.107,719.9976 501.199,1087.4214"
         style="fill:none;stroke:#000000;stroke-width:591.2432251;stroke-linecap:round;stroke-linejoin:round;stroke-miterlimit:10;stroke-dasharray:none;stroke-opacity:1"
         id="path1117"
         inkscape:connector-curvature="0" /></g><g
       id="g1119"
       transform="matrix(-0.92538,-0.37905,0.37905,-0.92538,328110.5,216263.5)"
       style="stroke-width:0.75126201"><path
         d="M -14888.763,12878.03 C -17982.758,9300.9473 -19685.5,4729.5166 -19685.5,0"
         style="fill:none;stroke:#000000;stroke-width:591.2432251;stroke-linecap:round;stroke-linejoin:round;stroke-miterlimit:10;stroke-dasharray:none;stroke-opacity:1"
         id="path1121"
         inkscape:connector-curvature="0" /></g><g
       id="g1123"
       transform="matrix(-0.75136,0.6599,-0.6599,-0.75136,328110.5,216263.5)"
       style="stroke-width:0.75126201"><path
         d="M -14888.763,12878.03 C -17982.758,9300.9473 -19685.5,4729.5166 -19685.5,0"
         style="fill:none;stroke:#000000;stroke-width:591.2432251;stroke-linecap:round;stroke-linejoin:round;stroke-miterlimit:10;stroke-dasharray:none;stroke-opacity:1"
         id="path1125"
         inkscape:connector-curvature="0" /></g><g
       id="g1127"
       transform="matrix(-0.01016,0.99995,-0.99995,-0.01016,328110.5,216263.5)"
       style="stroke-width:0.75126201"><path
         d="M -12839.445,14922.049 C -17185.689,11182.391 -19685.5,5733.6621 -19685.5,0"
         style="fill:none;stroke:#000000;stroke-width:591.2432251;stroke-linecap:round;stroke-linejoin:round;stroke-miterlimit:10;stroke-dasharray:none;stroke-opacity:1"
         id="path1129"
         inkscape:connector-curvature="0" /></g><g
       id="g1131"
       transform="matrix(0.31868,-0.94786,0.94786,0.31868,328110.5,216263.5)"
       style="stroke-width:0.75126201"><path
         d="M -11891.229,-15688.135 C -8469.4863,-18281.734 -4293.6094,-19685.5 0,-19685.5"
         style="fill:none;stroke:#000000;stroke-width:591.2432251;stroke-linecap:round;stroke-linejoin:round;stroke-miterlimit:10;stroke-dasharray:none;stroke-opacity:1"
         id="path1133"
         inkscape:connector-curvature="0" /></g><g
       id="g1135"
       transform="matrix(0.75135,-0.6599,0.6599,0.75135,328110.5,216263.5)"
       style="stroke-width:0.75126201"><path
         d="M -14888.763,12878.03 C -17982.758,9300.9473 -19685.5,4729.5166 -19685.5,0"
         style="fill:none;stroke:#000000;stroke-width:591.2432251;stroke-linecap:round;stroke-linejoin:round;stroke-miterlimit:10;stroke-dasharray:none;stroke-opacity:1"
         id="path1137"
         inkscape:connector-curvature="0" /></g></g></g><g
   id="g10481"
   transform="matrix(1.1740566,0,0,1.1740559,-25438.315,-18767.028)"
   style="stroke-width:0.85174793"><ellipse
     transform="scale(1,-1)"
     ry="19985.902"
     rx="19976.354"
     cy="-197291.67"
     cx="162500"
     id="path10228-9-3-6-0"
     style="opacity:1;fill:none;fill-opacity:1;fill-rule:evenodd;stroke:#9b9b9b;stroke-width:268.26705933;stroke-linecap:round;stroke-linejoin:round;stroke-miterlimit:4;stroke-dasharray:268.26707061, 536.53414122;stroke-dashoffset:0;stroke-opacity:1" /><g
     id="g1139"
     style="stroke-width:0.85174793"><g
       clip-path="url(#clipPath1145)"
       id="g1141"
       style="stroke-width:0.85174793"><path
         inkscape:connector-curvature="0"
         id="path1147"
         style="fill:none;stroke:#000000;stroke-width:670.32562256;stroke-linecap:round;stroke-linejoin:round;stroke-miterlimit:10;stroke-dasharray:none;stroke-opacity:1"
         d="m 178220,185741 v 2 6 10 14 18 21 26 29 34 37 41 45 49 52 57 60 64 68 71 76 79 82 86 90 93 97 101 104 107 111 114 117 121 124 127 130 133 137 139 143 145 149 151 154 156 160 162 164 167 170 172 174 177 178 181 184 185 187 189 191 193 194 196 198 199 201 202 204 205 206 207 208 209 210 211 212 213 213 213 215 214 215 216 215 216 216 215 216 215 216 215 214 215 213 213 213 212 211 210 209 208 207 206 205 204 202 201 199 198 196 194 193 191 189 187 185 184 181 178 177 174 172 170 167 164 162 160 156 154 151 149 145 143 139 137 133 130 127 124 121 117 114 111 107 104 101 97 93 90 86 82 79 76 71 68 64 60 57 52 49 45 41 37 34 29 26 21 18 14 10 6 2" /><g
         transform="rotate(-90,180013,17540.5)"
         id="g1149"
         style="stroke-width:0.85174793"><path
           inkscape:connector-curvature="0"
           id="path1151"
           style="fill:none;stroke:#000000;stroke-width:670.32562256;stroke-linecap:round;stroke-linejoin:round;stroke-miterlimit:10;stroke-dasharray:none;stroke-opacity:1"
           d="M 0,-11811.5 C 6523.3115,-11811.5 11811.5,-6523.3115 11811.5,0 11811.5,6523.3115 6523.3115,11811.5 0,11811.5 -6523.3115,11811.5 -11811.5,6523.3115 -11811.5,0 -11811.5,-6523.3115 -6523.3115,-11811.5 0,-11811.5" /></g><path
         inkscape:connector-curvature="0"
         id="path1153"
         style="fill:none;stroke:#000000;stroke-width:670.32562256;stroke-linecap:round;stroke-linejoin:round;stroke-miterlimit:10;stroke-dasharray:none;stroke-opacity:1"
         d="m 146724,209364 v -2 -6 -10 -14 -18 -21 -26 -29 -34 -37 -41 -45 -49 -52 -57 -60 -64 -68 -71 -76 -79 -82 -86 -90 -93 -97 -101 -104 -107 -111 -114 -117 -121 -124 -127 -130 -133 -137 -139 -143 -145 -149 -151 -154 -156 -160 -162 -164 -167 -170 -172 -174 -177 -178 -181 -184 -185 -187 -189 -191 -193 -194 -196 -198 -199 -201 -202 -204 -205 -206 -207 -208 -209 -210 -211 -212 -213 -213 -213 -215 -214 -215 -216 -215 -216 -215 -216 -216 -215 -216 -215 -214 -215 -213 -213 -213 -212 -211 -210 -209 -208 -207 -206 -205 -204 -202 -201 -199 -198 -196 -194 -193 -191 -189 -187 -185 -184 -181 -178 -177 -174 -172 -170 -167 -164 -162 -160 -156 -154 -151 -149 -145 -143 -139 -137 -133 -130 -127 -124 -121 -117 -114 -111 -107 -104 -101 -97 -93 -90 -86 -82 -79 -76 -71 -68 -64 -60 -57 -52 -49 -45 -41 -37 -34 -29 -26 -21 -18 -14 -10 -6 -2" /><path
         inkscape:connector-curvature="0"
         id="path1155"
         style="fill:none;stroke:#000000;stroke-width:670.32562256;stroke-linecap:round;stroke-linejoin:round;stroke-miterlimit:10;stroke-dasharray:none;stroke-opacity:1"
         d="m 172315,182432 v -120 -117 -112 -110 -105 -101 -98 -94 -90 -87 -82 -79 -74 -71 -67 -62 -59 -55 -51 -47 -42 -39 -35 -30 -27 -22 -19 -14 -10 -6 -2" /><path
         inkscape:connector-curvature="0"
         id="path1157"
         style="fill:none;stroke:#000000;stroke-width:670.32562256;stroke-linecap:round;stroke-linejoin:round;stroke-miterlimit:10;stroke-dasharray:none;stroke-opacity:1"
         d="m 172315,214600 v -2 -6 -10 -14 -19 -22 -27 -30 -35 -39 -42 -47 -51 -55 -59 -62 -67 -71 -74 -79 -82 -87 -90 -94 -98 -101 -105 -110 -112 -117 -120" /><path
         inkscape:connector-curvature="0"
         id="path1159"
         style="fill:none;stroke:#000000;stroke-width:670.32562256;stroke-linecap:round;stroke-linejoin:round;stroke-miterlimit:10;stroke-dasharray:none;stroke-opacity:1"
         d="m 152629,212673 v 120 117 112 110 105 101 98 94 90 87 82 79 74 71 67 62 59 55 51 47 42 39 35 30 27 22 19 14 10 6 2" /><path
         inkscape:connector-curvature="0"
         id="path1161"
         style="fill:none;stroke:#000000;stroke-width:670.32562256;stroke-linecap:round;stroke-linejoin:round;stroke-miterlimit:10;stroke-dasharray:none;stroke-opacity:1"
         d="m 152629,180505 v 2 6 10 14 19 22 27 30 35 39 42 47 51 55 59 62 67 71 74 79 82 87 90 94 98 101 105 110 112 117 120" /><g
         transform="matrix(-0.54557,-0.83807,0.83807,-0.54557,162472.5,197553.5)"
         id="g1163"
         style="stroke-width:0.85174793"><path
           inkscape:connector-curvature="0"
           id="path1165"
           style="fill:none;stroke:#000000;stroke-width:670.32562256;stroke-linecap:round;stroke-linejoin:round;stroke-miterlimit:10;stroke-dasharray:none;stroke-opacity:1"
           d="m 18041.5,0 c 0,7139.356 -4209.991,13607.186 -10738.2461,16497.219" /></g><g
         transform="matrix(-0.83807,0.54557,-0.54557,-0.83807,162472.5,197553.5)"
         id="g1167"
         style="stroke-width:0.85174793"><path
           inkscape:connector-curvature="0"
           id="path1169"
           style="fill:none;stroke:#000000;stroke-width:670.32562256;stroke-linecap:round;stroke-linejoin:round;stroke-miterlimit:10;stroke-dasharray:none;stroke-opacity:1"
           d="m 0,-18041.5 c 7139.356,0 13607.186,4209.991 16497.219,10738.2461" /></g><g
         transform="matrix(0.86604,-0.49997,0.49997,0.86604,162472.5,197553.5)"
         id="g1171"
         style="stroke-width:0.85174793"><path
           inkscape:connector-curvature="0"
           id="path1173"
           style="fill:none;stroke:#000000;stroke-width:670.32562256;stroke-linecap:round;stroke-linejoin:round;stroke-miterlimit:10;stroke-dasharray:none;stroke-opacity:1"
           d="M -7733.3735,-18102.869 C -5288.876,-19147.135 -2658.206,-19685.5 0,-19685.5" /></g><g
         transform="rotate(-126.8699,130624.62,58158.625)"
         id="g1175"
         style="stroke-width:0.85174793"><path
           inkscape:connector-curvature="0"
           id="path1177"
           style="fill:none;stroke:#000000;stroke-width:670.32562256;stroke-linecap:round;stroke-linejoin:round;stroke-miterlimit:10;stroke-dasharray:none;stroke-opacity:1"
           d="M -7733.3735,-18102.869 C -5288.876,-19147.135 -2658.206,-19685.5 0,-19685.5" /></g><g
         transform="matrix(-0.86604,0.49997,-0.49997,-0.86604,162472.5,197553.5)"
         id="g1179"
         style="stroke-width:0.85174793"><path
           inkscape:connector-curvature="0"
           id="path1181"
           style="fill:none;stroke:#000000;stroke-width:670.32562256;stroke-linecap:round;stroke-linejoin:round;stroke-miterlimit:10;stroke-dasharray:none;stroke-opacity:1"
           d="M -7733.3735,-18102.869 C -5288.876,-19147.135 -2658.206,-19685.5 0,-19685.5" /></g><g
         transform="rotate(53.130102,-116317.25,261249.25)"
         id="g1183"
         style="stroke-width:0.85174793"><path
           inkscape:connector-curvature="0"
           id="path1185"
           style="fill:none;stroke:#000000;stroke-width:670.32562256;stroke-linecap:round;stroke-linejoin:round;stroke-miterlimit:10;stroke-dasharray:none;stroke-opacity:1"
           d="M -7733.3735,-18102.869 C -5288.876,-19147.135 -2658.206,-19685.5 0,-19685.5" /></g></g></g></g>



<g
   id="g10386"
   transform="translate(-368.94757,132.68658)"><g
     style="stroke-width:0.84722954"
     transform="matrix(1.1800359,0,0,1.1805994,-48478.169,-35279.907)"
     id="g901"><g
       style="stroke-width:0.84722954"
       clip-path="url(#clipPath907)"
       id="g903"><path
         inkscape:connector-curvature="0"
         id="path909"
         style="fill:none;stroke:#000000;stroke-width:666.76965332;stroke-linecap:round;stroke-linejoin:round;stroke-miterlimit:10;stroke-dasharray:none;stroke-opacity:1"
         d="m 243352,265763 v -2 -6 -10 -13 -18 -22 -26 -29 -34 -38 -41 -45 -50 -53 -57 -60 -65 -69 -72 -76 -80 -83 -88 -91 -94 -99 -102 -105 -110 -112 -117 -119 -124 -126 -130 -134 -136 -140 -144 -146 -150 -153 -156 -159 -162 -165 -168 -171 -174 -177 -179 -183 -185 -187 -190 -193 -195 -198 -200 -202 -205 -207 -209 -211 -213 -216 -217 -220 -221 -223 -224 -227 -228 -230 -231 -233 -234 -235 -237 -238 -239 -240 -242 -242 -243 -245 -245 -245 -247 -247 -247 -248 -249 -249 -249 -250 -249 -250 -250 -250 -250 -249 -250 -249 -249 -249 -248 -247 -247 -247 -245 -245 -245 -243 -242 -242 -240 -239 -238 -237 -235 -234 -233 -231 -230 -228 -227 -224 -223 -221 -220 -217 -216 -213 -211 -209 -207 -205 -202 -200 -198 -195 -193 -190 -187 -185 -183 -179 -177 -174 -171 -168 -165 -162 -159 -156 -153 -150 -146 -144 -140 -136 -134 -130 -126 -124 -119 -117 -112 -110 -105 -102 -99 -94 -91 -88 -83 -80 -76 -72 -69 -65 -60 -57 -53 -50 -45 -41 -38 -34 -29 -26 -22 -18 -13 -10 -6 -2" /><path
         inkscape:connector-curvature="0"
         id="path911"
         style="fill:none;stroke:#000000;stroke-width:666.76965332;stroke-linecap:round;stroke-linejoin:round;stroke-miterlimit:10;stroke-dasharray:none;stroke-opacity:1"
         d="m 241384,234267 v 2 6 10 13 18 22 26 29 34 38 41 45 50 53 57 60 65 69 72 76 80 83 88 91 94 99 102 105 110 112 117 119 124 126 130 134 136 140 144 146 150 153 156 159 162 165 168 171 174 177 179 183 185 187 190 193 195 198 200 202 205 207 209 211 213 216 217 220 221 223 224 227 228 230 231 233 234 235 237 238 239 240 242 242 243 245 245 245 247 247 247 248 249 249 249 250 249 250 250 250 250 249 250 249 249 249 248 247 247 247 245 245 245 243 242 242 240 239 238 237 235 234 233 231 230 228 227 224 223 221 220 217 216 213 211 209 207 205 202 200 198 195 193 190 187 185 183 179 177 174 171 168 165 162 159 156 153 150 146 144 140 136 134 130 126 124 119 117 112 110 105 102 99 94 91 88 83 80 76 72 69 65 60 57 53 50 45 41 38 34 29 26 22 18 13 10 6 2" /><path
         inkscape:connector-curvature="0"
         id="path913"
         style="fill:none;stroke:#000000;stroke-width:666.76965332;stroke-linecap:round;stroke-linejoin:round;stroke-miterlimit:10;stroke-dasharray:none;stroke-opacity:1"
         d="m 243352,259858 h 2596" /><path
         inkscape:connector-curvature="0"
         id="path915"
         style="fill:none;stroke:#000000;stroke-width:666.76965332;stroke-linecap:round;stroke-linejoin:round;stroke-miterlimit:10;stroke-dasharray:none;stroke-opacity:1"
         d="m 245948,240172 h -2596" /><path
         inkscape:connector-curvature="0"
         id="path917"
         style="fill:none;stroke:#000000;stroke-width:666.76965332;stroke-linecap:round;stroke-linejoin:round;stroke-miterlimit:10;stroke-dasharray:none;stroke-opacity:1"
         d="m 241384,265763 h 1968" /><path
         inkscape:connector-curvature="0"
         id="path919"
         style="fill:none;stroke:#000000;stroke-width:666.76965332;stroke-linecap:round;stroke-linejoin:round;stroke-miterlimit:10;stroke-dasharray:none;stroke-opacity:1"
         d="m 241384,234267 h 1968" /><path
         inkscape:connector-curvature="0"
         id="path921"
         style="fill:none;stroke:#000000;stroke-width:666.76965332;stroke-linecap:round;stroke-linejoin:round;stroke-miterlimit:10;stroke-dasharray:none;stroke-opacity:1"
         d="m 239415,234267 v 2 6 10 13 18 22 26 29 34 38 41 45 50 53 57 60 65 69 72 76 80 83 88 91 94 99 102 105 110 112 117 119 124 126 130 134 136 140 144 146 150 153 156 159 162 165 168 171 174 177 179 183 185 187 190 193 195 198 200 202 205 207 209 211 213 216 217 220 221 223 224 227 228 230 231 233 234 235 237 238 239 240 242 242 243 245 245 245 247 247 247 248 249 249 249 250 249 250 250 250 250 249 250 249 249 249 248 247 247 247 245 245 245 243 242 242 240 239 238 237 235 234 233 231 230 228 227 224 223 221 220 217 216 213 211 209 207 205 202 200 198 195 193 190 187 185 183 179 177 174 171 168 165 162 159 156 153 150 146 144 140 136 134 130 126 124 119 117 112 110 105 102 99 94 91 88 83 80 76 72 69 65 60 57 53 50 45 41 38 34 29 26 22 18 13 10 6 2" /><path
         inkscape:connector-curvature="0"
         id="path923"
         style="fill:none;stroke:#000000;stroke-width:666.76965332;stroke-linecap:round;stroke-linejoin:round;stroke-miterlimit:10;stroke-dasharray:none;stroke-opacity:1"
         d="m 241384,265763 v -2 -6 -10 -13 -18 -22 -26 -29 -34 -38 -41 -45 -50 -53 -57 -60 -65 -69 -72 -76 -80 -83 -88 -91 -94 -99 -102 -105 -110 -112 -117 -119 -124 -126 -130 -134 -136 -140 -144 -146 -150 -153 -156 -159 -162 -165 -168 -171 -174 -177 -179 -183 -185 -187 -190 -193 -195 -198 -200 -202 -205 -207 -209 -211 -213 -216 -217 -220 -221 -223 -224 -227 -228 -230 -231 -233 -234 -235 -237 -238 -239 -240 -242 -242 -243 -245 -245 -245 -247 -247 -247 -248 -249 -249 -249 -250 -249 -250 -250 -250 -250 -249 -250 -249 -249 -249 -248 -247 -247 -247 -245 -245 -245 -243 -242 -242 -240 -239 -238 -237 -235 -234 -233 -231 -230 -228 -227 -224 -223 -221 -220 -217 -216 -213 -211 -209 -207 -205 -202 -200 -198 -195 -193 -190 -187 -185 -183 -179 -177 -174 -171 -168 -165 -162 -159 -156 -153 -150 -146 -144 -140 -136 -134 -130 -126 -124 -119 -117 -112 -110 -105 -102 -99 -94 -91 -88 -83 -80 -76 -72 -69 -65 -60 -57 -53 -50 -45 -41 -38 -34 -29 -26 -22 -18 -13 -10 -6 -2" /><path
         inkscape:connector-curvature="0"
         id="path925"
         style="fill:none;stroke:#000000;stroke-width:666.76965332;stroke-linecap:round;stroke-linejoin:round;stroke-miterlimit:10;stroke-dasharray:none;stroke-opacity:1"
         d="m 236819,259858 h 2596" /><path
         inkscape:connector-curvature="0"
         id="path927"
         style="fill:none;stroke:#000000;stroke-width:666.76965332;stroke-linecap:round;stroke-linejoin:round;stroke-miterlimit:10;stroke-dasharray:none;stroke-opacity:1"
         d="m 239415,240172 h -2596" /><path
         inkscape:connector-curvature="0"
         id="path929"
         style="fill:none;stroke:#000000;stroke-width:666.76965332;stroke-linecap:round;stroke-linejoin:round;stroke-miterlimit:10;stroke-dasharray:none;stroke-opacity:1"
         d="m 241384,234267 h -1969" /><path
         inkscape:connector-curvature="0"
         id="path931"
         style="fill:none;stroke:#000000;stroke-width:666.76965332;stroke-linecap:round;stroke-linejoin:round;stroke-miterlimit:10;stroke-dasharray:none;stroke-opacity:1"
         d="m 241384,265763 h -1969" /><path
         inkscape:connector-curvature="0"
         id="path933"
         style="fill:none;stroke:#000000;stroke-width:666.76965332;stroke-linecap:round;stroke-linejoin:round;stroke-miterlimit:10;stroke-dasharray:none;stroke-opacity:1"
         d="m 249258,234267 h 2 6 9 14 18 22 25 30 33 37 41 45 49 53 56 60 65 67 72 75 79 82 87 89 94 97 100 104 107 111 114 117 121 124 127 130 134 136 140 142 146 148 151 154 157 159 162 165 167 169 172 174 177 179 181 183 185 187 189 191 193 195 196 197 200 201 202 203 205 206 207 208 210 210 211 212 212 213 214 214 215 215 215 216 215 216 216 215 216 215 215 215 214 214 213 212 212 211 210 209 209 207 206 205 203 202 201 199 198 196 195 193 190 190 187 185 183 181 179 176 175 172 169 167 165 162 159 157 154 151 148 146 142 140 136 134 130 127 124 121 117 114 111 107 104 100 97 93 90 86 83 79 75 72 67 64 61 56 53 49 45 41 37 33 30 25 22 18 13 10 6 2" /><path
         inkscape:connector-curvature="0"
         id="path935"
         style="fill:none;stroke:#000000;stroke-width:666.76965332;stroke-linecap:round;stroke-linejoin:round;stroke-miterlimit:10;stroke-dasharray:none;stroke-opacity:1"
         d="m 276817,238204 v 2 6 10 13 18 22 25 30 33 37 41 45 49 53 56 61 64 67 72 75 79 83 86 90 93 97 100 104 107 111 114 117 121 124 127 130 134 136 140 142 146 148 151 154 157 159 162 165 167 169 172 175 176 179 181 183 185 187 189 191 193 195 196 198 199 201 202 203 205 206 207 209 209 210 211 212 212 213 214 214 215 215 215 216 215 216 216 215 216 215 215 215 214 214 213 212 212 211 210 209 209 207 206 205 203 202 201 199 198 196 195 193 191 189 187 185 183 181 179 176 175 172 169 167 165 162 159 157 154 151 148 146 142 140 136 134 130 127 124 121 117 114 111 107 104 100 97 93 90 86 83 79 75 72 67 64 61 56 53 49 45 41 37 33 30 25 22 18 13 10 6 2" /><path
         inkscape:connector-curvature="0"
         id="path937"
         style="fill:none;stroke:#000000;stroke-width:666.76965332;stroke-linecap:round;stroke-linejoin:round;stroke-miterlimit:10;stroke-dasharray:none;stroke-opacity:1"
         d="m 272880,265763 h -2 -6 -10 -13 -18 -22 -25 -30 -33 -37 -41 -45 -49 -53 -56 -61 -64 -67 -72 -75 -79 -83 -86 -90 -93 -97 -100 -104 -107 -111 -114 -117 -121 -124 -127 -130 -134 -136 -140 -142 -146 -148 -151 -154 -157 -159 -162 -165 -167 -169 -172 -175 -176 -179 -181 -183 -185 -187 -190 -190 -193 -195 -196 -198 -199 -201 -202 -203 -205 -206 -207 -209 -209 -210 -211 -212 -212 -213 -214 -214 -215 -215 -215 -216 -215 -216 -216 -215 -216 -215 -215 -215 -214 -214 -213 -212 -212 -211 -210 -210 -208 -207 -206 -205 -203 -202 -201 -200 -197 -196 -195 -193 -191 -189 -187 -185 -183 -181 -179 -177 -174 -172 -169 -167 -165 -162 -159 -157 -154 -151 -148 -146 -142 -140 -136 -134 -130 -127 -124 -121 -117 -114 -111 -107 -104 -100 -97 -94 -89 -87 -82 -79 -75 -72 -67 -65 -60 -56 -53 -49 -45 -41 -37 -33 -30 -25 -22 -18 -14 -9 -6 -2" /><path
         inkscape:connector-curvature="0"
         id="path939"
         style="fill:none;stroke:#000000;stroke-width:666.76965332;stroke-linecap:round;stroke-linejoin:round;stroke-miterlimit:10;stroke-dasharray:none;stroke-opacity:1"
         d="m 268943,240172 h -231 -234 -235 -236 -239 -239 -242 -243 -244 -245 -247 -248 -249 -251 -251 -252 -253 -255 -254 -256 -256 -257 -258 -258 -259 -258 -260 -259 -260 -260 -260 -260 -260 -260 -259 -260 -259 -259 -258 -258 -258 -257 -256 -256 -255 -254 -253 -252 -252 -250 -249 -248 -247 -245 -244 -243 -241 -240 -238 -237 -235 -233 -232 -229 -228 -226 -223 -222 -220 -217 -216 -213 -210 -209 -206 -203 -202 -198 -196 -193 -191 -188 -185 -183 -179 -177 -173 -171 -168 -165 -161 -159 -155 -152 -149 -146 -142 -139 -136 -132 -129 -125 -122" /><path
         inkscape:connector-curvature="0"
         id="path941"
         style="fill:none;stroke:#000000;stroke-width:666.76965332;stroke-linecap:round;stroke-linejoin:round;stroke-miterlimit:10;stroke-dasharray:none;stroke-opacity:1"
         d="m 245948,259858 h 122 125 129 132 136 139 142 146 149 152 155 159 161 165 168 171 173 177 179 183 185 188 191 193 196 198 202 203 206 209 210 213 216 217 220 222 223 226 228 229 232 233 235 237 238 240 241 243 244 245 247 248 249 250 252 252 253 254 255 256 256 257 258 258 258 259 259 260 259 260 260 260 260 260 260 259 260 258 259 258 258 257 256 256 254 255 253 252 251 251 249 248 247 245 244 243 242 239 239 236 235 234 231 v -225 -227 -229 -231 -233 -235 -236 -239 -240 -242 -243 -246 -246 -248 -250 -251 -252 -254 -255 -256 -257 -258 -259 -260 -260 -262 -262 -264 -263 -265 -264 -266 -265 -266 -267 -266 -267 -267 -267 -267 -267 -267 -266 -267 -266 -265 -266 -264 -265 -263 -264 -262 -262 -260 -260 -259 -258 -257 -256 -255 -254 -252 -251 -250 -248 -246 -246 -243 -242 -240 -239 -236 -235 -233 -231 -229 -227 -225" /><g
         style="stroke-width:0.84722954"
         transform="rotate(-90,255542.5,-5527)"
         id="g943"><path
           inkscape:connector-curvature="0"
           id="path945"
           style="fill:none;stroke:#000000;stroke-width:666.76965332;stroke-linecap:round;stroke-linejoin:round;stroke-miterlimit:10;stroke-dasharray:none;stroke-opacity:1"
           d="m -15748.354,-11811.36 c 1594.931,-2126.559 3604.033,-3908.068 5906.1489,-5237.097" /></g><g
         style="stroke-width:0.84722954"
         transform="rotate(-90,255542.5,-5527)"
         id="g947"><path
           inkscape:connector-curvature="0"
           id="path949"
           style="fill:none;stroke:#000000;stroke-width:666.76965332;stroke-linecap:round;stroke-linejoin:round;stroke-miterlimit:10;stroke-dasharray:none;stroke-opacity:1"
           d="m -11811.36,15748.354 c -1492.228,-1119.179 -2817.815,-2444.766 -3936.994,-3936.994" /></g><g
         style="stroke-width:0.84722954"
         transform="rotate(-90,255542.5,-5527)"
         id="g951"><path
           inkscape:connector-curvature="0"
           id="path953"
           style="fill:none;stroke:#000000;stroke-width:666.76965332;stroke-linecap:round;stroke-linejoin:round;stroke-miterlimit:10;stroke-dasharray:none;stroke-opacity:1"
           d="m 15748.354,11811.36 c -1119.179,1492.228 -2444.766,2817.815 -3936.994,3936.994" /></g><g
         style="stroke-width:0.84722954"
         transform="rotate(-90,255542.5,-5527)"
         id="g955"><path
           inkscape:connector-curvature="0"
           id="path957"
           style="fill:none;stroke:#000000;stroke-width:666.76965332;stroke-linecap:round;stroke-linejoin:round;stroke-miterlimit:10;stroke-dasharray:none;stroke-opacity:1"
           d="m 9842.2051,-17048.457 c 2302.1159,1329.029 4311.2179,3110.538 5906.1489,5237.097" /></g><path
         inkscape:connector-curvature="0"
         id="path959"
         style="fill:none;stroke:#000000;stroke-width:666.76965332;stroke-linecap:round;stroke-linejoin:round;stroke-miterlimit:10;stroke-dasharray:none;stroke-opacity:1"
         d="m 209887,234267 h 2 6 10 13 18 22 25 30 33 37 41 45 49 53 56 61 64 67 72 75 79 83 86 90 93 97 100 104 107 111 114 117 121 124 127 130 134 136 140 142 146 148 151 154 157 159 162 165 167 169 172 175 176 179 181 183 185 187 190 190 193 195 196 198 199 201 202 203 205 206 207 209 209 210 211 212 212 213 214 214 215 215 215 216 215 216 216 215 216 215 215 215 214 214 213 212 212 211 210 210 208 207 206 205 203 202 201 200 197 196 195 193 191 189 187 185 183 181 179 177 174 172 169 167 165 162 159 157 154 151 148 146 142 140 136 134 130 127 124 121 117 114 111 107 104 100 97 94 89 87 82 79 75 72 67 65 60 56 53 49 45 41 37 33 30 25 22 18 14 9 6 2" /><path
         inkscape:connector-curvature="0"
         id="path961"
         style="fill:none;stroke:#000000;stroke-width:666.76965332;stroke-linecap:round;stroke-linejoin:round;stroke-miterlimit:10;stroke-dasharray:none;stroke-opacity:1"
         d="m 205950,261826 v -2 -6 -10 -13 -18 -22 -25 -30 -33 -37 -41 -45 -49 -53 -56 -61 -64 -67 -72 -75 -79 -83 -86 -90 -93 -97 -100 -104 -107 -111 -114 -117 -121 -124 -127 -130 -134 -136 -140 -142 -146 -148 -151 -154 -157 -159 -162 -165 -167 -169 -172 -175 -176 -179 -181 -183 -185 -187 -189 -191 -193 -195 -196 -198 -199 -201 -202 -203 -205 -206 -207 -209 -209 -210 -211 -212 -212 -213 -214 -214 -215 -215 -215 -216 -215 -216 -216 -215 -216 -215 -215 -215 -214 -214 -213 -212 -212 -211 -210 -209 -209 -207 -206 -205 -203 -202 -201 -199 -198 -196 -195 -193 -191 -189 -187 -185 -183 -181 -179 -176 -175 -172 -169 -167 -165 -162 -159 -157 -154 -151 -148 -146 -142 -140 -136 -134 -130 -127 -124 -121 -117 -114 -111 -107 -104 -100 -97 -93 -90 -86 -83 -79 -75 -72 -67 -64 -61 -56 -53 -49 -45 -41 -37 -33 -30 -25 -22 -18 -13 -10 -6 -2" /><path
         inkscape:connector-curvature="0"
         id="path963"
         style="fill:none;stroke:#000000;stroke-width:666.76965332;stroke-linecap:round;stroke-linejoin:round;stroke-miterlimit:10;stroke-dasharray:none;stroke-opacity:1"
         d="m 233509,265763 h -2 -6 -9 -14 -18 -22 -25 -30 -33 -37 -41 -45 -49 -53 -56 -60 -65 -67 -72 -75 -79 -82 -87 -89 -94 -97 -100 -104 -107 -111 -114 -117 -121 -124 -127 -130 -134 -136 -140 -142 -146 -148 -151 -154 -157 -159 -162 -165 -167 -169 -172 -174 -177 -179 -181 -183 -185 -187 -189 -191 -193 -195 -196 -197 -200 -201 -202 -203 -205 -206 -207 -208 -210 -210 -211 -212 -212 -213 -214 -214 -215 -215 -215 -216 -215 -216 -216 -215 -216 -215 -215 -215 -214 -214 -213 -212 -212 -211 -210 -209 -209 -207 -206 -205 -203 -202 -201 -199 -198 -196 -195 -193 -190 -190 -187 -185 -183 -181 -179 -176 -175 -172 -169 -167 -165 -162 -159 -157 -154 -151 -148 -146 -142 -140 -136 -134 -130 -127 -124 -121 -117 -114 -111 -107 -104 -100 -97 -93 -90 -86 -83 -79 -75 -72 -67 -64 -61 -56 -53 -49 -45 -41 -37 -33 -30 -25 -22 -18 -13 -10 -6 -2" /><path
         inkscape:connector-curvature="0"
         id="path965"
         style="fill:none;stroke:#000000;stroke-width:666.76965332;stroke-linecap:round;stroke-linejoin:round;stroke-miterlimit:10;stroke-dasharray:none;stroke-opacity:1"
         d="m 236819,240172 h -122 -125 -129 -132 -136 -139 -142 -146 -149 -152 -155 -159 -161 -165 -168 -171 -173 -177 -179 -183 -185 -188 -191 -193 -196 -198 -202 -203 -206 -209 -210 -213 -216 -217 -220 -222 -223 -226 -228 -229 -232 -233 -235 -237 -238 -240 -241 -243 -244 -245 -247 -248 -249 -250 -252 -252 -253 -254 -255 -256 -256 -257 -258 -258 -258 -259 -259 -260 -259 -260 -260 -260 -260 -260 -260 -259 -260 -258 -259 -258 -258 -257 -256 -256 -254 -255 -253 -252 -251 -251 -249 -248 -247 -245 -244 -243 -242 -239 -239 -236 -235 -234 -231" /><path
         inkscape:connector-curvature="0"
         id="path967"
         style="fill:none;stroke:#000000;stroke-width:666.76965332;stroke-linecap:round;stroke-linejoin:round;stroke-miterlimit:10;stroke-dasharray:none;stroke-opacity:1"
         d="m 213824,240172 v 225 227 229 231 233 235 236 239 240 242 243 246 246 248 250 251 252 254 255 256 257 258 259 260 260 262 262 264 263 265 264 266 265 266 267 266 267 267 267 267 267 267 266 267 266 265 266 264 265 263 264 262 262 260 260 259 258 257 256 255 254 252 251 250 248 246 246 243 242 240 239 236 235 233 231 229 227 225 h 231 234 235 236 239 239 242 243 244 245 247 248 249 251 251 252 253 255 254 256 256 257 258 258 259 258 260 259 260 260 260 260 260 260 259 260 259 259 258 258 258 257 256 256 255 254 253 252 252 250 249 248 247 245 244 243 241 240 238 237 235 233 232 229 228 226 223 222 220 217 216 213 210 209 206 203 202 198 196 193 191 188 185 183 179 177 173 171 168 165 161 159 155 152 149 146 142 139 136 132 129 125 122" /><g
         style="stroke-width:0.84722954"
         transform="rotate(-90,235857,14158.5)"
         id="g969"><path
           inkscape:connector-curvature="0"
           id="path971"
           style="fill:none;stroke:#000000;stroke-width:666.76965332;stroke-linecap:round;stroke-linejoin:round;stroke-miterlimit:10;stroke-dasharray:none;stroke-opacity:1"
           d="m -15748.354,-11811.36 c 1119.179,-1492.228 2444.766,-2817.815 3936.994,-3936.994" /></g><g
         style="stroke-width:0.84722954"
         transform="rotate(-90,235857,14158.5)"
         id="g973"><path
           inkscape:connector-curvature="0"
           id="path975"
           style="fill:none;stroke:#000000;stroke-width:666.76965332;stroke-linecap:round;stroke-linejoin:round;stroke-miterlimit:10;stroke-dasharray:none;stroke-opacity:1"
           d="M -9842.2051,17048.457 C -12144.321,15719.428 -14153.423,13937.919 -15748.354,11811.36" /></g><g
         style="stroke-width:0.84722954"
         transform="rotate(-90,235857,14158.5)"
         id="g977"><path
           inkscape:connector-curvature="0"
           id="path979"
           style="fill:none;stroke:#000000;stroke-width:666.76965332;stroke-linecap:round;stroke-linejoin:round;stroke-miterlimit:10;stroke-dasharray:none;stroke-opacity:1"
           d="m 15748.354,11811.36 c -1594.931,2126.559 -3604.033,3908.068 -5906.1489,5237.097" /></g><g
         style="stroke-width:0.84722954"
         transform="rotate(-90,235857,14158.5)"
         id="g981"><path
           inkscape:connector-curvature="0"
           id="path983"
           style="fill:none;stroke:#000000;stroke-width:666.76965332;stroke-linecap:round;stroke-linejoin:round;stroke-miterlimit:10;stroke-dasharray:none;stroke-opacity:1"
           d="m 11811.36,-15748.354 c 1492.228,1119.179 2817.815,2444.766 3936.994,3936.994" /></g></g></g><ellipse
     ry="23228.346"
     rx="23217.26"
     transform="scale(1,-1)"
     cy="-260125.67"
     cx="212986.08"
     id="path10228"
     style="opacity:1;fill:none;fill-opacity:1;fill-rule:evenodd;stroke:#9b9b9b;stroke-width:314.96063232;stroke-linecap:round;stroke-linejoin:round;stroke-miterlimit:4;stroke-dasharray:314.96062917, 629.92125833;stroke-dashoffset:0;stroke-opacity:1" /><ellipse
     transform="scale(1,-1)"
     ry="23228.346"
     rx="23217.26"
     cy="-259617.69"
     cx="259861.73"
     id="path10228-9"
     style="opacity:1;fill:none;fill-opacity:1;fill-rule:evenodd;stroke:#9b9b9b;stroke-width:314.96063232;stroke-linecap:round;stroke-linejoin:round;stroke-miterlimit:4;stroke-dasharray:314.96062917, 629.92125833;stroke-dashoffset:0;stroke-opacity:1" /></g><g
   id="g10456"
   transform="matrix(1.1704745,0,0,1.1711443,-46326.367,-18501.022)"
   style="stroke-width:0.85411"><g
     id="g825"
     style="stroke-width:0.85411"><g
       clip-path="url(#clipPath831)"
       id="g827"
       style="stroke-width:0.85411"><path
         inkscape:connector-curvature="0"
         id="path833"
         style="fill:none;stroke:#000000;stroke-width:672.18457031;stroke-linecap:round;stroke-linejoin:round;stroke-miterlimit:10;stroke-dasharray:none;stroke-opacity:1"
         d="m 243352,213301 v -2 -6 -10 -14 -18 -22 -25 -30 -34 -37 -42 -45 -49 -53 -57 -61 -65 -68 -73 -76 -79 -84 -87 -91 -95 -98 -102 -106 -109 -113 -116 -120 -123 -127 -130 -133 -137 -140 -143 -147 -150 -153 -156 -159 -162 -165 -168 -171 -174 -177 -179 -182 -185 -188 -190 -192 -196 -197 -200 -203 -204 -207 -209 -212 -213 -215 -218 -219 -221 -223 -225 -226 -229 -229 -231 -233 -234 -236 -237 -238 -239 -240 -241 -243 -243 -244 -245 -246 -246 -247 -248 -248 -249 -248 -250 -249 -250 -250 -250 -249 -250 -250 -249 -250 -248 -249 -248 -248 -247 -246 -246 -245 -244 -243 -243 -241 -240 -239 -238 -237 -236 -234 -233 -231 -229 -229 -226 -225 -223 -221 -219 -218 -215 -213 -212 -209 -207 -204 -203 -200 -197 -196 -192 -190 -188 -185 -182 -179 -177 -174 -171 -168 -165 -162 -159 -156 -153 -150 -147 -143 -140 -137 -133 -130 -127 -123 -120 -116 -113 -109 -106 -102 -98 -95 -91 -87 -84 -79 -76 -73 -68 -65 -61 -57 -53 -49 -45 -42 -37 -34 -30 -25 -22 -18 -14 -10 -6 -2" /><path
         inkscape:connector-curvature="0"
         id="path835"
         style="fill:none;stroke:#000000;stroke-width:672.18457031;stroke-linecap:round;stroke-linejoin:round;stroke-miterlimit:10;stroke-dasharray:none;stroke-opacity:1"
         d="m 241384,181804 v 2 6 10 14 18 22 25 30 34 37 42 45 49 53 57 61 65 68 73 76 79 84 87 91 95 98 102 106 109 113 116 120 123 127 130 133 137 140 143 147 150 153 156 159 162 165 168 171 174 177 179 182 185 188 190 192 196 197 200 203 204 207 209 212 213 215 218 219 221 223 225 226 229 229 231 233 234 236 237 238 239 240 241 243 243 244 245 246 246 247 248 248 249 248 250 249 250 250 249 250 250 250 249 250 248 249 248 248 247 246 246 245 244 243 243 241 240 239 238 237 236 234 233 231 229 229 226 225 223 221 219 218 215 213 212 209 207 204 203 200 197 196 192 190 188 185 182 179 177 174 171 168 165 162 159 156 153 150 147 143 140 137 133 130 127 123 120 116 113 109 106 102 98 95 91 87 84 79 76 73 68 65 61 57 53 49 45 42 37 34 30 25 22 18 14 10 6 2" /><path
         inkscape:connector-curvature="0"
         id="path837"
         style="fill:none;stroke:#000000;stroke-width:672.18457031;stroke-linecap:round;stroke-linejoin:round;stroke-miterlimit:10;stroke-dasharray:none;stroke-opacity:1"
         d="m 243352,189678 h 2596" /><path
         inkscape:connector-curvature="0"
         id="path839"
         style="fill:none;stroke:#000000;stroke-width:672.18457031;stroke-linecap:round;stroke-linejoin:round;stroke-miterlimit:10;stroke-dasharray:none;stroke-opacity:1"
         d="m 245948,205427 h -2596" /><path
         inkscape:connector-curvature="0"
         id="path841"
         style="fill:none;stroke:#000000;stroke-width:672.18457031;stroke-linecap:round;stroke-linejoin:round;stroke-miterlimit:10;stroke-dasharray:none;stroke-opacity:1"
         d="m 241384,213301 h 1968" /><path
         inkscape:connector-curvature="0"
         id="path843"
         style="fill:none;stroke:#000000;stroke-width:672.18457031;stroke-linecap:round;stroke-linejoin:round;stroke-miterlimit:10;stroke-dasharray:none;stroke-opacity:1"
         d="m 241384,181804 h 1968" /><path
         inkscape:connector-curvature="0"
         id="path845"
         style="fill:none;stroke:#000000;stroke-width:672.18457031;stroke-linecap:round;stroke-linejoin:round;stroke-miterlimit:10;stroke-dasharray:none;stroke-opacity:1"
         d="m 239415,181804 v 2 6 10 14 18 22 25 30 34 37 42 45 49 53 57 61 65 68 73 76 79 84 87 91 95 98 102 106 109 113 116 120 123 127 130 133 137 140 143 147 150 153 156 159 162 165 168 171 174 177 179 182 185 188 190 192 196 197 200 203 204 207 209 212 213 215 218 219 221 223 225 226 229 229 231 233 234 236 237 238 239 240 241 243 243 244 245 246 246 247 248 248 249 248 250 249 250 250 249 250 250 250 249 250 248 249 248 248 247 246 246 245 244 243 243 241 240 239 238 237 236 234 233 231 229 229 226 225 223 221 219 218 215 213 212 209 207 204 203 200 197 196 192 190 188 185 182 179 177 174 171 168 165 162 159 156 153 150 147 143 140 137 133 130 127 123 120 116 113 109 106 102 98 95 91 87 84 79 76 73 68 65 61 57 53 49 45 42 37 34 30 25 22 18 14 10 6 2" /><path
         inkscape:connector-curvature="0"
         id="path847"
         style="fill:none;stroke:#000000;stroke-width:672.18457031;stroke-linecap:round;stroke-linejoin:round;stroke-miterlimit:10;stroke-dasharray:none;stroke-opacity:1"
         d="m 241384,213301 v -2 -6 -10 -14 -18 -22 -25 -30 -34 -37 -42 -45 -49 -53 -57 -61 -65 -68 -73 -76 -79 -84 -87 -91 -95 -98 -102 -106 -109 -113 -116 -120 -123 -127 -130 -133 -137 -140 -143 -147 -150 -153 -156 -159 -162 -165 -168 -171 -174 -177 -179 -182 -185 -188 -190 -192 -196 -197 -200 -203 -204 -207 -209 -212 -213 -215 -218 -219 -221 -223 -225 -226 -229 -229 -231 -233 -234 -236 -237 -238 -239 -240 -241 -243 -243 -244 -245 -246 -246 -247 -248 -248 -249 -248 -250 -249 -250 -250 -250 -249 -250 -250 -249 -250 -248 -249 -248 -248 -247 -246 -246 -245 -244 -243 -243 -241 -240 -239 -238 -237 -236 -234 -233 -231 -229 -229 -226 -225 -223 -221 -219 -218 -215 -213 -212 -209 -207 -204 -203 -200 -197 -196 -192 -190 -188 -185 -182 -179 -177 -174 -171 -168 -165 -162 -159 -156 -153 -150 -147 -143 -140 -137 -133 -130 -127 -123 -120 -116 -113 -109 -106 -102 -98 -95 -91 -87 -84 -79 -76 -73 -68 -65 -61 -57 -53 -49 -45 -42 -37 -34 -30 -25 -22 -18 -14 -10 -6 -2" /><path
         inkscape:connector-curvature="0"
         id="path849"
         style="fill:none;stroke:#000000;stroke-width:672.18457031;stroke-linecap:round;stroke-linejoin:round;stroke-miterlimit:10;stroke-dasharray:none;stroke-opacity:1"
         d="m 239415,205427 h -2596" /><path
         inkscape:connector-curvature="0"
         id="path851"
         style="fill:none;stroke:#000000;stroke-width:672.18457031;stroke-linecap:round;stroke-linejoin:round;stroke-miterlimit:10;stroke-dasharray:none;stroke-opacity:1"
         d="m 236819,189678 h 2596" /><path
         inkscape:connector-curvature="0"
         id="path853"
         style="fill:none;stroke:#000000;stroke-width:672.18457031;stroke-linecap:round;stroke-linejoin:round;stroke-miterlimit:10;stroke-dasharray:none;stroke-opacity:1"
         d="m 241384,181804 h -1969" /><path
         inkscape:connector-curvature="0"
         id="path855"
         style="fill:none;stroke:#000000;stroke-width:672.18457031;stroke-linecap:round;stroke-linejoin:round;stroke-miterlimit:10;stroke-dasharray:none;stroke-opacity:1"
         d="m 241384,213301 h -1969" /><path
         inkscape:connector-curvature="0"
         id="path857"
         style="fill:none;stroke:#000000;stroke-width:672.18457031;stroke-linecap:round;stroke-linejoin:round;stroke-miterlimit:10;stroke-dasharray:none;stroke-opacity:1"
         d="m 276817,185741 v 2 6 10 14 18 21 26 29 34 37 41 45 49 52 57 60 64 68 71 76 79 82 86 90 93 97 101 104 107 111 114 117 121 124 127 130 133 137 139 143 145 149 151 154 156 160 162 164 167 170 172 174 177 178 181 184 185 187 189 191 193 194 196 198 199 201 202 204 205 206 207 208 209 210 211 212 213 213 213 215 214 215 216 215 216 216 215 216 215 216 215 214 215 213 213 213 212 211 210 209 208 207 206 205 204 202 201 199 198 196 194 193 191 189 187 185 184 181 178 177 174 172 170 167 164 162 160 156 154 151 149 145 143 139 137 133 130 127 124 121 117 114 111 107 104 101 97 93 90 86 82 79 76 71 68 64 60 57 52 49 45 41 37 34 29 26 21 18 14 10 6 2" /><g
         transform="rotate(-90,229311.5,-31758)"
         id="g859"
         style="stroke-width:0.85411"><path
           inkscape:connector-curvature="0"
           id="path861"
           style="fill:none;stroke:#000000;stroke-width:672.18457031;stroke-linecap:round;stroke-linejoin:round;stroke-miterlimit:10;stroke-dasharray:none;stroke-opacity:1"
           d="M 0,-11811.5 C 6523.3115,-11811.5 11811.5,-6523.3115 11811.5,0 11811.5,6523.3115 6523.3115,11811.5 0,11811.5 -6523.3115,11811.5 -11811.5,6523.3115 -11811.5,0 -11811.5,-6523.3115 -6523.3115,-11811.5 0,-11811.5" /></g><g
         transform="matrix(-0.88693,0.4619,-0.4619,-0.88693,261069.5,197553.5)"
         id="g863"
         style="stroke-width:0.85411"><path
           inkscape:connector-curvature="0"
           id="path865"
           style="fill:none;stroke:#000000;stroke-width:672.18457031;stroke-linecap:round;stroke-linejoin:round;stroke-miterlimit:10;stroke-dasharray:none;stroke-opacity:1"
           d="m 0,-17047.5 c 8087.5415,0 15062.138,5681.914 16696.68,13602.093 1634.543,7920.179 -2520.833,15898.794 -9947.6717,19100.23 C -677.83032,18856.26 -9332.082,16399.402 -13968.646,9773.2832" /></g><path
         inkscape:connector-curvature="0"
         id="path867"
         style="fill:none;stroke:#000000;stroke-width:672.18457031;stroke-linecap:round;stroke-linejoin:round;stroke-miterlimit:10;stroke-dasharray:none;stroke-opacity:1"
         d="m 268943,182432 v -144 -141 -137 -134 -130 -127 -124 -120 -116 -113 -109 -106 -102 -98 -95 -91 -87 -83 -80 -76 -72 -69 -64 -61 -57 -53 -49 -45 -41 -38 -33 -30 -25 -22 -18 -14 -9 -6 -2" /><path
         inkscape:connector-curvature="0"
         id="path869"
         style="fill:none;stroke:#000000;stroke-width:672.18457031;stroke-linecap:round;stroke-linejoin:round;stroke-miterlimit:10;stroke-dasharray:none;stroke-opacity:1"
         d="m 268943,215594 v -2 -6 -9 -14 -18 -22 -25 -30 -33 -38 -41 -45 -49 -53 -57 -61 -64 -69 -72 -76 -80 -83 -87 -91 -95 -98 -102 -106 -109 -113 -116 -120 -124 -127 -130 -134 -137 -141 -144" /><g
         transform="matrix(-0.91653,0.39998,-0.39998,-0.91653,261069.5,197553.5)"
         id="g871"
         style="stroke-width:0.85411"><path
           inkscape:connector-curvature="0"
           id="path873"
           style="fill:none;stroke:#000000;stroke-width:672.18457031;stroke-linecap:round;stroke-linejoin:round;stroke-miterlimit:10;stroke-dasharray:none;stroke-opacity:1"
           d="M -9709.5156,-17124.375 C -6748.8301,-18803.082 -3403.4858,-19685.5 0,-19685.5" /></g><g
         transform="rotate(53.130102,-67018.75,359846.25)"
         id="g875"
         style="stroke-width:0.85411"><path
           inkscape:connector-curvature="0"
           id="path877"
           style="fill:none;stroke:#000000;stroke-width:672.18457031;stroke-linecap:round;stroke-linejoin:round;stroke-miterlimit:10;stroke-dasharray:none;stroke-opacity:1"
           d="M -9709.5156,-17124.375 C -6748.8301,-18803.082 -3403.4858,-19685.5 0,-19685.5" /></g><path
         inkscape:connector-curvature="0"
         id="path879"
         style="fill:none;stroke:#000000;stroke-width:672.18457031;stroke-linecap:round;stroke-linejoin:round;stroke-miterlimit:10;stroke-dasharray:none;stroke-opacity:1"
         d="m 205950,209364 v -2 -6 -10 -14 -18 -21 -26 -29 -34 -37 -41 -45 -49 -52 -57 -60 -64 -68 -71 -76 -79 -82 -86 -90 -93 -97 -101 -104 -107 -111 -114 -117 -121 -124 -127 -130 -133 -137 -139 -143 -145 -149 -151 -154 -156 -160 -162 -164 -167 -170 -172 -174 -177 -178 -181 -184 -185 -187 -189 -191 -193 -194 -196 -198 -199 -201 -202 -204 -205 -206 -207 -208 -209 -210 -211 -212 -213 -213 -213 -215 -214 -215 -216 -215 -216 -216 -215 -216 -215 -216 -215 -214 -215 -213 -213 -213 -212 -211 -210 -209 -208 -207 -206 -205 -204 -202 -201 -199 -198 -196 -194 -193 -191 -189 -187 -185 -184 -181 -178 -177 -174 -172 -170 -167 -164 -162 -160 -156 -154 -151 -149 -145 -143 -139 -137 -133 -130 -127 -124 -121 -117 -114 -111 -107 -104 -101 -97 -93 -90 -86 -82 -79 -76 -71 -68 -64 -60 -57 -52 -49 -45 -41 -37 -34 -29 -26 -21 -18 -14 -10 -6 -2" /><g
         transform="rotate(-90,209625.5,-12073)"
         id="g881"
         style="stroke-width:0.85411"><path
           inkscape:connector-curvature="0"
           id="path883"
           style="fill:none;stroke:#000000;stroke-width:672.18457031;stroke-linecap:round;stroke-linejoin:round;stroke-miterlimit:10;stroke-dasharray:none;stroke-opacity:1"
           d="M 0,-11811.5 C 6523.3115,-11811.5 11811.5,-6523.3115 11811.5,0 11811.5,6523.3115 6523.3115,11811.5 0,11811.5 -6523.3115,11811.5 -11811.5,6523.3115 -11811.5,0 -11811.5,-6523.3115 -6523.3115,-11811.5 0,-11811.5" /></g><g
         transform="matrix(-0.4619,-0.88693,0.88693,-0.4619,221698.5,197552.5)"
         id="g885"
         style="stroke-width:0.85411"><path
           inkscape:connector-curvature="0"
           id="path887"
           style="fill:none;stroke:#000000;stroke-width:672.18457031;stroke-linecap:round;stroke-linejoin:round;stroke-miterlimit:10;stroke-dasharray:none;stroke-opacity:1"
           d="m 17048.5,0 c 0,8087.0669 -5682.247,15061.254 -13602.8909,16695.701 -7920.6438,1634.447 -15899.7261,-2520.685 -19101.3501,-9947.0887 -3201.624,-7426.40289 -744.622,-16080.1465 5881.8846,-20716.4393" /></g><path
         inkscape:connector-curvature="0"
         id="path889"
         style="fill:none;stroke:#000000;stroke-width:672.18457031;stroke-linecap:round;stroke-linejoin:round;stroke-miterlimit:10;stroke-dasharray:none;stroke-opacity:1"
         d="m 213824,212673 v 144 141 137 134 130 127 124 120 116 113 109 106 102 98 95 91 87 83 80 76 72 69 64 61 57 53 49 45 41 38 33 30 25 22 18 14 9 6 2" /><path
         inkscape:connector-curvature="0"
         id="path891"
         style="fill:none;stroke:#000000;stroke-width:672.18457031;stroke-linecap:round;stroke-linejoin:round;stroke-miterlimit:10;stroke-dasharray:none;stroke-opacity:1"
         d="m 213824,179511 v 2 6 9 14 18 22 25 30 33 38 41 45 49 53 57 61 64 69 72 76 80 83 87 91 95 98 102 106 109 113 116 120 124 127 130 134 137 141 144" /><g
         transform="matrix(0.91653,-0.39998,0.39998,0.91653,221698.5,197552.5)"
         id="g893"
         style="stroke-width:0.85411"><path
           inkscape:connector-curvature="0"
           id="path895"
           style="fill:none;stroke:#000000;stroke-width:672.18457031;stroke-linecap:round;stroke-linejoin:round;stroke-miterlimit:10;stroke-dasharray:none;stroke-opacity:1"
           d="M -9709.5156,-17124.375 C -6748.8301,-18803.082 -3403.4858,-19685.5 0,-19685.5" /></g><g
         transform="rotate(-126.8699,160237.37,43351.625)"
         id="g897"
         style="stroke-width:0.85411"><path
           inkscape:connector-curvature="0"
           id="path899"
           style="fill:none;stroke:#000000;stroke-width:672.18457031;stroke-linecap:round;stroke-linejoin:round;stroke-miterlimit:10;stroke-dasharray:none;stroke-opacity:1"
           d="M -9709.5156,-17124.375 C -6748.8301,-18803.082 -3403.4858,-19685.5 0,-19685.5" /></g></g></g><ellipse
     transform="scale(1,-1)"
     ry="19985.902"
     rx="19976.354"
     cy="-197500.02"
     cx="261458.31"
     id="path10228-9-3"
     style="opacity:1;fill:none;fill-opacity:1;fill-rule:evenodd;stroke:#9b9b9b;stroke-width:269.01104736;stroke-linecap:round;stroke-linejoin:round;stroke-miterlimit:4;stroke-dasharray:269.01103118, 538.02206236;stroke-dashoffset:0;stroke-opacity:1" /><ellipse
     transform="scale(1,-1)"
     ry="19985.902"
     rx="19976.354"
     cy="-197400.64"
     cx="220970.86"
     id="path10228-9-3-6"
     style="opacity:1;fill:none;fill-opacity:1;fill-rule:evenodd;stroke:#9b9b9b;stroke-width:269.01104736;stroke-linecap:round;stroke-linejoin:round;stroke-miterlimit:4;stroke-dasharray:269.01103138, 538.02206276;stroke-dashoffset:0;stroke-opacity:1" /></g><text
   xml:space="preserve"
   style="font-style:normal;font-variant:normal;font-weight:normal;font-stretch:normal;font-size:5208.33349609px;line-height:125%;font-family:'Latin Modern Sans';-inkscape-font-specification:'Latin Modern Sans';letter-spacing:0px;word-spacing:0px;fill:#000000;fill-opacity:1;stroke:none;stroke-width:416.66665649px;stroke-linecap:butt;stroke-linejoin:miter;stroke-opacity:1"
   x="221273.25"
   y="-170858.34"
   id="text2753-9"
   transform="scale(1,-1)"><tspan
     sodipodi:role="line"
     id="tspan2751-1"
     x="221273.25"
     y="-170858.34"
     style="font-size:8333.33300781px;stroke-width:416.66665649px">Side view</tspan></text>
<text
   xml:space="preserve"
   style="font-style:normal;font-variant:normal;font-weight:normal;font-stretch:normal;font-size:5208.33349609px;line-height:125%;font-family:'Latin Modern Sans';-inkscape-font-specification:'Latin Modern Sans';letter-spacing:0px;word-spacing:0px;fill:#000000;fill-opacity:1;stroke:none;stroke-width:416.66665649px;stroke-linecap:butt;stroke-linejoin:miter;stroke-opacity:1"
   x="148123.83"
   y="-170083.34"
   id="text2753"
   transform="scale(1,-1)"><tspan
     sodipodi:role="line"
     id="tspan2751"
     x="148123.83"
     y="-170083.34"
     style="font-size:8333.33300781px;stroke-width:416.66665649px">Front view</tspan></text>
<text
   xml:space="preserve"
   style="font-style:normal;font-variant:normal;font-weight:normal;font-stretch:normal;font-size:5208.33349609px;line-height:125%;font-family:'Latin Modern Sans';-inkscape-font-specification:'Latin Modern Sans';letter-spacing:0px;word-spacing:0px;fill:#000000;fill-opacity:1;stroke:none;stroke-width:416.66665649px;stroke-linecap:butt;stroke-linejoin:miter;stroke-opacity:1"
   x="221040.5"
   y="-299041.69"
   id="text2753-0"
   transform="scale(1,-1)"><tspan
     sodipodi:role="line"
     id="tspan2751-9"
     x="221040.5"
     y="-299041.69"
     style="font-size:8333.33300781px;stroke-width:416.66665649px">Top view</tspan></text>
<text
   xml:space="preserve"
   style="font-style:normal;font-variant:normal;font-weight:normal;font-stretch:normal;font-size:5208.33349609px;line-height:125%;font-family:'Latin Modern Sans';-inkscape-font-specification:'Latin Modern Sans';letter-spacing:0px;word-spacing:0px;fill:#000000;fill-opacity:1;stroke:none;stroke-width:416.66665649px;stroke-linecap:butt;stroke-linejoin:miter;stroke-opacity:1"
   x="327685.81"
   y="-172083.34"
   id="text2753-9-2"
   transform="scale(1,-1)"><tspan
     sodipodi:role="line"
     id="tspan2751-1-7"
     x="327685.81"
     y="-172083.34"
     style="font-size:8333.33300781px;stroke-width:416.66665649px">Perspective view</tspan></text>
</g></svg>