<?xml version="1.0" encoding="UTF-8" standalone="no"?>
<!-- Created with Inkscape (http://www.inkscape.org/) -->

<svg
   xmlns:dc="http://purl.org/dc/elements/1.1/"
   xmlns:cc="http://creativecommons.org/ns#"
   xmlns:rdf="http://www.w3.org/1999/02/22-rdf-syntax-ns#"
   xmlns:svg="http://www.w3.org/2000/svg"
   xmlns="http://www.w3.org/2000/svg"
   xmlns:sodipodi="http://sodipodi.sourceforge.net/DTD/sodipodi-0.dtd"
   xmlns:inkscape="http://www.inkscape.org/namespaces/inkscape"
   width="234.85765mm"
   height="68.577675mm"
   viewBox="0 0 234.85765 68.577675"
   version="1.1"
   id="svg7128"
   inkscape:version="0.92.3 (2405546, 2018-03-11)"
   sodipodi:docname="rofi_grid.svg">
  <defs
     id="defs7122">
    <clipPath
       clipPathUnits="userSpaceOnUse"
       id="clipPath6319">
      <path
         d="m 228196,267383 h 77443 v 65636 h -77443 v -65636"
         id="path6317"
         inkscape:connector-curvature="0" />
    </clipPath>
    <clipPath
       clipPathUnits="userSpaceOnUse"
       id="clipPath6307">
      <path
         d="m 60099,271829 h 49605 v 49605 H 60099 v -49605"
         id="path6305"
         inkscape:connector-curvature="0" />
    </clipPath>
    <clipPath
       clipPathUnits="userSpaceOnUse"
       id="clipPath6289">
      <path
         d="m 111135,271829 h 88974 v 49605 h -88974 v -49605"
         id="path6287"
         inkscape:connector-curvature="0" />
    </clipPath>
  </defs>
  <sodipodi:namedview
     id="base"
     pagecolor="#ffffff"
     bordercolor="#666666"
     borderopacity="1.0"
     inkscape:pageopacity="0.0"
     inkscape:pageshadow="2"
     inkscape:zoom="0.7"
     inkscape:cx="-119.60296"
     inkscape:cy="-128.1738"
     inkscape:document-units="mm"
     inkscape:current-layer="layer1"
     showgrid="false"
     inkscape:window-width="1916"
     inkscape:window-height="1040"
     inkscape:window-x="0"
     inkscape:window-y="18"
     inkscape:window-maximized="0"
     fit-margin-top="5"
     fit-margin-left="5"
     fit-margin-right="5"
     fit-margin-bottom="5">
    <inkscape:grid
       type="xygrid"
       id="grid7673"
       units="cm"
       spacingx="30"
       spacingy="30"
       originx="18.885775"
       originy="-191.11761" />
  </sodipodi:namedview>
  <metadata
     id="metadata7125">
    <rdf:RDF>
      <cc:Work
         rdf:about="">
        <dc:format>image/svg+xml</dc:format>
        <dc:type
           rdf:resource="http://purl.org/dc/dcmitype/StillImage" />
        <dc:title></dc:title>
      </cc:Work>
    </rdf:RDF>
  </metadata>
  <g
     inkscape:label="Layer 1"
     inkscape:groupmode="layer"
     id="layer1"
     transform="translate(18.885775,-37.304709)">
    <path
       id="path8401"
       style="fill:none;fill-rule:evenodd;stroke:#2167ff;stroke-width:0.40000001;stroke-linecap:butt;stroke-linejoin:miter;stroke-miterlimit:4;stroke-dasharray:none;stroke-opacity:1"
       d="M 120,50.283332 V 95.304167 M 89.999999,50.283332 V 95.304167 M 59.999998,50.283332 V 95.304167 M 0,50.283332 V 95.304167 M 30,50.283332 V 95.304167 M -6.1875,87 H 128.83333 M -6.1875,56.999999 h 135.02083"
       inkscape:connector-curvature="0"
       sodipodi:nodetypes="cccccccccccccc" />
    <g
       id="g8385"
       transform="matrix(1.2441965,0,0,1.2441965,-35.023891,-24.882122)"
       style="stroke-width:0.8037315">
      <g
         id="g6313"
         transform="matrix(6.35e-4,0,0,-6.35e-4,6.68044,262.86135)"
         style="stroke-width:0.8037315">
        <g
           clip-path="url(#clipPath6319)"
           id="g6315"
           style="stroke-width:0.8037315">
          <g
             transform="matrix(0.49906,-0.86657,0.86657,0.49906,280837.5,308217.5)"
             id="g6321"
             style="stroke-width:0.8037315">
            <path
               inkscape:connector-curvature="0"
               id="path6323"
               style="fill:none;stroke:#000000;stroke-width:632.53674316;stroke-linecap:round;stroke-linejoin:round;stroke-miterlimit:10;stroke-dasharray:none;stroke-opacity:1"
               d="M 19685.5,0 C 19685.5,10872.002 10872.002,19685.5 0,19685.5 -10872.002,19685.5 -19685.5,10872.002 -19685.5,0" />
          </g>
          <g
             transform="matrix(-0.49906,0.86657,-0.86657,-0.49906,252998.5,292185.5)"
             id="g6325"
             style="stroke-width:0.8037315">
            <path
               inkscape:connector-curvature="0"
               id="path6327"
               style="fill:none;stroke:#000000;stroke-width:632.53674316;stroke-linecap:round;stroke-linejoin:round;stroke-miterlimit:10;stroke-dasharray:none;stroke-opacity:1"
               d="M 19685.5,0 C 19685.5,10872.002 10872.002,19685.5 0,19685.5 -10872.002,19685.5 -19685.5,10872.002 -19685.5,0" />
          </g>
          <g
             transform="matrix(0.49906,-0.86657,0.86657,0.49906,280837.5,308217.5)"
             id="g6329"
             style="stroke-width:0.8037315">
            <path
               inkscape:connector-curvature="0"
               id="path6331"
               style="fill:none;stroke:#000000;stroke-width:442.8560791;stroke-linecap:round;stroke-linejoin:round;stroke-miterlimit:10;stroke-dasharray:none;stroke-opacity:1"
               d="M 19685.5,0 C 19685.5,6285.2769 10872.002,11380.5 0,11380.5 -10872.002,11380.5 -19685.5,6285.2769 -19685.5,0" />
          </g>
          <path
             inkscape:connector-curvature="0"
             id="path6333"
             style="fill:none;stroke:#000000;stroke-width:316.67022705;stroke-linecap:round;stroke-linejoin:round;stroke-miterlimit:10;stroke-dasharray:none;stroke-opacity:1"
             d="m 290661,291158 -142,-79 -143,-76 -145,-72 -147,-68 -148,-65 -151,-62 -153,-58 -154,-55 -156,-50 -158,-48 -159,-44 -161,-40 -163,-36 -164,-33 -166,-30 -167,-25 -169,-23 -170,-18 -172,-15 -173,-11 -174,-8 -176,-4 h -177 l -178,3 -180,7 h -7" />
          <path
             inkscape:connector-curvature="0"
             id="path6335"
             style="fill:none;stroke:#000000;stroke-width:316.67022705;stroke-linecap:round;stroke-linejoin:round;stroke-miterlimit:10;stroke-dasharray:none;stroke-opacity:1"
             d="m 284755,290518 -182,44 -191,50 -192,54 -192,57 -193,61 -194,64 -194,68 -195,72 -195,74 -196,79 -196,81 -196,85 -197,89 -197,92 -197,95 -197,99 -198,102 -180,96" />
          <path
             inkscape:connector-curvature="0"
             id="path6337"
             style="fill:none;stroke:#000000;stroke-width:316.67022705;stroke-linecap:round;stroke-linejoin:round;stroke-miterlimit:10;stroke-dasharray:none;stroke-opacity:1"
             d="m 279670,292852 -193,131 -197,138 -197,140 -196,143 -195,147 -196,149 -194,152 -195,156 -194,158 -193,161 -192,163 -192,167 -191,169 -191,172 -189,174 -21,19" />
          <path
             inkscape:connector-curvature="0"
             id="path6339"
             style="fill:none;stroke:#000000;stroke-width:316.67022705;stroke-linecap:round;stroke-linejoin:round;stroke-miterlimit:10;stroke-dasharray:none;stroke-opacity:1"
             d="m 275417,296515 -136,146 -181,197 -180,199 -178,201 -178,204 -176,206 -174,208 -174,210 -172,212 -170,215 -169,216 -168,218 -166,220 -165,221 -7,10" />
          <path
             inkscape:connector-curvature="0"
             id="path6341"
             style="fill:none;stroke:#000000;stroke-width:316.67022705;stroke-linecap:round;stroke-linejoin:round;stroke-miterlimit:10;stroke-dasharray:none;stroke-opacity:1"
             d="m 271955,300940 -31,48 -151,235 -149,236 -148,237 -145,239 -144,240 -141,242 -140,242 -138,244 -135,245 -134,245 -131,247 -130,248 -127,248 -26,52" />
          <path
             inkscape:connector-curvature="0"
             id="path6343"
             style="fill:none;stroke:#000000;stroke-width:316.67022705;stroke-linecap:round;stroke-linejoin:round;stroke-miterlimit:10;stroke-dasharray:none;stroke-opacity:1"
             d="m 269288,305885 -5,11 -109,253 -107,255 -105,254 -102,255 -99,255 -97,255 -95,255 -92,256 -90,256 -87,255 -85,256 -82,255 -80,255 -58,192" />
          <path
             inkscape:connector-curvature="0"
             id="path6345"
             style="fill:none;stroke:#000000;stroke-width:316.67022705;stroke-linecap:round;stroke-linejoin:round;stroke-miterlimit:10;stroke-dasharray:none;stroke-opacity:1"
             d="m 267517,311215 -6,27 -56,252 -53,251 -50,250 -48,249 -45,249 -42,248 -40,247 -36,246 -34,245 -31,244 -29,242 -25,242 -23,240 -20,239 -17,234" />
          <path
             inkscape:connector-curvature="0"
             id="path6347"
             style="fill:none;stroke:#000000;stroke-width:316.67022705;stroke-linecap:round;stroke-linejoin:round;stroke-miterlimit:10;stroke-dasharray:none;stroke-opacity:1"
             d="m 266926,316794 8,204 11,222 13,220 17,219 19,216 22,215 25,212 28,211 30,208 34,207 36,204 39,202 41,200 44,197 47,195 50,193 53,190 53,181" />
          <path
             inkscape:connector-curvature="0"
             id="path6349"
             style="fill:none;stroke:#000000;stroke-width:316.67022705;stroke-linecap:round;stroke-linejoin:round;stroke-miterlimit:10;stroke-dasharray:none;stroke-opacity:1"
             d="m 268193,322228 3,6 84,159 87,155 89,153 92,150 94,147 96,144 99,141 102,138 104,135 106,132 109,128 111,126 113,122 116,119 117,116 121,113 122,109 124,106 127,103 129,100 131,96 133,92 135,90 137,85 140,83" />
          <g
             transform="matrix(0.49906,-0.86657,0.86657,0.49906,252998.5,292185.5)"
             id="g6351"
             style="stroke-width:0.8037315">
            <path
               inkscape:connector-curvature="0"
               id="path6353"
               style="fill:none;stroke:#000000;stroke-width:442.8560791;stroke-linecap:round;stroke-linejoin:round;stroke-miterlimit:10;stroke-dasharray:none;stroke-opacity:1"
               d="M 19685.5,0 C 19685.5,6285.2769 10872.002,11380.5 0,11380.5 -10872.002,11380.5 -19685.5,6285.2769 -19685.5,0" />
          </g>
          <path
             inkscape:connector-curvature="0"
             id="path6355"
             style="fill:none;stroke:#000000;stroke-width:632.53674316;stroke-linecap:round;stroke-linejoin:round;stroke-miterlimit:10;stroke-dasharray:none;stroke-opacity:1"
             d="m 262821,275126 27840,16032" />
          <path
             inkscape:connector-curvature="0"
             id="path6357"
             style="fill:none;stroke:#000000;stroke-width:632.53674316;stroke-linecap:round;stroke-linejoin:round;stroke-miterlimit:10;stroke-dasharray:none;stroke-opacity:1"
             d="m 243174,309244 27840,16032" />
          <path
             inkscape:connector-curvature="0"
             id="path6359"
             style="fill:none;stroke:#000000;stroke-width:316.67022705;stroke-linecap:round;stroke-linejoin:round;stroke-miterlimit:10;stroke-dasharray:none;stroke-opacity:1"
             d="m 262821,275126 -141,-79 -143,-75 -145,-73 -147,-68 -149,-65 -150,-62 -153,-58 -154,-54 -156,-51 -158,-47 -159,-44 -161,-40 -163,-37 -164,-33 -166,-29 -167,-26 -169,-22 -170,-19 -172,-15 -173,-11 -174,-8 -176,-4 h -177 l -178,3 -180,7 h -7" />
          <path
             inkscape:connector-curvature="0"
             id="path6361"
             style="fill:none;stroke:#000000;stroke-width:316.67022705;stroke-linecap:round;stroke-linejoin:round;stroke-miterlimit:10;stroke-dasharray:none;stroke-opacity:1"
             d="m 256916,274486 -182,45 -191,50 -192,53 -192,58 -193,60 -194,65 -194,68 -195,71 -195,75 -196,78 -196,82 -196,85 -197,88 -197,92 -197,96 -198,98 -197,102 -180,96" />
          <path
             inkscape:connector-curvature="0"
             id="path6363"
             style="fill:none;stroke:#000000;stroke-width:316.67022705;stroke-linecap:round;stroke-linejoin:round;stroke-miterlimit:10;stroke-dasharray:none;stroke-opacity:1"
             d="m 251831,276820 -193,132 -197,137 -197,140 -196,144 -196,146 -195,150 -195,152 -194,155 -194,158 -193,161 -192,164 -192,166 -191,169 -191,172 -189,175 -21,19" />
          <path
             inkscape:connector-curvature="0"
             id="path6365"
             style="fill:none;stroke:#000000;stroke-width:316.67022705;stroke-linecap:round;stroke-linejoin:round;stroke-miterlimit:10;stroke-dasharray:none;stroke-opacity:1"
             d="m 247578,280483 -137,146 -180,197 -180,199 -179,202 -177,203 -176,206 -175,208 -173,211 -172,212 -170,214 -170,216 -167,218 -166,220 -165,222 -7,10" />
          <path
             inkscape:connector-curvature="0"
             id="path6367"
             style="fill:none;stroke:#000000;stroke-width:316.67022705;stroke-linecap:round;stroke-linejoin:round;stroke-miterlimit:10;stroke-dasharray:none;stroke-opacity:1"
             d="m 244116,284908 -31,48 -151,235 -150,236 -147,238 -145,239 -144,240 -142,241 -139,243 -138,243 -136,245 -133,246 -132,246 -129,248 -127,248 -26,52" />
          <path
             inkscape:connector-curvature="0"
             id="path6369"
             style="fill:none;stroke:#000000;stroke-width:316.67022705;stroke-linecap:round;stroke-linejoin:round;stroke-miterlimit:10;stroke-dasharray:none;stroke-opacity:1"
             d="m 241449,289853 -5,11 -110,254 -106,254 -105,254 -102,255 -99,255 -98,255 -94,256 -93,255 -89,256 -88,255 -84,256 -82,255 -80,256 -58,191" />
          <path
             inkscape:connector-curvature="0"
             id="path6371"
             style="fill:none;stroke:#000000;stroke-width:316.67022705;stroke-linecap:round;stroke-linejoin:round;stroke-miterlimit:10;stroke-dasharray:none;stroke-opacity:1"
             d="m 239678,295184 -6,26 -56,252 -53,251 -51,250 -47,250 -45,248 -42,248 -40,247 -36,246 -34,245 -32,244 -28,243 -25,241 -23,241 -20,239 -17,234" />
          <path
             inkscape:connector-curvature="0"
             id="path6373"
             style="fill:none;stroke:#000000;stroke-width:316.67022705;stroke-linecap:round;stroke-linejoin:round;stroke-miterlimit:10;stroke-dasharray:none;stroke-opacity:1"
             d="m 239087,300763 7,203 11,222 14,221 17,218 19,217 22,214 25,213 28,210 30,209 34,206 36,204 38,202 42,200 44,197 47,196 50,192 53,191 53,180" />
          <path
             inkscape:connector-curvature="0"
             id="path6375"
             style="fill:none;stroke:#000000;stroke-width:316.67022705;stroke-linecap:round;stroke-linejoin:round;stroke-miterlimit:10;stroke-dasharray:none;stroke-opacity:1"
             d="m 240354,306196 3,6 84,159 87,156 89,153 91,150 95,147 96,144 99,141 102,137 104,135 106,132 109,129 111,125 113,123 115,119 118,116 120,112 123,110 124,106 127,102 129,100 131,96 133,93 135,89 137,86 139,82" />
        </g>
      </g>
    </g>
    <g
       id="g8353"
       transform="matrix(1.1958128,0,0,1.1959398,-36.355065,-17.046769)"
       style="stroke-width:0.83620691">
      <g
         id="g6283"
         transform="matrix(6.35e-4,0,0,-6.35e-4,6.68044,262.86135)"
         style="stroke-width:0.83620691">
        <g
           clip-path="url(#clipPath6289)"
           id="g6285"
           style="stroke-width:0.83620691">
          <g
             transform="rotate(180,87653.75,148316.25)"
             id="g6291"
             style="stroke-width:0.83620691">
            <path
               inkscape:connector-curvature="0"
               id="path6293"
               style="fill:none;stroke:#000000;stroke-width:658.09484863;stroke-linecap:round;stroke-linejoin:round;stroke-miterlimit:10;stroke-dasharray:none;stroke-opacity:1"
               d="m 0,19685.5 c -10872.002,0 -19685.5,-8813.498 -19685.5,-19685.5 0,-10872.002 8813.498,-19685.5 19685.5,-19685.5" />
          </g>
          <path
             inkscape:connector-curvature="0"
             id="path6295"
             style="fill:none;stroke:#000000;stroke-width:658.09484863;stroke-linecap:round;stroke-linejoin:round;stroke-miterlimit:10;stroke-dasharray:none;stroke-opacity:1"
             d="m 135937,276946 h 39370" />
          <path
             inkscape:connector-curvature="0"
             id="path6297"
             style="fill:none;stroke:#000000;stroke-width:658.09484863;stroke-linecap:round;stroke-linejoin:round;stroke-miterlimit:10;stroke-dasharray:none;stroke-opacity:1"
             d="m 135937,316317 h 39370" />
          <path
             inkscape:connector-curvature="0"
             id="path6299"
             style="fill:none;stroke:#000000;stroke-width:658.09484863;stroke-linecap:round;stroke-linejoin:round;stroke-miterlimit:10;stroke-dasharray:none;stroke-opacity:1"
             d="m 135937.5,316318 c -10872,0 -19685.5,-8813.5 -19685.5,-19685.5 0,-10872 8813.5,-19685.5 19685.5,-19685.5" />
        </g>
      </g>
      <path
         inkscape:connector-curvature="0"
         id="path6511"
         style="fill:none;stroke:#000000;stroke-width:0.20921059;stroke-linecap:round;stroke-linejoin:round;stroke-miterlimit:10;stroke-dasharray:none;stroke-opacity:1"
         d="m 120,62.00005 h 28.06954" />
      <path
         inkscape:connector-curvature="0"
         id="path6513"
         style="fill:none;stroke:#000000;stroke-width:0.20921059;stroke-linecap:round;stroke-linejoin:round;stroke-miterlimit:10;stroke-dasharray:none;stroke-opacity:1"
         d="m 120,87 h 28.06954" />
      <path
         inkscape:connector-curvature="0"
         id="path6515"
         style="fill:none;stroke:#000000;stroke-width:0.20921059;stroke-linecap:round;stroke-linejoin:round;stroke-miterlimit:10;stroke-dasharray:none;stroke-opacity:1"
         d="M 146.06993,65.50017 V 83.500515" />
      <g
         id="g6517"
         transform="matrix(6.35e-4,0,0,-6.35e-4,6.68044,262.86135)"
         style="stroke-width:0.83620691">
        <path
           inkscape:connector-curvature="0"
           id="path6519"
           style="fill:#000000;fill-opacity:1;fill-rule:nonzero;stroke:#000000;stroke-width:348.41952515;stroke-linecap:round;stroke-linejoin:miter;stroke-miterlimit:10;stroke-dasharray:none;stroke-opacity:1"
           d="m 218592,310805 h 1837 l -918,5512 z" />
      </g>
      <g
         id="g6521"
         transform="matrix(6.35e-4,0,0,-6.35e-4,6.68044,262.86135)"
         style="stroke-width:0.83620691">
        <path
           inkscape:connector-curvature="0"
           id="path6523"
           style="fill:#000000;fill-opacity:1;fill-rule:nonzero;stroke:#000000;stroke-width:348.41952515;stroke-linecap:round;stroke-linejoin:miter;stroke-miterlimit:10;stroke-dasharray:none;stroke-opacity:1"
           d="m 218592,282458 h 1837 l -918,-5511 z" />
      </g>
      <text
         y="144.50974"
         x="-78.728493"
         id="text6527"
         style="font-variant:normal;font-weight:normal;font-size:4.88948917px;font-family:Arial;-inkscape-font-specification:ArialMT;writing-mode:lr-tb;fill:#000000;fill-opacity:1;fill-rule:nonzero;stroke:none;stroke-width:0.00053099"
         transform="rotate(-90)">
        <tspan
           id="tspan6525"
           sodipodi:role="line"
           y="144.50974"
           x="-78.728493 -76.009933 -73.291382"
           style="stroke-width:0.00053099">100</tspan>
      </text>
      <path
         inkscape:connector-curvature="0"
         id="path6529"
         style="fill:none;stroke:#000000;stroke-width:0.20921059;stroke-linecap:round;stroke-linejoin:round;stroke-miterlimit:10;stroke-dasharray:none;stroke-opacity:1"
         d="M 80.50046,72.50041 V 52.70111" />
      <path
         inkscape:connector-curvature="0"
         id="path6531"
         style="fill:none;stroke:#000000;stroke-width:0.20921059;stroke-linecap:round;stroke-linejoin:round;stroke-miterlimit:10;stroke-dasharray:none;stroke-opacity:1"
         d="M 130.50036,72.50041 V 52.70111" />
      <path
         inkscape:connector-curvature="0"
         id="path6533"
         style="fill:none;stroke:#000000;stroke-width:0.20921059;stroke-linecap:round;stroke-linejoin:round;stroke-miterlimit:10;stroke-dasharray:none;stroke-opacity:1"
         d="M 83.999945,54.70136 H 127.00024" />
      <g
         id="g6535"
         transform="matrix(6.35e-4,0,0,-6.35e-4,6.68044,262.86135)"
         style="stroke-width:0.83620691">
        <path
           inkscape:connector-curvature="0"
           id="path6537"
           style="fill:#000000;fill-opacity:1;fill-rule:nonzero;stroke:#000000;stroke-width:348.41952515;stroke-linecap:round;stroke-linejoin:miter;stroke-miterlimit:10;stroke-dasharray:none;stroke-opacity:1"
           d="m 121763,328730 v -1838 l -5511,919 z" />
      </g>
      <g
         id="g6539"
         transform="matrix(6.35e-4,0,0,-6.35e-4,6.68044,262.86135)"
         style="stroke-width:0.83620691">
        <path
           inkscape:connector-curvature="0"
           id="path6541"
           style="fill:#000000;fill-opacity:1;fill-rule:nonzero;stroke:#000000;stroke-width:348.41952515;stroke-linecap:round;stroke-linejoin:miter;stroke-miterlimit:10;stroke-dasharray:none;stroke-opacity:1"
           d="m 189480,328730 v -1838 l 5512,919 z" />
      </g>
      <text
         y="53.1418"
         x="101.46689"
         id="text6545"
         style="font-variant:normal;font-weight:normal;font-size:4.88948917px;font-family:Arial;-inkscape-font-specification:ArialMT;writing-mode:lr-tb;fill:#000000;fill-opacity:1;fill-rule:nonzero;stroke:none;stroke-width:0.00053099">
        <tspan
           id="tspan6543"
           sodipodi:role="line"
           y="53.1418"
           x="101.46689 104.18544 106.904"
           style="stroke-width:0.00053099">200</tspan>
      </text>
    </g>
    <g
       id="g8326"
       transform="matrix(1.1659119,0,0,1.1754186,-55.532185,-15.424674)"
       style="stroke-width:0.85422224">
      <g
         id="g6301"
         transform="matrix(6.35e-4,0,0,-6.35e-4,6.68044,262.86135)"
         style="stroke-width:0.85422224">
        <g
           clip-path="url(#clipPath6307)"
           id="g6303"
           style="stroke-width:0.85422224">
          <g
             transform="rotate(90,-105865,190767.5)"
             id="g6309"
             style="stroke-width:0.85422224">
            <path
               inkscape:connector-curvature="0"
               id="path6311"
               style="fill:none;stroke:#000000;stroke-width:672.27288818;stroke-linecap:round;stroke-linejoin:round;stroke-miterlimit:10;stroke-dasharray:none;stroke-opacity:1"
               d="m 0,-19685.5 c 10872.002,0 19685.5,8813.498 19685.5,19685.5 0,10872.002 -8813.498,19685.5 -19685.5,19685.5 -10872.002,0 -19685.5,-8813.498 -19685.5,-19685.5 0,-10872.002 8813.498,-19685.5 19685.5,-19685.5" />
          </g>
        </g>
      </g>
      <path
         inkscape:connector-curvature="0"
         id="path6547"
         style="fill:none;stroke:#000000;stroke-width:0.21371785;stroke-linecap:round;stroke-linejoin:round;stroke-miterlimit:10;stroke-dasharray:none;stroke-opacity:1"
         d="M 58.59296,87 H 38.79366" />
      <path
         inkscape:connector-curvature="0"
         id="path6549"
         style="fill:none;stroke:#000000;stroke-width:0.21371785;stroke-linecap:round;stroke-linejoin:round;stroke-miterlimit:10;stroke-dasharray:none;stroke-opacity:1"
         d="M 58.59296,62.00005 H 38.79366" />
      <path
         inkscape:connector-curvature="0"
         id="path6551"
         style="fill:none;stroke:#000000;stroke-width:0.21371785;stroke-linecap:round;stroke-linejoin:round;stroke-miterlimit:10;stroke-dasharray:none;stroke-opacity:1"
         d="M 40.79391,83.500515 V 65.50017" />
      <g
         id="g6553"
         transform="matrix(6.35e-4,0,0,-6.35e-4,6.68044,262.86135)"
         style="stroke-width:0.85422224">
        <path
           inkscape:connector-curvature="0"
           id="path6555"
           style="fill:#000000;fill-opacity:1;fill-rule:nonzero;stroke:#000000;stroke-width:355.92593384;stroke-linecap:round;stroke-linejoin:miter;stroke-miterlimit:10;stroke-dasharray:none;stroke-opacity:1"
           d="m 52803,282458 h 1838 l -919,-5511 z" />
      </g>
      <g
         id="g6557"
         transform="matrix(6.35e-4,0,0,-6.35e-4,6.68044,262.86135)"
         style="stroke-width:0.85422224">
        <path
           inkscape:connector-curvature="0"
           id="path6559"
           style="fill:#000000;fill-opacity:1;fill-rule:nonzero;stroke:#000000;stroke-width:355.92593384;stroke-linecap:round;stroke-linejoin:miter;stroke-miterlimit:10;stroke-dasharray:none;stroke-opacity:1"
           d="m 52803,310805 h 1838 l -919,5512 z" />
      </g>
      <text
         y="39.234352"
         x="-78.728493"
         id="text6563"
         style="font-variant:normal;font-weight:normal;font-size:4.88948917px;font-family:Arial;-inkscape-font-specification:ArialMT;writing-mode:lr-tb;fill:#000000;fill-opacity:1;fill-rule:nonzero;stroke:none;stroke-width:0.00054244"
         transform="rotate(-90)">
        <tspan
           id="tspan6561"
           sodipodi:role="line"
           y="39.234352"
           x="-78.728493 -76.009933 -73.291382"
           style="stroke-width:0.00054244">100</tspan>
      </text>
    </g>
    <text
       xml:space="preserve"
       style="font-style:normal;font-variant:normal;font-weight:normal;font-stretch:normal;font-size:3.30729151px;line-height:125%;font-family:'Latin Modern Sans';-inkscape-font-specification:'Latin Modern Sans';letter-spacing:0px;word-spacing:0px;fill:#000000;fill-opacity:1;stroke:none;stroke-width:0.26458332px;stroke-linecap:butt;stroke-linejoin:miter;stroke-opacity:1"
       x="2.6726952"
       y="100.82417"
       id="text2753"><tspan
         sodipodi:role="line"
         id="tspan2751"
         x="2.6726952"
         y="100.82417"
         style="font-size:5.29166651px;stroke-width:0.26458332px">Front view</tspan></text>
    <text
       xml:space="preserve"
       style="font-style:normal;font-variant:normal;font-weight:normal;font-stretch:normal;font-size:3.30729175px;line-height:125%;font-family:'Latin Modern Sans';-inkscape-font-specification:'Latin Modern Sans';letter-spacing:0px;word-spacing:0px;fill:#000000;fill-opacity:1;stroke:none;stroke-width:0.26458332px;stroke-linecap:butt;stroke-linejoin:miter;stroke-opacity:1"
       x="78.69738"
       y="100.2179"
       id="text2753-9"><tspan
         sodipodi:role="line"
         id="tspan2751-1"
         x="78.69738"
         y="100.2179"
         style="font-size:5.29166651px;stroke-width:0.26458332px">Side view</tspan></text>
    <text
       xml:space="preserve"
       style="font-style:normal;font-variant:normal;font-weight:normal;font-stretch:normal;font-size:3.30729175px;line-height:125%;font-family:'Latin Modern Sans';-inkscape-font-specification:'Latin Modern Sans';letter-spacing:0px;word-spacing:0px;fill:#000000;fill-opacity:1;stroke:none;stroke-width:0.26458332px;stroke-linecap:butt;stroke-linejoin:miter;stroke-opacity:1"
       x="162.8658"
       y="98.50882"
       id="text2753-9-2"><tspan
         sodipodi:role="line"
         id="tspan2751-1-7"
         x="162.8658"
         y="98.50882"
         style="font-size:5.29166651px;stroke-width:0.26458332px">Perspective view</tspan></text>
    <path
       style="fill:none;fill-rule:evenodd;stroke:#000000;stroke-width:0.40000001;stroke-linecap:butt;stroke-linejoin:miter;stroke-miterlimit:4;stroke-dasharray:3.2, 0.8, 0.4, 0.8;stroke-dashoffset:0;stroke-opacity:1"
       d="M 52.173748,72.544886 127.95797,72.16691"
       id="path4745"
       inkscape:connector-curvature="0" />
    <path
       style="opacity:1;fill:#cccccc;fill-opacity:1;fill-rule:evenodd;stroke:none;stroke-width:3.77952766;stroke-linecap:round;stroke-linejoin:round;stroke-miterlimit:4;stroke-dasharray:none;stroke-dashoffset:0;stroke-opacity:1"
       d="m 117.54561,184.81174 c -20.157916,-4.31135 -35.843147,-19.43141 -41.268817,-39.78181 -1.133802,-4.25262 -1.323107,-6.02532 -1.363372,-12.76698 -0.05283,-8.84512 0.602605,-12.73263 3.404281,-20.19153 2.753602,-7.33092 5.939077,-12.151216 12.206327,-18.470767 7.965142,-8.031612 14.756231,-11.972988 25.190271,-14.619801 12.404,-3.146532 24.52121,-1.799492 36.44691,4.051709 14.19852,6.966335 23.84286,18.827969 28.52923,35.088249 1.5523,5.38602 1.9488,17.21221 0.78424,23.39109 -4.14882,22.01272 -20.85262,38.97736 -42.82084,43.48952 -5.33941,1.09668 -15.52158,1.00519 -21.10823,-0.18968 z"
       id="path9769"
       inkscape:connector-curvature="0"
       transform="matrix(0.26458333,0,0,0.26458333,-18.885775,37.304709)" />
    <path
       style="opacity:1;fill:#cccccc;fill-opacity:1;fill-rule:evenodd;stroke:none;stroke-width:3.77952766;stroke-linecap:round;stroke-linejoin:round;stroke-miterlimit:4;stroke-dasharray:none;stroke-dashoffset:0;stroke-opacity:1"
       d="m 347.86039,186.24672 c -9.49113,-1.08591 -20.62009,-5.8196 -28.35209,-12.05949 -10.89374,-8.7915 -18.61989,-22.80195 -20.0728,-36.39965 -0.2989,-2.79738 -0.23584,-3.66331 0.28121,-3.86172 0.91515,-0.35117 0.84328,-1.66291 -0.0911,-1.66291 -0.90342,0 -0.94188,-1.0976 -0.25002,-7.13524 1.45622,-12.70794 7.28068,-24.4333 16.57861,-33.374771 7.20231,-6.926192 14.4877,-11.142664 24.07089,-13.931183 l 4.5523,-1.324633 32.95623,-0.172597 32.95623,-0.172598 v 27.550432 27.55043 l -1.13642,0.007 c -1.92827,0.0117 -3.40927,0.58281 -3.40927,1.31471 0,0.49137 0.67442,0.6987 2.27284,0.6987 h 2.27285 v 26.76904 26.76905 l -29.42069,-0.0655 c -16.18139,-0.036 -31.12533,-0.26053 -33.20877,-0.49891 z m -42.93148,-53.22616 c 0,-0.4209 -0.44896,-0.75761 -1.01016,-0.75761 -0.56119,0 -1.01015,0.33671 -1.01015,0.75761 0,0.42089 0.44896,0.75761 1.01015,0.75761 0.5612,0 1.01016,-0.33672 1.01016,-0.75761 z m 15.15229,-0.26808 c 0,-0.98273 -0.25894,-1.01976 -6.18104,-0.88389 -5.41899,0.12433 -6.20193,0.25079 -6.35049,1.0257 -0.15412,0.80392 0.40512,0.88388 6.18104,0.88388 6.04585,0 6.35049,-0.0492 6.35049,-1.02569 z m 4.54568,0.0155 c 0,-0.67343 -0.33672,-1.01015 -1.01015,-1.01015 -0.67344,0 -1.01015,0.33672 -1.01015,1.01015 0,0.67343 0.33671,1.01015 1.01015,1.01015 0.67343,0 1.01015,-0.33672 1.01015,-1.01015 z m 15.15229,0 c 0,-0.95627 -0.33672,-1.01015 -6.31345,-1.01015 -5.97674,0 -6.31346,0.0539 -6.31346,1.01015 0,0.95628 0.33672,1.01015 6.31346,1.01015 5.97673,0 6.31345,-0.0539 6.31345,-1.01015 z m 4.54569,0 c 0,-0.67343 -0.33672,-1.01015 -1.01016,-1.01015 -0.67343,0 -1.01015,0.33672 -1.01015,1.01015 0,0.67343 0.33672,1.01015 1.01015,1.01015 0.67344,0 1.01016,-0.33672 1.01016,-1.01015 z m 15.15228,0 c 0,-0.95627 -0.33671,-1.01015 -6.31345,-1.01015 -5.97673,0 -6.31345,0.0539 -6.31345,1.01015 0,0.95628 0.33672,1.01015 6.31345,1.01015 5.97674,0 6.31345,-0.0539 6.31345,-1.01015 z m 4.54569,0 c 0,-0.67343 -0.33672,-1.01015 -1.01015,-1.01015 -0.67344,0 -1.01015,0.33672 -1.01015,1.01015 0,0.67343 0.33671,1.01015 1.01015,1.01015 0.67343,0 1.01015,-0.33672 1.01015,-1.01015 z m 15.15229,0 c 0,-0.95627 -0.33672,-1.01015 -6.31345,-1.01015 -5.97674,0 -6.31346,0.0539 -6.31346,1.01015 0,0.95628 0.33672,1.01015 6.31346,1.01015 5.97673,0 6.31345,-0.0539 6.31345,-1.01015 z m 4.54569,0 c 0,-0.67343 -0.33672,-1.01015 -1.01016,-1.01015 -0.67343,0 -1.01015,0.33672 -1.01015,1.01015 0,0.67343 0.33672,1.01015 1.01015,1.01015 0.67344,0 1.01016,-0.33672 1.01016,-1.01015 z m 15.0569,-0.12627 c 0.15412,-0.80391 -0.40512,-0.88388 -6.18104,-0.88388 -6.04585,0 -6.35048,0.0492 -6.35048,1.0257 0,0.98272 0.25893,1.01976 6.18103,0.88388 5.41899,-0.12433 6.20193,-0.25078 6.35049,-1.0257 z m 4.64107,-0.12627 c 0,-0.42089 -0.44896,-0.75761 -1.01015,-0.75761 -0.5612,0 -1.01016,0.33672 -1.01016,0.75761 0,0.4209 0.44896,0.75762 1.01016,0.75762 0.56119,0 1.01015,-0.33672 1.01015,-0.75762 z"
       id="path9771"
       inkscape:connector-curvature="0"
       transform="matrix(0.26458333,0,0,0.26458333,-18.885775,37.304709)" />
    <path
       style="opacity:1;fill:#cccccc;fill-opacity:1;fill-rule:evenodd;stroke:none;stroke-width:3.77952766;stroke-linecap:round;stroke-linejoin:round;stroke-miterlimit:4;stroke-dasharray:none;stroke-dashoffset:0;stroke-opacity:1"
       d="M 412.51015,160.04214 V 133.2731 h 3.03046 c 2.69374,0 3.03046,-0.11224 3.03046,-1.01015 0,-0.89792 -0.33672,-1.01016 -3.03046,-1.01016 h -3.03046 V 103.70187 76.150955 l 32.19862,0.173635 32.19861,0.173636 4.7443,1.375462 c 18.91302,5.48324 33.37371,19.66996 38.66636,37.933792 7.90778,27.28809 -5.94448,55.91138 -32.27907,66.69909 -9.66158,3.95777 -13.47739,4.30461 -47.35756,4.30461 h -28.17126 z m 10.6066,-27.77919 c 0,-0.67344 -0.33671,-1.01016 -1.01015,-1.01016 -0.67343,0 -1.01015,0.33672 -1.01015,1.01016 0,0.67343 0.33672,1.01015 1.01015,1.01015 0.67344,0 1.01015,-0.33672 1.01015,-1.01015 z m 15.15229,0 c 0,-0.95628 -0.33671,-1.01016 -6.31345,-1.01016 -5.97674,0 -6.31345,0.0539 -6.31345,1.01016 0,0.95627 0.33671,1.01015 6.31345,1.01015 5.97674,0 6.31345,-0.0539 6.31345,-1.01015 z m 4.54569,0 c 0,-0.67344 -0.33672,-1.01016 -1.01015,-1.01016 -0.67344,0 -1.01016,0.33672 -1.01016,1.01016 0,0.67343 0.33672,1.01015 1.01016,1.01015 0.67343,0 1.01015,-0.33672 1.01015,-1.01015 z m 15.15229,0 c 0,-0.95628 -0.33672,-1.01016 -6.31346,-1.01016 -5.97673,0 -6.31345,0.0539 -6.31345,1.01016 0,0.95627 0.33672,1.01015 6.31345,1.01015 5.97674,0 6.31346,-0.0539 6.31346,-1.01015 z m 4.54568,0 c 0,-0.67344 -0.33672,-1.01016 -1.01015,-1.01016 -0.67343,0 -1.01015,0.33672 -1.01015,1.01016 0,0.67343 0.33672,1.01015 1.01015,1.01015 0.67343,0 1.01015,-0.33672 1.01015,-1.01015 z m 15.05691,-0.12627 c 0.15412,-0.80392 -0.40512,-0.88389 -6.18104,-0.88389 -6.04585,0 -6.35048,0.0492 -6.35048,1.0257 0,0.98273 0.25893,1.01976 6.18103,0.88388 5.41899,-0.12432 6.20193,-0.25078 6.35049,-1.02569 z m 4.38853,0.12627 c 0,-0.40909 -0.39775,-0.82039 -0.88388,-0.91401 -0.62016,-0.11943 -0.88389,0.15328 -0.88389,0.91401 0,0.76072 0.26373,1.03343 0.88389,0.914 0.48613,-0.0936 0.88388,-0.50492 0.88388,-0.914 z m 14.89975,0 c 0,-0.95404 -0.33672,-1.01016 -6.06091,-1.01016 -5.7242,0 -6.06092,0.0561 -6.06092,1.01016 0,0.95403 0.33672,1.01015 6.06092,1.01015 5.72419,0 6.06091,-0.0561 6.06091,-1.01015 z m 4.54569,0 c 0,-0.5612 -0.33672,-1.01016 -0.75762,-1.01016 -0.42089,0 -0.75761,0.44896 -0.75761,1.01016 0,0.56119 0.33672,1.01015 0.75761,1.01015 0.4209,0 0.75762,-0.44896 0.75762,-1.01015 z m 15.15229,-0.50508 c 0,-0.87128 -0.33672,-1.01015 -2.44918,-1.01015 -5.32556,0 -10.17773,0.63731 -10.17773,1.3368 0,0.53817 1.34247,0.6835 6.31345,0.6835 5.97674,0 6.31346,-0.0539 6.31346,-1.01015 z m 4.54568,-0.037 c 0,-1.29434 -1.67171,-1.1475 -1.92527,0.1691 -0.11672,0.60609 0.15527,0.87808 0.87809,0.87808 0.72281,0 1.04718,-0.32437 1.04718,-1.04718 z"
       id="path9773"
       inkscape:connector-curvature="0"
       transform="matrix(0.26458333,0,0,0.26458333,-18.885775,37.304709)" />
    <path
       style="opacity:1;fill:#cccccc;fill-opacity:1;fill-rule:evenodd;stroke:none;stroke-width:3.7795279;stroke-linecap:round;stroke-linejoin:round;stroke-miterlimit:4;stroke-dasharray:none;stroke-dashoffset:0;stroke-opacity:1"
       d="m 710.25418,183.44387 c -22.24722,-7.37329 -36.99692,-24.25421 -40.56824,-46.43004 -1.72862,-10.73376 -0.14691,-21.85313 4.56718,-32.10706 3.37735,-7.346305 10.2751,-16.684619 12.3241,-16.684619 0.58798,0 3.77219,-2.571428 7.07602,-5.714286 5.43777,-5.17283 6.71192,-5.712963 13.44681,-5.70033 10.84988,0.02035 20.87201,5.236326 32.23561,16.776879 5.21947,5.300756 11.62474,13.279776 14.23393,17.731156 16.21851,27.66944 16.29382,58.72471 0.16236,66.95436 -3.02874,1.54515 -6.76456,2.80936 -8.30181,2.80936 -1.53725,0 -3.0485,0.7605 -3.35833,1.68999 -0.83814,2.5144 -24.73753,3.02111 -31.81763,0.67459 z m 27.85714,-2.12489 c 0,-1.33975 -10.21337,-4.78822 -11.21494,-3.78664 -0.62718,0.62718 7.99163,4.8073 10.14352,4.91961 0.58928,0.0308 1.07142,-0.47908 1.07142,-1.13297 z m -18.51746,-10.29774 c -6.45163,-5.51457 -9.32081,-5.42623 -3.24571,0.0999 2.56597,2.33412 5.45882,4.21772 6.42857,4.18578 0.96975,-0.0319 -0.46254,-1.9605 -3.18286,-4.28571 z m -12.29368,-12.0848 c -2.09752,-2.75 -4.41818,-5 -5.15701,-5 -1.62103,0 -0.33187,2.44863 3.57255,6.78571 4.58562,5.09375 5.79343,3.73253 1.58446,-1.78571 z m -9.50334,-13.56043 c -2.77367,-4.857 -5.3998,-7.33377 -5.3998,-5.09266 0,1.70827 6.16731,10.79594 7.32662,10.79594 0.73157,0 -0.1355,-2.56647 -1.92682,-5.70328 z m -7.713,-16.54119 c -1.30952,-3.08697 -2.6441,-4.86893 -2.96574,-3.95992 -0.75022,2.12026 3.97325,13.1425 4.75798,11.10278 0.32379,-0.8416 -0.48272,-4.05589 -1.79224,-7.14286 z m -4.67337,-17.81053 c -1.36994,-3.43172 -1.40594,-3.40739 -1.49431,1.00959 -0.0498,2.48931 0.39159,5.7036 0.98088,7.14286 0.91676,2.23908 1.13247,2.09334 1.4943,-1.00959 0.23259,-1.99454 -0.20881,-5.20883 -0.98087,-7.14286 z m 1.12988,-16.81502 c 0.0804,-1.86257 -0.47952,-2.914227 -1.28617,-2.41569 -0.78571,0.485598 -1.36449,3.577108 -1.28617,6.870024 0.12162,5.113506 0.30929,5.465986 1.28617,2.415686 0.62908,-1.964282 1.20785,-5.055793 1.28617,-6.87002 z"
       id="path9775"
       inkscape:connector-curvature="0"
       transform="matrix(0.26458333,0,0,0.26458333,-18.885775,37.304709)" />
    <path
       style="opacity:1;fill:#cccccc;fill-opacity:1;fill-rule:evenodd;stroke:none;stroke-width:3.7795279;stroke-linecap:round;stroke-linejoin:round;stroke-miterlimit:4;stroke-dasharray:none;stroke-dashoffset:0;stroke-opacity:1"
       d="m 766.04403,168.57929 c 2.02775,-4.62733 2.42053,-23.66644 0.65372,-31.6881 -6.44638,-29.26787 -31.04876,-57.927043 -53.78195,-62.6503 -5.23261,-1.087176 -5.19635,-1.113777 26.04924,-19.108165 18.38484,-10.587864 31.66769,-17.416622 32.20702,-16.557738 0.52631,0.83817 1.61317,0.162558 2.54776,-1.583742 2.15177,-4.020608 11.65632,-8.76938 17.54888,-8.767967 7.68611,0.0018 21.93768,7.720518 30.96747,16.77204 26.28761,26.350887 35.27841,68.627052 17.6798,83.133312 -2.92202,2.40858 -6.39944,4.37924 -7.72758,4.37924 -3.60918,0 -7.01343,1.57322 -6.2116,2.8706 0.60495,0.97883 -57.96043,35.70082 -60.21637,35.70082 -0.44656,0 -0.31893,-1.125 0.28361,-2.5 z m 50.83986,-37.53137 c -7.08136,-3.21325 -7.34399,-3.27102 -7.34399,-1.6155 0,1.74754 5.83233,4.29974 10,4.37596 2.85971,0.0523 2.33041,-0.49781 -2.65601,-2.76046 z m -14.57629,-8.51161 c -4.94167,-4.22464 -7.09759,-5.22317 -7.00136,-3.24273 0.0766,1.57563 10.28792,9.06478 11.1645,8.1882 0.41109,-0.41108 -1.46233,-2.63655 -4.16314,-4.94547 z m -8.54005,-6.81416 c -0.0319,-0.58928 -1.9605,-3.29714 -4.28571,-6.01746 -4.90355,-5.73678 -5.7993,-3.21287 -1.01337,2.85533 3.12823,3.96636 5.41666,5.33194 5.29908,3.16213 z m -9.98653,-12.85714 c -0.0923,-2.21849 -6.6664,-11.741389 -7.51783,-10.889963 -1.03067,1.030674 4.89157,11.933963 6.49099,11.950383 0.58929,0.006 1.05137,-0.47114 1.02684,-1.06042 z m -10.2415,-20.786935 c -0.89202,-2.906472 -2.15685,-5.284495 -2.81074,-5.284495 -1.62535,0 -1.51935,0.729431 0.97273,6.693798 2.73509,6.545995 3.98535,5.587355 1.83801,-1.409303 z M 769.52954,66.73695 c -0.58041,-3.174005 -1.45837,-6.174005 -1.95104,-6.666667 -1.13529,-1.135293 -1.1322,4.981111 0.005,9.223297 1.4873,5.549844 3.05274,3.49359 1.94638,-2.55663 z m -0.19046,-19.94337 c 0,-4.052053 -0.23277,-4.458316 -1.22776,-2.142857 -0.67526,1.571428 -1.22775,5.107142 -1.22775,7.857142 0,4.052053 0.23277,4.458316 1.22775,2.142858 0.67527,-1.571429 1.22776,-5.107143 1.22776,-7.857143 z"
       id="path9777"
       inkscape:connector-curvature="0"
       transform="matrix(0.26458333,0,0,0.26458333,-18.885775,37.304709)" />
    <path
       style="opacity:1;fill:#cccccc;fill-opacity:1;fill-rule:evenodd;stroke:none;stroke-width:3.7795279;stroke-linecap:round;stroke-linejoin:round;stroke-miterlimit:4;stroke-dasharray:none;stroke-dashoffset:0;stroke-opacity:1"
       d="m 850.50421,116.0405 c 1.62286,-5.84801 1.13758,-21.486156 -0.90759,-29.24692 C 846.8087,76.214277 837.30901,58.05296 829.98216,49.295034 821.29295,38.908668 809.43367,29.993431 801.47519,27.864861 c -8.18138,-2.188185 -5.26754,-3.87857 6.73399,-3.906549 22.84988,-0.05327 42.21109,11.893289 52.12948,32.165746 4.881,9.976415 6.83358,23.066286 4.96556,33.288646 -1.69345,9.267074 -8.55676,24.158086 -12.97916,28.160306 -2.99501,2.71044 -2.99768,2.7082 -1.82085,-1.53251 z"
       id="path9779"
       inkscape:connector-curvature="0"
       transform="matrix(0.26458333,0,0,0.26458333,-18.885775,37.304709)" />
  </g>
</svg>
