<?xml version="1.0" encoding="UTF-8" standalone="no"?>
<!-- Created with Inkscape (http://www.inkscape.org/) -->

<svg
   xmlns:dc="http://purl.org/dc/elements/1.1/"
   xmlns:cc="http://creativecommons.org/ns#"
   xmlns:rdf="http://www.w3.org/1999/02/22-rdf-syntax-ns#"
   xmlns:svg="http://www.w3.org/2000/svg"
   xmlns="http://www.w3.org/2000/svg"
   xmlns:sodipodi="http://sodipodi.sourceforge.net/DTD/sodipodi-0.dtd"
   xmlns:inkscape="http://www.inkscape.org/namespaces/inkscape"
   width="171.11554mm"
   height="100.42738mm"
   viewBox="0 0 171.11554 100.42738"
   version="1.1"
   id="svg11397"
   inkscape:version="0.92.3 (2405546, 2018-03-11)"
   sodipodi:docname="skirt_symmetry.svg">
  <defs
     id="defs11391">
    <marker
       inkscape:stockid="TriangleInL"
       orient="auto"
       refY="0"
       refX="0"
       id="TriangleInL"
       style="overflow:visible"
       inkscape:isstock="true">
      <path
         id="path12396"
         d="M 5.77,0 -2.88,5 V -5 Z"
         style="fill:#000000;fill-opacity:1;fill-rule:evenodd;stroke:#000000;stroke-width:1.00000003pt;stroke-opacity:1"
         transform="scale(-0.8)"
         inkscape:connector-curvature="0" />
    </marker>
    <marker
       inkscape:stockid="EmptyDiamondLstart"
       orient="auto"
       refY="0"
       refX="0"
       id="EmptyDiamondLstart"
       style="overflow:visible"
       inkscape:isstock="true">
      <path
         id="path12378"
         d="M 0,-7.0710768 -7.0710894,0 0,7.0710589 7.0710462,0 Z"
         style="fill:#ffffff;fill-rule:evenodd;stroke:#000000;stroke-width:1.00000003pt;stroke-opacity:1"
         transform="matrix(0.8,0,0,0.8,5.6,0)"
         inkscape:connector-curvature="0" />
    </marker>
    <clipPath
       clipPathUnits="userSpaceOnUse"
       id="clipPath1095">
      <path
         d="m 268674,100834 h 92123 v 91881 h -92123 v -91881"
         id="path1093"
         inkscape:connector-curvature="0" />
    </clipPath>
    <clipPath
       clipPathUnits="userSpaceOnUse"
       id="clipPath23364">
      <path
         d="m 286265,131052 h 66139 v 66139 h -66139 v -66139"
         id="path23362"
         inkscape:connector-curvature="0" />
    </clipPath>
  </defs>
  <sodipodi:namedview
     id="base"
     pagecolor="#ffffff"
     bordercolor="#666666"
     borderopacity="1.0"
     inkscape:pageopacity="0.0"
     inkscape:pageshadow="2"
     inkscape:zoom="1"
     inkscape:cx="370.82461"
     inkscape:cy="252.29204"
     inkscape:document-units="mm"
     inkscape:current-layer="layer1"
     showgrid="false"
     showguides="true"
     inkscape:guide-bbox="true"
     inkscape:window-width="1916"
     inkscape:window-height="1160"
     inkscape:window-x="0"
     inkscape:window-y="18"
     inkscape:window-maximized="0"
     fit-margin-top="5"
     fit-margin-right="5"
     fit-margin-bottom="5"
     fit-margin-left="5"
     inkscape:snap-object-midpoints="true">
    <sodipodi:guide
       position="86.388585,66.058129"
       orientation="1,0"
       id="guide12255"
       inkscape:locked="false" />
    <sodipodi:guide
       position="105.38842,47.057659"
       orientation="0,1"
       id="guide12257"
       inkscape:locked="false" />
  </sodipodi:namedview>
  <metadata
     id="metadata11394">
    <rdf:RDF>
      <cc:Work
         rdf:about="">
        <dc:format>image/svg+xml</dc:format>
        <dc:type
           rdf:resource="http://purl.org/dc/dcmitype/StillImage" />
        <dc:title></dc:title>
      </cc:Work>
    </rdf:RDF>
  </metadata>
  <g
     inkscape:label="Layer 1"
     inkscape:groupmode="layer"
     id="layer1"
     transform="translate(-5.8379423,-42.547251)">
    <g
       id="g25570"
       transform="translate(46.828153,98.867843)">
      <path
         inkscape:connector-curvature="0"
         d="m 64.830724,-145.28374 c -3.479834,3.23213 -3.00289,9.38336 0.691406,12.29296 1.357678,1.43436 3.357498,2.00408 5.287109,1.90577 -5.125309,-1.75444 -8.224669,-7.90643 -6.258789,-13.01026 0.06418,-0.34319 0.426199,-0.89948 0.280274,-1.18847 z m 3.568847,-1.26416 c -1.954116,0.2444 -2.657577,2.65501 -3.145019,4.27539 -1.031175,4.81737 3.099271,10.59963 8.234863,10.08398 3.496066,-2.36234 3.259654,-7.61028 1.066895,-10.8042 -1.329686,-2.06312 -3.62635,-3.65669 -6.156739,-3.55517 z M 189.9484,-92.337943 c -2.15705,4.834624 -8.34136,7.310956 -13.19629,5.102539 -0.95397,-0.03375 1.8531,1.611267 0.95382,1.053088 4.95246,3.457309 12.93294,-0.724113 12.73433,-6.826546 0.21224,-1.380935 -0.26177,0.1652 -0.49186,0.670919 z m -6.67236,-6.328614 c -4.26318,0.08767 -8.78683,3.73774 -8.21778,8.275391 2.11058,3.391631 7.12893,3.392006 10.25,1.446289 2.38153,-1.487256 4.54696,-4.349054 3.81299,-7.272949 -1.34612,-1.786942 -3.66243,-2.577934 -5.84521,-2.448731 z m 45.07812,-114.150393 c 4.27679,1.63466 7.23113,6.1931 6.57129,10.79737 0.0794,1.07816 -0.77048,2.22284 -0.66406,3.17822 2.02201,-1.91074 2.65248,-4.85168 1.99414,-7.52002 -0.65894,-3.49893 -4.17787,-6.88257 -7.90137,-6.45557 z m -2.58056,0.99854 c -2.17366,0.86647 -3.04414,3.61748 -2.99659,5.82031 0.0827,4.17253 3.48079,8.64782 7.87403,8.60889 2.58623,-1.00738 3.46021,-4.38941 3.14648,-6.9253 -0.53969,-3.95963 -3.79659,-7.68231 -8.02392,-7.5039 z m -108.69714,-47.37372 c -1.54481,-0.006 -3.08233,0.42221 -4.42557,1.17929 -1.75133,0.98533 -3.18836,2.57818 -3.85052,4.48843 -0.3991,1.14966 -0.50261,2.41108 -0.22306,3.60032 0.02,0.0743 0.0441,0.26664 0.0584,0.0899 0.28318,-1.73463 1.16806,-3.34066 2.39627,-4.58665 1.72864,-1.76115 4.11606,-2.85431 6.57621,-3.02825 0.54002,-0.0122 1.08222,-0.0267 1.62112,0.0181 1.43609,0.14282 2.84595,0.62488 4.03267,1.45314 0.0213,0.003 0.11397,0.0922 0.10765,0.0534 -0.78601,-1.33766 -2.10637,-2.31324 -3.55939,-2.82136 -0.75351,-0.25828 -1.54542,-0.41182 -2.34161,-0.44302 -0.13068,-0.003 -0.26141,-0.004 -0.39212,-0.003 z m 0.97859,2.83228 c -4.1095,0.25829 -8.80731,3.79983 -8.31817,8.2505 2.05449,3.65453 7.50406,3.24047 10.61144,1.20222 2.25271,-1.34445 4.17661,-4.29472 3.4575,-6.95299 -1.41129,-1.57558 -3.63006,-2.53385 -5.75077,-2.49973 z"
         style="opacity:0.98999999;fill:#bfda70;fill-opacity:1;fill-rule:evenodd;stroke:#bfda70;stroke-width:0.94488192;stroke-linecap:round;stroke-linejoin:round;stroke-miterlimit:4;stroke-dasharray:none;stroke-dashoffset:0;stroke-opacity:1"
         transform="matrix(0.26458333,0,0,0.26458333,5.8379423,42.547251)"
         id="path25486" />
      <path
         inkscape:connector-curvature="0"
         d="m 74.006583,-211.3909 c 1.302083,4.23783 0.512612,9.37569 -3.224794,12.17411 -0.594435,0.8394 -2.516786,1.40258 -2.904386,1.73877 6.958872,0.40462 10.770272,-9.21783 6.12918,-13.91288 z m -3.969189,-1.55646 c -6.297,0.3318 -9.678633,8.62799 -5.814297,13.40809 1.509716,2.12914 4.468462,0.22918 6.029743,-0.9046 3.798695,-2.85864 4.47829,-9.64712 0.361149,-12.45999 -0.184498,-0.0654 -0.384591,-0.0603 -0.576595,-0.0435 z M 114.6963,-98.708878 c -1.21928,-0.49032 -5.9291,2.385608 -3.50847,1.885925 5.07045,-1.371483 10.92389,1.391042 12.7264,6.352146 0.60993,-3.261071 -2.43344,-6.249899 -5.24253,-7.488151 -1.24938,-0.533335 -2.61508,-0.814365 -3.9754,-0.74992 z m -0.80033,2.820832 c -2.39623,0.02025 -6.29441,1.738884 -5.07059,4.728086 1.38534,5.548133 8.97922,8.192935 13.31073,4.328267 1.9641,-2.864723 -0.97007,-6.428768 -3.46717,-7.879683 -1.43356,-0.84277 -3.11133,-1.260793 -4.77297,-1.17667 z m 115.63751,-50.486324 c -6.03413,0.90348 -9.01633,9.72065 -4.50159,13.89217 -0.86981,-2.76216 -1.20782,-5.92109 0.24099,-8.6158 1.10737,-2.51435 3.26841,-4.42022 5.78875,-5.45452 -0.50939,0.0594 -1.01877,0.11877 -1.52815,0.17815 z m 3.41262,0.99852 c -5.36643,0.55124 -8.79035,6.75097 -6.77621,11.65345 0.59668,1.75034 2.21662,3.56963 4.18394,2.3996 4.08218,-1.19966 6.7584,-5.51602 5.97312,-9.72548 -0.13823,-1.71303 -1.47717,-4.1846 -3.38085,-4.32757 z m -57.82946,-107.62939 c -0.32175,3.86784 3.63381,6.94232 7.18086,7.58621 2.15665,0.35256 5.5625,-0.33022 6.37501,-2.16759 -3.92809,1.3226 -8.75932,0.79122 -11.52615,-2.58951 -0.87624,-0.78859 -1.21188,-2.05151 -2.02972,-2.82911 z m 6.47721,-5.90268 c -2.72643,-0.27788 -6.74559,2.10891 -5.09822,5.22596 1.6465,4.41254 7.12276,7.04132 11.46977,4.83857 1.73067,-0.4588 2.75814,-2.04456 2.16552,-3.78827 -0.67643,-3.92012 -4.71042,-6.49078 -8.53707,-6.27626 z"
         style="opacity:0.98999999;fill:#ea6e6f;fill-opacity:1;fill-rule:evenodd;stroke:#ea6e6f;stroke-width:0.94488192;stroke-linecap:round;stroke-linejoin:round;stroke-miterlimit:4;stroke-dasharray:none;stroke-dashoffset:0;stroke-opacity:1"
         transform="matrix(0.26458333,0,0,0.26458333,5.8379423,42.547251)"
         id="path25467" />
      <g
         style="stroke-width:261.43286133;stroke-miterlimit:4;stroke-dasharray:none"
         id="g23358"
         transform="matrix(9.5626845e-4,0,0,-9.5626845e-4,-259.97962,153.98485)">
        <path
           inkscape:connector-curvature="0"
           d="m 116.12791,-266.19061 c -3.04925,0.20893 -5.85648,1.71817 -8.55322,3.04834 -2.98169,2.56314 -5.12766,5.97314 -7.51548,9.07582 -4.285551,6.03591 -8.080499,12.50991 -10.748194,19.41051 4.074239,-0.94375 8.058737,-2.44493 12.234134,-3.03975 5.72944,-1.0671 11.57967,-1.04567 17.37915,-0.77275 2.01225,-1.11303 4.58335,-1.32674 6.0791,-3.21826 5.44699,-5.57036 11.21797,-10.97986 18.20019,-14.58497 1.43822,-0.92742 3.40982,-1.50647 4.50977,-2.7207 -10.09486,-3.9726 -20.73604,-6.60067 -31.58545,-7.19824 z m 1.65625,6.15381 c 4.50152,-0.34468 8.3712,4.30885 7.28955,8.68847 -1.08886,4.66551 -6.19221,7.71356 -10.85109,7.11935 -4.71097,0.0123 -8.30448,-5.42161 -6.34764,-9.73653 1.43468,-3.82934 5.53981,-6.61094 9.66893,-6.07288 z m -6.60986,22.70459 c -7.64394,0.0216 -15.293366,1.57683 -22.358402,4.46875 -1.4838,2.59054 -2.059676,5.69269 -2.910195,8.56175 -1.75973,6.35255 -1.808494,12.97125 -1.897422,19.51003 6.427726,-12.38955 16.165909,-23.10534 28.244539,-30.17511 1.44909,-0.8691 2.94075,-1.66365 4.42148,-2.47675 -1.83334,0.0371 -3.66667,0.0742 -5.5,0.11133 z m -7.32276,-24.04688 c -18.713648,9.39258 -34.214189,25.00714 -43.743649,43.63233 1.3e-5,0.66223 1.297204,-0.82918 1.64507,-0.94409 7.839735,-6.06939 16.302553,-11.43963 25.545358,-15.09156 1.539578,-2.02083 2.070303,-4.67569 3.34705,-6.88405 3.536928,-7.37049 8.243095,-14.08773 13.199341,-20.55735 0.008,-0.0373 0.15887,-0.2075 0.007,-0.15528 z m -17.120603,29.21924 c -10.163025,4.09848 -19.468852,10.20786 -27.721191,17.37891 -1.729001,2.30742 -2.646767,5.15771 -3.577637,7.8623 -0.445324,3.85457 0.559941,7.71584 1.003621,11.53621 1.200093,7.51958 3.316399,14.88163 6.225383,21.91692 3.550073,-7.311 8.079374,-14.1906 13.980499,-19.82524 2.215287,-2.25255 4.81311,-4.38027 5.634735,-7.57955 1.344982,-2.85326 0.290292,-6.10799 0.567872,-9.13867 -0.02033,-7.49566 1.887173,-14.80319 3.970703,-21.93896 -0.0032,-0.0561 0.03858,-0.25996 -0.08398,-0.21192 z m -16.263671,18.14111 c 4.241242,-0.1281 7.299286,4.22329 6.825683,8.21924 0.04816,4.92368 -4.27705,10.04903 -9.440429,9.50684 -4.317739,-0.3833 -7.153775,-4.94329 -6.489258,-9.05273 0.275286,-4.53435 4.35568,-9.02872 9.104004,-8.67335 z m -17.230469,13.35206 c -3.560273,11.31984 -4.511582,23.28554 -3.891278,35.09118 0.342046,8.61451 2.163974,17.10209 4.823895,25.28382 1.024093,-10.87189 3.45529,-21.6727 7.851563,-31.69532 -4.407541,-10.05686 -6.823497,-20.90026 -7.865235,-31.80468 -0.306315,1.04166 -0.61263,2.08333 -0.918945,3.125 z m 26.44043,6.07226 c -7.125915,6.12833 -12.295424,14.20788 -16.361817,22.61231 3.904379,8.46642 9.330032,16.3876 16.325195,22.5625 0.150144,-1.31798 -0.768692,-2.76815 -0.932942,-4.14006 -3.370239,-13.18997 -3.093337,-27.27352 0.895833,-40.29647 -0.0032,-0.20416 0.208619,-0.58528 0.07373,-0.73828 z m -17.02295,24.57813 c -1.2666,1.75232 -1.636421,4.10048 -2.46875,6.1123 -2.820317,8.5811 -4.549163,17.60999 -4.967607,26.59419 1.568978,3.41347 2.289016,7.60594 5.698076,9.76812 7.85999,6.44863 16.586668,12.10241 26.046876,15.77441 -2.014598,-6.34767 -3.806923,-12.84605 -3.945915,-19.55345 -0.218668,-3.55841 0.02442,-7.17333 -0.242255,-10.70164 -1.004495,-2.4865 -1.876753,-5.22722 -4.276533,-6.74229 -6.53007,-5.83339 -11.514136,-13.20347 -15.429829,-20.98504 -0.09817,-0.1209 -0.231298,-0.30744 -0.414063,-0.2666 z m 6.086914,22.36523 c 4.243168,-0.0854 7.621311,3.83146 8.377442,7.74072 0.140165,2.62368 0.386711,5.60314 -1.668946,7.61524 -3.309168,4.05104 -10.16399,2.49523 -12.53125,-1.79199 -2.528514,-3.84778 -2.235839,-9.76011 1.840333,-12.46094 1.142758,-0.84929 2.583197,-1.1314 3.982421,-1.10303 z m -8.688965,21.14014 c 8.737031,17.614 23.077343,32.322131 40.154424,42.016461 1.26959,0.652315 2.69474,1.642727 3.93591,2.017227 -6.047508,-7.56843 -11.424258,-15.771092 -15.289553,-24.687008 -0.695008,-1.33781 -0.696188,-3.30892 -2.53499,-3.51778 -9.405826,-3.7635 -17.960593,-9.33342 -25.872236,-15.60527 -0.130377,-0.055 -0.247047,-0.1995 -0.393555,-0.22363 z m 24.07129,-12.39844 c -0.312829,8.19791 0.555428,16.48961 3.241333,24.27759 0.658473,1.42634 0.568208,3.73914 2.545776,3.9978 8.2597,2.94044 17.120925,4.63533 25.897465,4.03516 0.12858,-0.64756 -1.32249,-0.95306 -1.72706,-1.38428 -12.67084,-7.02368 -23.089914,-17.88933 -29.803706,-30.7085 -0.10662,0.0623 -0.06051,-0.23186 -0.153808,-0.21777 z m 5.28125,29.55811 c 1.29031,4.00806 3.480234,7.77688 5.516874,11.485103 3.53245,5.920538 7.45541,11.689179 12.19455,16.708253 2.45558,1.476682 5.19983,2.552877 7.93604,3.388182 5.47497,-0.09338 10.92074,-1.120835 16.29199,-2.157715 5.66204,-1.24844 11.2578,-2.930197 16.5708,-5.263183 -8.69066,-4.308925 -16.82297,-9.963135 -23.11719,-17.40918 -1.5685,-1.53885 -3.87782,-1.9102 -5.82959,-2.79346 -3.64241,-0.29042 -7.33356,0.2906 -10.98907,-0.14231 -6.32983,-0.35411 -12.471948,-2.0129 -18.511416,-3.81667 l -0.04834,-9.8e-4 z m 26.094234,9.472652 c 5.06005,-0.02873 10.08776,4.289804 9.73096,9.555664 -0.49257,3.841215 -4.30308,6.75425 -8.12827,6.54419 -5.44844,0.263277 -11.00862,-5.190938 -9.44351,-10.770753 0.84164,-3.493083 4.41588,-5.476393 7.84082,-5.329101 z m 56.41993,-2.458012 c -14.26248,4.526847 -29.86577,4.540401 -44.18311,0.24121 -1.10298,-0.49493 -1.10531,0.0926 -0.25684,0.71583 6.29492,6.47386 13.74857,11.940662 22.07666,15.448237 8.40296,-3.793257 16.2873,-9.108672 22.35498,-16.102047 0.0487,-0.0651 0.24913,-0.38147 0.008,-0.30323 z m -22.46631,17.926762 c -8.2414,3.318225 -16.82007,5.873969 -25.65332,6.99707 -1.87559,0.26431 -3.75598,0.497261 -5.625,0.806152 7.84026,2.661305 16.0788,4.100845 24.31389,4.817829 9.54585,0.05889 19.22052,0.227798 28.54822,-2.132573 3.23345,-0.811813 6.56818,-1.498083 9.66669,-2.675002 -8.63429,-1.156746 -17.2986,-2.61397 -25.5008,-5.659342 -1.93931,-0.648616 -3.79575,-1.581486 -5.74968,-2.154134 z m 60.30224,-25.092772 c -9.23438,3.16668 -19.06385,4.75997 -28.82747,3.93716 -2.07523,0.30067 -3.98902,1.55162 -6.00309,2.21225 -6.03377,6.703062 -13.00947,12.657015 -21.1345,16.673604 -0.8616,0.673288 -4.14155,1.436759 -1.67849,1.986067 9.54435,3.839062 19.73887,6.030085 29.97363,6.910155 3.44555,0.139222 6.4395,-1.873748 9.56738,-3.0083 7.54563,-8.491646 13.83867,-18.21368 18.13575,-28.715816 z m -25.74072,9.616209 c 3.80693,0.06865 7.82547,3.070655 7.50244,7.179688 0.11798,6.72069 -8.5017,11.230149 -14.13989,7.824539 -3.10565,-1.602216 -4.33466,-5.595121 -3.15405,-8.775223 1.53071,-3.822515 5.71109,-6.386373 9.7915,-6.229004 z m 54.71045,-26.413089 c -4.832,3.49763 -9.57453,7.17142 -14.80811,10.08106 -3.9968,2.32043 -8.15714,4.36375 -12.47558,6.01513 -3.87879,9.38035 -8.98764,18.250726 -15.40678,26.126861 -0.16298,0.290745 -1.54688,1.676685 -0.47945,1.26328 14.67424,-7.428488 27.25571,-18.794451 36.65382,-32.248971 2.3655,-3.6119 4.86329,-7.28274 6.53221,-11.24029 z m -24.0293,-12.11767 c -1.66099,2.34592 -2.8729,5.06302 -4.62312,7.38859 -6.7418,10.0461 -16.06118,18.26272 -26.73186,23.92977 -0.90778,0.65235 0.86892,0.62012 1.24366,0.60791 8.8008,0.13911 17.55747,-1.52961 25.80859,-4.55078 3.12843,-8.58559 5.00415,-17.75787 4.56103,-26.9209 -0.0492,-0.11455 -0.0359,-0.50927 -0.2583,-0.45459 z m 4.50391,-56.23242 c 1.13707,4.62989 2.47095,9.26921 2.88672,14.05517 1.06231,9.60543 0.39662,19.40543 -2.26319,28.71094 -0.0593,0.74477 -0.72182,1.87337 -0.60498,2.45068 5.76714,-4.7373 10.19478,-10.95924 13.8335,-17.43652 0.9156,-1.66022 1.75301,-3.36174 2.62305,-5.0459 -4.06041,-8.46563 -9.28197,-16.61108 -16.46338,-22.74023 z m 17.02148,24.38183 c -3.52923,6.84058 -7.62604,13.63269 -13.28748,18.98948 -1.61461,1.78318 -3.66415,3.26797 -5.01253,5.23019 -0.7344,2.24689 -2.49041,4.3194 -1.90549,6.79097 0.77414,9.32584 -1.22465,18.64965 -3.94049,27.4835 4.5872,-1.65042 8.8611,-4.17448 13.10888,-6.56884 5.28273,-3.38256 10.54926,-6.91383 15.1294,-11.21729 1.436,-2.60465 2.62534,-5.44011 3.53255,-8.23082 -0.90427,-11.09299 -3.01976,-22.23221 -7.5223,-32.45229 -0.026,-0.0277 -0.0668,-0.0369 -0.10254,-0.0249 z m -5.50195,22.60547 c 4.36809,-0.0481 7.47421,4.55762 6.94039,8.64988 -0.075,3.95461 -3.08188,7.81756 -6.90621,8.86379 -4.20227,1.30358 -8.70579,-2.06673 -9.06152,-6.3584 -0.80737,-5.23755 3.38552,-11.44761 9.02734,-11.15527 z m 13.99512,-54.75439 c -1.13267,10.32526 -3.49107,20.54459 -7.58023,30.11556 0.009,1.59372 1.20624,3.16978 1.642,4.77833 3.2664,8.63234 5.06814,17.77994 6.06176,26.90738 2.70676,-8.07877 4.28889,-16.57941 4.84912,-25.09229 0.68577,-12.31793 -0.6681,-24.82907 -4.46972,-36.58398 -0.34883,-0.8154 -0.33061,-1.55477 -0.50293,-0.125 z m -32.56738,-29.67041 c 0.73376,3.37929 2.07104,6.73316 2.63607,10.20517 1.2734,6.26822 1.71982,12.71253 1.10807,19.08682 1.18357,2.73312 1.95472,5.89485 4.62144,7.61821 6.65109,5.94606 11.66166,13.47484 15.69252,21.37495 0.52936,0.16617 0.69869,-1.57239 1.0417,-2.00907 3.85416,-9.75809 5.7962,-20.15638 6.63017,-30.58517 -1.56699,-3.49201 -2.3293,-7.73384 -5.75091,-9.98508 -7.77852,-6.41396 -16.38425,-11.93988 -25.76227,-15.68923 -0.0705,-0.0126 -0.14509,-0.0347 -0.21679,-0.0166 z m 16.82031,17.9956 c 5.44213,0.16932 9.55604,5.83509 8.62256,11.08985 -0.29193,4.64074 -5.71851,8.36095 -10.03775,6.15097 -4.20594,-1.73232 -6.55526,-6.55687 -5.7894,-10.97812 0.31127,-3.50534 3.66275,-6.48938 7.20459,-6.2627 z m -46.54248,-23.32275 c 10.24411,5.3394 19.23658,12.99435 26.11328,22.27783 2.35117,2.98954 4.14678,6.36399 6.10254,9.59424 0.69261,-0.009 0.25103,-1.45935 0.39155,-1.96484 0.0224,-8.11694 -1.36424,-16.19744 -4.07505,-23.84738 0.009,-1.78774 -1.70242,-1.94637 -3.03294,-2.4355 -7.46425,-2.44905 -15.29623,-3.93574 -23.17712,-3.62519 -0.77409,2.8e-4 -1.54817,5.6e-4 -2.32226,8.4e-4 z m 12.42773,-24.13868 c 4.25348,5.54611 8.3855,11.24396 11.6865,17.43364 1.83739,3.32761 3.44135,6.78099 4.80862,10.3276 10.05326,3.75018 19.11515,9.72419 27.48974,16.34619 -0.0842,-1.13435 -1.17718,-2.45274 -1.70157,-3.58443 -9.75972,-17.24858 -24.5236,-31.66848 -42.28329,-40.523 z m -12.44385,-4.64404 c -10.7603,0.80662 -21.41691,3.19757 -31.39697,7.33203 8.51377,4.31965 16.58976,9.77111 22.80078,17.10498 1.75062,1.73891 4.29601,2.4361 6.50964,3.29187 9.87926,-0.65839 19.90915,0.52508 29.20618,4.00647 0.38491,-0.43013 -0.52122,-1.60765 -0.65017,-2.21682 -4.15121,-9.33426 -9.73894,-18.0421 -16.51926,-25.67868 -2.25606,-1.82702 -5.12725,-2.74812 -7.84766,-3.66309 -0.68906,-0.15544 -1.39807,-0.19654 -2.10254,-0.17676 z m -0.32959,6.03223 c 5.17768,-0.15239 10.22903,4.58671 9.36377,9.92383 -0.31703,3.93252 -4.39637,6.38814 -8.09326,6.06006 -5.33849,0.21533 -10.65549,-4.95651 -9.33301,-10.42823 0.80579,-3.58017 4.5158,-5.80657 8.0625,-5.55566 z m -33.18652,-12.22705 c -10.32725,0.099 -20.72826,1.60191 -30.48828,5.02051 0.12851,0.42526 1.91182,0.16731 2.51733,0.39968 9.61106,1.08169 19.03283,3.57074 27.98462,7.21506 1.45183,0.56824 2.80262,-0.89208 4.20361,-1.17676 8.97106,-3.51027 18.49342,-5.46608 28.06495,-6.38525 -10.4251,-3.34298 -21.32098,-5.17974 -32.28223,-5.07324 z m -2.36084,15.73437 c -7.21584,3.61855 -13.95821,8.38859 -19.30518,14.46631 -0.83294,0.93143 0.78988,0.19596 1.17033,0.1293 13.76882,-4.04102 28.69298,-4.1066 42.43032,0.0955 0.99531,0.43299 1.81336,0.28582 0.59494,-0.6432 -6.09513,-6.66761 -13.78064,-11.62563 -21.84793,-15.57329 -1.01416,0.50847 -2.02832,1.01693 -3.04248,1.52539 z m 2.47998,12.9484 c -30.5881,-0.0894 -59.530598,21.60261 -68.134984,50.94207 -3.637631,11.03135 -3.314862,22.99489 -1.867204,34.3734 5.83951,30.48052 33.003978,55.31474 64.006658,57.89811 31.41286,3.419808 62.91446,-17.13412 73.66234,-46.62169 5.08439,-11.90355 4.5847,-25.13548 3.4651,-37.74735 -4.34617,-23.23196 -20.52962,-43.84625 -42.4326,-52.95783 -9.01086,-3.95507 -18.85782,-5.98396 -28.69931,-5.88671 z"
           style="opacity:0.98999999;fill:#b3b3b3;fill-opacity:1;fill-rule:evenodd;stroke:#b3b3b3;stroke-width:0.94488192;stroke-linecap:round;stroke-linejoin:round;stroke-miterlimit:4;stroke-dasharray:none;stroke-dashoffset:0;stroke-opacity:1"
           transform="matrix(276.68311,0,0,-276.68311,277973.79,116533.8)"
           id="path25449" />
        <g
           style="stroke-width:261.43286133;stroke-miterlimit:4;stroke-dasharray:none"
           clip-path="url(#clipPath23364)"
           id="g23360">
          <path
             inkscape:connector-curvature="0"
             id="path23366"
             style="fill:none;stroke:#000000;stroke-width:261.43286133;stroke-linecap:round;stroke-linejoin:round;stroke-miterlimit:4;stroke-dasharray:none;stroke-opacity:1"
             d="m 309774.91,190389.16 c -764,-278.08 -1515.5,-589.36 -2252.38,-932.97" />
          <g
             style="stroke-width:261.43325806;stroke-miterlimit:4;stroke-dasharray:none"
             transform="matrix(0.42261,-0.90631,0.90631,0.42261,319335.5,164121.5)"
             id="g23368">
            <path
               inkscape:connector-curvature="0"
               id="path23370"
               style="fill:none;stroke:#000000;stroke-width:261.43325806;stroke-linecap:round;stroke-linejoin:round;stroke-miterlimit:4;stroke-dasharray:none;stroke-opacity:1"
               d="M -20002.133,1749.5304 C -20053.02,1167.7417 -20078.5,584.00995 -20078.5,0" />
          </g>
          <g
             style="stroke-width:261.43261719;stroke-miterlimit:4;stroke-dasharray:none"
             transform="matrix(0.93969,-0.34203,0.34203,0.93969,319335.5,164121.5)"
             id="g23372">
            <path
               inkscape:connector-curvature="0"
               id="path23374"
               style="fill:none;stroke:#000000;stroke-width:261.43261719;stroke-linecap:round;stroke-linejoin:round;stroke-miterlimit:4;stroke-dasharray:none;stroke-opacity:1"
               d="M -27846.184,2435.6277 C -27917.027,1625.6842 -27952.5,813.03571 -27952.5,0" />
          </g>
          <g
             style="stroke-width:261.43261719;stroke-miterlimit:4;stroke-dasharray:none"
             transform="matrix(-0.34203,-0.93969,0.93969,-0.34203,319335.5,164121.5)"
             id="g23376">
            <path
               inkscape:connector-curvature="0"
               id="path23378"
               style="fill:none;stroke:#000000;stroke-width:261.43261719;stroke-linecap:round;stroke-linejoin:round;stroke-miterlimit:4;stroke-dasharray:none;stroke-opacity:1"
               d="M -27846.184,2435.6277 C -27917.027,1625.6842 -27952.5,813.03571 -27952.5,0" />
          </g>
          <g
             style="stroke-width:261.43261719;stroke-miterlimit:4;stroke-dasharray:none"
             transform="matrix(-0.34203,-0.93969,0.93969,-0.34203,319335.5,164121.5)"
             id="g23380">
            <path
               inkscape:connector-curvature="0"
               id="path23382"
               style="fill:none;stroke:#000000;stroke-width:261.43261719;stroke-linecap:round;stroke-linejoin:round;stroke-miterlimit:4;stroke-dasharray:none;stroke-opacity:1"
               d="M -20002.133,1749.5304 C -20053.02,1167.7417 -20078.5,584.00995 -20078.5,0" />
          </g>
          <path
             inkscape:connector-curvature="0"
             id="path23384"
             style="fill:none;stroke:#000000;stroke-width:261.43286133;stroke-linecap:round;stroke-linejoin:round;stroke-miterlimit:4;stroke-dasharray:none;stroke-opacity:1"
             d="m 301138.09,172606.84 c -246.78,-529.29 -470.37,-1069.11 -670.12,-1617.89" />
          <path
             inkscape:connector-curvature="0"
             id="path23386"
             style="fill:none;stroke:#000000;stroke-width:261.43286133;stroke-linecap:round;stroke-linejoin:round;stroke-miterlimit:4;stroke-dasharray:none;stroke-opacity:1"
             d="m 293068.84,154560.91 c 278.1,-764 589.38,-1515.52 932.97,-2252.38" />
          <g
             style="stroke-width:261.43325806;stroke-miterlimit:4;stroke-dasharray:none"
             transform="matrix(0.90631,0.42261,-0.42261,0.90631,319335.5,164121.5)"
             id="g23388">
            <path
               inkscape:connector-curvature="0"
               id="path23390"
               style="fill:none;stroke:#000000;stroke-width:261.43325806;stroke-linecap:round;stroke-linejoin:round;stroke-miterlimit:4;stroke-dasharray:none;stroke-opacity:1"
               d="M -20002.133,1749.5304 C -20053.02,1167.7417 -20078.5,584.00995 -20078.5,0" />
          </g>
          <g
             style="stroke-width:261.43261719;stroke-miterlimit:4;stroke-dasharray:none"
             transform="matrix(0.34203,0.93969,-0.93969,0.34203,319335.5,164121.5)"
             id="g23392">
            <path
               inkscape:connector-curvature="0"
               id="path23394"
               style="fill:none;stroke:#000000;stroke-width:261.43261719;stroke-linecap:round;stroke-linejoin:round;stroke-miterlimit:4;stroke-dasharray:none;stroke-opacity:1"
               d="M -27846.184,2435.6277 C -27917.027,1625.6842 -27952.5,813.03571 -27952.5,0" />
          </g>
          <path
             inkscape:connector-curvature="0"
             id="path23396"
             style="fill:none;stroke:#000000;stroke-width:261.43286133;stroke-linecap:round;stroke-linejoin:round;stroke-miterlimit:4;stroke-dasharray:none;stroke-opacity:1"
             d="m 310850.16,145924.11 c 529.28,-246.81 1069.09,-470.41 1617.9,-670.16" />
          <path
             inkscape:connector-curvature="0"
             id="path23398"
             style="fill:none;stroke:#000000;stroke-width:261.43286133;stroke-linecap:round;stroke-linejoin:round;stroke-miterlimit:4;stroke-dasharray:none;stroke-opacity:1"
             d="m 328896.09,137854.84 c 764,278.08 1515.5,589.36 2252.38,932.97" />
          <g
             style="stroke-width:261.43261719;stroke-miterlimit:4;stroke-dasharray:none"
             transform="matrix(-0.93969,0.34203,-0.34203,-0.93969,319335.5,164121.5)"
             id="g23400">
            <path
               inkscape:connector-curvature="0"
               id="path23402"
               style="fill:none;stroke:#000000;stroke-width:261.43261719;stroke-linecap:round;stroke-linejoin:round;stroke-miterlimit:4;stroke-dasharray:none;stroke-opacity:1"
               d="M -27846.184,2435.6277 C -27917.027,1625.6842 -27952.5,813.03571 -27952.5,0" />
          </g>
          <path
             inkscape:connector-curvature="0"
             id="path23404"
             style="fill:none;stroke:#000000;stroke-width:261.43286133;stroke-linecap:round;stroke-linejoin:round;stroke-miterlimit:4;stroke-dasharray:none;stroke-opacity:1"
             d="m 337532.91,155636.16 c 246.78,529.29 470.37,1069.11 670.12,1617.89" />
          <g
             style="stroke-width:261.43325806;stroke-miterlimit:4;stroke-dasharray:none"
             transform="matrix(-0.42261,0.90631,-0.90631,-0.42261,319335.5,164121.5)"
             id="g23406">
            <path
               inkscape:connector-curvature="0"
               id="path23408"
               style="fill:none;stroke:#000000;stroke-width:261.43325806;stroke-linecap:round;stroke-linejoin:round;stroke-miterlimit:4;stroke-dasharray:none;stroke-opacity:1"
               d="M -20002.133,1749.5304 C -20053.02,1167.7417 -20078.5,584.00995 -20078.5,0" />
          </g>
          <g
             style="stroke-width:261.43325806;stroke-miterlimit:4;stroke-dasharray:none"
             transform="matrix(-0.90631,-0.42261,0.42261,-0.90631,319335.5,164121.5)"
             id="g23410">
            <path
               inkscape:connector-curvature="0"
               id="path23412"
               style="fill:none;stroke:#000000;stroke-width:261.43325806;stroke-linecap:round;stroke-linejoin:round;stroke-miterlimit:4;stroke-dasharray:none;stroke-opacity:1"
               d="M -27846.184,2435.6277 C -27917.027,1625.6842 -27952.5,813.03571 -27952.5,0" />
          </g>
          <g
             style="stroke-width:261.43325806;stroke-miterlimit:4;stroke-dasharray:none"
             transform="matrix(-0.90631,-0.42261,0.42261,-0.90631,319335.5,164121.5)"
             id="g23414">
            <path
               inkscape:connector-curvature="0"
               id="path23416"
               style="fill:none;stroke:#000000;stroke-width:261.43325806;stroke-linecap:round;stroke-linejoin:round;stroke-miterlimit:4;stroke-dasharray:none;stroke-opacity:1"
               d="M -20002.133,1749.5304 C -20053.02,1167.7417 -20078.5,584.00995 -20078.5,0" />
          </g>
          <g
             style="stroke-width:261.43310547;stroke-miterlimit:4;stroke-dasharray:none"
             transform="matrix(-0.38268,-0.92388,0.92388,-0.38268,296398.5,173622.5)"
             id="g23418">
            <path
               inkscape:connector-curvature="0"
               id="path23420"
               style="fill:none;stroke:#000000;stroke-width:261.43310547;stroke-linecap:round;stroke-linejoin:round;stroke-miterlimit:4;stroke-dasharray:none;stroke-opacity:1"
               d="M 2311.2749,419.50409 C 2080.0974,1355.7322 1116.1986,2025.5 0,2025.5 c -1116.1986,0 -2080.0974,-669.7678 -2311.2749,-1605.99591" />
          </g>
          <g
             style="stroke-width:261.43310547;stroke-miterlimit:4;stroke-dasharray:none"
             transform="matrix(0.92388,-0.38268,0.38268,0.92388,309834.5,141185.5)"
             id="g23422">
            <path
               inkscape:connector-curvature="0"
               id="path23424"
               style="fill:none;stroke:#000000;stroke-width:261.43310547;stroke-linecap:round;stroke-linejoin:round;stroke-miterlimit:4;stroke-dasharray:none;stroke-opacity:1"
               d="M 2311.2749,419.50409 C 2080.0974,1355.7322 1116.1986,2025.5 0,2025.5 c -1116.1986,0 -2080.0974,-669.7678 -2311.2749,-1605.99591" />
          </g>
          <g
             style="stroke-width:261.43310547;stroke-miterlimit:4;stroke-dasharray:none"
             transform="matrix(0.38268,0.92388,-0.92388,0.38268,342271.5,154621.5)"
             id="g23426">
            <path
               inkscape:connector-curvature="0"
               id="path23428"
               style="fill:none;stroke:#000000;stroke-width:261.43310547;stroke-linecap:round;stroke-linejoin:round;stroke-miterlimit:4;stroke-dasharray:none;stroke-opacity:1"
               d="M 2311.2749,419.50409 C 2080.0974,1355.7322 1116.1986,2025.5 0,2025.5 c -1116.1986,0 -2080.0974,-669.7678 -2311.2749,-1605.99591" />
          </g>
          <g
             style="stroke-width:261.43310547;stroke-miterlimit:4;stroke-dasharray:none"
             transform="matrix(-0.92388,0.38268,-0.38268,-0.92388,328835.5,187058.5)"
             id="g23430">
            <path
               inkscape:connector-curvature="0"
               id="path23432"
               style="fill:none;stroke:#000000;stroke-width:261.43310547;stroke-linecap:round;stroke-linejoin:round;stroke-miterlimit:4;stroke-dasharray:none;stroke-opacity:1"
               d="M 2311.2749,419.50409 C 2080.0974,1355.7322 1116.1986,2025.5 0,2025.5 c -1116.1986,0 -2080.0974,-669.7678 -2311.2749,-1605.99591" />
          </g>
          <g
             style="stroke-width:261.43310547;stroke-miterlimit:4;stroke-dasharray:none"
             transform="matrix(0.92388,0.38268,-0.38268,0.92388,310454.5,185561.5)"
             id="g23436">
            <path
               inkscape:connector-curvature="0"
               id="path23438"
               style="fill:none;stroke:#000000;stroke-width:261.43310547;stroke-linecap:round;stroke-linejoin:round;stroke-miterlimit:4;stroke-dasharray:none;stroke-opacity:1"
               d="M 2318.2905,390.01169 C 2100.8259,1340.1781 1129.3881,2025.5 0,2025.5 c -1129.3881,0 -2100.8259,-685.3219 -2318.2905,-1635.48831" />
          </g>
          <g
             style="stroke-width:261.43310547;stroke-miterlimit:4;stroke-dasharray:none"
             transform="matrix(-0.38268,0.92388,-0.92388,-0.38268,297895.5,155241.5)"
             id="g23442">
            <path
               inkscape:connector-curvature="0"
               id="path23444"
               style="fill:none;stroke:#000000;stroke-width:261.43310547;stroke-linecap:round;stroke-linejoin:round;stroke-miterlimit:4;stroke-dasharray:none;stroke-opacity:1"
               d="M 2318.2905,390.01169 C 2100.8259,1340.1781 1129.3881,2025.5 0,2025.5 c -1129.3881,0 -2100.8259,-685.3219 -2318.2905,-1635.48831" />
          </g>
          <g
             style="stroke-width:261.43310547;stroke-miterlimit:4;stroke-dasharray:none"
             transform="matrix(-0.92388,-0.38268,0.38268,-0.92388,328215.5,142682.5)"
             id="g23446">
            <path
               inkscape:connector-curvature="0"
               id="path23448"
               style="fill:none;stroke:#000000;stroke-width:261.43310547;stroke-linecap:round;stroke-linejoin:round;stroke-miterlimit:4;stroke-dasharray:none;stroke-opacity:1"
               d="M 2318.2905,390.01169 C 2100.8259,1340.1781 1129.3881,2025.5 0,2025.5 c -1129.3881,0 -2100.8259,-685.3219 -2318.2905,-1635.48831" />
          </g>
          <g
             style="stroke-width:261.43310547;stroke-miterlimit:4;stroke-dasharray:none"
             transform="matrix(0.38268,-0.92388,0.92388,0.38268,340774.5,173002.5)"
             id="g23450">
            <path
               inkscape:connector-curvature="0"
               id="path23452"
               style="fill:none;stroke:#000000;stroke-width:261.43310547;stroke-linecap:round;stroke-linejoin:round;stroke-miterlimit:4;stroke-dasharray:none;stroke-opacity:1"
               d="M 2318.2905,390.01169 C 2100.8259,1340.1781 1129.3881,2025.5 0,2025.5 c -1129.3881,0 -2100.8259,-685.3219 -2318.2905,-1635.48831" />
          </g>
          <path
             inkscape:connector-curvature="0"
             id="path23454"
             style="fill:none;stroke:#000000;stroke-width:261.43286133;stroke-linecap:round;stroke-linejoin:round;stroke-miterlimit:4;stroke-dasharray:none;stroke-opacity:1"
             d="m 302353,181103 256,95 257,93 258,88 259,86 260,82 260,79 262,75 263,72 263,68 264,65 265,61 265,58 266,54 267,50 267,46 268,42 134,20 134,18 135,18 134,17 134,15 135,15 134,13 135,13 135,11 134,11 135,9 135,9 134,7 135,6 135,5 134,4 135,3 135,2 134,1 135,-1 134,-1 134,-3 134,-4 134,-5 134,-6 134,-7 134,-8 134,-10 133,-11 134,-12 133,-13 133,-14" />
          <path
             inkscape:connector-curvature="0"
             id="path23456"
             style="fill:none;stroke:#000000;stroke-width:261.43286133;stroke-linecap:round;stroke-linejoin:round;stroke-miterlimit:4;stroke-dasharray:none;stroke-opacity:1"
             d="m 312467,182989 77,96 78,95 79,94 79,95 81,94 82,93 83,93 84,93 85,92 86,92 87,92 88,91 89,91 90,90 90,90 92,90 93,89 94,89 95,88 96,88 97,87 98,87 99,86 100,86 101,86 102,85 103,84 103,84 105,84 106,83 107,82 108,82 108,82 110,81 111,80 111,80 113,79 113,79 115,78 115,78 117,77 117,76 119,76 119,75 120,75 121,74 123,74 123,73 124,72 125,72 126,71 126,70 127,69 128,69 256,134 258,131 260,128 262,124 263,120" />
          <path
             inkscape:connector-curvature="0"
             id="path23458"
             style="fill:none;stroke:#000000;stroke-width:261.43286133;stroke-linecap:round;stroke-linejoin:round;stroke-miterlimit:4;stroke-dasharray:none;stroke-opacity:1"
             d="m 310849,182319 -197,-93 -196,-95 -195,-98 -194,-100 -193,-101 -192,-104 -191,-106 -190,-108 -188,-110 -187,-112 -187,-115 -185,-116 -183,-118 -183,-121 -181,-122 -180,-125 -179,-126 -178,-129 -176,-130 -175,-133 -173,-134 -172,-137 -171,-138 -170,-141 -167,-142 -167,-144 -165,-147 -163,-148 -162,-150 -161,-152 -159,-154 -157,-155 -155,-157 -153,-159 -152,-160 -149,-161 -148,-163 -146,-165 -143,-166 -142,-167 -140,-169 -138,-171 -136,-172 -135,-173 -132,-174 -130,-176 -128,-177 -126,-179 -125,-179 -122,-182 -120,-182 -118,-183 -116,-185 -115,-186 -112,-187 -110,-189 -107,-189 -106,-191 -104,-191 -102,-193 -99,-194 -98,-195 -95,-196 -93,-197" />
          <path
             inkscape:connector-curvature="0"
             id="path23460"
             style="fill:none;stroke:#000000;stroke-width:261.43286133;stroke-linecap:round;stroke-linejoin:round;stroke-miterlimit:4;stroke-dasharray:none;stroke-opacity:1"
             d="m 326202,182989 -205,74 -206,71 -207,69 -208,67 -208,64 -209,62 -210,60 -210,58 -211,56 -212,53 -212,51 -213,48 -214,46 -214,44 -215,42 -215,39 -216,37 -216,35 -217,32 -217,30 -218,28 -218,25 -218,23 -219,20 -219,18 -220,16 -220,13 -220,11 -220,8 -221,7 -221,3 -221,1 -221,-1 -221,-4 -220,-6 -220,-8 -220,-11 -220,-13 -219,-16 -219,-18 -219,-21 -218,-23 -218,-25 -217,-27 -217,-30 -217,-33 -216,-34 -215,-37 -216,-39 -214,-42 -214,-44 -214,-46 -212,-49 -213,-51 -211,-53 -211,-55 -211,-58 -209,-60 -209,-62 -208,-64 -208,-67 -207,-69 -206,-71 -205,-74" />
          <path
             inkscape:connector-curvature="0"
             id="path23462"
             style="fill:none;stroke:#000000;stroke-width:261.43286133;stroke-linecap:round;stroke-linejoin:round;stroke-miterlimit:4;stroke-dasharray:none;stroke-opacity:1"
             d="m 294001,175935 130,275 133,273 136,272 138,271 142,269 145,267 148,266 150,264 154,263 156,261 159,259 162,257 165,256 167,254 171,252 173,251 176,249 179,246 181,245 185,243 187,242 189,239 193,237 195,235 197,233 201,232 203,229 205,227 209,225 210,222 213,220 216,218 217,215 220,213 222,210 224,207 226,206 229,202 231,200 233,198 235,195 237,193 240,190 241,187 244,184 245,182 248,180 249,176 251,174 252,170 255,168 256,165 258,162 259,160 261,156 263,153 264,151 266,148 267,144 269,142 271,139 271,136 274,133 274,129 -203,-233 -201,-235 -199,-237 -197,-238 -194,-241 -192,-242 -189,-244 -187,-246 -184,-248 -182,-249 -180,-252 -176,-253 -174,-255 -171,-257 -168,-259 -166,-260 -162,-263 -160,-264 -156,-266 -153,-268 -151,-270 -147,-271 -143,-273 -141,-275 -137,-276 -133,-278 -130,-280 -126,-280 -61,-142 -61,-141 -60,-142 -59,-142 -58,-142 -56,-143 -56,-143 -55,-144 -144,-55 -143,-55 -142,-57 -143,-58 -142,-59 -141,-60 -142,-60 -141,-62 -280,-126 -280,-130 -278,-133 -276,-137 -275,-140 -273,-144 -271,-147 -270,-150 -268,-153 -266,-157 -264,-159 -263,-163 -260,-165 -259,-169 -257,-171 -255,-174 -254,-176 -251,-179 -250,-182 -248,-185 -246,-187 -244,-189 -242,-192 -241,-194 -238,-197 -237,-199 -235,-201 -233,-203" />
          <path
             inkscape:connector-curvature="0"
             id="path23464"
             style="fill:none;stroke:#000000;stroke-width:261.43286133;stroke-linecap:round;stroke-linejoin:round;stroke-miterlimit:4;stroke-dasharray:none;stroke-opacity:1"
             d="m 301137,172607 -14,133 -13,133 -12,134 -11,133 -10,134 -8,134 -7,134 -6,134 -5,134 -4,134 -3,134 -1,135 -1,134 1,135 2,134 3,135 4,135 5,134 6,135 8,135 8,135 9,134 11,135 11,135 13,134 13,135 15,134 16,135 16,134 18,134 18,134 20,134 42,268 46,267 50,267 54,266 58,265 61,265 65,264 68,264 72,262 75,262 79,261 82,260 86,259 89,257 92,257 95,256" />
          <path
             inkscape:connector-curvature="0"
             id="path23466"
             style="fill:none;stroke:#000000;stroke-width:261.43286133;stroke-linecap:round;stroke-linejoin:round;stroke-miterlimit:4;stroke-dasharray:none;stroke-opacity:1"
             d="m 293067,154561 -102,286 -99,288 -97,288 -93,290 -89,290 -87,292 -84,292 -80,293 -77,294 -74,295 -71,296 -68,297 -64,297 -61,298 -58,299 -55,300 -51,300 -48,301 -45,302 -42,302 -38,303 -35,303 -32,304 -28,304 -25,305 -22,305 -18,305 -16,306 -11,306 -9,307 -5,306 -1,306 1,306 5,306 9,305 11,306 15,305 19,305 21,305 25,304 29,304 31,304 35,304 39,303 41,303 45,302 49,302 51,300 55,301 58,299 61,299 64,297 68,297 71,297 74,295 77,294 81,293 83,293 87,291 90,290 93,290 96,288 99,287 102,286 12,-181 13,-180 14,-179 15,-178 16,-177 16,-176 18,-175 18,-174 19,-172 20,-172 20,-171 22,-170 22,-168 23,-168 24,-167 25,-165 25,-165 27,-163 27,-163 27,-161 29,-161 29,-160 30,-158 31,-158 31,-156 33,-156 32,-154 34,-154 34,-152 35,-152 35,-150 37,-150 36,-148 38,-148 38,-147 39,-145 39,-145 40,-143 41,-143 41,-142 42,-140 42,-140 43,-139 43,-138 44,-136 45,-136 45,-135 46,-134 46,-133 47,-132 47,-131 47,-130 49,-129 48,-128 49,-128 50,-126 50,-125 50,-124 51,-124 52,-122 104,-243 107,-241" />
          <path
             inkscape:connector-curvature="0"
             id="path23468"
             style="fill:none;stroke:#000000;stroke-width:261.43286133;stroke-linecap:round;stroke-linejoin:round;stroke-miterlimit:4;stroke-dasharray:none;stroke-opacity:1"
             d="m 319334,188137 136,-61 134,-62 133,-63 132,-63 132,-64 130,-65 130,-65 128,-66 128,-66 127,-67 125,-68 125,-68 124,-69 123,-69 122,-70 121,-71 120,-71 120,-71 118,-73 117,-72 117,-74 115,-74 115,-74 113,-75 113,-75 112,-76 110,-76 110,-77 109,-78 108,-78 107,-78 106,-79 209,-159 207,-162 204,-165 202,-168 100,-85 99,-86 98,-87 98,-87 97,-88 96,-88 96,-90 95,-90 94,-90 93,-92 93,-92 91,-93 91,-93 90,-94 90,-95 88,-96 88,-96 87,-97 85,-98 86,-98 84,-99 83,-100 82,-100 82,-102" />
          <path
             inkscape:connector-curvature="0"
             id="path23470"
             style="fill:none;stroke:#000000;stroke-width:261.43286133;stroke-linecap:round;stroke-linejoin:round;stroke-miterlimit:4;stroke-dasharray:none;stroke-opacity:1"
             d="m 300467,170989 -102,-82 -100,-82 -100,-83 -99,-84 -98,-86 -98,-85 -97,-87 -96,-88 -96,-88 -95,-90 -94,-90 -93,-91 -93,-91 -92,-93 -92,-93 -90,-94 -90,-95 -90,-96 -88,-96 -88,-97 -87,-98 -87,-98 -86,-99 -85,-100 -168,-202 -165,-204 -162,-207 -159,-209 -79,-106 -78,-107 -78,-108 -78,-109 -77,-110 -76,-110 -76,-112 -75,-113 -75,-113 -74,-115 -74,-115 -74,-117 -72,-117 -73,-118 -71,-120 -71,-120 -71,-121 -70,-122 -69,-123 -69,-124 -68,-125 -68,-125 -67,-127 -66,-128 -66,-128 -65,-130 -65,-130 -64,-132 -63,-132 -63,-133 -62,-134 -61,-136 120,-263 124,-262 128,-260 131,-258 134,-256 69,-128 69,-127 70,-126 71,-126 72,-125 72,-124 73,-123 74,-123 74,-121 75,-120 75,-119 76,-119 76,-117 77,-117 78,-115 78,-115 79,-113 79,-113 80,-111 80,-111 81,-110 82,-108 82,-108 82,-107 83,-106 84,-105 84,-103 84,-103 85,-102 86,-101 86,-100 86,-99 87,-98 87,-97 88,-96 88,-95 89,-94 89,-93 90,-92 90,-90 90,-90 91,-89 91,-88 92,-87 92,-86 92,-85 93,-84 93,-83 93,-82 94,-81 95,-79 94,-79 95,-78 96,-77" />
          <path
             inkscape:connector-curvature="0"
             id="path23472"
             style="fill:none;stroke:#000000;stroke-width:261.43286133;stroke-linecap:round;stroke-linejoin:round;stroke-miterlimit:4;stroke-dasharray:none;stroke-opacity:1"
             d="m 295319,164121 -63,-140 -62,-141 -61,-141 -60,-142 -59,-142 -58,-143 -57,-143 -56,-143 -109,-288 -106,-290 -102,-290 -99,-292 -95,-294 -91,-294 -88,-296 -85,-297 -80,-297 -78,-299 -74,-300 -71,-301 -67,-301 -64,-302 -61,-303 -57,-304 -55,-304 -51,-304 -48,-306 -44,-305 -42,-306 -39,-307 -35,-306 -33,-308 -30,-307 -26,-308 -24,-308 -22,-308" />
          <path
             inkscape:connector-curvature="0"
             id="path23474"
             style="fill:none;stroke:#000000;stroke-width:261.43286133;stroke-linecap:round;stroke-linejoin:round;stroke-miterlimit:4;stroke-dasharray:none;stroke-opacity:1"
             d="m 302353,147140 -95,256 -93,257 -88,258 -86,259 -82,260 -79,260 -75,262 -72,263 -68,263 -65,264 -61,265 -58,265 -54,266 -50,267 -46,267 -42,268 -20,134 -18,134 -18,135 -17,134 -15,134 -15,135 -13,134 -13,135 -11,135 -11,134 -9,135 -9,135 -7,134 -6,135 -5,135 -4,134 -3,135 -2,135 -1,134 1,135 1,134 3,134 4,134 5,134 6,134 7,134 8,134 10,134 11,133 12,134 13,133 14,133 93,-197 95,-196 98,-195 100,-194 101,-193 104,-192 106,-191 108,-190 110,-188 112,-187 115,-187 116,-185 118,-183 121,-183 122,-181 125,-180 126,-179 129,-178 130,-176 133,-175 134,-173 137,-172 138,-171 141,-170 142,-167 144,-167 147,-165 148,-163 150,-162 152,-161 154,-159 155,-157 157,-155 159,-153 160,-152 161,-149 163,-148 165,-146 166,-143 167,-142 169,-140 171,-138 172,-136 173,-135 174,-132 176,-130 177,-128 179,-126 179,-125 182,-122 182,-120 183,-118 185,-116 186,-115 187,-112 189,-110 189,-107 191,-106 191,-104 193,-102 194,-99 195,-98 196,-95 197,-93" />
          <path
             inkscape:connector-curvature="0"
             id="path23476"
             style="fill:none;stroke:#000000;stroke-width:261.43286133;stroke-linecap:round;stroke-linejoin:round;stroke-miterlimit:4;stroke-dasharray:none;stroke-opacity:1"
             d="m 300467,170989 -74,-205 -71,-206 -69,-207 -67,-208 -64,-208 -62,-209 -60,-210 -58,-210 -56,-211 -53,-212 -51,-212 -48,-213 -46,-214 -44,-214 -42,-215 -39,-215 -37,-216 -35,-216 -32,-217 -30,-217 -28,-218 -25,-218 -23,-218 -20,-219 -18,-219 -16,-220 -13,-220 -11,-220 -8,-220 -7,-221 -3,-221 -1,-221 1,-221 4,-221 6,-220 8,-220 11,-220 13,-220 16,-219 18,-219 21,-219 23,-218 25,-218 27,-217 30,-217 33,-217 34,-216 37,-215 39,-216 42,-214 44,-214 46,-214 49,-212 51,-213 53,-211 55,-211 58,-211 60,-209 62,-209 64,-208 67,-208 69,-207 71,-206 74,-205" />
          <path
             inkscape:connector-curvature="0"
             id="path23478"
             style="fill:none;stroke:#000000;stroke-width:261.43286133;stroke-linecap:round;stroke-linejoin:round;stroke-miterlimit:4;stroke-dasharray:none;stroke-opacity:1"
             d="m 307521,138788 -275,130 -273,133 -272,136 -271,138 -269,142 -267,145 -266,148 -264,150 -263,154 -261,156 -259,159 -257,162 -256,165 -254,167 -252,171 -251,173 -249,176 -246,179 -245,181 -243,185 -242,187 -239,189 -237,193 -235,195 -233,197 -232,201 -229,203 -227,205 -225,209 -222,210 -220,213 -218,216 -215,217 -213,220 -210,222 -207,224 -206,226 -202,229 -200,231 -198,233 -195,235 -193,237 -190,240 -187,241 -184,244 -182,245 -180,248 -176,249 -174,251 -170,252 -168,255 -165,256 -162,258 -160,259 -156,261 -153,263 -151,264 -148,266 -144,267 -142,269 -139,271 -136,271 -133,274 -129,274 233,-203 235,-201 237,-199 238,-197 241,-194 242,-192 244,-189 246,-187 248,-184 249,-182 252,-180 253,-176 255,-174 257,-171 259,-168 260,-166 263,-162 264,-160 266,-156 268,-153 270,-151 271,-147 273,-143 275,-141 276,-137 278,-133 280,-130 280,-126 142,-61 141,-61 142,-60 142,-59 142,-58 143,-56 143,-56 144,-55 55,-144 55,-143 57,-142 58,-143 59,-142 60,-141 60,-142 62,-141 126,-280 130,-280 133,-278 137,-276 140,-275 144,-273 147,-271 150,-270 153,-268 157,-266 159,-264 163,-263 165,-260 169,-259 171,-257 174,-255 176,-254 179,-251 182,-250 185,-248 187,-246 189,-244 192,-242 194,-241 197,-238 199,-237 201,-235 203,-233" />
          <path
             inkscape:connector-curvature="0"
             id="path23480"
             style="fill:none;stroke:#000000;stroke-width:261.43286133;stroke-linecap:round;stroke-linejoin:round;stroke-miterlimit:4;stroke-dasharray:none;stroke-opacity:1"
             d="m 310849,145924 -133,-14 -133,-13 -134,-12 -133,-11 -134,-10 -134,-8 -134,-7 -134,-6 -134,-5 -134,-4 -134,-3 -135,-1 -134,-1 -135,1 -134,2 -135,3 -135,4 -134,5 -135,6 -135,8 -135,8 -134,9 -135,11 -135,11 -134,13 -135,13 -134,15 -135,16 -134,16 -134,18 -134,18 -134,20 -268,42 -267,46 -267,50 -266,54 -265,58 -265,61 -264,65 -264,68 -262,72 -262,75 -261,79 -260,82 -259,86 -257,89 -257,92 -256,95" />
          <path
             inkscape:connector-curvature="0"
             id="path23482"
             style="fill:none;stroke:#000000;stroke-width:261.43286133;stroke-linecap:round;stroke-linejoin:round;stroke-miterlimit:4;stroke-dasharray:none;stroke-opacity:1"
             d="m 328895,137854 -286,-102 -288,-99 -288,-97 -290,-93 -290,-89 -292,-87 -292,-84 -293,-80 -294,-77 -295,-74 -296,-71 -297,-68 -297,-64 -298,-61 -299,-58 -300,-55 -300,-51 -301,-48 -302,-45 -302,-42 -303,-38 -303,-35 -304,-32 -304,-28 -305,-25 -305,-22 -305,-18 -306,-16 -306,-11 -307,-9 -306,-5 -306,-1 -306,1 -306,5 -305,9 -306,11 -305,15 -305,19 -305,21 -304,25 -304,29 -304,31 -304,35 -303,39 -303,41 -302,45 -302,49 -300,51 -301,55 -299,58 -299,61 -297,64 -297,68 -297,71 -295,74 -294,77 -293,81 -293,83 -291,87 -290,90 -290,93 -288,96 -287,99 -286,102 181,12 180,13 179,14 178,15 177,16 176,16 175,18 174,18 172,19 172,20 171,20 170,22 168,22 168,23 167,24 165,25 165,25 163,27 163,27 161,27 161,29 160,29 158,30 158,31 156,31 156,33 154,32 154,34 152,34 152,35 150,35 150,37 148,36 148,38 147,38 145,39 145,39 143,40 143,41 142,41 140,42 140,42 139,43 138,43 136,44 136,45 135,45 134,46 133,46 132,47 131,47 130,47 129,49 128,48 128,49 126,50 125,50 124,50 124,51 122,52 243,104 241,107 -136,61 -134,62 -133,63 -132,63 -132,64 -130,65 -130,65 -128,66 -128,66 -127,67 -125,68 -125,68 -124,69 -123,69 -122,70 -121,71 -120,71 -120,71 -118,73 -117,72 -117,74 -115,74 -115,74 -113,75 -113,75 -112,76 -110,76 -110,77 -109,78 -108,78 -107,78 -106,79 -209,159 -207,162 -204,165 -202,168 -100,85 -99,86 -98,87 -98,87 -97,88 -96,88 -96,90 -95,90 -94,90 -93,92 -93,92 -91,93 -91,93 -90,94 -90,95 -88,96 -88,96 -87,97 -85,98 -86,98 -84,99 -83,100 -82,100 -82,102" />
          <path
             inkscape:connector-curvature="0"
             id="path23484"
             style="fill:none;stroke:#000000;stroke-width:261.43286133;stroke-linecap:round;stroke-linejoin:round;stroke-miterlimit:4;stroke-dasharray:none;stroke-opacity:1"
             d="m 326202,145254 -77,-96 -78,-95 -79,-94 -79,-95 -81,-94 -82,-93 -83,-93 -84,-93 -85,-92 -86,-92 -87,-92 -88,-91 -89,-91 -90,-90 -90,-90 -92,-90 -93,-89 -94,-89 -95,-88 -96,-88 -97,-87 -98,-87 -99,-86 -100,-86 -101,-86 -102,-85 -103,-84 -103,-84 -105,-84 -106,-83 -107,-82 -108,-82 -108,-82 -110,-81 -111,-80 -111,-80 -113,-79 -113,-79 -115,-78 -115,-78 -117,-77 -117,-76 -119,-76 -119,-75 -120,-75 -121,-74 -123,-74 -123,-73 -124,-72 -125,-72 -126,-71 -126,-70 -127,-69 -128,-69 -256,-134 -258,-131 -260,-128 -262,-124 -263,-120 140,-63 141,-62 141,-61 142,-60 142,-59 143,-58 143,-57 143,-56 288,-109 290,-106 290,-102 292,-99 294,-95 294,-91 296,-88 297,-85 297,-80 299,-78 300,-74 301,-71 301,-67 302,-64 303,-61 304,-57 304,-55 304,-51 306,-48 305,-44 306,-42 307,-39 306,-35 308,-33 307,-30 308,-26 308,-24 308,-22" />
          <path
             inkscape:connector-curvature="0"
             id="path23486"
             style="fill:none;stroke:#000000;stroke-width:261.43286133;stroke-linecap:round;stroke-linejoin:round;stroke-miterlimit:4;stroke-dasharray:none;stroke-opacity:1"
             d="m 337532,155636 14,-133 13,-133 12,-134 11,-133 10,-134 8,-134 7,-134 6,-134 5,-134 4,-134 3,-134 1,-135 1,-134 -1,-135 -2,-134 -3,-135 -4,-135 -5,-134 -6,-135 -8,-135 -8,-135 -9,-134 -11,-135 -11,-135 -13,-134 -13,-135 -15,-134 -16,-135 -16,-134 -18,-134 -18,-134 -20,-134 -42,-268 -46,-267 -50,-267 -54,-266 -58,-265 -61,-265 -65,-264 -68,-264 -72,-262 -75,-262 -79,-261 -82,-260 -86,-259 -89,-257 -92,-257 -95,-256 -256,-95 -257,-93 -258,-88 -259,-86 -260,-82 -260,-79 -262,-75 -263,-72 -263,-68 -264,-65 -265,-61 -265,-58 -266,-54 -267,-50 -267,-46 -268,-42 -134,-20 -134,-18 -135,-18 -134,-17 -134,-15 -135,-15 -134,-13 -135,-13 -135,-11 -134,-11 -135,-9 -135,-9 -134,-7 -135,-6 -135,-5 -134,-4 -135,-3 -135,-2 -134,-1 -135,1 -134,1 -134,3 -134,4 -134,5 -134,6 -134,7 -134,8 -134,10 -133,11 -134,12 -133,13 -133,14 197,93 196,95 195,98 194,100 193,101 192,104 191,106 190,108 188,110 187,112 187,115 185,116 183,118 183,121 181,122 180,125 179,126 178,129 176,130 175,133 173,134 172,137 171,138 170,141 167,142 167,144 165,147 163,148 162,150 161,152 159,154 157,155 155,157 153,159 152,160 149,161 148,163 146,165 143,166 142,167 140,169 138,171 136,172 135,173 132,174 130,176 128,177 126,179 125,179 122,182 120,182 118,183 116,185 115,186 112,187 110,189 107,189 106,191 104,191 102,193 99,194 98,195 95,196 93,197" />
          <path
             inkscape:connector-curvature="0"
             id="path23488"
             style="fill:none;stroke:#000000;stroke-width:261.43286133;stroke-linecap:round;stroke-linejoin:round;stroke-miterlimit:4;stroke-dasharray:none;stroke-opacity:1"
             d="m 312467,145254 205,-74 206,-71 207,-69 208,-67 208,-64 209,-62 210,-60 210,-58 211,-56 212,-53 212,-51 213,-48 214,-46 214,-44 215,-42 215,-39 216,-37 216,-35 217,-32 217,-30 218,-28 218,-25 218,-23 219,-20 219,-18 220,-16 220,-13 220,-11 220,-8 221,-7 221,-3 221,-1 221,1 221,4 220,6 220,8 220,11 220,13 219,16 219,18 219,21 218,23 218,25 217,27 217,30 217,33 216,34 215,37 216,39 214,42 214,44 214,46 212,49 213,51 211,53 211,55 211,58 209,60 209,62 208,64 208,67 207,69 206,71 205,74" />
          <path
             inkscape:connector-curvature="0"
             id="path23490"
             style="fill:none;stroke:#000000;stroke-width:261.43286133;stroke-linecap:round;stroke-linejoin:round;stroke-miterlimit:4;stroke-dasharray:none;stroke-opacity:1"
             d="m 331148,138788 203,233 201,235 199,237 197,238 194,241 192,242 189,244 187,246 184,248 182,249 180,252 176,253 174,255 171,257 168,259 166,260 162,263 160,264 156,266 153,268 151,270 147,271 143,273 141,275 137,276 133,278 130,280 126,280 61,142 61,141 60,142 59,142 58,142 56,143 56,143 55,144 144,55 143,55 142,57 143,58 142,59 141,60 142,60 141,62 280,126 280,130 278,133 276,137 275,140 273,144 271,147 270,150 268,153 266,157 264,159 263,163 260,165 259,169 257,171 255,174 254,176 251,179 250,182 248,185 246,187 244,189 242,192 241,194 238,197 237,199 235,201 233,203 -130,-275 -133,-273 -136,-272 -138,-271 -142,-269 -145,-267 -148,-266 -150,-264 -154,-263 -156,-261 -159,-259 -162,-257 -165,-256 -167,-254 -171,-252 -173,-251 -176,-249 -179,-246 -181,-245 -185,-243 -187,-242 -189,-239 -193,-237 -195,-235 -197,-233 -201,-232 -203,-229 -205,-227 -209,-225 -210,-222 -213,-220 -216,-218 -217,-215 -220,-213 -222,-210 -224,-207 -226,-206 -229,-202 -231,-200 -233,-198 -235,-195 -237,-193 -240,-190 -241,-187 -244,-184 -245,-182 -248,-180 -249,-176 -251,-174 -252,-170 -255,-168 -256,-165 -258,-162 -259,-160 -261,-156 -263,-153 -264,-151 -266,-148 -267,-144 -269,-142 -271,-139 -271,-136 -274,-133 -274,-129" />
          <path
             inkscape:connector-curvature="0"
             id="path23492"
             style="fill:none;stroke:#000000;stroke-width:261.43286133;stroke-linecap:round;stroke-linejoin:round;stroke-miterlimit:4;stroke-dasharray:none;stroke-opacity:1"
             d="m 345602,173682 102,-286 99,-288 97,-288 93,-290 89,-290 87,-292 84,-292 80,-293 77,-294 74,-295 71,-296 68,-297 64,-297 61,-298 58,-299 55,-300 51,-300 48,-301 45,-302 42,-302 38,-303 35,-303 32,-304 28,-304 25,-305 22,-305 18,-305 16,-306 11,-306 9,-307 5,-306 1,-307 -1,-305 -5,-306 -9,-305 -11,-306 -15,-305 -19,-305 -21,-305 -25,-304 -29,-304 -31,-304 -35,-304 -39,-303 -41,-303 -45,-302 -49,-302 -51,-300 -55,-301 -58,-299 -61,-299 -64,-297 -68,-297 -71,-297 -74,-295 -77,-294 -81,-293 -83,-293 -87,-291 -90,-290 -93,-290 -96,-288 -99,-287 -102,-286 -12,181 -13,180 -14,179 -15,178 -16,177 -16,176 -18,175 -18,174 -19,172 -20,172 -20,171 -22,170 -22,168 -23,168 -24,167 -25,165 -25,165 -27,163 -27,163 -27,161 -29,161 -29,160 -30,158 -31,158 -31,156 -33,156 -32,154 -34,154 -34,152 -35,152 -35,150 -37,150 -36,148 -38,148 -38,147 -39,145 -39,145 -40,143 -41,143 -41,142 -42,140 -42,140 -43,139 -43,138 -44,136 -45,136 -45,135 -46,134 -46,133 -47,132 -47,131 -47,130 -49,129 -48,128 -49,128 -50,126 -50,125 -50,124 -51,124 -52,122 -104,243 -107,241 63,140 62,141 61,141 60,142 59,142 58,143 57,143 56,143 109,288 106,290 102,290 99,292 95,294 91,294 88,296 85,297 80,297 78,299 74,300 71,301 67,301 64,302 61,303 57,304 55,304 51,304 48,306 44,305 42,306 39,307 35,306 33,308 30,307 26,308 24,308 22,308" />
          <path
             inkscape:connector-curvature="0"
             id="path23494"
             style="fill:none;stroke:#000000;stroke-width:261.43286133;stroke-linecap:round;stroke-linejoin:round;stroke-miterlimit:4;stroke-dasharray:none;stroke-opacity:1"
             d="m 327820,182319 133,14 133,13 134,12 133,11 134,10 134,8 134,7 134,6 134,5 134,4 134,3 135,1 134,1 135,-1 134,-2 135,-3 135,-4 134,-5 135,-6 135,-8 135,-8 134,-9 135,-11 135,-11 134,-13 135,-13 134,-15 135,-16 134,-16 134,-18 134,-18 134,-20 268,-42 267,-46 267,-50 266,-54 265,-58 265,-61 264,-65 264,-68 262,-72 262,-75 261,-79 260,-82 259,-86 257,-89 257,-92 256,-95 95,-256 93,-257 88,-258 86,-259 82,-260 79,-260 75,-262 72,-263 68,-263 65,-264 61,-265 58,-265 54,-266 50,-267 46,-267 42,-268 20,-134 18,-134 18,-135 17,-134 15,-134 15,-135 13,-134 13,-135 11,-135 11,-134 9,-135 9,-135 7,-134 6,-135 5,-135 4,-134 3,-135 2,-135 1,-134 -1,-135 -1,-134 -3,-134 -4,-134 -5,-134 -6,-134 -7,-134 -8,-134 -10,-134 -11,-133 -12,-134 -13,-133 -14,-133" />
          <path
             inkscape:connector-curvature="0"
             id="path23496"
             style="fill:none;stroke:#000000;stroke-width:261.43286133;stroke-linecap:round;stroke-linejoin:round;stroke-miterlimit:4;stroke-dasharray:none;stroke-opacity:1"
             d="m 338202,170989 96,-77 95,-78 94,-79 95,-79 94,-81 93,-82 93,-83 93,-84 92,-85 92,-86 92,-87 91,-88 91,-89 90,-90 90,-90 90,-92 89,-93 89,-94 88,-95 88,-96 87,-97 87,-98 86,-99 86,-100 86,-101 85,-102 84,-103 84,-103 84,-105 83,-106 82,-107 82,-108 82,-108 81,-110 80,-111 80,-111 79,-113 79,-113 78,-115 78,-115 77,-117 76,-117 76,-119 75,-119 75,-120 74,-121 74,-123 73,-123 72,-124 72,-125 71,-126 70,-126 69,-127 69,-128 134,-256 131,-258 128,-260 124,-262 120,-263 -61,-136 -62,-134 -63,-133 -63,-132 -64,-132 -65,-130 -65,-130 -66,-128 -66,-128 -67,-127 -68,-125 -68,-125 -69,-124 -69,-123 -70,-122 -71,-121 -71,-120 -71,-120 -73,-118 -72,-117 -74,-117 -74,-115 -74,-115 -75,-113 -75,-113 -76,-112 -76,-110 -77,-110 -78,-109 -78,-108 -78,-107 -79,-106 -159,-209 -162,-207 -165,-204 -168,-202 -85,-100 -86,-99 -87,-98 -87,-98 -88,-97 -88,-96 -90,-96 -90,-95 -90,-94 -92,-93 -92,-93 -93,-91 -93,-91 -94,-90 -95,-90 -96,-88 -96,-88 -97,-87 -98,-85 -98,-86 -99,-84 -100,-83 -100,-82 -102,-82" />
          <path
             inkscape:connector-curvature="0"
             id="path23498"
             style="fill:none;stroke:#000000;stroke-width:261.43286133;stroke-linecap:round;stroke-linejoin:round;stroke-miterlimit:4;stroke-dasharray:none;stroke-opacity:1"
             d="m 337532,172607 -93,197 -95,196 -98,195 -100,194 -101,193 -104,192 -106,191 -108,190 -110,188 -112,187 -115,187 -116,185 -118,183 -121,183 -122,181 -125,180 -126,179 -129,178 -130,176 -133,175 -134,173 -137,172 -138,171 -141,170 -142,167 -144,167 -147,165 -148,163 -150,162 -152,161 -154,159 -155,157 -157,155 -159,153 -160,152 -161,149 -163,148 -165,146 -166,143 -167,142 -169,140 -171,138 -172,136 -173,135 -174,132 -176,130 -177,128 -179,126 -179,125 -182,122 -182,120 -183,118 -185,116 -186,115 -187,112 -189,110 -189,107 -191,106 -191,104 -193,102 -194,99 -195,98 -196,95 -197,93" />
          <path
             inkscape:connector-curvature="0"
             id="path23500"
             style="fill:none;stroke:#000000;stroke-width:261.43286133;stroke-linecap:round;stroke-linejoin:round;stroke-miterlimit:4;stroke-dasharray:none;stroke-opacity:1"
             d="m 338202,157254 74,205 71,206 69,207 67,208 64,208 62,209 60,210 58,210 56,211 53,212 51,212 48,213 46,214 44,214 42,215 39,215 37,216 35,216 32,217 30,217 28,218 25,218 23,218 20,219 18,219 16,220 13,220 11,220 8,220 7,221 3,221 1,221 -1,221 -4,221 -6,220 -8,220 -11,220 -13,220 -16,219 -18,219 -21,219 -23,218 -25,218 -27,217 -30,217 -33,217 -34,216 -37,215 -39,216 -42,214 -44,214 -46,214 -49,212 -51,213 -53,211 -55,211 -58,211 -60,209 -62,209 -64,208 -67,208 -69,207 -71,206 -74,205" />
          <path
             inkscape:connector-curvature="0"
             id="path23502"
             style="fill:none;stroke:#000000;stroke-width:261.43286133;stroke-linecap:round;stroke-linejoin:round;stroke-miterlimit:4;stroke-dasharray:none;stroke-opacity:1"
             d="m 344668,175935 -233,203 -235,201 -237,199 -238,197 -241,194 -242,192 -244,189 -246,187 -248,184 -249,182 -252,180 -253,176 -255,174 -257,171 -259,168 -260,166 -263,162 -264,160 -266,156 -268,153 -270,151 -271,147 -273,143 -275,141 -276,137 -278,133 -280,130 -280,126 -142,61 -141,61 -142,60 -142,59 -142,58 -143,56 -143,56 -144,55 -55,144 -55,143 -57,142 -58,143 -59,142 -60,141 -60,142 -62,141 -126,280 -130,280 -133,278 -137,276 -140,275 -144,273 -147,271 -150,270 -153,268 -157,266 -159,264 -163,263 -165,260 -169,259 -171,257 -174,255 -176,254 -179,251 -182,250 -185,248 -187,246 -189,244 -192,242 -194,241 -197,238 -199,237 -201,235 -203,233 275,-130 273,-133 272,-136 271,-138 269,-142 267,-145 266,-148 264,-150 263,-154 261,-156 259,-159 257,-162 256,-165 254,-167 252,-171 251,-173 249,-176 246,-179 245,-181 243,-185 242,-187 239,-189 237,-193 235,-195 233,-197 232,-201 229,-203 227,-205 225,-209 222,-210 220,-213 218,-216 215,-217 213,-220 210,-222 207,-224 206,-226 202,-229 200,-231 198,-233 195,-235 193,-237 190,-240 187,-241 184,-244 182,-245 180,-248 176,-249 174,-251 170,-252 168,-255 165,-256 162,-258 160,-259 156,-261 153,-263 151,-264 148,-266 144,-267 142,-269 139,-271 136,-271 133,-274 129,-274" />
          <path
             inkscape:connector-curvature="0"
             id="path23504"
             style="fill:none;stroke:#000000;stroke-width:261.43286133;stroke-linecap:round;stroke-linejoin:round;stroke-miterlimit:4;stroke-dasharray:none;stroke-opacity:1"
             d="m 319334,188137 -140,63 -141,62 -141,61 -142,60 -142,59 -143,58 -143,57 -143,56 -288,109 -290,106 -290,102 -292,99 -294,95 -294,91 -296,88 -297,85 -297,80 -299,78 -300,74 -301,71 -301,67 -302,64 -303,61 -304,57 -304,55 -304,51 -306,48 -305,44 -306,42 -307,39 -306,35 -308,33 -307,30 -308,26 -308,24 -308,22 286,102 288,99 288,97 290,93 290,89 292,87 292,84 293,80 294,77 295,74 296,71 297,68 297,64 298,61 299,58 300,55 300,51 301,48 302,45 302,42 303,38 303,35 304,32 304,28 305,25 305,22 305,18 306,16 306,11 307,9 306,5 307,1 305,-1 306,-5 305,-9 306,-11 305,-15 305,-19 305,-21 304,-25 304,-29 304,-31 304,-35 303,-39 303,-41 302,-45 302,-49 300,-51 301,-55 299,-58 299,-61 297,-64 297,-68 297,-71 295,-74 294,-77 293,-81 293,-83 291,-87 290,-90 290,-93 288,-96 287,-99 286,-102 -181,-12 -180,-13 -179,-14 -178,-15 -177,-16 -176,-16 -175,-18 -174,-18 -172,-19 -172,-20 -171,-20 -170,-22 -168,-22 -168,-23 -167,-24 -165,-25 -165,-25 -163,-27 -163,-27 -161,-27 -161,-29 -160,-29 -158,-30 -158,-31 -156,-31 -156,-33 -154,-32 -154,-34 -152,-34 -152,-35 -150,-35 -150,-37 -148,-36 -148,-38 -147,-38 -145,-39 -145,-39 -143,-40 -143,-41 -142,-41 -140,-42 -140,-42 -139,-43 -138,-43 -136,-44 -136,-45 -135,-45 -134,-46 -133,-46 -132,-47 -131,-47 -130,-47 -129,-49 -128,-48 -128,-49 -126,-50 -125,-50 -124,-50 -124,-51 -122,-52 -243,-104 -241,-107" />
          <path
             inkscape:connector-curvature="0"
             id="path23506"
             style="fill:none;stroke:#000000;stroke-width:261.43286133;stroke-linecap:round;stroke-linejoin:round;stroke-miterlimit:4;stroke-dasharray:none;stroke-opacity:1"
             d="m 296432,171060 -45,15 -46,16 -45,17 -45,19 -45,20 -45,22 -44,22 -44,25 -43,25 -43,27 -42,28 -41,29 -41,31 -40,32 -40,33 -38,34 -38,36 -37,37 -35,38 -35,39 -34,40 -33,41 -32,41 -30,43 -30,44 -29,44 -27,45 -26,46 -26,46 -24,47 -22,47 -22,48 -20,48 -19,48 -18,49 -17,50 -16,51 -15,52 -14,53 -12,53 -12,54 -10,55 -9,55 -8,55 -7,56 -6,57 -4,57 -3,57 -1,57 -1,58 2,58 2,57 4,58 5,58 6,58 8,57 9,58 10,57 12,57 12,56 14,56 15,56 16,55 17,54 18,54 20,53 20,52 21,52 22,51 24,51 25,51 26,51 28,50 28,50 30,49 30,49 32,49 33,47 34,47 35,47 36,45 37,45 38,44 39,43 40,41 41,41 41,40 43,38 43,38 43,36 45,35 45,34 45,33 46,31 46,31 47,29 46,27 48,27 47,25 47,24 48,22 47,21 49,20 48,18 50,18 50,16 50,15 51,14 51,13 52,11 51,11 52,8 52,8 52,6 53,4 52,4 52,1 52,1 52,-1 51,-3 52,-4 51,-6 50,-7 51,-8 49,-10 50,-11 48,-12 49,-14 47,-14 47,-16 46,-18 45,-18 45,-20 44,-20 42,-22 42,-23 42,-24 41,-26 41,-27 41,-29 39,-29 40,-32 38,-32 38,-33 37,-35 37,-36 35,-37 35,-39 33,-39 33,-41 31,-41 30,-43 30,-43 28,-45 27,-45 25,-46 25,-47 23,-47 22,-48 21,-48 20,-49 18,-49 17,-49 16,-50 15,-50 13,-50 12,-51 12,-52 10,-52 9,-54 8,-54 6,-55 6,-55 4,-56 3,-57 2,-57 1,-57 -1,-57 -2,-58 -3,-58 -5,-57 -6,-58 -7,-58 -8,-58 -10,-58 -11,-57 -12,-57 -13,-57 -15,-56 -15,-56 -17,-55 -17,-55 -19,-54 -19,-53 -20,-52 -21,-52 -23,-51 -24,-52 -24,-51 -26,-51 -28,-51 -28,-50 -29,-50 -31,-50 -32,-49 -32,-48 -34,-48 -34,-47 -36,-46 -37,-45 -37,-45 -39,-43 -39,-42 -40,-42 -40,-40 -42,-39 -42,-38 -42,-37 -43,-35 -44,-34 -44,-33 -44,-32 -44,-31 -45,-29 -44,-27 -45,-26 -45,-25 -47,-25 -47,-23 -47,-21 -48,-21 -49,-20 -50,-18 -50,-18 -50,-16 -50,-14 -51,-13 -52,-12 -51,-11 -51,-9 -52,-7 -52,-6 -51,-5 -52,-3 -51,-1 h -51 l -51,1 -51,3 -50,4 -50,6 -49,7 -49,8 -48,9 -48,11 -47,12 -46,13" />
          <path
             inkscape:connector-curvature="0"
             id="path23508"
             style="fill:none;stroke:#000000;stroke-width:261.43286133;stroke-linecap:round;stroke-linejoin:round;stroke-miterlimit:4;stroke-dasharray:none;stroke-opacity:1"
             d="m 312396,141219 -15,-45 -16,-46 -17,-45 -19,-45 -20,-45 -22,-45 -22,-44 -25,-44 -25,-43 -27,-43 -28,-42 -29,-41 -31,-41 -32,-40 -33,-40 -34,-38 -36,-38 -37,-37 -38,-35 -39,-35 -40,-34 -41,-33 -41,-32 -43,-30 -44,-30 -44,-29 -45,-27 -46,-26 -46,-26 -47,-24 -47,-22 -48,-22 -48,-20 -48,-19 -49,-18 -50,-17 -51,-16 -52,-15 -53,-14 -53,-12 -54,-12 -55,-10 -55,-9 -55,-8 -56,-7 -57,-6 -57,-4 -57,-3 -57,-1 -58,-1 -58,2 -57,2 -58,4 -58,5 -58,6 -57,8 -58,9 -57,10 -57,12 -56,12 -56,14 -56,15 -55,16 -54,17 -54,18 -53,20 -52,20 -52,21 -51,22 -51,24 -51,25 -51,26 -50,28 -50,28 -49,30 -49,30 -49,32 -47,33 -47,34 -47,35 -45,36 -45,37 -44,38 -43,39 -41,40 -41,41 -40,41 -38,43 -38,43 -36,43 -35,45 -34,45 -33,45 -31,46 -31,46 -29,47 -27,46 -27,48 -25,47 -24,47 -22,48 -21,47 -20,49 -18,48 -18,50 -16,50 -15,50 -14,51 -13,51 -11,52 -11,51 -8,52 -8,52 -6,52 -4,53 -4,52 -1,52 -1,52 1,52 3,51 4,52 6,51 7,50 8,51 10,49 11,50 12,48 14,49 14,47 16,47 18,46 18,45 20,45 20,44 22,42 23,42 24,42 26,41 27,41 29,41 29,39 32,40 32,38 33,38 35,37 36,37 37,35 39,35 39,33 41,33 41,31 43,30 43,30 45,28 45,27 46,25 47,25 47,23 48,22 48,21 49,20 49,18 49,17 50,16 50,15 50,13 51,12 52,12 52,10 54,9 54,8 55,6 55,6 56,4 57,3 57,2 57,1 57,-1 58,-2 58,-3 57,-5 58,-6 58,-7 58,-8 58,-10 57,-11 57,-12 57,-13 56,-15 56,-15 55,-17 55,-17 54,-19 53,-19 52,-20 52,-21 51,-23 52,-24 51,-24 51,-26 51,-28 50,-28 50,-29 50,-31 49,-32 48,-32 48,-34 47,-34 46,-36 45,-37 45,-37 43,-39 42,-39 42,-40 40,-40 39,-42 38,-42 37,-42 35,-43 34,-44 33,-44 32,-44 31,-44 29,-45 27,-44 26,-45 25,-45 25,-47 23,-47 21,-47 21,-48 20,-49 18,-50 18,-50 16,-50 14,-50 13,-51 12,-52 11,-51 9,-51 7,-52 6,-52 5,-51 3,-52 1,-51 v -51 l -1,-51 -3,-51 -4,-50 -6,-50 -7,-49 -8,-49 -9,-48 -11,-48 -12,-47 -13,-46" />
          <path
             inkscape:connector-curvature="0"
             id="path23510"
             style="fill:none;stroke:#000000;stroke-width:261.43286133;stroke-linecap:round;stroke-linejoin:round;stroke-miterlimit:4;stroke-dasharray:none;stroke-opacity:1"
             d="m 342237,157183 45,-15 46,-16 45,-17 45,-19 45,-20 45,-22 44,-22 44,-25 43,-25 43,-27 42,-28 41,-29 41,-31 40,-32 40,-33 38,-34 38,-36 37,-37 35,-38 35,-39 34,-40 33,-41 32,-41 30,-43 30,-44 29,-44 27,-45 26,-46 26,-46 24,-47 22,-47 22,-48 20,-48 19,-48 18,-49 17,-50 16,-51 15,-52 14,-53 12,-53 12,-54 10,-55 9,-55 8,-55 7,-56 6,-57 4,-57 3,-57 1,-57 1,-58 -2,-58 -2,-57 -4,-58 -5,-58 -6,-58 -8,-57 -9,-58 -10,-57 -12,-57 -12,-56 -14,-56 -15,-56 -16,-55 -17,-54 -18,-54 -20,-53 -20,-52 -21,-52 -22,-51 -24,-51 -25,-51 -26,-51 -28,-50 -28,-50 -30,-49 -30,-49 -32,-49 -33,-47 -34,-47 -35,-47 -36,-45 -37,-45 -38,-44 -39,-43 -40,-41 -41,-41 -41,-40 -43,-38 -43,-38 -43,-36 -45,-35 -45,-34 -45,-33 -46,-31 -46,-31 -47,-29 -46,-27 -48,-27 -47,-25 -47,-24 -48,-22 -47,-21 -49,-20 -48,-18 -50,-18 -50,-16 -50,-15 -51,-14 -51,-13 -52,-11 -51,-11 -52,-8 -52,-8 -52,-6 -53,-4 -52,-4 -52,-1 -52,-1 -52,1 -51,3 -52,4 -51,6 -50,7 -51,8 -49,10 -50,11 -48,12 -49,14 -47,14 -47,16 -46,18 -45,18 -45,20 -44,20 -42,22 -42,23 -42,24 -41,26 -41,27 -41,29 -39,29 -40,32 -38,32 -38,33 -37,35 -37,36 -35,37 -35,39 -33,39 -33,41 -31,41 -30,43 -30,43 -28,45 -27,45 -25,46 -25,47 -23,47 -22,48 -21,48 -20,49 -18,49 -17,49 -16,50 -15,50 -13,50 -12,51 -12,52 -10,52 -9,54 -8,54 -6,55 -6,55 -4,56 -3,57 -2,57 -1,57 1,57 2,58 3,58 5,57 6,58 7,58 8,58 10,58 11,57 12,57 13,57 15,56 15,56 17,55 17,55 19,54 19,53 20,52 21,52 23,51 24,52 24,51 26,51 28,51 28,50 29,50 31,50 32,49 32,48 34,48 34,47 36,46 37,45 37,45 39,43 39,42 40,42 40,40 42,39 42,38 42,37 43,35 44,34 44,33 44,32 44,31 45,29 44,27 45,26 45,25 47,25 47,23 47,21 48,21 49,20 50,18 50,18 50,16 50,14 51,13 52,12 51,11 51,9 52,7 52,6 51,5 52,3 51,1 h 51 l 51,-1 51,-3 50,-4 50,-6 49,-7 49,-8 48,-9 48,-11 47,-12 46,-13" />
          <path
             inkscape:connector-curvature="0"
             id="path23512"
             style="fill:none;stroke:#000000;stroke-width:261.43286133;stroke-linecap:round;stroke-linejoin:round;stroke-miterlimit:4;stroke-dasharray:none;stroke-opacity:1"
             d="m 326273,187024 15,45 16,46 17,45 19,45 20,45 22,45 22,44 25,44 25,43 27,43 28,42 29,41 31,41 32,40 33,40 34,38 36,38 37,37 38,35 39,35 40,34 41,33 41,32 43,30 44,30 44,29 45,27 46,26 46,26 47,24 47,22 48,22 48,20 48,19 49,18 50,17 51,16 52,15 53,14 53,12 54,12 55,10 55,9 55,8 56,7 57,6 57,4 57,3 57,1 58,1 58,-2 57,-2 58,-4 58,-5 58,-6 57,-8 58,-9 57,-10 57,-12 56,-12 56,-14 56,-15 55,-16 54,-17 54,-18 53,-20 52,-20 52,-21 51,-22 51,-24 51,-25 51,-26 50,-28 50,-28 49,-30 49,-30 49,-32 47,-33 47,-34 47,-35 45,-36 45,-37 44,-38 43,-39 41,-40 41,-41 40,-41 38,-43 38,-43 36,-43 35,-45 34,-45 33,-45 31,-46 31,-46 29,-47 27,-46 27,-48 25,-47 24,-47 22,-48 21,-47 20,-49 18,-48 18,-50 16,-50 15,-50 14,-51 13,-51 11,-52 11,-51 8,-52 8,-52 6,-52 4,-53 4,-52 1,-52 1,-52 -1,-52 -3,-51 -4,-52 -6,-51 -7,-50 -8,-51 -10,-49 -11,-50 -12,-48 -14,-49 -14,-47 -16,-47 -18,-46 -18,-45 -20,-45 -20,-44 -22,-42 -23,-42 -24,-42 -26,-41 -27,-41 -29,-41 -29,-39 -32,-40 -32,-38 -33,-38 -35,-37 -36,-37 -37,-35 -39,-35 -39,-33 -41,-33 -41,-31 -43,-30 -43,-30 -45,-28 -45,-27 -46,-25 -47,-25 -47,-23 -48,-22 -48,-21 -49,-20 -49,-18 -49,-17 -50,-16 -50,-15 -50,-13 -51,-12 -52,-12 -52,-10 -54,-9 -54,-8 -55,-6 -55,-6 -56,-4 -57,-3 -57,-2 -57,-1 -57,1 -58,2 -58,3 -57,5 -58,6 -58,7 -58,8 -58,10 -57,11 -57,12 -57,13 -56,15 -56,15 -55,17 -55,17 -54,19 -53,19 -52,20 -52,21 -51,23 -52,24 -51,24 -51,26 -51,28 -50,28 -50,29 -50,31 -49,32 -48,32 -48,34 -47,34 -46,36 -45,37 -45,37 -43,39 -42,39 -42,40 -40,40 -39,42 -38,42 -37,42 -35,43 -34,44 -33,44 -32,44 -31,44 -29,45 -27,44 -26,45 -25,45 -25,47 -23,47 -21,47 -21,48 -20,49 -18,50 -18,50 -16,50 -14,50 -13,51 -12,52 -11,51 -9,51 -7,52 -6,52 -5,51 -3,52 -1,51 v 51 l 1,51 3,51 4,50 6,50 7,49 8,49 9,48 11,48 12,47 13,46" />
          <path
             inkscape:connector-curvature="0"
             id="path23514"
             style="fill:none;stroke:#000000;stroke-width:261.43286133;stroke-linecap:round;stroke-linejoin:round;stroke-miterlimit:4;stroke-dasharray:none;stroke-opacity:1"
             d="m 312396,187024 13,-46 12,-47 11,-48 9,-48 8,-49 7,-49 6,-50 4,-50 3,-51 1,-51 v -51 l -1,-51 -3,-52 -5,-51 -6,-52 -7,-52 -9,-51 -11,-51 -12,-52 -13,-51 -14,-50 -16,-50 -18,-50 -18,-50 -20,-49 -21,-48 -21,-47 -23,-47 -25,-47 -25,-45 -26,-45 -27,-44 -29,-45 -31,-44 -32,-44 -33,-44 -34,-44 -35,-43 -37,-42 -38,-42 -39,-42 -40,-40 -42,-40 -42,-39 -43,-39 -45,-37 -45,-37 -46,-36 -47,-34 -48,-34 -48,-32 -49,-32 -50,-31 -50,-29 -50,-28 -51,-28 -51,-26 -51,-24 -52,-24 -51,-23 -52,-21 -52,-20 -53,-19 -54,-19 -55,-17 -55,-17 -56,-15 -56,-15 -57,-13 -57,-12 -57,-11 -58,-10 -58,-8 -58,-7 -58,-6 -57,-5 -58,-3 -58,-2 -57,-1 -57,1 -57,2 -57,3 -56,4 -55,6 -55,6 -54,8 -54,9 -52,10 -52,12 -51,12 -50,13 -50,15 -50,16 -49,17 -49,18 -49,20 -48,21 -48,22 -47,23 -47,25 -46,25 -45,27 -45,28 -43,30 -43,30 -41,31 -41,33 -39,33 -39,35 -37,35 -36,37 -35,37 -33,38 -32,38 -32,40 -29,39 -29,41 -27,41 -26,41 -24,42 -23,42 -22,42 -20,44 -20,45 -18,45 -18,46 -16,47 -14,47 -14,49 -12,48 -11,50 -10,49 -8,51 -7,50 -6,51 -4,52 -3,51 -1,52 1,52 1,52 4,52 4,53 6,52 8,52 8,52 11,51 11,52 13,51 14,51 15,50 16,50 18,50 18,48 20,49 21,47 22,48 24,47 25,47 27,48 27,46 29,47 31,46 31,46 33,45 34,45 35,45 36,43 38,43 38,43 40,41 41,41 41,40 43,39 44,38 45,37 45,36 47,35 47,34 47,33 49,32 49,30 49,30 50,28 50,28 51,26 51,25 51,24 51,22 52,21 52,20 53,20 54,18 54,17 55,16 56,15 56,14 56,12 57,12 57,10 58,9 57,8 58,6 58,5 58,4 57,2 58,2 58,-1 57,-1 57,-3 57,-4 57,-6 56,-7 55,-8 55,-9 55,-10 54,-12 53,-12 53,-14 52,-15 51,-16 50,-17 49,-18 48,-19 48,-20 48,-22 47,-22 47,-24 46,-26 46,-26 45,-27 44,-29 44,-30 43,-30 41,-32 41,-33 40,-34 39,-35 38,-35 37,-37 36,-38 34,-38 33,-40 32,-40 31,-41 29,-41 28,-42 27,-43 25,-43 25,-44 22,-44 22,-45 20,-45 19,-45 17,-45 16,-46 15,-45" />
          <path
             inkscape:connector-curvature="0"
             id="path23516"
             style="fill:none;stroke:#000000;stroke-width:261.43286133;stroke-linecap:round;stroke-linejoin:round;stroke-miterlimit:4;stroke-dasharray:none;stroke-opacity:1"
             d="m 296432,157183 46,13 47,12 48,11 48,9 49,8 49,7 50,6 50,4 51,3 51,1 h 51 l 51,-1 52,-3 51,-5 52,-6 52,-7 51,-9 51,-11 52,-12 51,-13 50,-14 50,-16 50,-18 50,-18 49,-20 48,-21 47,-21 47,-23 47,-25 45,-25 45,-26 44,-27 45,-29 44,-31 44,-32 44,-33 44,-34 43,-35 42,-37 42,-38 42,-39 40,-40 40,-42 39,-42 39,-43 37,-45 37,-45 36,-46 34,-47 34,-48 32,-48 32,-49 31,-50 29,-50 28,-50 28,-51 26,-51 24,-51 24,-52 23,-51 21,-52 20,-52 19,-53 19,-54 17,-55 17,-55 15,-56 15,-56 13,-57 12,-57 11,-57 10,-58 8,-58 7,-58 6,-58 5,-57 3,-58 2,-58 1,-57 -1,-57 -2,-57 -3,-57 -4,-56 -6,-55 -6,-55 -8,-54 -9,-54 -10,-52 -12,-52 -12,-51 -13,-50 -15,-50 -16,-50 -17,-49 -18,-49 -20,-49 -21,-48 -22,-48 -23,-47 -25,-47 -25,-46 -27,-45 -28,-45 -30,-43 -30,-43 -31,-41 -33,-41 -33,-39 -35,-39 -35,-37 -37,-36 -37,-35 -38,-33 -38,-32 -40,-32 -39,-29 -41,-29 -41,-27 -41,-26 -42,-24 -42,-23 -42,-22 -44,-20 -45,-20 -45,-18 -46,-18 -47,-16 -47,-14 -49,-14 -48,-12 -50,-11 -49,-10 -51,-8 -50,-7 -51,-6 -52,-4 -51,-3 -52,-1 -52,1 -52,1 -52,4 -53,4 -52,6 -52,8 -52,8 -51,11 -52,11 -51,13 -51,14 -50,15 -50,16 -50,18 -48,18 -49,20 -47,21 -48,22 -47,24 -47,25 -48,27 -46,27 -47,29 -46,31 -46,31 -45,33 -45,34 -45,35 -43,36 -43,38 -43,38 -41,40 -41,41 -40,41 -39,43 -38,44 -37,45 -36,45 -35,47 -34,47 -33,47 -32,49 -30,49 -30,49 -28,50 -28,50 -26,51 -25,51 -24,51 -22,51 -21,52 -20,52 -20,53 -18,54 -17,54 -16,55 -15,56 -14,56 -12,56 -12,57 -10,57 -9,58 -8,57 -6,58 -5,58 -4,58 -2,57 -2,58 1,58 1,57 3,57 4,57 6,57 7,56 8,55 9,55 10,55 12,54 12,53 14,53 15,52 16,51 17,50 18,49 19,48 20,48 22,48 22,47 24,47 26,46 26,46 27,45 29,44 30,44 30,43 32,41 33,41 34,40 35,39 35,38 37,37 38,36 38,34 40,33 40,32 41,31 41,29 42,28 43,27 43,25 44,25 44,22 45,22 45,20 45,19 45,17 46,16 45,15" />
          <path
             inkscape:connector-curvature="0"
             id="path23518"
             style="fill:none;stroke:#000000;stroke-width:261.43286133;stroke-linecap:round;stroke-linejoin:round;stroke-miterlimit:4;stroke-dasharray:none;stroke-opacity:1"
             d="m 326273,141219 -13,46 -12,47 -11,48 -9,48 -8,49 -7,49 -6,50 -4,50 -3,51 -1,51 v 51 l 1,51 3,52 5,51 6,52 7,52 9,51 11,51 12,52 13,51 14,50 16,50 18,50 18,50 20,49 21,48 21,47 23,47 25,47 25,45 26,45 27,44 29,45 31,44 32,44 33,44 34,44 35,43 37,42 38,42 39,42 40,40 42,40 42,39 43,39 45,37 45,37 46,36 47,34 48,34 48,32 49,32 50,31 50,29 50,28 51,28 51,26 51,24 52,24 51,23 52,21 52,20 53,19 54,19 55,17 55,17 56,15 56,15 57,13 57,12 57,11 58,10 58,8 58,7 58,6 57,5 58,3 58,2 57,1 57,-1 57,-2 57,-3 56,-4 55,-6 55,-6 54,-8 54,-9 52,-10 52,-12 51,-12 50,-13 50,-15 50,-16 49,-17 49,-18 49,-20 48,-21 48,-22 47,-23 47,-25 46,-25 45,-27 45,-28 43,-30 43,-30 41,-31 41,-33 39,-33 39,-35 37,-35 36,-37 35,-37 33,-38 32,-38 32,-40 29,-39 29,-41 27,-41 26,-41 24,-42 23,-42 22,-42 20,-44 20,-45 18,-45 18,-46 16,-47 14,-47 14,-49 12,-48 11,-50 10,-49 8,-51 7,-50 6,-51 4,-52 3,-51 1,-52 -1,-52 -1,-52 -4,-52 -4,-53 -6,-52 -8,-52 -8,-52 -11,-51 -11,-52 -13,-51 -14,-51 -15,-50 -16,-50 -18,-50 -18,-48 -20,-49 -21,-47 -22,-48 -24,-47 -25,-47 -27,-48 -27,-46 -29,-47 -31,-46 -31,-46 -33,-45 -34,-45 -35,-45 -36,-43 -38,-43 -38,-43 -40,-41 -41,-41 -41,-40 -43,-39 -44,-38 -45,-37 -45,-36 -47,-35 -47,-34 -47,-33 -49,-32 -49,-30 -49,-30 -50,-28 -50,-28 -51,-26 -51,-25 -51,-24 -51,-22 -52,-21 -52,-20 -53,-20 -54,-18 -54,-17 -55,-16 -56,-15 -56,-14 -56,-12 -57,-12 -57,-10 -58,-9 -57,-8 -58,-6 -58,-5 -58,-4 -57,-2 -58,-2 -58,1 -57,1 -57,3 -57,4 -57,6 -56,7 -55,8 -55,9 -55,10 -54,12 -53,12 -53,14 -52,15 -51,16 -50,17 -49,18 -48,19 -48,20 -48,22 -47,22 -47,24 -46,26 -46,26 -45,27 -44,29 -44,30 -43,30 -41,32 -41,33 -40,34 -39,35 -38,35 -37,37 -36,38 -34,38 -33,40 -32,40 -31,41 -29,41 -28,42 -27,43 -25,43 -25,44 -22,44 -22,45 -20,45 -19,45 -17,45 -16,46 -15,45" />
          <path
             inkscape:connector-curvature="0"
             id="path23520"
             style="fill:none;stroke:#000000;stroke-width:261.43286133;stroke-linecap:round;stroke-linejoin:round;stroke-miterlimit:4;stroke-dasharray:none;stroke-opacity:1"
             d="m 342237,171060 -46,-13 -47,-12 -48,-11 -48,-9 -49,-8 -49,-7 -50,-6 -50,-4 -51,-3 -51,-1 h -51 l -51,1 -52,3 -51,5 -52,6 -52,7 -51,9 -51,11 -52,12 -51,13 -50,14 -50,16 -50,18 -50,18 -49,20 -48,21 -47,21 -47,23 -47,25 -45,25 -45,26 -44,27 -45,29 -44,31 -44,32 -44,33 -44,34 -43,35 -42,37 -42,38 -42,39 -40,40 -40,42 -39,42 -39,43 -37,45 -37,45 -36,46 -34,47 -34,48 -32,48 -32,49 -31,50 -29,50 -28,50 -28,51 -26,51 -24,51 -24,52 -23,51 -21,52 -20,52 -19,53 -19,54 -17,55 -17,55 -15,56 -15,56 -13,57 -12,57 -11,57 -10,58 -8,58 -7,58 -6,58 -5,57 -3,58 -2,58 -1,57 1,57 2,57 3,57 4,56 6,55 6,55 8,54 9,54 10,52 12,52 12,51 13,50 15,50 16,50 17,49 18,49 20,49 21,48 22,48 23,47 25,47 25,46 27,45 28,45 30,43 30,43 31,41 33,41 33,39 35,39 35,37 37,36 37,35 38,33 38,32 40,32 39,29 41,29 41,27 41,26 42,24 42,23 42,22 44,20 45,20 45,18 46,18 47,16 47,14 49,14 48,12 50,11 49,10 51,8 50,7 51,6 52,4 51,3 52,1 52,-1 52,-1 52,-4 53,-4 52,-6 52,-8 52,-8 51,-11 52,-11 51,-13 51,-14 50,-15 50,-16 50,-18 48,-18 49,-20 47,-21 48,-22 47,-24 47,-25 48,-27 46,-27 47,-29 46,-31 46,-31 45,-33 45,-34 45,-35 43,-36 43,-38 43,-38 41,-40 41,-41 40,-41 39,-43 38,-44 37,-45 36,-45 35,-47 34,-47 33,-47 32,-49 30,-49 30,-49 28,-50 28,-50 26,-51 25,-51 24,-51 22,-51 21,-52 20,-52 20,-53 18,-54 17,-54 16,-55 15,-56 14,-56 12,-56 12,-57 10,-57 9,-58 8,-57 6,-58 5,-58 4,-58 2,-57 2,-58 -1,-58 -1,-57 -3,-57 -4,-57 -6,-57 -7,-56 -8,-55 -9,-55 -10,-55 -12,-54 -12,-53 -14,-53 -15,-52 -16,-51 -17,-50 -18,-49 -19,-48 -20,-48 -22,-48 -22,-47 -24,-47 -26,-46 -26,-46 -27,-45 -29,-44 -30,-44 -30,-43 -32,-41 -33,-41 -34,-40 -35,-39 -35,-38 -37,-37 -38,-36 -38,-34 -40,-33 -40,-32 -41,-31 -41,-29 -42,-28 -43,-27 -43,-25 -44,-25 -44,-22 -45,-22 -45,-20 -45,-19 -45,-17 -46,-16 -45,-15" />
        </g>
      </g>
    </g>
    <path
       style="fill:none;fill-rule:evenodd;stroke:#000000;stroke-width:1;stroke-linecap:butt;stroke-linejoin:miter;stroke-miterlimit:4;stroke-dasharray:none;stroke-opacity:1;marker-start:url(#TriangleInL)"
       d="M 92.226526,53.228971 V 137.97463"
       id="path12259"
       inkscape:connector-curvature="0"
       sodipodi:nodetypes="cc" />
    <path
       style="fill:none;fill-rule:evenodd;stroke:#000000;stroke-width:1;stroke-linecap:butt;stroke-linejoin:miter;stroke-miterlimit:4;stroke-dasharray:none;stroke-opacity:1"
       d="M 49.952672,95.916966 H 140.50358"
       id="path12261"
       inkscape:connector-curvature="0" />
    <text
       xml:space="preserve"
       style="font-style:normal;font-variant:normal;font-weight:normal;font-stretch:normal;font-size:7.05555534px;line-height:100%;font-family:'Latin Modern Sans';-inkscape-font-specification:'Latin Modern Sans';letter-spacing:0px;word-spacing:0px;fill:#000000;fill-opacity:1;stroke:none;stroke-width:0.26458323px;stroke-linecap:butt;stroke-linejoin:miter;stroke-opacity:1;enable-background:new"
       x="70.572006"
       y="53.232269"
       id="text1900-3-5-5-2"><tspan
         sodipodi:role="line"
         x="70.572006"
         y="53.232269"
         style="font-size:7.05555534px;line-height:0em;text-align:center;text-anchor:middle;stroke-width:0.26458323px"
         id="tspan12593">orientation</tspan><tspan
         sodipodi:role="line"
         x="70.572006"
         y="60.287827"
         style="font-size:7.05555534px;line-height:0em;text-align:center;text-anchor:middle;stroke-width:0.26458323px"
         id="tspan12597">vector</tspan></text>
    <path
       style="fill:none;fill-rule:evenodd;stroke:#000000;stroke-width:0.80000001;stroke-linecap:butt;stroke-linejoin:miter;stroke-miterlimit:4;stroke-dasharray:3.19999999, 0.8;stroke-dashoffset:0;stroke-opacity:1"
       d="M 92.226199,95.916633 126.13476,62.314915"
       id="path12599"
       inkscape:connector-curvature="0" />
    <text
       xml:space="preserve"
       style="font-style:normal;font-variant:normal;font-weight:normal;font-stretch:normal;font-size:7.05555534px;line-height:100%;font-family:'Latin Modern Sans';-inkscape-font-specification:'Latin Modern Sans';letter-spacing:0px;word-spacing:0px;fill:#000000;fill-opacity:1;stroke:none;stroke-width:0.26458323px;stroke-linecap:butt;stroke-linejoin:miter;stroke-opacity:1;enable-background:new"
       x="139.75319"
       y="57.883698"
       id="text1900-3-5-5-2-3"><tspan
         sodipodi:role="line"
         x="139.75319"
         y="57.883698"
         style="font-size:7.05555534px;line-height:0em;text-align:center;text-anchor:middle;stroke-width:0.26458323px"
         id="tspan12597-7">local symmetry</tspan><tspan
         sodipodi:role="line"
         x="139.75319"
         y="64.939255"
         style="font-size:7.05555534px;line-height:0em;text-align:center;text-anchor:middle;stroke-width:0.26458323px"
         id="tspan12624">axe</tspan></text>
    <text
       xml:space="preserve"
       style="font-style:normal;font-variant:normal;font-weight:normal;font-stretch:normal;font-size:7.05555534px;line-height:100%;font-family:'Latin Modern Sans';-inkscape-font-specification:'Latin Modern Sans';letter-spacing:0px;word-spacing:0px;fill:#000000;fill-opacity:1;stroke:none;stroke-width:0.26458323px;stroke-linecap:butt;stroke-linejoin:miter;stroke-opacity:1;enable-background:new"
       x="145.96848"
       y="84.754883"
       id="text1900-3-5-5-2-3-5"><tspan
         sodipodi:role="line"
         x="145.96848"
         y="84.754883"
         style="font-size:7.05555534px;line-height:0em;text-align:center;text-anchor:middle;stroke-width:0.26458323px"
         id="tspan12624-5">symmetry block 4</tspan></text>
    <text
       xml:space="preserve"
       style="font-style:normal;font-variant:normal;font-weight:normal;font-stretch:normal;font-size:7.05555534px;line-height:100%;font-family:'Latin Modern Sans';-inkscape-font-specification:'Latin Modern Sans';letter-spacing:0px;word-spacing:0px;fill:#000000;fill-opacity:1;stroke:none;stroke-width:0.26458323px;stroke-linecap:butt;stroke-linejoin:miter;stroke-opacity:1;enable-background:new"
       x="145.42558"
       y="111.66467"
       id="text1900-3-5-5-2-3-5-6"><tspan
         sodipodi:role="line"
         x="145.42558"
         y="111.66467"
         style="font-size:7.05555534px;line-height:0em;text-align:center;text-anchor:middle;stroke-width:0.26458323px"
         id="tspan12624-5-2">symmetry block 3</tspan></text>
    <text
       xml:space="preserve"
       style="font-style:normal;font-variant:normal;font-weight:normal;font-stretch:normal;font-size:7.05555534px;line-height:100%;font-family:'Latin Modern Sans';-inkscape-font-specification:'Latin Modern Sans';letter-spacing:0px;word-spacing:0px;fill:#000000;fill-opacity:1;stroke:none;stroke-width:0.26458323px;stroke-linecap:butt;stroke-linejoin:miter;stroke-opacity:1;enable-background:new"
       x="37.122807"
       y="112.19383"
       id="text1900-3-5-5-2-3-5-6-9"><tspan
         sodipodi:role="line"
         x="37.122807"
         y="112.19383"
         style="font-size:7.05555534px;line-height:0em;text-align:center;text-anchor:middle;stroke-width:0.26458323px"
         id="tspan12624-5-2-1">symmetry block 2</tspan></text>
    <text
       xml:space="preserve"
       style="font-style:normal;font-variant:normal;font-weight:normal;font-stretch:normal;font-size:7.05555534px;line-height:100%;font-family:'Latin Modern Sans';-inkscape-font-specification:'Latin Modern Sans';letter-spacing:0px;word-spacing:0px;fill:#000000;fill-opacity:1;stroke:none;stroke-width:0.26458323px;stroke-linecap:butt;stroke-linejoin:miter;stroke-opacity:1;enable-background:new"
       x="36.830002"
       y="81.502167"
       id="text1900-3-5-5-2-3-5-6-9-2"><tspan
         sodipodi:role="line"
         x="36.830002"
         y="81.502167"
         style="font-size:7.05555534px;line-height:0em;text-align:center;text-anchor:middle;stroke-width:0.26458323px"
         id="tspan12624-5-2-1-7">symmetry block 1</tspan></text>
  </g>
</svg>
