<?xml version="1.0" encoding="UTF-8" standalone="no"?>
<!-- Created with Inkscape (http://www.inkscape.org/) -->

<svg
   xmlns:ns1="http://www.iki.fi/pav/software/textext/"
   xmlns:dc="http://purl.org/dc/elements/1.1/"
   xmlns:cc="http://creativecommons.org/ns#"
   xmlns:rdf="http://www.w3.org/1999/02/22-rdf-syntax-ns#"
   xmlns:svg="http://www.w3.org/2000/svg"
   xmlns="http://www.w3.org/2000/svg"
   xmlns:sodipodi="http://sodipodi.sourceforge.net/DTD/sodipodi-0.dtd"
   xmlns:inkscape="http://www.inkscape.org/namespaces/inkscape"
   width="179.79301mm"
   height="119.82442mm"
   viewBox="0 0 179.79302 119.82442"
   version="1.1"
   id="svg1430"
   inkscape:version="0.92.3 (2405546, 2018-03-11)"
   sodipodi:docname="rofi_axis.svg"
   style="enable-background:new">
  <sodipodi:namedview
     id="base"
     pagecolor="#ffffff"
     bordercolor="#666666"
     borderopacity="1.0"
     inkscape:pageopacity="0.0"
     inkscape:pageshadow="2"
     inkscape:zoom="1.4142136"
     inkscape:cx="269.42185"
     inkscape:cy="196.76904"
     inkscape:document-units="mm"
     inkscape:current-layer="g985"
     showgrid="false"
     inkscape:window-width="1916"
     inkscape:window-height="1160"
     inkscape:window-x="0"
     inkscape:window-y="18"
     inkscape:window-maximized="0"
     fit-margin-top="10"
     fit-margin-right="10"
     fit-margin-bottom="10"
     fit-margin-left="10" />
  <defs
     id="defs1424">
    <marker
       inkscape:isstock="true"
       style="overflow:visible"
       id="marker5026"
       refX="0"
       refY="0"
       orient="auto"
       inkscape:stockid="TriangleInL">
      <path
         inkscape:connector-curvature="0"
         transform="scale(-0.8)"
         style="fill:#045fff;fill-opacity:1;fill-rule:evenodd;stroke:#045fff;stroke-width:1.00000003pt;stroke-opacity:1"
         d="M 5.77,0 -2.88,5 V -5 Z"
         id="path5024" />
    </marker>
    <marker
       inkscape:isstock="true"
       style="overflow:visible"
       id="TriangleInL"
       refX="0"
       refY="0"
       orient="auto"
       inkscape:stockid="TriangleInL">
      <path
         inkscape:connector-curvature="0"
         transform="scale(-0.8)"
         style="fill:#ff0f00;fill-opacity:1;fill-rule:evenodd;stroke:#ff0f00;stroke-width:1.00000003pt;stroke-opacity:1"
         d="M 5.77,0 -2.88,5 V -5 Z"
         id="path2353" />
    </marker>
    <marker
       inkscape:isstock="true"
       style="overflow:visible"
       id="Arrow1Lstart"
       refX="0"
       refY="0"
       orient="auto"
       inkscape:stockid="Arrow1Lstart">
      <path
         inkscape:connector-curvature="0"
         transform="matrix(0.8,0,0,0.8,10,0)"
         style="fill:#000000;fill-opacity:1;fill-rule:evenodd;stroke:#000000;stroke-width:1.00000003pt;stroke-opacity:1"
         d="M 0,0 5,-5 -12.5,0 5,5 Z"
         id="path2218" />
    </marker>
    <clipPath
       id="clipPath991"
       clipPathUnits="userSpaceOnUse">
      <path
         inkscape:connector-curvature="0"
         id="path989"
         d="m 303308,191461 h 77443 v 65635 h -77443 v -65635" />
    </clipPath>
    <filter
       id="filter2169"
       style="color-interpolation-filters:sRGB"
       inkscape:collect="always">
      <feBlend
         id="feBlend2171"
         in2="BackgroundImage"
         mode="multiply"
         inkscape:collect="always" />
    </filter>
    <filter
       id="filter2169-3"
       style="color-interpolation-filters:sRGB"
       inkscape:collect="always">
      <feBlend
         id="feBlend2171-5"
         in2="BackgroundImage"
         mode="multiply"
         inkscape:collect="always" />
    </filter>
    <marker
       inkscape:isstock="true"
       style="overflow:visible"
       id="TriangleInL-2"
       refX="0"
       refY="0"
       orient="auto"
       inkscape:stockid="TriangleInL">
      <path
         transform="scale(-0.8)"
         style="fill:#19d400;fill-opacity:1;fill-rule:evenodd;stroke:#19d400;stroke-width:1.00000003pt;stroke-opacity:1"
         d="M 5.77,0 -2.88,5 V -5 Z"
         id="path2353-9"
         inkscape:connector-curvature="0" />
    </marker>
  </defs>
  <metadata
     id="metadata1427">
    <rdf:RDF>
      <cc:Work
         rdf:about="">
        <dc:format>image/svg+xml</dc:format>
        <dc:type
           rdf:resource="http://purl.org/dc/dcmitype/StillImage" />
        <dc:title></dc:title>
      </cc:Work>
    </rdf:RDF>
  </metadata>
  <g
     transform="translate(-5.8258548,-106.29929)"
     id="layer1"
     inkscape:groupmode="layer"
     inkscape:label="Layer 1">
    <g
       style="stroke-width:0.3544777"
       id="g985"
       transform="matrix(0.00178994,0,0,-0.00179279,-511.41466,503.61742)">
      <path
         sodipodi:nodetypes="ccssc"
         inkscape:connector-curvature="0"
         id="path1093-2"
         style="fill:none;fill-opacity:1;stroke:#045fff;stroke-width:446.5869751;stroke-linecap:round;stroke-linejoin:round;stroke-miterlimit:10;stroke-dasharray:none;stroke-opacity:1;marker-start:url(#marker5026)"
         d="m 332157.52,185700.94 c 900.04,-1565.09 2143.39,-2930.15 3516.71,-3724.22 2746.64,-1588.11 4973.09,-290.86 4972.91,2897.51 -0.18,3188.36 -2226.92,7060.47 -4973.57,8648.6 -2746.64,1588.12 -4973.09,290.86 -4972.91,-2897.5" />
      <path
         inkscape:connector-curvature="0"
         id="path1033-5"
         style="fill:none;stroke:#045fff;stroke-width:558.23370361;stroke-linecap:round;stroke-linejoin:round;stroke-miterlimit:10;stroke-dasharray:4465.86961927, 1116.46740519, 558.23370259, 1116.46740519;stroke-dashoffset:0;stroke-opacity:1"
         d="m 323581.98,181770.7 25873.17,15057.16" />
      <path
         transform="matrix(2.1292393,0,0,2.2635892,-368243.74,-238653.86)"
         inkscape:connector-curvature="0"
         id="path1025-7"
         style="fill:none;stroke:#ff0f00;stroke-width:254.27578735;stroke-linecap:round;stroke-linejoin:round;stroke-miterlimit:10;stroke-dasharray:2034.20630656, 508.55157681, 254.2757884, 508.55157681;stroke-dashoffset:0;stroke-opacity:1;filter:url(#filter2169)"
         d="m 331952.65,180920.82 -13919.01,8016" />
      <path
         sodipodi:nodetypes="cscsc"
         d="m 334547.34,169109.34 c 0.15,2671.59 1861.89,5468 4158.31,6798.71 2296.41,1330.71 4157.9,243.73 4157.75,-2427.86 -0.15,-2671.59 -1861.88,-5916.09 -4158.3,-7246.8 -1148.21,-665.36 -2187.69,-726.29 -2940.09,-286.94"
         style="fill:none;stroke:#ff0f00;stroke-width:446.5869751;stroke-linecap:round;stroke-linejoin:round;stroke-miterlimit:10;stroke-dasharray:none;stroke-opacity:1;marker-start:url(#TriangleInL)"
         id="path1051-6"
         inkscape:connector-curvature="0" />
      <g
         transform="translate(-4628.845,-36077.416)"
         style="stroke-width:0.3544777"
         clip-path="url(#clipPath991)"
         id="g987">
        <g
           style="stroke-width:0.3544777"
           transform="matrix(0.49906,-0.86657,0.86657,0.49906,343421.5,225080.5)"
           id="g993">
          <path
             inkscape:connector-curvature="0"
             id="path995"
             style="fill:none;stroke:#000000;stroke-width:278.97396851;stroke-linecap:round;stroke-linejoin:round;stroke-miterlimit:10;stroke-dasharray:none;stroke-opacity:1"
             d="M 15748.5,0 C 15748.5,5027.7246 8697.6572,9103.5 0,9103.5 -8697.6572,9103.5 -15748.5,5027.7246 -15748.5,0" />
        </g>
        <g
           style="stroke-width:0.3544777"
           transform="matrix(0.49906,-0.86657,0.86657,0.49906,342030.5,224279.5)"
           id="g997">
          <path
             inkscape:connector-curvature="0"
             id="path999"
             style="fill:none;stroke:#000000;stroke-width:278.97396851;stroke-linecap:round;stroke-linejoin:round;stroke-miterlimit:10;stroke-dasharray:none;stroke-opacity:1"
             d="M 15748.5,0 C 15748.5,5027.7246 8697.6572,9103.5 0,9103.5 -8697.6572,9103.5 -15748.5,5027.7246 -15748.5,0" />
        </g>
        <path
           inkscape:connector-curvature="0"
           id="path1001"
           style="fill:none;stroke:#000000;stroke-width:278.97396851;stroke-linecap:round;stroke-linejoin:round;stroke-miterlimit:10;stroke-dasharray:none;stroke-opacity:1"
           d="m 352217,228567 -253,-146" />
        <path
           inkscape:connector-curvature="0"
           id="path1003"
           style="fill:none;stroke:#000000;stroke-width:278.97396851;stroke-linecap:round;stroke-linejoin:round;stroke-miterlimit:10;stroke-dasharray:none;stroke-opacity:1"
           d="m 341954,238688 7035,4051" />
        <g
           style="stroke-width:0.3544777"
           transform="matrix(-0.49906,-0.86657,0.86657,-0.49906,348989.5,236302.5)"
           id="g1005">
          <path
             inkscape:connector-curvature="0"
             id="path1007"
             style="fill:none;stroke:#000000;stroke-width:278.97396851;stroke-linecap:round;stroke-linejoin:round;stroke-miterlimit:10;stroke-dasharray:none;stroke-opacity:1"
             d="m -7874.5,0 c 0,-1204.109 825.4927,-2359.1548 2295.7212,-3212.2195" />
        </g>
        <path
           inkscape:connector-curvature="0"
           id="path1009"
           style="fill:none;stroke:#000000;stroke-width:195.31721497;stroke-linecap:round;stroke-linejoin:round;stroke-miterlimit:10;stroke-dasharray:none;stroke-opacity:1"
           d="m 348989,242739 8634,-4971" />
        <path
           inkscape:connector-curvature="0"
           id="path1011"
           style="fill:none;stroke:#000000;stroke-width:278.97396851;stroke-linecap:round;stroke-linejoin:round;stroke-miterlimit:10;stroke-dasharray:none;stroke-opacity:1"
           d="m 334171,237926 1392,801" />
        <path
           inkscape:connector-curvature="0"
           id="path1013"
           style="fill:none;stroke:#000000;stroke-width:278.97396851;stroke-linecap:round;stroke-linejoin:round;stroke-miterlimit:10;stroke-dasharray:none;stroke-opacity:1"
           d="m 349888,210631 1392,802" />
        <path
           inkscape:connector-curvature="0"
           id="path1015"
           style="fill:none;stroke:#000000;stroke-width:278.97396851;stroke-linecap:round;stroke-linejoin:round;stroke-miterlimit:10;stroke-dasharray:none;stroke-opacity:1"
           d="m 352919,243126 6344,-3654" />
        <g
           style="stroke-width:0.3544777"
           transform="matrix(0.49906,-0.86657,0.86657,0.49906,340638.5,223477.5)"
           id="g1017">
          <path
             inkscape:connector-curvature="0"
             id="path1019"
             style="fill:none;stroke:#000000;stroke-width:278.97396851;stroke-linecap:round;stroke-linejoin:round;stroke-miterlimit:10;stroke-dasharray:none;stroke-opacity:1"
             d="M 15323.391,-2100.8899 C 16888.99,1714.7766 14051.553,5681.187 8281.2022,7743.2832 2510.8501,9805.3789 -4895.4712,9499.6836 -10100.434,6984.582 -15305.396,4469.4805 -17139.129,310.26773 -14651.55,-3338.104" />
        </g>
        <g
           style="stroke-width:0.3544777"
           transform="matrix(0.49906,-0.86657,0.86657,0.49906,342030.5,224279.5)"
           id="g1021">
          <path
             inkscape:connector-curvature="0"
             id="path1023"
             style="fill:none;stroke:#000000;stroke-width:278.97396851;stroke-linecap:round;stroke-linejoin:round;stroke-miterlimit:10;stroke-dasharray:none;stroke-opacity:1"
             d="M 15748.5,0 C 15748.5,5027.7246 8697.6572,9103.5 0,9103.5 -8697.6572,9103.5 -15748.5,5027.7246 -15748.5,0" />
        </g>
        <path
           inkscape:connector-curvature="0"
           id="path1025"
           style="fill:none;stroke:#000000;stroke-width:278.97396851;stroke-linecap:round;stroke-linejoin:round;stroke-miterlimit:10;stroke-dasharray:none;stroke-opacity:1"
           d="m 347597,225906 -13919,8016" />
        <path
           inkscape:connector-curvature="0"
           id="path1027"
           style="fill:none;stroke:#000000;stroke-width:278.97396851;stroke-linecap:round;stroke-linejoin:round;stroke-miterlimit:10;stroke-dasharray:none;stroke-opacity:1"
           d="m 347597,213032 v 447" />
        <path
           inkscape:connector-curvature="0"
           id="path1029"
           style="fill:none;stroke:#000000;stroke-width:278.97396851;stroke-linecap:round;stroke-linejoin:round;stroke-miterlimit:10;stroke-dasharray:none;stroke-opacity:1"
           d="m 347597,219047 v 6859 l -1835,-1057" />
        <path
           inkscape:connector-curvature="0"
           id="path1031"
           style="fill:none;stroke:#000000;stroke-width:278.97396851;stroke-linecap:round;stroke-linejoin:round;stroke-miterlimit:10;stroke-dasharray:none;stroke-opacity:1"
           d="m 347521,212988 76,44" />
        <path
           inkscape:connector-curvature="0"
           id="path1033"
           style="fill:none;stroke:#000000;stroke-width:278.97396851;stroke-linecap:round;stroke-linejoin:round;stroke-miterlimit:10;stroke-dasharray:none;stroke-opacity:1"
           d="m 322797,227657 10881,6265" />
        <path
           inkscape:connector-curvature="0"
           id="path1035"
           style="fill:none;stroke:#000000;stroke-width:195.31721497;stroke-linecap:round;stroke-linejoin:round;stroke-miterlimit:10;stroke-dasharray:none;stroke-opacity:1"
           d="m 329783,221737 -978,563" />
        <path
           inkscape:connector-curvature="0"
           id="path1037"
           style="fill:none;stroke:#000000;stroke-width:278.97396851;stroke-linecap:round;stroke-linejoin:round;stroke-miterlimit:10;stroke-dasharray:none;stroke-opacity:1"
           d="m 349888,210631 -1392,-801" />
        <path
           inkscape:connector-curvature="0"
           id="path1039"
           style="fill:none;stroke:#000000;stroke-width:278.97396851;stroke-linecap:round;stroke-linejoin:round;stroke-miterlimit:10;stroke-dasharray:none;stroke-opacity:1"
           d="m 334171,237926 -1392,-802" />
        <g
           style="stroke-width:0.3544777"
           transform="matrix(-0.49906,-0.86657,0.86657,-0.49906,344813.5,238707.5)"
           id="g1041">
          <path
             inkscape:connector-curvature="0"
             id="path1043"
             style="fill:none;stroke:#000000;stroke-width:278.97396851;stroke-linecap:round;stroke-linejoin:round;stroke-miterlimit:10;stroke-dasharray:none;stroke-opacity:1"
             d="m -3875.5808,-6449.5044 c 2212.9546,-444.3203 4604.50432,-498.2236 6870.5935,-154.8569" />
        </g>
        <g
           style="stroke-width:0.3544777"
           transform="matrix(-0.49906,0.86657,-0.86657,-0.49906,367085.5,238707.5)"
           id="g1045">
          <path
             inkscape:connector-curvature="0"
             id="path1047"
             style="fill:none;stroke:#000000;stroke-width:278.97396851;stroke-linecap:round;stroke-linejoin:round;stroke-miterlimit:10;stroke-dasharray:none;stroke-opacity:1"
             d="m -3875.5808,-6449.5044 c 2510.162,-503.9941 5240.9996,-503.9941 7751.1616,0" />
        </g>
        <g
           style="stroke-width:0.3544777"
           transform="matrix(-0.49906,-0.86657,0.86657,-0.49906,367085.5,225882.5)"
           id="g1049">
          <path
             inkscape:connector-curvature="0"
             id="path1051"
             style="fill:none;stroke:#000000;stroke-width:278.97396851;stroke-linecap:round;stroke-linejoin:round;stroke-miterlimit:10;stroke-dasharray:none;stroke-opacity:1"
             d="m 8335.9619,-4837.02 c 4621.5141,2661.1875 4635.8531,6984.113 32.0293,9655.5254 C 3764.1665,7489.918 -3714.4475,7498.207 -8335.9619,4837.02 -12957.476,2175.8325 -12971.815,-2147.093 -8367.9912,-4818.5054 -3764.1665,-7489.918 3714.4475,-7498.207 8335.9619,-4837.02" />
        </g>
        <g
           style="stroke-width:0.3544777"
           transform="matrix(-0.49906,-0.86657,0.86657,-0.49906,348989.5,236302.5)"
           id="g1053">
          <path
             inkscape:connector-curvature="0"
             id="path1055"
             style="fill:none;stroke:#000000;stroke-width:278.97396851;stroke-linecap:round;stroke-linejoin:round;stroke-miterlimit:10;stroke-dasharray:none;stroke-opacity:1"
             d="m -16269.157,-2943.9744 c 2457.541,-4539.0793 10171.8479,-7415.9106 18338.1087,-6838.674" />
        </g>
        <path
           inkscape:connector-curvature="0"
           id="path1057"
           style="fill:none;stroke:#000000;stroke-width:278.97396851;stroke-linecap:round;stroke-linejoin:round;stroke-miterlimit:10;stroke-dasharray:none;stroke-opacity:1"
           d="m 354557,242182 v 9688" />
        <g
           style="stroke-width:0.3544777"
           transform="matrix(0.49906,0.86657,-0.86657,0.49906,362909.5,228286.5)"
           id="g1059">
          <path
             inkscape:connector-curvature="0"
             id="path1061"
             style="fill:none;stroke:#000000;stroke-width:278.97396851;stroke-linecap:round;stroke-linejoin:round;stroke-miterlimit:10;stroke-dasharray:none;stroke-opacity:1"
             d="M 16269.157,2943.9744 C 14896.836,5478.6523 11813.038,7585.831 7716.5308,8788.04 3620.0232,9990.2481 -1142.3983,10185.711 -5491.6035,9330.1387" />
        </g>
        <g
           style="stroke-width:0.3544777"
           transform="matrix(-0.49906,-0.86657,0.86657,-0.49906,362909.5,228286.5)"
           id="g1063">
          <path
             inkscape:connector-curvature="0"
             id="path1065"
             style="fill:none;stroke:#000000;stroke-width:278.97396851;stroke-linecap:round;stroke-linejoin:round;stroke-miterlimit:10;stroke-dasharray:none;stroke-opacity:1"
             d="M 16969.836,-939.67511 C 17251.437,760.01654 16764.375,2472.8457 15556.378,4030.9661" />
        </g>
        <g
           style="stroke-width:0.3544777"
           transform="matrix(0.49906,-0.86657,0.86657,0.49906,361517.5,235500.5)"
           id="g1067">
          <path
             inkscape:connector-curvature="0"
             id="path1069"
             style="fill:none;stroke:#000000;stroke-width:278.97396851;stroke-linecap:round;stroke-linejoin:round;stroke-miterlimit:10;stroke-dasharray:none;stroke-opacity:1"
             d="M -3765.3623,10199.827 C -10748.112,9338.3926 -16195.145,6177.4526 -17658.51,2137.5635" />
        </g>
        <g
           style="stroke-width:0.3544777"
           transform="matrix(0.01016,-0.99995,0.99995,0.01016,355949.5,232294.5)"
           id="g1071">
          <path
             inkscape:connector-curvature="0"
             id="path1073"
             style="fill:none;stroke:#000000;stroke-width:278.97396851;stroke-linecap:round;stroke-linejoin:round;stroke-miterlimit:10;stroke-dasharray:none;stroke-opacity:1"
             d="M -12839.445,14922.049 C -17185.689,11182.391 -19685.5,5733.6621 -19685.5,0" />
        </g>
        <g
           style="stroke-width:0.3544777"
           transform="matrix(-0.31868,0.94786,-0.94786,-0.31868,355949.5,232294.5)"
           id="g1075">
          <path
             inkscape:connector-curvature="0"
             id="path1077"
             style="fill:none;stroke:#000000;stroke-width:278.97396851;stroke-linecap:round;stroke-linejoin:round;stroke-miterlimit:10;stroke-dasharray:none;stroke-opacity:1"
             d="M -11891.229,-15688.135 C -8469.4863,-18281.734 -4293.6094,-19685.5 0,-19685.5" />
        </g>
        <g
           style="stroke-width:0.3544777"
           transform="matrix(0.6599,0.75135,-0.75135,0.6599,355949.5,232294.5)"
           id="g1079">
          <path
             inkscape:connector-curvature="0"
             id="path1081"
             style="fill:none;stroke:#000000;stroke-width:278.97396851;stroke-linecap:round;stroke-linejoin:round;stroke-miterlimit:10;stroke-dasharray:none;stroke-opacity:1"
             d="M -12878.03,-14888.763 C -9300.9473,-17982.758 -4729.5166,-19685.5 0,-19685.5" />
        </g>
        <g
           style="stroke-width:0.3544777"
           transform="matrix(0.75135,-0.6599,0.6599,0.75135,355949.5,232294.5)"
           id="g1083">
          <path
             inkscape:connector-curvature="0"
             id="path1085"
             style="fill:none;stroke:#000000;stroke-width:278.97396851;stroke-linecap:round;stroke-linejoin:round;stroke-miterlimit:10;stroke-dasharray:none;stroke-opacity:1"
             d="M -14888.763,12878.03 C -17982.758,9300.9473 -19685.5,4729.5166 -19685.5,0" />
        </g>
        <g
           style="stroke-width:0.3544777"
           transform="matrix(-0.49906,-0.86657,0.86657,-0.49906,316974.5,222675.5)"
           id="g1087">
          <path
             inkscape:connector-curvature="0"
             id="path1089"
             style="fill:none;stroke:#000000;stroke-width:278.97396851;stroke-linecap:round;stroke-linejoin:round;stroke-miterlimit:10;stroke-dasharray:none;stroke-opacity:1"
             d="m -3875.5808,-6449.5044 c 2510.162,-503.9941 5240.9996,-503.9941 7751.1616,0" />
        </g>
        <g
           style="stroke-width:0.3544777"
           transform="matrix(0.49906,-0.86657,0.86657,0.49906,316974.5,209850.5)"
           id="g1091">
          <path
             inkscape:connector-curvature="0"
             id="path1093"
             style="fill:none;stroke:#000000;stroke-width:278.97396851;stroke-linecap:round;stroke-linejoin:round;stroke-miterlimit:10;stroke-dasharray:none;stroke-opacity:1"
             d="M -8335.9619,-4837.02 C -3714.4475,-7498.207 3764.1665,-7489.918 8367.9912,-4818.5054 12971.815,-2147.093 12957.476,2175.8325 8335.9619,4837.02 3714.4475,7498.207 -3764.1665,7489.918 -8367.9912,4818.5054 -12971.815,2147.093 -12957.476,-2175.8325 -8335.9619,-4837.02" />
        </g>
        <g
           style="stroke-width:0.3544777"
           transform="matrix(-0.49906,-0.86657,0.86657,-0.49906,339246.5,209850.5)"
           id="g1095">
          <path
             inkscape:connector-curvature="0"
             id="path1097"
             style="fill:none;stroke:#000000;stroke-width:278.97396851;stroke-linecap:round;stroke-linejoin:round;stroke-miterlimit:10;stroke-dasharray:none;stroke-opacity:1"
             d="m 8335.9619,-4837.02 c 4621.5141,2661.1875 4635.8531,6984.113 32.0293,9655.5254 C 3764.1665,7489.918 -3714.4475,7498.207 -8335.9619,4837.02 -12957.476,2175.8325 -12971.815,-2147.093 -8367.9912,-4818.5054 -3764.1665,-7489.918 3714.4475,-7498.207 8335.9619,-4837.02" />
        </g>
        <g
           style="stroke-width:0.3544777"
           transform="matrix(-0.49906,-0.86657,0.86657,-0.49906,321150.5,220271.5)"
           id="g1099">
          <path
             inkscape:connector-curvature="0"
             id="path1101"
             style="fill:none;stroke:#000000;stroke-width:278.97396851;stroke-linecap:round;stroke-linejoin:round;stroke-miterlimit:10;stroke-dasharray:none;stroke-opacity:1"
             d="m -16249.509,2980.0225 c -2846.85,-5188.2547 2120.474,-10728.3672 11094.8308,-12374.1885" />
        </g>
        <g
           style="stroke-width:0.3544777"
           transform="matrix(-0.49906,-0.86657,0.86657,-0.49906,335070.5,212255.5)"
           id="g1103">
          <path
             inkscape:connector-curvature="0"
             id="path1105"
             style="fill:none;stroke:#000000;stroke-width:278.97396851;stroke-linecap:round;stroke-linejoin:round;stroke-miterlimit:10;stroke-dasharray:none;stroke-opacity:1"
             d="m 16269.157,2943.9744 c -200.39,370.1228 -438.398,733.0847 -712.779,1086.9917" />
        </g>
        <g
           style="stroke-width:0.3544777"
           transform="matrix(0.49906,0.86657,-0.86657,0.49906,335070.5,212255.5)"
           id="g1107">
          <path
             inkscape:connector-curvature="0"
             id="path1109"
             style="fill:none;stroke:#000000;stroke-width:278.97396851;stroke-linecap:round;stroke-linejoin:round;stroke-miterlimit:10;stroke-dasharray:none;stroke-opacity:1"
             d="m 15556.378,-4030.9661 c 1987.581,2563.6566 1988.188,5495.8445 1.671,8059.7764 C 13571.532,6592.7422 9786.7324,8544.6856 5154.6782,9394.166" />
        </g>
        <g
           style="stroke-width:0.3544777"
           transform="matrix(-0.49906,0.86657,-0.86657,-0.49906,322542.5,213057.5)"
           id="g1111">
          <path
             inkscape:connector-curvature="0"
             id="path1113"
             style="fill:none;stroke:#000000;stroke-width:278.97396851;stroke-linecap:round;stroke-linejoin:round;stroke-miterlimit:10;stroke-dasharray:none;stroke-opacity:1"
             d="m 3765.3623,-10199.827 c 6982.7497,861.4344 12429.7827,4022.3744 13893.1477,8062.2635" />
        </g>
        <g
           style="stroke-width:0.3544777"
           transform="matrix(0.49906,-0.86657,0.86657,0.49906,322542.5,213057.5)"
           id="g1115">
          <path
             inkscape:connector-curvature="0"
             id="path1117"
             style="fill:none;stroke:#000000;stroke-width:278.97396851;stroke-linecap:round;stroke-linejoin:round;stroke-miterlimit:10;stroke-dasharray:none;stroke-opacity:1"
             d="m 17157.311,-3224.9849 c 200.796,356.9954 368.107,719.9976 501.199,1087.4214" />
        </g>
        <g
           style="stroke-width:0.3544777"
           transform="matrix(-0.92538,-0.37905,0.37905,-0.92538,328110.5,216263.5)"
           id="g1119">
          <path
             inkscape:connector-curvature="0"
             id="path1121"
             style="fill:none;stroke:#000000;stroke-width:278.97396851;stroke-linecap:round;stroke-linejoin:round;stroke-miterlimit:10;stroke-dasharray:none;stroke-opacity:1"
             d="M -14888.763,12878.03 C -17982.758,9300.9473 -19685.5,4729.5166 -19685.5,0" />
        </g>
        <g
           style="stroke-width:0.3544777"
           transform="matrix(-0.75136,0.6599,-0.6599,-0.75136,328110.5,216263.5)"
           id="g1123">
          <path
             inkscape:connector-curvature="0"
             id="path1125"
             style="fill:none;stroke:#000000;stroke-width:278.97396851;stroke-linecap:round;stroke-linejoin:round;stroke-miterlimit:10;stroke-dasharray:none;stroke-opacity:1"
             d="M -14888.763,12878.03 C -17982.758,9300.9473 -19685.5,4729.5166 -19685.5,0" />
        </g>
        <g
           style="stroke-width:0.3544777"
           transform="matrix(-0.01016,0.99995,-0.99995,-0.01016,328110.5,216263.5)"
           id="g1127">
          <path
             inkscape:connector-curvature="0"
             id="path1129"
             style="fill:none;stroke:#000000;stroke-width:278.97396851;stroke-linecap:round;stroke-linejoin:round;stroke-miterlimit:10;stroke-dasharray:none;stroke-opacity:1"
             d="M -12839.445,14922.049 C -17185.689,11182.391 -19685.5,5733.6621 -19685.5,0" />
        </g>
        <g
           style="stroke-width:0.3544777"
           transform="matrix(0.31868,-0.94786,0.94786,0.31868,328110.5,216263.5)"
           id="g1131">
          <path
             inkscape:connector-curvature="0"
             id="path1133"
             style="fill:none;stroke:#000000;stroke-width:278.97396851;stroke-linecap:round;stroke-linejoin:round;stroke-miterlimit:10;stroke-dasharray:none;stroke-opacity:1"
             d="M -11891.229,-15688.135 C -8469.4863,-18281.734 -4293.6094,-19685.5 0,-19685.5" />
        </g>
        <g
           style="stroke-width:0.3544777"
           transform="matrix(0.75135,-0.6599,0.6599,0.75135,328110.5,216263.5)"
           id="g1135">
          <path
             inkscape:connector-curvature="0"
             id="path1137"
             style="fill:none;stroke:#000000;stroke-width:278.97396851;stroke-linecap:round;stroke-linejoin:round;stroke-miterlimit:10;stroke-dasharray:none;stroke-opacity:1"
             d="M -14888.763,12878.03 C -17982.758,9300.9473 -19685.5,4729.5166 -19685.5,0" />
        </g>
      </g>
      <path
         transform="matrix(2.12924,0,0,2.2635889,-340265.8,-221260.23)"
         inkscape:connector-curvature="0"
         id="path1025-7-6"
         style="fill:none;stroke:#19d400;stroke-width:254.27575684;stroke-linecap:round;stroke-linejoin:round;stroke-miterlimit:10;stroke-dasharray:2034.20610698, 508.55152691, 254.27576346, 508.55152691;stroke-dashoffset:0;stroke-opacity:1;filter:url(#filter2169-3)"
         d="m 331952.65,180920.82 -13919.01,8016" />
      <path
         sodipodi:nodetypes="cscsc"
         d="m 363843.48,182941.75 c 752.41,-439.35 1791.89,-378.42 2940.1,286.94 2296.42,1330.71 4158.15,4575.21 4158.3,7246.8 0.15,2671.59 -1861.34,3758.57 -4157.75,2427.86 -2296.42,-1330.71 -4158.17,-4127.12 -4158.32,-6798.71"
         style="fill:none;fill-opacity:1;stroke:#19d400;stroke-width:446.5869751;stroke-linecap:round;stroke-linejoin:round;stroke-miterlimit:10;stroke-dasharray:none;stroke-opacity:1;marker-start:url(#TriangleInL-2)"
         id="path1051-6-1"
         inkscape:connector-curvature="0" />
      <g
         style="fill:#045fff;fill-opacity:1;stroke-width:0.05036432;enable-background:new"
         id="g14788"
         ns1:jacobian_sqrt="63.5"
         inkscapeversion="0.92.3"
         ns1:alignment="middle center"
         ns1:scale="180.0"
         ns1:preamble="/home/xmrazek7/.config/inkscape/extensions/default_packages.tex"
         ns1:text="$\\gamma \\langle -180^\\circ ; +180^\\circ \\rangle$"
         ns1:pdfconverter="pdf2svg"
         ns1:texconverter="pdflatex"
         ns1:version="0.8.1"
         transform="matrix(446.93018,0,0,-446.93018,228016.95,262828.03)">
        <g
           id="surface1"
           style="fill:#045fff;fill-opacity:1;stroke-width:0.05036432">
          <g
             id="g14745"
             style="fill:#045fff;fill-opacity:1;stroke-width:0.05036432">
            <path
               id="path14743"
               transform="translate(148.712,134.765)"
               d="M 0.40625,-2.53125 C 0.796875,-3.671875 1.890625,-3.6875 2,-3.6875 c 1.5,0 1.609375,1.75 1.609375,2.53125 0,0.609375 -0.046875,0.78125 -0.125,0.984375 -0.21875,0.71875 -0.515625,1.875 -0.515625,2.140625 0,0.109375 0.046875,0.171875 0.125,0.171875 0.140625,0 0.21875,-0.21875 0.328125,-0.59375 C 3.65625,0.703125 3.75,0.140625 3.78125,-0.171875 c 0.03125,-0.125 0.046875,-0.25 0.09375,-0.390625 0.3125,-0.984375 0.953125,-2.46875 1.34375,-3.25 0.078125,-0.125 0.1875,-0.34375 0.1875,-0.390625 0,-0.09375 -0.09375,-0.09375 -0.109375,-0.09375 -0.03125,0 -0.09375,0 -0.125,0.0625 C 4.65625,-3.28125 4.25,-2.28125 3.859375,-1.28125 3.84375,-1.578125 3.84375,-2.34375 3.453125,-3.3125 3.203125,-3.921875 2.8125,-4.40625 2.125,-4.40625 c -1.25,0 -1.953125,1.515625 -1.953125,1.828125 0,0.09375 0.09375,0.09375 0.203125,0.09375 z m 0,0"
               style="fill:#045fff;fill-opacity:1;stroke:none;stroke-width:0"
               inkscape:connector-curvature="0" />
          </g>
          <g
             id="g14751"
             style="fill:#045fff;fill-opacity:1;stroke-width:0.05036432">
            <path
               id="path14747"
               transform="translate(154.424,134.765)"
               d="M 3.265625,-7.09375 C 3.3125,-7.203125 3.3125,-7.234375 3.3125,-7.28125 c 0,-0.109375 -0.078125,-0.203125 -0.1875,-0.203125 -0.09375,0 -0.171875,0.0625 -0.234375,0.234375 l -1.75,4.578125 C 1.125,-2.609375 1.09375,-2.546875 1.09375,-2.5 c 0,0.03125 0,0.0625 0.046875,0.171875 L 2.890625,2.25 C 2.9375,2.359375 2.984375,2.5 3.125,2.5 c 0.109375,0 0.1875,-0.09375 0.1875,-0.203125 0,-0.03125 0,-0.046875 -0.046875,-0.15625 L 1.5,-2.5 Z m 0,0"
               style="fill:#045fff;fill-opacity:1;stroke:none;stroke-width:0"
               inkscape:connector-curvature="0" />
            <path
               id="path14749"
               transform="translate(158.29845,134.765)"
               d="m 6.5625,-2.296875 c 0.171875,0 0.359375,0 0.359375,-0.203125 0,-0.1875 -0.1875,-0.1875 -0.359375,-0.1875 H 1.171875 c -0.171875,0 -0.34375,0 -0.34375,0.1875 0,0.203125 0.171875,0.203125 0.34375,0.203125 z m 0,0"
               style="fill:#045fff;fill-opacity:1;stroke:none;stroke-width:0"
               inkscape:connector-curvature="0" />
          </g>
          <g
             id="g14759"
             style="fill:#045fff;fill-opacity:1;stroke-width:0.05036432">
            <path
               id="path14753"
               transform="translate(166.047,134.765)"
               d="m 2.9375,-6.375 c 0,-0.25 0,-0.265625 -0.234375,-0.265625 C 2.078125,-6 1.203125,-6 0.890625,-6 v 0.3125 c 0.203125,0 0.78125,0 1.296875,-0.265625 v 5.171875 c 0,0.359375 -0.03125,0.46875 -0.921875,0.46875 h -0.3125 V 0 c 0.34375,-0.03125 1.203125,-0.03125 1.609375,-0.03125 0.390625,0 1.265625,0 1.609375,0.03125 v -0.3125 h -0.3125 c -0.90625,0 -0.921875,-0.109375 -0.921875,-0.46875 z m 0,0"
               style="fill:#045fff;fill-opacity:1;stroke:none;stroke-width:0"
               inkscape:connector-curvature="0" />
            <path
               id="path14755"
               transform="translate(171.0283,134.765)"
               d="m 1.625,-4.5625 c -0.453125,-0.296875 -0.5,-0.625 -0.5,-0.796875 0,-0.609375 0.65625,-1.03125 1.359375,-1.03125 0.71875,0 1.359375,0.515625 1.359375,1.234375 0,0.578125 -0.390625,1.046875 -0.984375,1.390625 z m 1.453125,0.953125 C 3.796875,-3.984375 4.28125,-4.5 4.28125,-5.15625 c 0,-0.921875 -0.875,-1.484375 -1.78125,-1.484375 -1,0 -1.8125,0.734375 -1.8125,1.671875 0,0.171875 0.015625,0.625 0.4375,1.09375 0.109375,0.109375 0.484375,0.359375 0.734375,0.53125 C 1.28125,-3.046875 0.421875,-2.5 0.421875,-1.5 c 0,1.046875 1.015625,1.71875 2.0625,1.71875 1.125,0 2.078125,-0.828125 2.078125,-1.890625 0,-0.359375 -0.109375,-0.8125 -0.5,-1.234375 C 3.875,-3.109375 3.71875,-3.203125 3.078125,-3.609375 Z m -1,0.421875 1.234375,0.78125 c 0.28125,0.1875 0.75,0.484375 0.75,1.09375 0,0.734375 -0.75,1.25 -1.5625,1.25 -0.859375,0 -1.578125,-0.609375 -1.578125,-1.4375 0,-0.578125 0.3125,-1.21875 1.15625,-1.6875 z m 0,0"
               style="fill:#045fff;fill-opacity:1;stroke:none;stroke-width:0"
               inkscape:connector-curvature="0" />
            <path
               id="path14757"
               transform="translate(176.0096,134.765)"
               d="m 4.578125,-3.1875 c 0,-0.796875 -0.046875,-1.59375 -0.390625,-2.328125 -0.453125,-0.96875 -1.28125,-1.125 -1.6875,-1.125 -0.609375,0 -1.328125,0.265625 -1.75,1.1875 -0.3125,0.6875 -0.359375,1.46875 -0.359375,2.265625 0,0.75 0.03125,1.640625 0.453125,2.40625 0.421875,0.796875 1.15625,1 1.640625,1 0.53125,0 1.296875,-0.203125 1.734375,-1.15625 0.3125,-0.6875 0.359375,-1.46875 0.359375,-2.25 z M 2.484375,0 C 2.09375,0 1.5,-0.25 1.328125,-1.203125 1.21875,-1.796875 1.21875,-2.71875 1.21875,-3.3125 c 0,-0.640625 0,-1.296875 0.078125,-1.828125 0.1875,-1.1875 0.9375,-1.28125 1.1875,-1.28125 0.328125,0 0.984375,0.1875 1.171875,1.171875 0.109375,0.5625 0.109375,1.3125 0.109375,1.9375 0,0.75 0,1.421875 -0.109375,2.0625 C 3.5,-0.296875 2.9375,0 2.484375,0 Z m 0,0"
               style="fill:#045fff;fill-opacity:1;stroke:none;stroke-width:0"
               inkscape:connector-curvature="0" />
          </g>
          <g
             id="g14763"
             style="fill:#045fff;fill-opacity:1;stroke-width:0.05036432">
            <path
               id="path14761"
               transform="translate(180.991,131.149)"
               d="m 3.53125,-1.734375 c 0,-0.84375 -0.671875,-1.5 -1.5,-1.5 -0.828125,0 -1.5,0.671875 -1.5,1.484375 0,0.84375 0.6875,1.5 1.5,1.5 0.84375,0 1.5,-0.671875 1.5,-1.484375 z m -1.5,1.140625 C 1.375,-0.59375 0.875,-1.125 0.875,-1.734375 c 0,-0.65625 0.515625,-1.171875 1.15625,-1.171875 0.65625,0 1.15625,0.53125 1.15625,1.15625 0,0.65625 -0.515625,1.15625 -1.15625,1.15625 z m 0,0"
               style="fill:#045fff;fill-opacity:1;stroke:none;stroke-width:0"
               inkscape:connector-curvature="0" />
          </g>
          <g
             id="g14767"
             style="fill:#045fff;fill-opacity:1;stroke-width:0.05036432">
            <path
               id="path14765"
               transform="translate(185.571,134.765)"
               d="m 1.90625,-3.765625 c 0,-0.296875 -0.234375,-0.53125 -0.515625,-0.53125 -0.296875,0 -0.53125,0.234375 -0.53125,0.53125 0,0.28125 0.234375,0.53125 0.53125,0.53125 0.28125,0 0.515625,-0.25 0.515625,-0.53125 z m -0.1875,3.65625 c 0,0.28125 0,1.0625 -0.625,1.796875 -0.078125,0.078125 -0.078125,0.09375 -0.078125,0.125 0,0.078125 0.046875,0.109375 0.09375,0.109375 0.109375,0 0.828125,-0.796875 0.828125,-1.953125 0,-0.28125 -0.015625,-1.03125 -0.546875,-1.03125 -0.359375,0 -0.53125,0.28125 -0.53125,0.53125 C 0.859375,-0.265625 1.03125,0 1.390625,0 1.4375,0 1.453125,0 1.46875,-0.015625 c 0.0625,0 0.171875,-0.03125 0.25,-0.09375 z m 0,0"
               style="fill:#045fff;fill-opacity:1;stroke:none;stroke-width:0"
               inkscape:connector-curvature="0" />
          </g>
          <g
             id="g14777"
             style="fill:#045fff;fill-opacity:1;stroke-width:0.05036432">
            <path
               id="path14769"
               transform="translate(190.00236,134.765)"
               d="m 4.078125,-2.296875 h 2.78125 C 7,-2.296875 7.1875,-2.296875 7.1875,-2.5 7.1875,-2.6875 7,-2.6875 6.859375,-2.6875 h -2.78125 v -2.796875 c 0,-0.140625 0,-0.328125 -0.203125,-0.328125 -0.203125,0 -0.203125,0.1875 -0.203125,0.328125 V -2.6875 h -2.78125 c -0.140625,0 -0.328125,0 -0.328125,0.1875 0,0.203125 0.1875,0.203125 0.328125,0.203125 h 2.78125 V 0.5 c 0,0.140625 0,0.328125 0.203125,0.328125 0.203125,0 0.203125,-0.1875 0.203125,-0.328125 z m 0,0"
               style="fill:#045fff;fill-opacity:1;stroke:none;stroke-width:0"
               inkscape:connector-curvature="0" />
            <path
               id="path14771"
               transform="translate(197.75127,134.765)"
               d="m 2.9375,-6.375 c 0,-0.25 0,-0.265625 -0.234375,-0.265625 C 2.078125,-6 1.203125,-6 0.890625,-6 v 0.3125 c 0.203125,0 0.78125,0 1.296875,-0.265625 v 5.171875 c 0,0.359375 -0.03125,0.46875 -0.921875,0.46875 h -0.3125 V 0 c 0.34375,-0.03125 1.203125,-0.03125 1.609375,-0.03125 0.390625,0 1.265625,0 1.609375,0.03125 v -0.3125 h -0.3125 c -0.90625,0 -0.921875,-0.109375 -0.921875,-0.46875 z m 0,0"
               style="fill:#045fff;fill-opacity:1;stroke:none;stroke-width:0"
               inkscape:connector-curvature="0" />
            <path
               id="path14773"
               transform="translate(202.73257,134.765)"
               d="m 1.625,-4.5625 c -0.453125,-0.296875 -0.5,-0.625 -0.5,-0.796875 0,-0.609375 0.65625,-1.03125 1.359375,-1.03125 0.71875,0 1.359375,0.515625 1.359375,1.234375 0,0.578125 -0.390625,1.046875 -0.984375,1.390625 z m 1.453125,0.953125 C 3.796875,-3.984375 4.28125,-4.5 4.28125,-5.15625 c 0,-0.921875 -0.875,-1.484375 -1.78125,-1.484375 -1,0 -1.8125,0.734375 -1.8125,1.671875 0,0.171875 0.015625,0.625 0.4375,1.09375 0.109375,0.109375 0.484375,0.359375 0.734375,0.53125 C 1.28125,-3.046875 0.421875,-2.5 0.421875,-1.5 c 0,1.046875 1.015625,1.71875 2.0625,1.71875 1.125,0 2.078125,-0.828125 2.078125,-1.890625 0,-0.359375 -0.109375,-0.8125 -0.5,-1.234375 C 3.875,-3.109375 3.71875,-3.203125 3.078125,-3.609375 Z m -1,0.421875 1.234375,0.78125 c 0.28125,0.1875 0.75,0.484375 0.75,1.09375 0,0.734375 -0.75,1.25 -1.5625,1.25 -0.859375,0 -1.578125,-0.609375 -1.578125,-1.4375 0,-0.578125 0.3125,-1.21875 1.15625,-1.6875 z m 0,0"
               style="fill:#045fff;fill-opacity:1;stroke:none;stroke-width:0"
               inkscape:connector-curvature="0" />
            <path
               id="path14775"
               transform="translate(207.71387,134.765)"
               d="m 4.578125,-3.1875 c 0,-0.796875 -0.046875,-1.59375 -0.390625,-2.328125 -0.453125,-0.96875 -1.28125,-1.125 -1.6875,-1.125 -0.609375,0 -1.328125,0.265625 -1.75,1.1875 -0.3125,0.6875 -0.359375,1.46875 -0.359375,2.265625 0,0.75 0.03125,1.640625 0.453125,2.40625 0.421875,0.796875 1.15625,1 1.640625,1 0.53125,0 1.296875,-0.203125 1.734375,-1.15625 0.3125,-0.6875 0.359375,-1.46875 0.359375,-2.25 z M 2.484375,0 C 2.09375,0 1.5,-0.25 1.328125,-1.203125 1.21875,-1.796875 1.21875,-2.71875 1.21875,-3.3125 c 0,-0.640625 0,-1.296875 0.078125,-1.828125 0.1875,-1.1875 0.9375,-1.28125 1.1875,-1.28125 0.328125,0 0.984375,0.1875 1.171875,1.171875 0.109375,0.5625 0.109375,1.3125 0.109375,1.9375 0,0.75 0,1.421875 -0.109375,2.0625 C 3.5,-0.296875 2.9375,0 2.484375,0 Z m 0,0"
               style="fill:#045fff;fill-opacity:1;stroke:none;stroke-width:0"
               inkscape:connector-curvature="0" />
          </g>
          <g
             id="g14781"
             style="fill:#045fff;fill-opacity:1;stroke-width:0.05036432">
            <path
               id="path14779"
               transform="translate(212.691,131.149)"
               d="m 3.53125,-1.734375 c 0,-0.84375 -0.671875,-1.5 -1.5,-1.5 -0.828125,0 -1.5,0.671875 -1.5,1.484375 0,0.84375 0.6875,1.5 1.5,1.5 0.84375,0 1.5,-0.671875 1.5,-1.484375 z m -1.5,1.140625 C 1.375,-0.59375 0.875,-1.125 0.875,-1.734375 c 0,-0.65625 0.515625,-1.171875 1.15625,-1.171875 0.65625,0 1.15625,0.53125 1.15625,1.15625 0,0.65625 -0.515625,1.15625 -1.15625,1.15625 z m 0,0"
               style="fill:#045fff;fill-opacity:1;stroke:none;stroke-width:0"
               inkscape:connector-curvature="0" />
          </g>
          <g
             id="g14785"
             style="fill:#045fff;fill-opacity:1;stroke-width:0.05036432">
            <path
               id="path14783"
               transform="translate(217.272,134.765)"
               d="M 2.71875,-2.328125 C 2.765625,-2.4375 2.765625,-2.46875 2.765625,-2.5 c 0,-0.015625 0,-0.046875 -0.046875,-0.15625 L 0.984375,-7.25 c -0.0625,-0.171875 -0.125,-0.234375 -0.234375,-0.234375 -0.109375,0 -0.203125,0.09375 -0.203125,0.203125 0,0.03125 0,0.046875 0.046875,0.15625 L 2.359375,-2.5 0.59375,2.109375 C 0.546875,2.21875 0.546875,2.25 0.546875,2.296875 0.546875,2.40625 0.640625,2.5 0.75,2.5 0.875,2.5 0.921875,2.390625 0.953125,2.296875 Z m 0,0"
               style="fill:#045fff;fill-opacity:1;stroke:none;stroke-width:0"
               inkscape:connector-curvature="0" />
          </g>
        </g>
      </g>
      <g
         transform="matrix(446.93017,0,0,-446.93018,289741.12,233867.67)"
         ns1:version="0.8.1"
         ns1:texconverter="pdflatex"
         ns1:pdfconverter="pdf2svg"
         ns1:text="$\\beta \\langle -90^\\circ ; +90^\\circ \\rangle$"
         ns1:preamble="/home/xmrazek7/.config/inkscape/extensions/default_packages.tex"
         ns1:scale="180.0"
         ns1:alignment="middle center"
         inkscapeversion="0.92.3"
         ns1:jacobian_sqrt="63.4998405"
         style="fill:#19d400;fill-opacity:1;stroke-width:0.05036419"
         id="g15280">
        <g
           id="g15278"
           style="fill:#19d400;fill-opacity:1;stroke-width:0.05036419">
          <g
             style="fill:#19d400;fill-opacity:1;stroke-width:0.05036419"
             id="g15240">
            <path
               inkscape:connector-curvature="0"
               style="fill:#19d400;fill-opacity:1;stroke:none;stroke-width:0"
               d="m 5.734375,-5.671875 c 0,-0.75 -0.546875,-1.359375 -1.359375,-1.359375 -0.578125,0 -0.859375,0.15625 -1.203125,0.40625 C 2.625,-6.21875 2.078125,-5.25 1.890625,-4.5 L 0.296875,1.828125 C 0.296875,1.875 0.34375,1.9375 0.421875,1.9375 0.5,1.9375 0.53125,1.90625 0.53125,1.890625 L 1.234375,-0.875 c 0.1875,0.609375 0.625,0.96875 1.359375,0.96875 C 3.3125,0.09375 4.0625,-0.25 4.515625,-0.6875 5,-1.140625 5.3125,-1.78125 5.3125,-2.515625 c 0,-0.71875 -0.375,-1.25 -0.734375,-1.484375 0.578125,-0.34375 1.15625,-0.953125 1.15625,-1.671875 z M 3.9375,-4.015625 c -0.125,0.046875 -0.234375,0.0625 -0.484375,0.0625 -0.140625,0 -0.328125,0.015625 -0.4375,-0.03125 0.03125,-0.109375 0.390625,-0.078125 0.5,-0.078125 0.203125,0 0.296875,0 0.421875,0.046875 z M 5.171875,-5.90625 c 0,0.703125 -0.375,1.421875 -0.890625,1.734375 C 4,-4.28125 3.8125,-4.296875 3.515625,-4.296875 c -0.21875,0 -0.78125,-0.015625 -0.78125,0.3125 0,0.28125 0.515625,0.25 0.6875,0.25 0.375,0 0.53125,0 0.828125,-0.125 0.375,0.359375 0.421875,0.671875 0.4375,1.125 0.015625,0.578125 -0.21875,1.328125 -0.5,1.71875 C 3.796875,-0.484375 3.125,-0.125 2.5625,-0.125 c -0.765625,0 -1.140625,-0.578125 -1.140625,-1.28125 0,-0.09375 0,-0.25 0.046875,-0.4375 L 2.109375,-4.359375 C 2.328125,-5.21875 3.046875,-6.8125 4.25,-6.8125 c 0.578125,0 0.921875,0.3125 0.921875,0.90625 z m 0,0"
               transform="translate(148.712,134.765)"
               id="path15238" />
          </g>
          <g
             style="fill:#19d400;fill-opacity:1;stroke-width:0.05036419"
             id="g15246">
            <path
               inkscape:connector-curvature="0"
               style="fill:#19d400;fill-opacity:1;stroke:none;stroke-width:0"
               d="M 3.265625,-7.09375 C 3.3125,-7.203125 3.3125,-7.234375 3.3125,-7.28125 c 0,-0.109375 -0.078125,-0.203125 -0.1875,-0.203125 -0.09375,0 -0.171875,0.0625 -0.234375,0.234375 l -1.75,4.578125 C 1.125,-2.609375 1.09375,-2.546875 1.09375,-2.5 c 0,0.03125 0,0.0625 0.046875,0.171875 L 2.890625,2.25 C 2.9375,2.359375 2.984375,2.5 3.125,2.5 c 0.109375,0 0.1875,-0.09375 0.1875,-0.203125 0,-0.03125 0,-0.046875 -0.046875,-0.15625 L 1.5,-2.5 Z m 0,0"
               transform="translate(154.873,134.765)"
               id="path15242" />
            <path
               inkscape:connector-curvature="0"
               style="fill:#19d400;fill-opacity:1;stroke:none;stroke-width:0"
               d="m 6.5625,-2.296875 c 0.171875,0 0.359375,0 0.359375,-0.203125 0,-0.1875 -0.1875,-0.1875 -0.359375,-0.1875 H 1.171875 c -0.171875,0 -0.34375,0 -0.34375,0.1875 0,0.203125 0.171875,0.203125 0.34375,0.203125 z m 0,0"
               transform="translate(158.74745,134.765)"
               id="path15244" />
          </g>
          <g
             style="fill:#19d400;fill-opacity:1;stroke-width:0.05036419"
             id="g15252">
            <path
               inkscape:connector-curvature="0"
               style="fill:#19d400;fill-opacity:1;stroke:none;stroke-width:0"
               d="m 3.65625,-3.171875 v 0.328125 c 0,2.328125 -1.03125,2.78125 -1.609375,2.78125 -0.171875,0 -0.71875,-0.015625 -0.984375,-0.359375 0.4375,0 0.515625,-0.28125 0.515625,-0.453125 0,-0.3125 -0.234375,-0.453125 -0.453125,-0.453125 -0.15625,0 -0.453125,0.078125 -0.453125,0.46875 0,0.671875 0.53125,1.078125 1.375,1.078125 1.296875,0 2.515625,-1.359375 2.515625,-3.5 0,-2.6875 -1.15625,-3.359375 -2.046875,-3.359375 -0.546875,0 -1.03125,0.1875 -1.453125,0.625 -0.421875,0.453125 -0.640625,0.875 -0.640625,1.625 0,1.234375 0.875,2.21875 1.984375,2.21875 0.609375,0 1.015625,-0.421875 1.25,-1 z M 2.421875,-2.40625 c -0.15625,0 -0.625,0 -0.921875,-0.625 -0.1875,-0.375 -0.1875,-0.859375 -0.1875,-1.359375 0,-0.53125 0,-1 0.21875,-1.375 0.265625,-0.5 0.640625,-0.625 0.984375,-0.625 0.46875,0 0.796875,0.34375 0.96875,0.78125 0.109375,0.328125 0.15625,0.953125 0.15625,1.40625 0,0.828125 -0.34375,1.796875 -1.21875,1.796875 z m 0,0"
               transform="translate(166.496,134.765)"
               id="path15248" />
            <path
               inkscape:connector-curvature="0"
               style="fill:#19d400;fill-opacity:1;stroke:none;stroke-width:0"
               d="m 4.578125,-3.1875 c 0,-0.796875 -0.046875,-1.59375 -0.390625,-2.328125 -0.453125,-0.96875 -1.28125,-1.125 -1.6875,-1.125 -0.609375,0 -1.328125,0.265625 -1.75,1.1875 -0.3125,0.6875 -0.359375,1.46875 -0.359375,2.265625 0,0.75 0.03125,1.640625 0.453125,2.40625 0.421875,0.796875 1.15625,1 1.640625,1 0.53125,0 1.296875,-0.203125 1.734375,-1.15625 0.3125,-0.6875 0.359375,-1.46875 0.359375,-2.25 z M 2.484375,0 C 2.09375,0 1.5,-0.25 1.328125,-1.203125 1.21875,-1.796875 1.21875,-2.71875 1.21875,-3.3125 c 0,-0.640625 0,-1.296875 0.078125,-1.828125 0.1875,-1.1875 0.9375,-1.28125 1.1875,-1.28125 0.328125,0 0.984375,0.1875 1.171875,1.171875 0.109375,0.5625 0.109375,1.3125 0.109375,1.9375 0,0.75 0,1.421875 -0.109375,2.0625 C 3.5,-0.296875 2.9375,0 2.484375,0 Z m 0,0"
               transform="translate(171.4773,134.765)"
               id="path15250" />
          </g>
          <g
             style="fill:#19d400;fill-opacity:1;stroke-width:0.05036419"
             id="g15256">
            <path
               inkscape:connector-curvature="0"
               style="fill:#19d400;fill-opacity:1;stroke:none;stroke-width:0"
               d="m 3.53125,-1.734375 c 0,-0.84375 -0.671875,-1.5 -1.5,-1.5 -0.828125,0 -1.5,0.671875 -1.5,1.484375 0,0.84375 0.6875,1.5 1.5,1.5 0.84375,0 1.5,-0.671875 1.5,-1.484375 z m -1.5,1.140625 C 1.375,-0.59375 0.875,-1.125 0.875,-1.734375 c 0,-0.65625 0.515625,-1.171875 1.15625,-1.171875 0.65625,0 1.15625,0.53125 1.15625,1.15625 0,0.65625 -0.515625,1.15625 -1.15625,1.15625 z m 0,0"
               transform="translate(176.459,131.149)"
               id="path15254" />
          </g>
          <g
             style="fill:#19d400;fill-opacity:1;stroke-width:0.05036419"
             id="g15260">
            <path
               inkscape:connector-curvature="0"
               style="fill:#19d400;fill-opacity:1;stroke:none;stroke-width:0"
               d="m 1.90625,-3.765625 c 0,-0.296875 -0.234375,-0.53125 -0.515625,-0.53125 -0.296875,0 -0.53125,0.234375 -0.53125,0.53125 0,0.28125 0.234375,0.53125 0.53125,0.53125 0.28125,0 0.515625,-0.25 0.515625,-0.53125 z m -0.1875,3.65625 c 0,0.28125 0,1.0625 -0.625,1.796875 -0.078125,0.078125 -0.078125,0.09375 -0.078125,0.125 0,0.078125 0.046875,0.109375 0.09375,0.109375 0.109375,0 0.828125,-0.796875 0.828125,-1.953125 0,-0.28125 -0.015625,-1.03125 -0.546875,-1.03125 -0.359375,0 -0.53125,0.28125 -0.53125,0.53125 C 0.859375,-0.265625 1.03125,0 1.390625,0 1.4375,0 1.453125,0 1.46875,-0.015625 c 0.0625,0 0.171875,-0.03125 0.25,-0.09375 z m 0,0"
               transform="translate(181.039,134.765)"
               id="path15258" />
          </g>
          <g
             style="fill:#19d400;fill-opacity:1;stroke-width:0.05036419"
             id="g15268">
            <path
               inkscape:connector-curvature="0"
               style="fill:#19d400;fill-opacity:1;stroke:none;stroke-width:0"
               d="m 4.078125,-2.296875 h 2.78125 C 7,-2.296875 7.1875,-2.296875 7.1875,-2.5 7.1875,-2.6875 7,-2.6875 6.859375,-2.6875 h -2.78125 v -2.796875 c 0,-0.140625 0,-0.328125 -0.203125,-0.328125 -0.203125,0 -0.203125,0.1875 -0.203125,0.328125 V -2.6875 h -2.78125 c -0.140625,0 -0.328125,0 -0.328125,0.1875 0,0.203125 0.1875,0.203125 0.328125,0.203125 h 2.78125 V 0.5 c 0,0.140625 0,0.328125 0.203125,0.328125 0.203125,0 0.203125,-0.1875 0.203125,-0.328125 z m 0,0"
               transform="translate(185.47036,134.765)"
               id="path15262" />
            <path
               inkscape:connector-curvature="0"
               style="fill:#19d400;fill-opacity:1;stroke:none;stroke-width:0"
               d="m 3.65625,-3.171875 v 0.328125 c 0,2.328125 -1.03125,2.78125 -1.609375,2.78125 -0.171875,0 -0.71875,-0.015625 -0.984375,-0.359375 0.4375,0 0.515625,-0.28125 0.515625,-0.453125 0,-0.3125 -0.234375,-0.453125 -0.453125,-0.453125 -0.15625,0 -0.453125,0.078125 -0.453125,0.46875 0,0.671875 0.53125,1.078125 1.375,1.078125 1.296875,0 2.515625,-1.359375 2.515625,-3.5 0,-2.6875 -1.15625,-3.359375 -2.046875,-3.359375 -0.546875,0 -1.03125,0.1875 -1.453125,0.625 -0.421875,0.453125 -0.640625,0.875 -0.640625,1.625 0,1.234375 0.875,2.21875 1.984375,2.21875 0.609375,0 1.015625,-0.421875 1.25,-1 z M 2.421875,-2.40625 c -0.15625,0 -0.625,0 -0.921875,-0.625 -0.1875,-0.375 -0.1875,-0.859375 -0.1875,-1.359375 0,-0.53125 0,-1 0.21875,-1.375 0.265625,-0.5 0.640625,-0.625 0.984375,-0.625 0.46875,0 0.796875,0.34375 0.96875,0.78125 0.109375,0.328125 0.15625,0.953125 0.15625,1.40625 0,0.828125 -0.34375,1.796875 -1.21875,1.796875 z m 0,0"
               transform="translate(193.21927,134.765)"
               id="path15264" />
            <path
               inkscape:connector-curvature="0"
               style="fill:#19d400;fill-opacity:1;stroke:none;stroke-width:0"
               d="m 4.578125,-3.1875 c 0,-0.796875 -0.046875,-1.59375 -0.390625,-2.328125 -0.453125,-0.96875 -1.28125,-1.125 -1.6875,-1.125 -0.609375,0 -1.328125,0.265625 -1.75,1.1875 -0.3125,0.6875 -0.359375,1.46875 -0.359375,2.265625 0,0.75 0.03125,1.640625 0.453125,2.40625 0.421875,0.796875 1.15625,1 1.640625,1 0.53125,0 1.296875,-0.203125 1.734375,-1.15625 0.3125,-0.6875 0.359375,-1.46875 0.359375,-2.25 z M 2.484375,0 C 2.09375,0 1.5,-0.25 1.328125,-1.203125 1.21875,-1.796875 1.21875,-2.71875 1.21875,-3.3125 c 0,-0.640625 0,-1.296875 0.078125,-1.828125 0.1875,-1.1875 0.9375,-1.28125 1.1875,-1.28125 0.328125,0 0.984375,0.1875 1.171875,1.171875 0.109375,0.5625 0.109375,1.3125 0.109375,1.9375 0,0.75 0,1.421875 -0.109375,2.0625 C 3.5,-0.296875 2.9375,0 2.484375,0 Z m 0,0"
               transform="translate(198.20057,134.765)"
               id="path15266" />
          </g>
          <g
             style="fill:#19d400;fill-opacity:1;stroke-width:0.05036419"
             id="g15272">
            <path
               inkscape:connector-curvature="0"
               style="fill:#19d400;fill-opacity:1;stroke:none;stroke-width:0"
               d="m 3.53125,-1.734375 c 0,-0.84375 -0.671875,-1.5 -1.5,-1.5 -0.828125,0 -1.5,0.671875 -1.5,1.484375 0,0.84375 0.6875,1.5 1.5,1.5 0.84375,0 1.5,-0.671875 1.5,-1.484375 z m -1.5,1.140625 C 1.375,-0.59375 0.875,-1.125 0.875,-1.734375 c 0,-0.65625 0.515625,-1.171875 1.15625,-1.171875 0.65625,0 1.15625,0.53125 1.15625,1.15625 0,0.65625 -0.515625,1.15625 -1.15625,1.15625 z m 0,0"
               transform="translate(203.178,131.149)"
               id="path15270" />
          </g>
          <g
             style="fill:#19d400;fill-opacity:1;stroke-width:0.05036419"
             id="g15276">
            <path
               inkscape:connector-curvature="0"
               style="fill:#19d400;fill-opacity:1;stroke:none;stroke-width:0"
               d="M 2.71875,-2.328125 C 2.765625,-2.4375 2.765625,-2.46875 2.765625,-2.5 c 0,-0.015625 0,-0.046875 -0.046875,-0.15625 L 0.984375,-7.25 c -0.0625,-0.171875 -0.125,-0.234375 -0.234375,-0.234375 -0.109375,0 -0.203125,0.09375 -0.203125,0.203125 0,0.03125 0,0.046875 0.046875,0.15625 L 2.359375,-2.5 0.59375,2.109375 C 0.546875,2.21875 0.546875,2.25 0.546875,2.296875 0.546875,2.40625 0.640625,2.5 0.75,2.5 0.875,2.5 0.921875,2.390625 0.953125,2.296875 Z m 0,0"
               transform="translate(207.758,134.765)"
               id="path15274" />
          </g>
        </g>
      </g>
      <g
         id="g15708"
         style="fill:#ff0f00;fill-opacity:1;stroke-width:0.05036419"
         ns1:jacobian_sqrt="63.4998405"
         inkscapeversion="0.92.3"
         ns1:alignment="middle center"
         ns1:scale="180.0"
         ns1:preamble="/home/xmrazek7/.config/inkscape/extensions/default_packages.tex"
         ns1:text="$\\alpha \\langle -90^\\circ ; +90^\\circ \\rangle$"
         ns1:pdfconverter="pdf2svg"
         ns1:texconverter="pdflatex"
         ns1:version="0.8.1"
         transform="matrix(446.93017,0,0,-446.93018,274636.58,224997.39)">
        <g
           style="fill:#ff0f00;fill-opacity:1;stroke-width:0.05036419"
           id="g15706">
          <g
             id="g15668"
             style="fill:#ff0f00;fill-opacity:1;stroke-width:0.05036419">
            <path
               id="path15666"
               transform="translate(148.712,134.765)"
               d="m 4.75,-2.359375 c 0,-1.5625 -0.921875,-2.046875 -1.65625,-2.046875 -1.375,0 -2.6875,1.421875 -2.6875,2.828125 0,0.9375 0.59375,1.6875 1.625,1.6875 0.625,0 1.34375,-0.234375 2.09375,-0.84375 0.125,0.53125 0.453125,0.84375 0.90625,0.84375 0.53125,0 0.84375,-0.546875 0.84375,-0.703125 0,-0.078125 -0.0625,-0.109375 -0.125,-0.109375 -0.0625,0 -0.09375,0.03125 -0.125,0.109375 -0.1875,0.484375 -0.546875,0.484375 -0.5625,0.484375 -0.3125,0 -0.3125,-0.78125 -0.3125,-1.015625 0,-0.203125 0,-0.234375 0.109375,-0.34375 C 5.796875,-2.65625 6,-3.8125 6,-3.8125 6,-3.84375 5.984375,-3.921875 5.875,-3.921875 c -0.09375,0 -0.09375,0.03125 -0.140625,0.21875 -0.1875,0.625 -0.515625,1.375 -0.984375,1.96875 z m -0.65625,1.375 c -0.890625,0.765625 -1.65625,0.875 -2.046875,0.875 -0.59375,0 -0.90625,-0.453125 -0.90625,-1.09375 0,-0.484375 0.265625,-1.5625 0.578125,-2.0625 C 2.1875,-4 2.734375,-4.1875 3.078125,-4.1875 c 0.984375,0 0.984375,1.3125 0.984375,2.078125 0,0.375 0,0.953125 0.03125,1.125 z m 0,0"
               style="fill:#ff0f00;fill-opacity:1;stroke:none;stroke-width:0"
               inkscape:connector-curvature="0" />
          </g>
          <g
             id="g15674"
             style="fill:#ff0f00;fill-opacity:1;stroke-width:0.05036419">
            <path
               id="path15670"
               transform="translate(155.122,134.765)"
               d="M 3.265625,-7.09375 C 3.3125,-7.203125 3.3125,-7.234375 3.3125,-7.28125 c 0,-0.109375 -0.078125,-0.203125 -0.1875,-0.203125 -0.09375,0 -0.171875,0.0625 -0.234375,0.234375 l -1.75,4.578125 C 1.125,-2.609375 1.09375,-2.546875 1.09375,-2.5 c 0,0.03125 0,0.0625 0.046875,0.171875 L 2.890625,2.25 C 2.9375,2.359375 2.984375,2.5 3.125,2.5 c 0.109375,0 0.1875,-0.09375 0.1875,-0.203125 0,-0.03125 0,-0.046875 -0.046875,-0.15625 L 1.5,-2.5 Z m 0,0"
               style="fill:#ff0f00;fill-opacity:1;stroke:none;stroke-width:0"
               inkscape:connector-curvature="0" />
            <path
               id="path15672"
               transform="translate(158.99645,134.765)"
               d="m 6.5625,-2.296875 c 0.171875,0 0.359375,0 0.359375,-0.203125 0,-0.1875 -0.1875,-0.1875 -0.359375,-0.1875 H 1.171875 c -0.171875,0 -0.34375,0 -0.34375,0.1875 0,0.203125 0.171875,0.203125 0.34375,0.203125 z m 0,0"
               style="fill:#ff0f00;fill-opacity:1;stroke:none;stroke-width:0"
               inkscape:connector-curvature="0" />
          </g>
          <g
             id="g15680"
             style="fill:#ff0f00;fill-opacity:1;stroke-width:0.05036419">
            <path
               id="path15676"
               transform="translate(166.745,134.765)"
               d="m 3.65625,-3.171875 v 0.328125 c 0,2.328125 -1.03125,2.78125 -1.609375,2.78125 -0.171875,0 -0.71875,-0.015625 -0.984375,-0.359375 0.4375,0 0.515625,-0.28125 0.515625,-0.453125 0,-0.3125 -0.234375,-0.453125 -0.453125,-0.453125 -0.15625,0 -0.453125,0.078125 -0.453125,0.46875 0,0.671875 0.53125,1.078125 1.375,1.078125 1.296875,0 2.515625,-1.359375 2.515625,-3.5 0,-2.6875 -1.15625,-3.359375 -2.046875,-3.359375 -0.546875,0 -1.03125,0.1875 -1.453125,0.625 -0.421875,0.453125 -0.640625,0.875 -0.640625,1.625 0,1.234375 0.875,2.21875 1.984375,2.21875 0.609375,0 1.015625,-0.421875 1.25,-1 z M 2.421875,-2.40625 c -0.15625,0 -0.625,0 -0.921875,-0.625 -0.1875,-0.375 -0.1875,-0.859375 -0.1875,-1.359375 0,-0.53125 0,-1 0.21875,-1.375 0.265625,-0.5 0.640625,-0.625 0.984375,-0.625 0.46875,0 0.796875,0.34375 0.96875,0.78125 0.109375,0.328125 0.15625,0.953125 0.15625,1.40625 0,0.828125 -0.34375,1.796875 -1.21875,1.796875 z m 0,0"
               style="fill:#ff0f00;fill-opacity:1;stroke:none;stroke-width:0"
               inkscape:connector-curvature="0" />
            <path
               id="path15678"
               transform="translate(171.7263,134.765)"
               d="m 4.578125,-3.1875 c 0,-0.796875 -0.046875,-1.59375 -0.390625,-2.328125 -0.453125,-0.96875 -1.28125,-1.125 -1.6875,-1.125 -0.609375,0 -1.328125,0.265625 -1.75,1.1875 -0.3125,0.6875 -0.359375,1.46875 -0.359375,2.265625 0,0.75 0.03125,1.640625 0.453125,2.40625 0.421875,0.796875 1.15625,1 1.640625,1 0.53125,0 1.296875,-0.203125 1.734375,-1.15625 0.3125,-0.6875 0.359375,-1.46875 0.359375,-2.25 z M 2.484375,0 C 2.09375,0 1.5,-0.25 1.328125,-1.203125 1.21875,-1.796875 1.21875,-2.71875 1.21875,-3.3125 c 0,-0.640625 0,-1.296875 0.078125,-1.828125 0.1875,-1.1875 0.9375,-1.28125 1.1875,-1.28125 0.328125,0 0.984375,0.1875 1.171875,1.171875 0.109375,0.5625 0.109375,1.3125 0.109375,1.9375 0,0.75 0,1.421875 -0.109375,2.0625 C 3.5,-0.296875 2.9375,0 2.484375,0 Z m 0,0"
               style="fill:#ff0f00;fill-opacity:1;stroke:none;stroke-width:0"
               inkscape:connector-curvature="0" />
          </g>
          <g
             id="g15684"
             style="fill:#ff0f00;fill-opacity:1;stroke-width:0.05036419">
            <path
               id="path15682"
               transform="translate(176.708,131.149)"
               d="m 3.53125,-1.734375 c 0,-0.84375 -0.671875,-1.5 -1.5,-1.5 -0.828125,0 -1.5,0.671875 -1.5,1.484375 0,0.84375 0.6875,1.5 1.5,1.5 0.84375,0 1.5,-0.671875 1.5,-1.484375 z m -1.5,1.140625 C 1.375,-0.59375 0.875,-1.125 0.875,-1.734375 c 0,-0.65625 0.515625,-1.171875 1.15625,-1.171875 0.65625,0 1.15625,0.53125 1.15625,1.15625 0,0.65625 -0.515625,1.15625 -1.15625,1.15625 z m 0,0"
               style="fill:#ff0f00;fill-opacity:1;stroke:none;stroke-width:0"
               inkscape:connector-curvature="0" />
          </g>
          <g
             id="g15688"
             style="fill:#ff0f00;fill-opacity:1;stroke-width:0.05036419">
            <path
               id="path15686"
               transform="translate(181.288,134.765)"
               d="m 1.90625,-3.765625 c 0,-0.296875 -0.234375,-0.53125 -0.515625,-0.53125 -0.296875,0 -0.53125,0.234375 -0.53125,0.53125 0,0.28125 0.234375,0.53125 0.53125,0.53125 0.28125,0 0.515625,-0.25 0.515625,-0.53125 z m -0.1875,3.65625 c 0,0.28125 0,1.0625 -0.625,1.796875 -0.078125,0.078125 -0.078125,0.09375 -0.078125,0.125 0,0.078125 0.046875,0.109375 0.09375,0.109375 0.109375,0 0.828125,-0.796875 0.828125,-1.953125 0,-0.28125 -0.015625,-1.03125 -0.546875,-1.03125 -0.359375,0 -0.53125,0.28125 -0.53125,0.53125 C 0.859375,-0.265625 1.03125,0 1.390625,0 1.4375,0 1.453125,0 1.46875,-0.015625 c 0.0625,0 0.171875,-0.03125 0.25,-0.09375 z m 0,0"
               style="fill:#ff0f00;fill-opacity:1;stroke:none;stroke-width:0"
               inkscape:connector-curvature="0" />
          </g>
          <g
             id="g15696"
             style="fill:#ff0f00;fill-opacity:1;stroke-width:0.05036419">
            <path
               id="path15690"
               transform="translate(185.71936,134.765)"
               d="m 4.078125,-2.296875 h 2.78125 C 7,-2.296875 7.1875,-2.296875 7.1875,-2.5 7.1875,-2.6875 7,-2.6875 6.859375,-2.6875 h -2.78125 v -2.796875 c 0,-0.140625 0,-0.328125 -0.203125,-0.328125 -0.203125,0 -0.203125,0.1875 -0.203125,0.328125 V -2.6875 h -2.78125 c -0.140625,0 -0.328125,0 -0.328125,0.1875 0,0.203125 0.1875,0.203125 0.328125,0.203125 h 2.78125 V 0.5 c 0,0.140625 0,0.328125 0.203125,0.328125 0.203125,0 0.203125,-0.1875 0.203125,-0.328125 z m 0,0"
               style="fill:#ff0f00;fill-opacity:1;stroke:none;stroke-width:0"
               inkscape:connector-curvature="0" />
            <path
               id="path15692"
               transform="translate(193.46827,134.765)"
               d="m 3.65625,-3.171875 v 0.328125 c 0,2.328125 -1.03125,2.78125 -1.609375,2.78125 -0.171875,0 -0.71875,-0.015625 -0.984375,-0.359375 0.4375,0 0.515625,-0.28125 0.515625,-0.453125 0,-0.3125 -0.234375,-0.453125 -0.453125,-0.453125 -0.15625,0 -0.453125,0.078125 -0.453125,0.46875 0,0.671875 0.53125,1.078125 1.375,1.078125 1.296875,0 2.515625,-1.359375 2.515625,-3.5 0,-2.6875 -1.15625,-3.359375 -2.046875,-3.359375 -0.546875,0 -1.03125,0.1875 -1.453125,0.625 -0.421875,0.453125 -0.640625,0.875 -0.640625,1.625 0,1.234375 0.875,2.21875 1.984375,2.21875 0.609375,0 1.015625,-0.421875 1.25,-1 z M 2.421875,-2.40625 c -0.15625,0 -0.625,0 -0.921875,-0.625 -0.1875,-0.375 -0.1875,-0.859375 -0.1875,-1.359375 0,-0.53125 0,-1 0.21875,-1.375 0.265625,-0.5 0.640625,-0.625 0.984375,-0.625 0.46875,0 0.796875,0.34375 0.96875,0.78125 0.109375,0.328125 0.15625,0.953125 0.15625,1.40625 0,0.828125 -0.34375,1.796875 -1.21875,1.796875 z m 0,0"
               style="fill:#ff0f00;fill-opacity:1;stroke:none;stroke-width:0"
               inkscape:connector-curvature="0" />
            <path
               id="path15694"
               transform="translate(198.44957,134.765)"
               d="m 4.578125,-3.1875 c 0,-0.796875 -0.046875,-1.59375 -0.390625,-2.328125 -0.453125,-0.96875 -1.28125,-1.125 -1.6875,-1.125 -0.609375,0 -1.328125,0.265625 -1.75,1.1875 -0.3125,0.6875 -0.359375,1.46875 -0.359375,2.265625 0,0.75 0.03125,1.640625 0.453125,2.40625 0.421875,0.796875 1.15625,1 1.640625,1 0.53125,0 1.296875,-0.203125 1.734375,-1.15625 0.3125,-0.6875 0.359375,-1.46875 0.359375,-2.25 z M 2.484375,0 C 2.09375,0 1.5,-0.25 1.328125,-1.203125 1.21875,-1.796875 1.21875,-2.71875 1.21875,-3.3125 c 0,-0.640625 0,-1.296875 0.078125,-1.828125 0.1875,-1.1875 0.9375,-1.28125 1.1875,-1.28125 0.328125,0 0.984375,0.1875 1.171875,1.171875 0.109375,0.5625 0.109375,1.3125 0.109375,1.9375 0,0.75 0,1.421875 -0.109375,2.0625 C 3.5,-0.296875 2.9375,0 2.484375,0 Z m 0,0"
               style="fill:#ff0f00;fill-opacity:1;stroke:none;stroke-width:0"
               inkscape:connector-curvature="0" />
          </g>
          <g
             id="g15700"
             style="fill:#ff0f00;fill-opacity:1;stroke-width:0.05036419">
            <path
               id="path15698"
               transform="translate(203.427,131.149)"
               d="m 3.53125,-1.734375 c 0,-0.84375 -0.671875,-1.5 -1.5,-1.5 -0.828125,0 -1.5,0.671875 -1.5,1.484375 0,0.84375 0.6875,1.5 1.5,1.5 0.84375,0 1.5,-0.671875 1.5,-1.484375 z m -1.5,1.140625 C 1.375,-0.59375 0.875,-1.125 0.875,-1.734375 c 0,-0.65625 0.515625,-1.171875 1.15625,-1.171875 0.65625,0 1.15625,0.53125 1.15625,1.15625 0,0.65625 -0.515625,1.15625 -1.15625,1.15625 z m 0,0"
               style="fill:#ff0f00;fill-opacity:1;stroke:none;stroke-width:0"
               inkscape:connector-curvature="0" />
          </g>
          <g
             id="g15704"
             style="fill:#ff0f00;fill-opacity:1;stroke-width:0.05036419">
            <path
               id="path15702"
               transform="translate(208.007,134.765)"
               d="M 2.71875,-2.328125 C 2.765625,-2.4375 2.765625,-2.46875 2.765625,-2.5 c 0,-0.015625 0,-0.046875 -0.046875,-0.15625 L 0.984375,-7.25 c -0.0625,-0.171875 -0.125,-0.234375 -0.234375,-0.234375 -0.109375,0 -0.203125,0.09375 -0.203125,0.203125 0,0.03125 0,0.046875 0.046875,0.15625 L 2.359375,-2.5 0.59375,2.109375 C 0.546875,2.21875 0.546875,2.25 0.546875,2.296875 0.546875,2.40625 0.640625,2.5 0.75,2.5 0.875,2.5 0.921875,2.390625 0.953125,2.296875 Z m 0,0"
               style="fill:#ff0f00;fill-opacity:1;stroke:none;stroke-width:0"
               inkscape:connector-curvature="0" />
          </g>
        </g>
      </g>
    </g>
  </g>
</svg>
