<?xml version="1.0" encoding="UTF-8" standalone="no"?>
<!-- Created with Inkscape (http://www.inkscape.org/) -->

<svg
   xmlns:ns1="http://www.iki.fi/pav/software/textext/"
   xmlns:dc="http://purl.org/dc/elements/1.1/"
   xmlns:cc="http://creativecommons.org/ns#"
   xmlns:rdf="http://www.w3.org/1999/02/22-rdf-syntax-ns#"
   xmlns:svg="http://www.w3.org/2000/svg"
   xmlns="http://www.w3.org/2000/svg"
   xmlns:sodipodi="http://sodipodi.sourceforge.net/DTD/sodipodi-0.dtd"
   xmlns:inkscape="http://www.inkscape.org/namespaces/inkscape"
   width="166.83385mm"
   height="128.70709mm"
   viewBox="0 0 166.83385 128.70709"
   version="1.1"
   id="svg1430"
   inkscape:version="0.92.3 (2405546, 2018-03-11)"
   sodipodi:docname="um_docks.svg"
   style="enable-background:new">
  <sodipodi:namedview
     id="base"
     pagecolor="#ffffff"
     bordercolor="#666666"
     borderopacity="1.0"
     inkscape:pageopacity="0.0"
     inkscape:pageshadow="2"
     inkscape:zoom="0.98994949"
     inkscape:cx="322.92858"
     inkscape:cy="147.05472"
     inkscape:document-units="mm"
     inkscape:current-layer="g985"
     showgrid="false"
     inkscape:window-width="1916"
     inkscape:window-height="1040"
     inkscape:window-x="0"
     inkscape:window-y="18"
     inkscape:window-maximized="0"
     fit-margin-top="5"
     fit-margin-right="5"
     fit-margin-bottom="5"
     fit-margin-left="5" />
  <defs
     id="defs1424">
    <marker
       inkscape:stockid="TriangleOutL"
       orient="auto"
       refY="0.0"
       refX="0.0"
       id="TriangleOutL"
       style="overflow:visible"
       inkscape:isstock="true">
      <path
         id="path8646"
         d="M 5.77,0.0 L -2.88,5.0 L -2.88,-5.0 L 5.77,0.0 z "
         style="fill-rule:evenodd;stroke:#000000;stroke-width:1pt;stroke-opacity:1;fill:#000000;fill-opacity:1"
         transform="scale(0.8)" />
    </marker>
    <marker
       inkscape:stockid="TriangleInL"
       orient="auto"
       refY="0"
       refX="0"
       id="marker5026"
       style="overflow:visible"
       inkscape:isstock="true">
      <path
         id="path5024"
         d="M 5.77,0 -2.88,5 V -5 Z"
         style="fill:#045fff;fill-opacity:1;fill-rule:evenodd;stroke:#045fff;stroke-width:1.00000003pt;stroke-opacity:1"
         transform="scale(-0.8)"
         inkscape:connector-curvature="0" />
    </marker>
    <marker
       inkscape:stockid="TriangleInL"
       orient="auto"
       refY="0"
       refX="0"
       id="TriangleInL"
       style="overflow:visible"
       inkscape:isstock="true">
      <path
         id="path2353"
         d="M 5.77,0 -2.88,5 V -5 Z"
         style="fill:#ff0f00;fill-opacity:1;fill-rule:evenodd;stroke:#ff0f00;stroke-width:1.00000003pt;stroke-opacity:1"
         transform="scale(-0.8)"
         inkscape:connector-curvature="0" />
    </marker>
    <marker
       inkscape:stockid="Arrow1Lstart"
       orient="auto"
       refY="0"
       refX="0"
       id="Arrow1Lstart"
       style="overflow:visible"
       inkscape:isstock="true">
      <path
         id="path2218"
         d="M 0,0 5,-5 -12.5,0 5,5 Z"
         style="fill:#000000;fill-opacity:1;fill-rule:evenodd;stroke:#000000;stroke-width:1.00000003pt;stroke-opacity:1"
         transform="matrix(0.8,0,0,0.8,10,0)"
         inkscape:connector-curvature="0" />
    </marker>
    <clipPath
       clipPathUnits="userSpaceOnUse"
       id="clipPath991">
      <path
         d="m 303308,191461 h 77443 v 65635 h -77443 v -65635"
         id="path989"
         inkscape:connector-curvature="0" />
    </clipPath>
    <marker
       inkscape:stockid="TriangleInL"
       orient="auto"
       refY="0"
       refX="0"
       id="TriangleInL-2"
       style="overflow:visible"
       inkscape:isstock="true">
      <path
         inkscape:connector-curvature="0"
         id="path2353-9"
         d="M 5.77,0 -2.88,5 V -5 Z"
         style="fill:#19d400;fill-opacity:1;fill-rule:evenodd;stroke:#19d400;stroke-width:1.00000003pt;stroke-opacity:1"
         transform="scale(-0.8)" />
    </marker>
    <marker
       inkscape:stockid="TriangleOutL"
       orient="auto"
       refY="0"
       refX="0"
       id="TriangleOutL-8"
       style="overflow:visible"
       inkscape:isstock="true">
      <path
         inkscape:connector-curvature="0"
         id="path8646-7"
         d="M 5.77,0 -2.88,5 V -5 Z"
         style="fill:#000000;fill-opacity:1;fill-rule:evenodd;stroke:#000000;stroke-width:1.00000003pt;stroke-opacity:1"
         transform="scale(0.8)" />
    </marker>
    <marker
       inkscape:stockid="TriangleOutL"
       orient="auto"
       refY="0"
       refX="0"
       id="TriangleOutL-8-2"
       style="overflow:visible"
       inkscape:isstock="true">
      <path
         inkscape:connector-curvature="0"
         id="path8646-7-0"
         d="M 5.77,0 -2.88,5 V -5 Z"
         style="fill:#000000;fill-opacity:1;fill-rule:evenodd;stroke:#000000;stroke-width:1.00000003pt;stroke-opacity:1"
         transform="scale(0.8)" />
    </marker>
    <marker
       inkscape:stockid="TriangleOutL"
       orient="auto"
       refY="0"
       refX="0"
       id="TriangleOutL-8-2-3"
       style="overflow:visible"
       inkscape:isstock="true">
      <path
         inkscape:connector-curvature="0"
         id="path8646-7-0-7"
         d="M 5.77,0 -2.88,5 V -5 Z"
         style="fill:#000000;fill-opacity:1;fill-rule:evenodd;stroke:#000000;stroke-width:1.00000003pt;stroke-opacity:1"
         transform="scale(0.8)" />
    </marker>
    <marker
       inkscape:stockid="TriangleOutL"
       orient="auto"
       refY="0"
       refX="0"
       id="TriangleOutL-8-2-3-9"
       style="overflow:visible"
       inkscape:isstock="true">
      <path
         inkscape:connector-curvature="0"
         id="path8646-7-0-7-2"
         d="M 5.77,0 -2.88,5 V -5 Z"
         style="fill:#000000;fill-opacity:1;fill-rule:evenodd;stroke:#000000;stroke-width:1.00000003pt;stroke-opacity:1"
         transform="scale(0.8)" />
    </marker>
    <marker
       inkscape:stockid="TriangleOutL"
       orient="auto"
       refY="0"
       refX="0"
       id="TriangleOutL-8-2-3-9-8"
       style="overflow:visible"
       inkscape:isstock="true">
      <path
         inkscape:connector-curvature="0"
         id="path8646-7-0-7-2-9"
         d="M 5.77,0 -2.88,5 V -5 Z"
         style="fill:#000000;fill-opacity:1;fill-rule:evenodd;stroke:#000000;stroke-width:1.00000003pt;stroke-opacity:1"
         transform="scale(0.8)" />
    </marker>
    <marker
       inkscape:stockid="TriangleOutL"
       orient="auto"
       refY="0"
       refX="0"
       id="TriangleOutL-3"
       style="overflow:visible"
       inkscape:isstock="true">
      <path
         inkscape:connector-curvature="0"
         id="path8646-6"
         d="M 5.77,0 -2.88,5 V -5 Z"
         style="fill:#000000;fill-opacity:1;fill-rule:evenodd;stroke:#000000;stroke-width:1.00000003pt;stroke-opacity:1"
         transform="scale(0.8)" />
    </marker>
    <marker
       inkscape:stockid="TriangleOutL"
       orient="auto"
       refY="0"
       refX="0"
       id="TriangleOutL-8-2-3-9-8-8"
       style="overflow:visible"
       inkscape:isstock="true">
      <path
         inkscape:connector-curvature="0"
         id="path8646-7-0-7-2-9-5"
         d="M 5.77,0 -2.88,5 V -5 Z"
         style="fill:#000000;fill-opacity:1;fill-rule:evenodd;stroke:#000000;stroke-width:1.00000003pt;stroke-opacity:1"
         transform="scale(0.8)" />
    </marker>
    <marker
       inkscape:stockid="TriangleOutL"
       orient="auto"
       refY="0"
       refX="0"
       id="TriangleOutL-7"
       style="overflow:visible"
       inkscape:isstock="true">
      <path
         inkscape:connector-curvature="0"
         id="path8646-5"
         d="M 5.77,0 -2.88,5 V -5 Z"
         style="fill:#000000;fill-opacity:1;fill-rule:evenodd;stroke:#000000;stroke-width:1.00000003pt;stroke-opacity:1"
         transform="scale(0.8)" />
    </marker>
  </defs>
  <metadata
     id="metadata1427">
    <rdf:RDF>
      <cc:Work
         rdf:about="">
        <dc:format>image/svg+xml</dc:format>
        <dc:type
           rdf:resource="http://purl.org/dc/dcmitype/StillImage" />
        <dc:title></dc:title>
      </cc:Work>
    </rdf:RDF>
  </metadata>
  <g
     inkscape:label="Layer 1"
     inkscape:groupmode="layer"
     id="layer1"
     transform="translate(-7.6374422,-27.737394)">
    <g
       transform="matrix(0.00178994,0,0,-0.00179279,-511.41466,503.61742)"
       id="g985"
       style="stroke-width:0.3544777">
      <path
         d="m 338835.08,231330.02 c -0.3,-5332.96 3738.66,-7502.78 8351.22,-4846.45 4612.55,2656.35 8352.01,9132.95 8352.31,14465.91 0.3,5332.95 -3738.66,7502.78 -8351.21,4846.44 -4612.56,-2656.34 -8352.01,-9132.95 -8352.32,-14465.9"
         style="fill:#ffc6c6;fill-opacity:1;stroke:#000000;stroke-width:278.97463989;stroke-linecap:round;stroke-linejoin:round;stroke-miterlimit:10;stroke-dasharray:836.92392732, 836.92392732;stroke-dashoffset:0;stroke-opacity:1"
         id="path1051-0-2"
         inkscape:connector-curvature="0" />
      <path
         d="m 357513.3,241886.84 c 0.31,-5332.96 3739.76,-11809.56 8352.31,-14465.91 4612.55,-2656.33 8351.51,-486.51 8351.21,4846.45 -0.3,5332.95 -3739.76,11809.56 -8352.31,14465.9 -4612.55,2656.34 -8351.51,486.51 -8351.21,-4846.44"
         style="fill:#ffc6c6;fill-opacity:1;stroke:#000000;stroke-width:279.11685181;stroke-linecap:round;stroke-linejoin:round;stroke-miterlimit:10;stroke-dasharray:1116.4674362, 1116.4674362;stroke-dashoffset:0;stroke-opacity:1"
         id="path1093-6"
         inkscape:connector-curvature="0" />
      <path
         d="m 313326.07,214463.55 c -0.3,-5332.96 3738.66,-7502.78 8351.21,-4846.45 4612.55,2656.35 8352.01,9132.95 8352.31,14465.91 0.3,5332.95 -3738.66,7502.78 -8351.21,4846.44 -4612.55,-2656.34 -8352,-9132.95 -8352.31,-14465.9"
         style="fill:#ffc6c6;fill-opacity:1;stroke:#000000;stroke-width:279.11685181;stroke-linecap:round;stroke-linejoin:round;stroke-miterlimit:10;stroke-dasharray:837.35057752, 837.35057752;stroke-dashoffset:0;stroke-opacity:1"
         id="path1097-7"
         inkscape:connector-curvature="0" />
      <g
         id="g987"
         clip-path="url(#clipPath991)"
         style="stroke-width:0.3544777">
        <g
           id="g993"
           transform="matrix(0.49906,-0.86657,0.86657,0.49906,343421.5,225080.5)"
           style="stroke-width:0.3544777">
          <path
             d="M 15748.5,0 C 15748.5,5027.7246 8697.6572,9103.5 0,9103.5 -8697.6572,9103.5 -15748.5,5027.7246 -15748.5,0"
             style="fill:none;stroke:#000000;stroke-width:278.97396851;stroke-linecap:round;stroke-linejoin:round;stroke-miterlimit:10;stroke-dasharray:none;stroke-opacity:1"
             id="path995"
             inkscape:connector-curvature="0" />
        </g>
        <g
           id="g997"
           transform="matrix(0.49906,-0.86657,0.86657,0.49906,342030.5,224279.5)"
           style="stroke-width:0.3544777">
          <path
             d="M 15748.5,0 C 15748.5,5027.7246 8697.6572,9103.5 0,9103.5 -8697.6572,9103.5 -15748.5,5027.7246 -15748.5,0"
             style="fill:none;stroke:#000000;stroke-width:278.97396851;stroke-linecap:round;stroke-linejoin:round;stroke-miterlimit:10;stroke-dasharray:none;stroke-opacity:1"
             id="path999"
             inkscape:connector-curvature="0" />
        </g>
        <path
           d="m 352217,228567 -253,-146"
           style="fill:none;stroke:#000000;stroke-width:278.97396851;stroke-linecap:round;stroke-linejoin:round;stroke-miterlimit:10;stroke-dasharray:none;stroke-opacity:1"
           id="path1001"
           inkscape:connector-curvature="0" />
        <path
           d="m 341954,238688 7035,4051"
           style="fill:none;stroke:#000000;stroke-width:278.97396851;stroke-linecap:round;stroke-linejoin:round;stroke-miterlimit:10;stroke-dasharray:none;stroke-opacity:1"
           id="path1003"
           inkscape:connector-curvature="0" />
        <g
           id="g1005"
           transform="matrix(-0.49906,-0.86657,0.86657,-0.49906,348989.5,236302.5)"
           style="stroke-width:0.3544777">
          <path
             d="m -7874.5,0 c 0,-1204.109 825.4927,-2359.1548 2295.7212,-3212.2195"
             style="fill:none;stroke:#000000;stroke-width:278.97396851;stroke-linecap:round;stroke-linejoin:round;stroke-miterlimit:10;stroke-dasharray:none;stroke-opacity:1"
             id="path1007"
             inkscape:connector-curvature="0" />
        </g>
        <path
           d="m 348989,242739 8634,-4971"
           style="fill:none;stroke:#000000;stroke-width:195.31721497;stroke-linecap:round;stroke-linejoin:round;stroke-miterlimit:10;stroke-dasharray:none;stroke-opacity:1"
           id="path1009"
           inkscape:connector-curvature="0" />
        <path
           d="m 334171,237926 1392,801"
           style="fill:none;stroke:#000000;stroke-width:278.97396851;stroke-linecap:round;stroke-linejoin:round;stroke-miterlimit:10;stroke-dasharray:none;stroke-opacity:1"
           id="path1011"
           inkscape:connector-curvature="0" />
        <path
           d="m 349888,210631 1392,802"
           style="fill:none;stroke:#000000;stroke-width:278.97396851;stroke-linecap:round;stroke-linejoin:round;stroke-miterlimit:10;stroke-dasharray:none;stroke-opacity:1"
           id="path1013"
           inkscape:connector-curvature="0" />
        <path
           d="m 352919,243126 6344,-3654"
           style="fill:none;stroke:#000000;stroke-width:278.97396851;stroke-linecap:round;stroke-linejoin:round;stroke-miterlimit:10;stroke-dasharray:none;stroke-opacity:1"
           id="path1015"
           inkscape:connector-curvature="0" />
        <g
           id="g1017"
           transform="matrix(0.49906,-0.86657,0.86657,0.49906,340638.5,223477.5)"
           style="stroke-width:0.3544777">
          <path
             d="M 15323.391,-2100.8899 C 16888.99,1714.7766 14051.553,5681.187 8281.2022,7743.2832 2510.8501,9805.3789 -4895.4712,9499.6836 -10100.434,6984.582 -15305.396,4469.4805 -17139.129,310.26773 -14651.55,-3338.104"
             style="fill:none;stroke:#000000;stroke-width:278.97396851;stroke-linecap:round;stroke-linejoin:round;stroke-miterlimit:10;stroke-dasharray:none;stroke-opacity:1"
             id="path1019"
             inkscape:connector-curvature="0" />
        </g>
        <g
           id="g1021"
           transform="matrix(0.49906,-0.86657,0.86657,0.49906,342030.5,224279.5)"
           style="stroke-width:0.3544777">
          <path
             d="M 15748.5,0 C 15748.5,5027.7246 8697.6572,9103.5 0,9103.5 -8697.6572,9103.5 -15748.5,5027.7246 -15748.5,0"
             style="fill:none;stroke:#000000;stroke-width:278.97396851;stroke-linecap:round;stroke-linejoin:round;stroke-miterlimit:10;stroke-dasharray:none;stroke-opacity:1"
             id="path1023"
             inkscape:connector-curvature="0" />
        </g>
        <path
           d="m 347597,225906 -13919,8016"
           style="fill:none;stroke:#000000;stroke-width:278.97396851;stroke-linecap:round;stroke-linejoin:round;stroke-miterlimit:10;stroke-dasharray:none;stroke-opacity:1"
           id="path1025"
           inkscape:connector-curvature="0" />
        <path
           d="m 347597,213032 v 447"
           style="fill:none;stroke:#000000;stroke-width:278.97396851;stroke-linecap:round;stroke-linejoin:round;stroke-miterlimit:10;stroke-dasharray:none;stroke-opacity:1"
           id="path1027"
           inkscape:connector-curvature="0" />
        <path
           d="m 347597,219047 v 6859 l -1835,-1057"
           style="fill:none;stroke:#000000;stroke-width:278.97396851;stroke-linecap:round;stroke-linejoin:round;stroke-miterlimit:10;stroke-dasharray:none;stroke-opacity:1"
           id="path1029"
           inkscape:connector-curvature="0" />
        <path
           d="m 347521,212988 76,44"
           style="fill:none;stroke:#000000;stroke-width:278.97396851;stroke-linecap:round;stroke-linejoin:round;stroke-miterlimit:10;stroke-dasharray:none;stroke-opacity:1"
           id="path1031"
           inkscape:connector-curvature="0" />
        <path
           d="m 322797,227657 10881,6265"
           style="fill:none;stroke:#000000;stroke-width:278.97396851;stroke-linecap:round;stroke-linejoin:round;stroke-miterlimit:10;stroke-dasharray:none;stroke-opacity:1"
           id="path1033"
           inkscape:connector-curvature="0" />
        <path
           d="m 329783,221737 -978,563"
           style="fill:none;stroke:#000000;stroke-width:195.31721497;stroke-linecap:round;stroke-linejoin:round;stroke-miterlimit:10;stroke-dasharray:none;stroke-opacity:1"
           id="path1035"
           inkscape:connector-curvature="0" />
        <path
           d="m 349888,210631 -1392,-801"
           style="fill:none;stroke:#000000;stroke-width:278.97396851;stroke-linecap:round;stroke-linejoin:round;stroke-miterlimit:10;stroke-dasharray:none;stroke-opacity:1"
           id="path1037"
           inkscape:connector-curvature="0" />
        <path
           d="m 334171,237926 -1392,-802"
           style="fill:none;stroke:#000000;stroke-width:278.97396851;stroke-linecap:round;stroke-linejoin:round;stroke-miterlimit:10;stroke-dasharray:none;stroke-opacity:1"
           id="path1039"
           inkscape:connector-curvature="0" />
        <g
           id="g1041"
           transform="matrix(-0.49906,-0.86657,0.86657,-0.49906,344813.5,238707.5)"
           style="stroke-width:0.3544777">
          <path
             d="m -3875.5808,-6449.5044 c 2212.9546,-444.3203 4604.50432,-498.2236 6870.5935,-154.8569"
             style="fill:none;stroke:#000000;stroke-width:278.97396851;stroke-linecap:round;stroke-linejoin:round;stroke-miterlimit:10;stroke-dasharray:none;stroke-opacity:1"
             id="path1043"
             inkscape:connector-curvature="0" />
        </g>
        <g
           id="g1045"
           transform="matrix(-0.49906,0.86657,-0.86657,-0.49906,367085.5,238707.5)"
           style="stroke-width:0.3544777">
          <path
             d="m -3875.5808,-6449.5044 c 2510.162,-503.9941 5240.9996,-503.9941 7751.1616,0"
             style="fill:none;stroke:#000000;stroke-width:278.97396851;stroke-linecap:round;stroke-linejoin:round;stroke-miterlimit:10;stroke-dasharray:none;stroke-opacity:1"
             id="path1047"
             inkscape:connector-curvature="0" />
        </g>
        <g
           id="g1049"
           transform="matrix(-0.49906,-0.86657,0.86657,-0.49906,367085.5,225882.5)"
           style="stroke-width:0.3544777">
          <path
             d="m 8335.9619,-4837.02 c 4621.5141,2661.1875 4635.8531,6984.113 32.0293,9655.5254 C 3764.1665,7489.918 -3714.4475,7498.207 -8335.9619,4837.02 -12957.476,2175.8325 -12971.815,-2147.093 -8367.9912,-4818.5054 -3764.1665,-7489.918 3714.4475,-7498.207 8335.9619,-4837.02"
             style="fill:#ff8080;fill-opacity:1;stroke:#000000;stroke-width:278.97396851;stroke-linecap:round;stroke-linejoin:round;stroke-miterlimit:10;stroke-dasharray:none;stroke-opacity:1"
             id="path1051"
             inkscape:connector-curvature="0" />
        </g>
        <g
           id="g1053"
           transform="matrix(-0.49906,-0.86657,0.86657,-0.49906,348989.5,236302.5)"
           style="stroke-width:0.3544777">
          <path
             d="m -16269.157,-2943.9744 c 2457.541,-4539.0793 10171.8479,-7415.9106 18338.1087,-6838.674"
             style="fill:none;stroke:#000000;stroke-width:278.97396851;stroke-linecap:round;stroke-linejoin:round;stroke-miterlimit:10;stroke-dasharray:none;stroke-opacity:1"
             id="path1055"
             inkscape:connector-curvature="0" />
        </g>
        <path
           d="m 354557,242182 v 9688"
           style="fill:none;stroke:#000000;stroke-width:278.97396851;stroke-linecap:round;stroke-linejoin:round;stroke-miterlimit:10;stroke-dasharray:none;stroke-opacity:1"
           id="path1057"
           inkscape:connector-curvature="0" />
        <g
           id="g1059"
           transform="matrix(0.49906,0.86657,-0.86657,0.49906,362909.5,228286.5)"
           style="stroke-width:0.3544777">
          <path
             d="M 16269.157,2943.9744 C 14896.836,5478.6523 11813.038,7585.831 7716.5308,8788.04 3620.0232,9990.2481 -1142.3983,10185.711 -5491.6035,9330.1387"
             style="fill:none;stroke:#000000;stroke-width:278.97396851;stroke-linecap:round;stroke-linejoin:round;stroke-miterlimit:10;stroke-dasharray:none;stroke-opacity:1"
             id="path1061"
             inkscape:connector-curvature="0" />
        </g>
        <g
           id="g1063"
           transform="matrix(-0.49906,-0.86657,0.86657,-0.49906,362909.5,228286.5)"
           style="stroke-width:0.3544777">
          <path
             d="M 16969.836,-939.67511 C 17251.437,760.01654 16764.375,2472.8457 15556.378,4030.9661"
             style="fill:none;stroke:#000000;stroke-width:278.97396851;stroke-linecap:round;stroke-linejoin:round;stroke-miterlimit:10;stroke-dasharray:none;stroke-opacity:1"
             id="path1065"
             inkscape:connector-curvature="0" />
        </g>
        <g
           id="g1067"
           transform="matrix(0.49906,-0.86657,0.86657,0.49906,361517.5,235500.5)"
           style="stroke-width:0.3544777">
          <path
             d="M -3765.3623,10199.827 C -10748.112,9338.3926 -16195.145,6177.4526 -17658.51,2137.5635"
             style="fill:none;stroke:#000000;stroke-width:278.97396851;stroke-linecap:round;stroke-linejoin:round;stroke-miterlimit:10;stroke-dasharray:none;stroke-opacity:1"
             id="path1069"
             inkscape:connector-curvature="0" />
        </g>
        <g
           id="g1071"
           transform="matrix(0.01016,-0.99995,0.99995,0.01016,355949.5,232294.5)"
           style="stroke-width:0.3544777">
          <path
             d="M -12839.445,14922.049 C -17185.689,11182.391 -19685.5,5733.6621 -19685.5,0"
             style="fill:none;stroke:#000000;stroke-width:278.97396851;stroke-linecap:round;stroke-linejoin:round;stroke-miterlimit:10;stroke-dasharray:none;stroke-opacity:1"
             id="path1073"
             inkscape:connector-curvature="0" />
        </g>
        <g
           id="g1075"
           transform="matrix(-0.31868,0.94786,-0.94786,-0.31868,355949.5,232294.5)"
           style="stroke-width:0.3544777">
          <path
             d="M -11891.229,-15688.135 C -8469.4863,-18281.734 -4293.6094,-19685.5 0,-19685.5"
             style="fill:none;stroke:#000000;stroke-width:278.97396851;stroke-linecap:round;stroke-linejoin:round;stroke-miterlimit:10;stroke-dasharray:none;stroke-opacity:1"
             id="path1077"
             inkscape:connector-curvature="0" />
        </g>
        <g
           id="g1079"
           transform="matrix(0.6599,0.75135,-0.75135,0.6599,355949.5,232294.5)"
           style="stroke-width:0.3544777">
          <path
             d="M -12878.03,-14888.763 C -9300.9473,-17982.758 -4729.5166,-19685.5 0,-19685.5"
             style="fill:none;stroke:#000000;stroke-width:278.97396851;stroke-linecap:round;stroke-linejoin:round;stroke-miterlimit:10;stroke-dasharray:none;stroke-opacity:1"
             id="path1081"
             inkscape:connector-curvature="0" />
        </g>
        <g
           id="g1083"
           transform="matrix(0.75135,-0.6599,0.6599,0.75135,355949.5,232294.5)"
           style="stroke-width:0.3544777">
          <path
             d="M -14888.763,12878.03 C -17982.758,9300.9473 -19685.5,4729.5166 -19685.5,0"
             style="fill:none;stroke:#000000;stroke-width:278.97396851;stroke-linecap:round;stroke-linejoin:round;stroke-miterlimit:10;stroke-dasharray:none;stroke-opacity:1"
             id="path1085"
             inkscape:connector-curvature="0" />
        </g>
        <g
           id="g1087"
           transform="matrix(-0.49906,-0.86657,0.86657,-0.49906,316974.5,222675.5)"
           style="stroke-width:0.3544777">
          <path
             d="m -3875.5808,-6449.5044 c 2510.162,-503.9941 5240.9996,-503.9941 7751.1616,0"
             style="fill:none;stroke:#000000;stroke-width:278.97396851;stroke-linecap:round;stroke-linejoin:round;stroke-miterlimit:10;stroke-dasharray:none;stroke-opacity:1"
             id="path1089"
             inkscape:connector-curvature="0" />
        </g>
        <g
           id="g1091"
           transform="matrix(0.49906,-0.86657,0.86657,0.49906,316974.5,209850.5)"
           style="stroke-width:0.3544777">
          <path
             d="M -8335.9619,-4837.02 C -3714.4475,-7498.207 3764.1665,-7489.918 8367.9912,-4818.5054 12971.815,-2147.093 12957.476,2175.8325 8335.9619,4837.02 3714.4475,7498.207 -3764.1665,7489.918 -8367.9912,4818.5054 -12971.815,2147.093 -12957.476,-2175.8325 -8335.9619,-4837.02"
             style="fill:#ff8080;fill-opacity:1;stroke:#000000;stroke-width:278.97396851;stroke-linecap:round;stroke-linejoin:round;stroke-miterlimit:10;stroke-dasharray:none;stroke-opacity:1"
             id="path1093"
             inkscape:connector-curvature="0" />
        </g>
        <g
           id="g1095"
           transform="matrix(-0.49906,-0.86657,0.86657,-0.49906,339246.5,209850.5)"
           style="stroke-width:0.3544777">
          <path
             d="m 8335.9619,-4837.02 c 4621.5141,2661.1875 4635.8531,6984.113 32.0293,9655.5254 C 3764.1665,7489.918 -3714.4475,7498.207 -8335.9619,4837.02 -12957.476,2175.8325 -12971.815,-2147.093 -8367.9912,-4818.5054 -3764.1665,-7489.918 3714.4475,-7498.207 8335.9619,-4837.02"
             style="fill:#ff8080;fill-opacity:1;stroke:#000000;stroke-width:278.97396851;stroke-linecap:round;stroke-linejoin:round;stroke-miterlimit:10;stroke-dasharray:none;stroke-opacity:1"
             id="path1097"
             inkscape:connector-curvature="0" />
        </g>
        <g
           id="g1099"
           transform="matrix(-0.49906,-0.86657,0.86657,-0.49906,321150.5,220271.5)"
           style="stroke-width:0.3544777">
          <path
             d="m -16249.509,2980.0225 c -2846.85,-5188.2547 2120.474,-10728.3672 11094.8308,-12374.1885"
             style="fill:none;stroke:#000000;stroke-width:278.97396851;stroke-linecap:round;stroke-linejoin:round;stroke-miterlimit:10;stroke-dasharray:none;stroke-opacity:1"
             id="path1101"
             inkscape:connector-curvature="0" />
        </g>
        <g
           id="g1103"
           transform="matrix(-0.49906,-0.86657,0.86657,-0.49906,335070.5,212255.5)"
           style="stroke-width:0.3544777">
          <path
             d="m 16269.157,2943.9744 c -200.39,370.1228 -438.398,733.0847 -712.779,1086.9917"
             style="fill:none;stroke:#000000;stroke-width:278.97396851;stroke-linecap:round;stroke-linejoin:round;stroke-miterlimit:10;stroke-dasharray:none;stroke-opacity:1"
             id="path1105"
             inkscape:connector-curvature="0" />
        </g>
        <g
           id="g1107"
           transform="matrix(0.49906,0.86657,-0.86657,0.49906,335070.5,212255.5)"
           style="stroke-width:0.3544777">
          <path
             d="m 15556.378,-4030.9661 c 1987.581,2563.6566 1988.188,5495.8445 1.671,8059.7764 C 13571.532,6592.7422 9786.7324,8544.6856 5154.6782,9394.166"
             style="fill:none;stroke:#000000;stroke-width:278.97396851;stroke-linecap:round;stroke-linejoin:round;stroke-miterlimit:10;stroke-dasharray:none;stroke-opacity:1"
             id="path1109"
             inkscape:connector-curvature="0" />
        </g>
        <g
           id="g1111"
           transform="matrix(-0.49906,0.86657,-0.86657,-0.49906,322542.5,213057.5)"
           style="stroke-width:0.3544777">
          <path
             d="m 3765.3623,-10199.827 c 6982.7497,861.4344 12429.7827,4022.3744 13893.1477,8062.2635"
             style="fill:none;stroke:#000000;stroke-width:278.97396851;stroke-linecap:round;stroke-linejoin:round;stroke-miterlimit:10;stroke-dasharray:none;stroke-opacity:1"
             id="path1113"
             inkscape:connector-curvature="0" />
        </g>
        <g
           id="g1115"
           transform="matrix(0.49906,-0.86657,0.86657,0.49906,322542.5,213057.5)"
           style="stroke-width:0.3544777">
          <path
             d="m 17157.311,-3224.9849 c 200.796,356.9954 368.107,719.9976 501.199,1087.4214"
             style="fill:none;stroke:#000000;stroke-width:278.97396851;stroke-linecap:round;stroke-linejoin:round;stroke-miterlimit:10;stroke-dasharray:none;stroke-opacity:1"
             id="path1117"
             inkscape:connector-curvature="0" />
        </g>
        <g
           id="g1119"
           transform="matrix(-0.92538,-0.37905,0.37905,-0.92538,328110.5,216263.5)"
           style="stroke-width:0.3544777">
          <path
             d="M -14888.763,12878.03 C -17982.758,9300.9473 -19685.5,4729.5166 -19685.5,0"
             style="fill:none;stroke:#000000;stroke-width:278.97396851;stroke-linecap:round;stroke-linejoin:round;stroke-miterlimit:10;stroke-dasharray:none;stroke-opacity:1"
             id="path1121"
             inkscape:connector-curvature="0" />
        </g>
        <g
           id="g1123"
           transform="matrix(-0.75136,0.6599,-0.6599,-0.75136,328110.5,216263.5)"
           style="stroke-width:0.3544777">
          <path
             d="M -14888.763,12878.03 C -17982.758,9300.9473 -19685.5,4729.5166 -19685.5,0"
             style="fill:none;stroke:#000000;stroke-width:278.97396851;stroke-linecap:round;stroke-linejoin:round;stroke-miterlimit:10;stroke-dasharray:none;stroke-opacity:1"
             id="path1125"
             inkscape:connector-curvature="0" />
        </g>
        <g
           id="g1127"
           transform="matrix(-0.01016,0.99995,-0.99995,-0.01016,328110.5,216263.5)"
           style="stroke-width:0.3544777">
          <path
             d="M -12839.445,14922.049 C -17185.689,11182.391 -19685.5,5733.6621 -19685.5,0"
             style="fill:none;stroke:#000000;stroke-width:278.97396851;stroke-linecap:round;stroke-linejoin:round;stroke-miterlimit:10;stroke-dasharray:none;stroke-opacity:1"
             id="path1129"
             inkscape:connector-curvature="0" />
        </g>
        <g
           id="g1131"
           transform="matrix(0.31868,-0.94786,0.94786,0.31868,328110.5,216263.5)"
           style="stroke-width:0.3544777">
          <path
             d="M -11891.229,-15688.135 C -8469.4863,-18281.734 -4293.6094,-19685.5 0,-19685.5"
             style="fill:none;stroke:#000000;stroke-width:278.97396851;stroke-linecap:round;stroke-linejoin:round;stroke-miterlimit:10;stroke-dasharray:none;stroke-opacity:1"
             id="path1133"
             inkscape:connector-curvature="0" />
        </g>
        <g
           id="g1135"
           transform="matrix(0.75135,-0.6599,0.6599,0.75135,328110.5,216263.5)"
           style="stroke-width:0.3544777">
          <path
             d="M -14888.763,12878.03 C -17982.758,9300.9473 -19685.5,4729.5166 -19685.5,0"
             style="fill:none;stroke:#000000;stroke-width:278.97396851;stroke-linecap:round;stroke-linejoin:round;stroke-miterlimit:10;stroke-dasharray:none;stroke-opacity:1"
             id="path1137"
             inkscape:connector-curvature="0" />
        </g>
      </g>
      <path
         style="fill:none;fill-rule:evenodd;stroke:#000000;stroke-width:558.23370361;stroke-linecap:butt;stroke-linejoin:miter;stroke-miterlimit:4;stroke-dasharray:none;stroke-opacity:1"
         d="m 337346.41,207171.53 6862.93,-9909.07 16154.27,21.09"
         id="path4753"
         inkscape:connector-curvature="0"
         sodipodi:nodetypes="ccc"
         inkscape:label="path4753" />
      <path
         style="fill:none;fill-rule:evenodd;stroke:#000000;stroke-width:558.23370361;stroke-linecap:butt;stroke-linejoin:miter;stroke-miterlimit:4;stroke-dasharray:none;stroke-opacity:1"
         d="m 321403.31,223721.78 -7834.3,13387.79 17273.46,21.09"
         id="path4775"
         inkscape:connector-curvature="0"
         sodipodi:nodetypes="ccc" />
      <path
         style="fill:none;fill-rule:evenodd;stroke:#000000;stroke-width:558.23370361;stroke-linecap:butt;stroke-linejoin:miter;stroke-miterlimit:4;stroke-dasharray:none;stroke-opacity:1"
         d="m 313326.07,214463.55 -20029.08,30320.27 16682.19,-84.32"
         id="path4800"
         inkscape:connector-curvature="0"
         sodipodi:nodetypes="ccc" />
      <path
         style="fill:none;fill-rule:evenodd;stroke:#000000;stroke-width:558.23370361;stroke-linecap:butt;stroke-linejoin:miter;stroke-miterlimit:4;stroke-dasharray:none;stroke-opacity:1"
         d="m 348010.34,237320.4 -11614.18,14758.19 -14887.27,-105.42"
         id="path4827"
         inkscape:connector-curvature="0" />
      <path
         style="fill:none;fill-rule:evenodd;stroke:#000000;stroke-width:558.23370361;stroke-linecap:butt;stroke-linejoin:miter;stroke-miterlimit:4;stroke-dasharray:none;stroke-opacity:1"
         d="m 363510.55,237494.87 -5674.07,19529.51 19411.29,149.08"
         id="path4857"
         inkscape:connector-curvature="0" />
      <path
         style="fill:none;fill-rule:evenodd;stroke:#000000;stroke-width:558.23370361;stroke-linecap:butt;stroke-linejoin:miter;stroke-miterlimit:4;stroke-dasharray:none;stroke-opacity:1"
         d="m 364555.78,222288.69 -6122.02,-15057.1 20307.19,3"
         id="path4880"
         inkscape:connector-curvature="0"
         sodipodi:nodetypes="ccc" />
      <path
         style="fill:none;fill-rule:evenodd;stroke:#000000;stroke-width:279.11685181;stroke-linecap:butt;stroke-linejoin:miter;stroke-miterlimit:2;stroke-dasharray:none;stroke-opacity:1;marker-end:url(#TriangleOutL)"
         d="m 317710.86,208169.86 5375.43,-5515.98"
         id="path9781"
         inkscape:connector-curvature="0" />
      <path
         style="fill:none;fill-rule:evenodd;stroke:#000000;stroke-width:279.11697388;stroke-linecap:butt;stroke-linejoin:miter;stroke-miterlimit:2;stroke-dasharray:none;stroke-opacity:1;marker-end:url(#TriangleOutL-8-2);enable-background:new"
         d="m 322940.84,220141.4 5186.75,3378.48"
         id="path9781-9-2"
         inkscape:connector-curvature="0" />
      <path
         style="fill:none;fill-rule:evenodd;stroke:#000000;stroke-width:279.11703491;stroke-linecap:butt;stroke-linejoin:miter;stroke-miterlimit:2;stroke-dasharray:none;stroke-opacity:1;marker-end:url(#TriangleOutL-8-2-3);enable-background:new"
         d="m 340577.69,209015.78 -7613.54,-5155.65"
         id="path9781-9-2-5"
         inkscape:connector-curvature="0" />
      <path
         style="fill:none;fill-rule:evenodd;stroke:#000000;stroke-width:279.11715698;stroke-linecap:butt;stroke-linejoin:miter;stroke-miterlimit:2;stroke-dasharray:none;stroke-opacity:1;marker-end:url(#TriangleOutL-8-2-3-9-8);enable-background:new"
         d="m 346860.1,235994.78 7015.77,4722.02"
         id="path9781-9-2-5-2-7"
         inkscape:connector-curvature="0" />
      <path
         style="fill:none;fill-rule:evenodd;stroke:#000000;stroke-width:279.11721802;stroke-linecap:butt;stroke-linejoin:miter;stroke-miterlimit:2;stroke-dasharray:none;stroke-opacity:1;marker-end:url(#TriangleOutL-8-2-3-9-8-8);enable-background:new"
         d="m 367730.69,224720.39 -7015.77,-4722.02"
         id="path9781-9-2-5-2-7-9"
         inkscape:connector-curvature="0" />
      <path
         style="fill:none;fill-rule:evenodd;stroke:#000000;stroke-width:279.11691284;stroke-linecap:butt;stroke-linejoin:miter;stroke-miterlimit:2;stroke-dasharray:none;stroke-opacity:1;marker-end:url(#TriangleOutL-7);enable-background:new"
         d="m 364080.51,236955.69 -4990.22,3933.4"
         id="path9781-3"
         inkscape:connector-curvature="0" />
      <g
         style="stroke-width:0.05220216"
         transform="matrix(431.19718,0,0,-431.19718,256195.64,312006.99)"
         ns1:version="0.8.1"
         ns1:texconverter="pdflatex"
         ns1:pdfconverter="pdf2svg"
         ns1:text="\\textsf{dock B$_{+X}$}"
         ns1:preamble="/home/xmrazek7/.config/inkscape/extensions/default_packages.tex"
         ns1:scale="180.0"
         ns1:alignment="middle center"
         inkscapeversion="0.92.3"
         ns1:jacobian_sqrt="63.500253"
         id="g55736">
        <g
           style="stroke-width:0.05220216"
           id="surface1">
          <g
             style="fill:#000000;fill-opacity:1;stroke-width:0.05220216"
             id="g55715">
            <path
               inkscape:connector-curvature="0"
               style="stroke:none;stroke-width:0"
               d="m 4.328125,-6.921875 h -0.75 v 2.9375 C 3.046875,-4.421875 2.5,-4.53125 2.125,-4.53125 c -0.984375,0 -1.765625,1.03125 -1.765625,2.3125 0,1.3125 0.765625,2.328125 1.71875,2.328125 0.328125,0 0.90625,-0.09375 1.46875,-0.625 V 0 h 0.78125 z m -0.78125,5.53125 C 3.546875,-1.25 3.53125,-1.0625 3.21875,-0.78125 2.984375,-0.578125 2.734375,-0.5 2.484375,-0.5 c -0.625,0 -1.34375,-0.46875 -1.34375,-1.703125 0,-1.3125 0.859375,-1.71875 1.4375,-1.71875 0.453125,0 0.75,0.21875 0.96875,0.546875 z m 0,0"
               transform="translate(148.712,134.765)"
               id="path55711" />
            <path
               inkscape:connector-curvature="0"
               style="stroke:none;stroke-width:0"
               d="m 4.671875,-2.1875 c 0,-1.34375 -1,-2.40625 -2.171875,-2.40625 -1.234375,0 -2.203125,1.09375 -2.203125,2.40625 0,1.3125 1.015625,2.296875 2.1875,2.296875 1.1875,0 2.1875,-1 2.1875,-2.296875 z m -2.1875,1.65625 c -0.6875,0 -1.40625,-0.5625 -1.40625,-1.765625 0,-1.203125 0.75,-1.6875 1.40625,-1.6875 0.703125,0 1.40625,0.515625 1.40625,1.6875 0,1.1875 -0.671875,1.765625 -1.40625,1.765625 z m 0,0"
               transform="translate(153.85967,134.765)"
               id="path55713" />
          </g>
          <g
             style="fill:#000000;fill-opacity:1;stroke-width:0.05220216"
             id="g55721">
            <path
               inkscape:connector-curvature="0"
               style="stroke:none;stroke-width:0"
               d="M 4.09375,-4.171875 C 3.5,-4.5 3.15625,-4.59375 2.546875,-4.59375 c -1.375,0 -2.1875,1.203125 -2.1875,2.375 0,1.234375 0.90625,2.328125 2.15625,2.328125 0.53125,0 1.078125,-0.140625 1.625,-0.515625 l -0.0625,-0.65625 c -0.515625,0.390625 -1.046875,0.53125 -1.5625,0.53125 -0.828125,0 -1.375,-0.71875 -1.375,-1.6875 C 1.140625,-3 1.5,-3.953125 2.5625,-3.953125 c 0.515625,0 0.859375,0.078125 1.40625,0.4375 z m 0,0"
               transform="translate(159.11993,134.765)"
               id="path55717" />
            <path
               inkscape:connector-curvature="0"
               style="stroke:none;stroke-width:0"
               d="M 2.796875,-2.71875 4.46875,-4.421875 H 3.578125 l -2.015625,2.0625 v -4.5625 H 0.84375 V 0 h 0.6875 V -1.40625 L 2.328125,-2.234375 3.875,0 h 0.8125 z m 0,0"
               transform="translate(163.54731,134.765)"
               id="path55719" />
          </g>
          <g
             style="fill:#000000;fill-opacity:1;stroke-width:0.05220216"
             id="g55725">
            <path
               inkscape:connector-curvature="0"
               style="stroke:none;stroke-width:0"
               d="M 0.96875,-6.921875 V 0 h 2.625 c 1.4375,0 2.484375,-0.890625 2.484375,-1.875 0,-0.859375 -0.859375,-1.578125 -1.921875,-1.75 0.90625,-0.21875 1.65625,-0.796875 1.65625,-1.5625 0,-0.90625 -1.0625,-1.734375 -2.484375,-1.734375 z m 0.828125,3.03125 v -2.46875 h 1.25 c 1.109375,0 1.984375,0.53125 1.984375,1.1875 0,0.59375 -0.703125,1.28125 -2.078125,1.28125 z m 0,3.328125 v -2.734375 h 1.4375 c 1.0625,0 2.046875,0.609375 2.046875,1.40625 0,0.75 -0.890625,1.328125 -1.96875,1.328125 z m 0,0"
               transform="translate(171.73557,134.765)"
               id="path55723" />
          </g>
          <g
             style="fill:#000000;fill-opacity:1;stroke-width:0.05220216"
             id="g55729">
            <path
               inkscape:connector-curvature="0"
               style="stroke:none;stroke-width:0"
               d="m 3.21875,-1.578125 h 2.140625 c 0.09375,0 0.25,0 0.25,-0.15625 0,-0.1875 -0.15625,-0.1875 -0.25,-0.1875 H 3.21875 V -4.0625 c 0,-0.078125 0,-0.25 -0.15625,-0.25 -0.171875,0 -0.171875,0.15625 -0.171875,0.25 v 2.140625 H 0.75 c -0.09375,0 -0.265625,0 -0.265625,0.171875 0,0.171875 0.15625,0.171875 0.265625,0.171875 H 2.890625 V 0.5625 c 0,0.09375 0,0.265625 0.15625,0.265625 0.171875,0 0.171875,-0.171875 0.171875,-0.265625 z m 0,0"
               transform="translate(178.379,136.259)"
               id="path55727" />
          </g>
          <g
             style="fill:#000000;fill-opacity:1;stroke-width:0.05220216"
             id="g55733">
            <path
               inkscape:connector-curvature="0"
               style="stroke:none;stroke-width:0"
               d="m 3.875,-2.65625 0.65625,-0.671875 c 0.890625,-0.875 1.171875,-1.140625 1.796875,-1.1875 0.09375,0 0.171875,0 0.171875,-0.140625 0,-0.078125 -0.078125,-0.109375 -0.09375,-0.109375 -0.203125,0 -0.453125,0.03125 -0.65625,0.03125 -0.1875,0 -0.625,-0.03125 -0.8125,-0.03125 -0.046875,0 -0.140625,0.03125 -0.140625,0.15625 0,0.015625 0,0.09375 0.109375,0.09375 0.0625,0.015625 0.234375,0.03125 0.234375,0.1875 0,0.09375 -0.109375,0.203125 -0.171875,0.28125 C 4.90625,-4 4.03125,-3.140625 3.765625,-2.875 L 3.0625,-4.234375 C 3.046875,-4.265625 3.03125,-4.3125 3.03125,-4.328125 c 0,-0.0625 0.125,-0.171875 0.375,-0.1875 0.046875,0 0.140625,0 0.140625,-0.140625 0,-0.015625 0,-0.109375 -0.125,-0.109375 -0.140625,0 -0.3125,0.03125 -0.453125,0.03125 -0.15625,0 -0.3125,0 -0.453125,0 -0.125,0 -0.296875,0 -0.421875,0 -0.109375,-0.015625 -0.265625,-0.03125 -0.375,-0.03125 -0.03125,0 -0.140625,0 -0.140625,0.15625 0,0.09375 0.09375,0.09375 0.203125,0.09375 0.40625,0 0.4375,0.078125 0.5,0.21875 L 3.265625,-2.375 2.875,-1.984375 c -0.140625,0.125 -0.46875,0.4375 -0.59375,0.5625 -0.84375,0.84375 -1.125,1.140625 -1.765625,1.171875 -0.09375,0 -0.171875,0 -0.171875,0.15625 C 0.34375,-0.0625 0.375,0 0.453125,0 c 0.1875,0 0.4375,-0.03125 0.640625,-0.03125 0.125,0 0.296875,0 0.40625,0.015625 C 1.625,-0.015625 1.78125,0 1.90625,0 1.9375,0 2.046875,0 2.046875,-0.140625 2.046875,-0.25 1.96875,-0.25 1.921875,-0.25 c -0.0625,-0.015625 -0.21875,-0.03125 -0.21875,-0.171875 0,-0.109375 0.09375,-0.203125 0.25,-0.359375 l 1.40625,-1.390625 0.84375,1.65625 C 4.25,-0.453125 4.25,-0.4375 4.25,-0.421875 c 0,0.03125 -0.125,0.15625 -0.375,0.171875 -0.0625,0 -0.140625,0 -0.140625,0.15625 0,0 0,0.09375 0.109375,0.09375 C 4,0 4.171875,-0.015625 4.3125,-0.015625 c 0.140625,0 0.3125,-0.015625 0.453125,-0.015625 0.125,0 0.28125,0 0.40625,0.015625 C 5.296875,-0.015625 5.4375,0 5.546875,0 5.59375,0 5.703125,0 5.703125,-0.15625 5.703125,-0.25 5.609375,-0.25 5.5,-0.25 5.09375,-0.25 5.0625,-0.328125 5,-0.453125 Z m 0,0"
               transform="translate(184.495,136.259)"
               id="path55731" />
          </g>
        </g>
      </g>
      <g
         id="g56120"
         ns1:jacobian_sqrt="63.500253"
         inkscapeversion="0.92.3"
         ns1:alignment="middle center"
         ns1:scale="180.0"
         ns1:preamble="/home/xmrazek7/.config/inkscape/extensions/default_packages.tex"
         ns1:text="\\textsf{dock B$_{-Z}$}"
         ns1:pdfconverter="pdf2svg"
         ns1:texconverter="pdflatex"
         ns1:version="0.8.1"
         transform="matrix(473.88978,0,0,-473.88978,287706.41,322859.21)"
         style="stroke-width:0.04749928">
        <g
           id="g56118"
           style="stroke-width:0.04749928">
          <g
             id="g56098"
             style="fill:#000000;fill-opacity:1;stroke-width:0.04749928">
            <path
               id="path56094"
               transform="translate(148.712,134.765)"
               d="m 4.328125,-6.921875 h -0.75 v 2.9375 C 3.046875,-4.421875 2.5,-4.53125 2.125,-4.53125 c -0.984375,0 -1.765625,1.03125 -1.765625,2.3125 0,1.3125 0.765625,2.328125 1.71875,2.328125 0.328125,0 0.90625,-0.09375 1.46875,-0.625 V 0 h 0.78125 z m -0.78125,5.53125 C 3.546875,-1.25 3.53125,-1.0625 3.21875,-0.78125 2.984375,-0.578125 2.734375,-0.5 2.484375,-0.5 c -0.625,0 -1.34375,-0.46875 -1.34375,-1.703125 0,-1.3125 0.859375,-1.71875 1.4375,-1.71875 0.453125,0 0.75,0.21875 0.96875,0.546875 z m 0,0"
               style="stroke:none;stroke-width:0"
               inkscape:connector-curvature="0" />
            <path
               id="path56096"
               transform="translate(153.85967,134.765)"
               d="m 4.671875,-2.1875 c 0,-1.34375 -1,-2.40625 -2.171875,-2.40625 -1.234375,0 -2.203125,1.09375 -2.203125,2.40625 0,1.3125 1.015625,2.296875 2.1875,2.296875 1.1875,0 2.1875,-1 2.1875,-2.296875 z m -2.1875,1.65625 c -0.6875,0 -1.40625,-0.5625 -1.40625,-1.765625 0,-1.203125 0.75,-1.6875 1.40625,-1.6875 0.703125,0 1.40625,0.515625 1.40625,1.6875 0,1.1875 -0.671875,1.765625 -1.40625,1.765625 z m 0,0"
               style="stroke:none;stroke-width:0"
               inkscape:connector-curvature="0" />
          </g>
          <g
             id="g56104"
             style="fill:#000000;fill-opacity:1;stroke-width:0.04749928">
            <path
               id="path56100"
               transform="translate(159.11993,134.765)"
               d="M 4.09375,-4.171875 C 3.5,-4.5 3.15625,-4.59375 2.546875,-4.59375 c -1.375,0 -2.1875,1.203125 -2.1875,2.375 0,1.234375 0.90625,2.328125 2.15625,2.328125 0.53125,0 1.078125,-0.140625 1.625,-0.515625 l -0.0625,-0.65625 c -0.515625,0.390625 -1.046875,0.53125 -1.5625,0.53125 -0.828125,0 -1.375,-0.71875 -1.375,-1.6875 C 1.140625,-3 1.5,-3.953125 2.5625,-3.953125 c 0.515625,0 0.859375,0.078125 1.40625,0.4375 z m 0,0"
               style="stroke:none;stroke-width:0"
               inkscape:connector-curvature="0" />
            <path
               id="path56102"
               transform="translate(163.54731,134.765)"
               d="M 2.796875,-2.71875 4.46875,-4.421875 H 3.578125 l -2.015625,2.0625 v -4.5625 H 0.84375 V 0 h 0.6875 V -1.40625 L 2.328125,-2.234375 3.875,0 h 0.8125 z m 0,0"
               style="stroke:none;stroke-width:0"
               inkscape:connector-curvature="0" />
          </g>
          <g
             id="g56108"
             style="fill:#000000;fill-opacity:1;stroke-width:0.04749928">
            <path
               id="path56106"
               transform="translate(171.73557,134.765)"
               d="M 0.96875,-6.921875 V 0 h 2.625 c 1.4375,0 2.484375,-0.890625 2.484375,-1.875 0,-0.859375 -0.859375,-1.578125 -1.921875,-1.75 0.90625,-0.21875 1.65625,-0.796875 1.65625,-1.5625 0,-0.90625 -1.0625,-1.734375 -2.484375,-1.734375 z m 0.828125,3.03125 v -2.46875 h 1.25 c 1.109375,0 1.984375,0.53125 1.984375,1.1875 0,0.59375 -0.703125,1.28125 -2.078125,1.28125 z m 0,3.328125 v -2.734375 h 1.4375 c 1.0625,0 2.046875,0.609375 2.046875,1.40625 0,0.75 -0.890625,1.328125 -1.96875,1.328125 z m 0,0"
               style="stroke:none;stroke-width:0"
               inkscape:connector-curvature="0" />
          </g>
          <g
             id="g56112"
             style="fill:#000000;fill-opacity:1;stroke-width:0.04749928">
            <path
               id="path56110"
               transform="translate(178.379,136.259)"
               d="m 5.1875,-1.578125 c 0.109375,0 0.28125,0 0.28125,-0.15625 0,-0.1875 -0.171875,-0.1875 -0.28125,-0.1875 H 1.03125 c -0.109375,0 -0.28125,0 -0.28125,0.171875 0,0.171875 0.15625,0.171875 0.28125,0.171875 z m 0,0"
               style="stroke:none;stroke-width:0"
               inkscape:connector-curvature="0" />
          </g>
          <g
             id="g56116"
             style="fill:#000000;fill-opacity:1;stroke-width:0.04749928">
            <path
               id="path56114"
               transform="translate(184.606,136.259)"
               d="m 5.453125,-4.484375 c 0.0625,-0.0625 0.09375,-0.109375 0.09375,-0.203125 0,-0.078125 -0.046875,-0.078125 -0.1875,-0.078125 h -3.25 C 1.9375,-4.765625 1.921875,-4.75 1.875,-4.625 L 1.484375,-3.359375 C 1.46875,-3.28125 1.46875,-3.28125 1.46875,-3.25 c 0,0.03125 0.015625,0.09375 0.109375,0.09375 0.09375,0 0.109375,-0.046875 0.125,-0.109375 0.34375,-0.984375 0.875,-1.25 1.78125,-1.25 h 1.25 L 0.671875,-0.3125 C 0.625,-0.265625 0.5625,-0.1875 0.5625,-0.078125 0.5625,0 0.625,0 0.75,0 h 3.375 c 0.171875,0 0.1875,0 0.21875,-0.140625 l 0.5,-1.546875 C 4.875,-1.78125 4.875,-1.796875 4.875,-1.8125 c 0,0 0,-0.09375 -0.109375,-0.09375 -0.09375,0 -0.109375,0.03125 -0.15625,0.1875 -0.3125,0.953125 -0.671875,1.4375 -1.890625,1.4375 H 1.390625 Z m 0,0"
               style="stroke:none;stroke-width:0"
               inkscape:connector-curvature="0" />
          </g>
        </g>
      </g>
      <g
         style="stroke-width:0.04749928"
         transform="matrix(473.88978,0,0,-473.88978,290547.22,272684.41)"
         ns1:version="0.8.1"
         ns1:texconverter="pdflatex"
         ns1:pdfconverter="pdf2svg"
         ns1:text="\\textsf{dock B$_{-X}$}"
         ns1:preamble="/home/xmrazek7/.config/inkscape/extensions/default_packages.tex"
         ns1:scale="180.0"
         ns1:alignment="middle center"
         inkscapeversion="0.92.3"
         ns1:jacobian_sqrt="63.500253"
         id="g56501">
        <g
           style="stroke-width:0.04749928"
           id="g56499">
          <g
             style="fill:#000000;fill-opacity:1;stroke-width:0.04749928"
             id="g56479">
            <path
               inkscape:connector-curvature="0"
               style="stroke:none;stroke-width:0"
               d="m 4.328125,-6.921875 h -0.75 v 2.9375 C 3.046875,-4.421875 2.5,-4.53125 2.125,-4.53125 c -0.984375,0 -1.765625,1.03125 -1.765625,2.3125 0,1.3125 0.765625,2.328125 1.71875,2.328125 0.328125,0 0.90625,-0.09375 1.46875,-0.625 V 0 h 0.78125 z m -0.78125,5.53125 C 3.546875,-1.25 3.53125,-1.0625 3.21875,-0.78125 2.984375,-0.578125 2.734375,-0.5 2.484375,-0.5 c -0.625,0 -1.34375,-0.46875 -1.34375,-1.703125 0,-1.3125 0.859375,-1.71875 1.4375,-1.71875 0.453125,0 0.75,0.21875 0.96875,0.546875 z m 0,0"
               transform="translate(148.712,134.765)"
               id="path56475" />
            <path
               inkscape:connector-curvature="0"
               style="stroke:none;stroke-width:0"
               d="m 4.671875,-2.1875 c 0,-1.34375 -1,-2.40625 -2.171875,-2.40625 -1.234375,0 -2.203125,1.09375 -2.203125,2.40625 0,1.3125 1.015625,2.296875 2.1875,2.296875 1.1875,0 2.1875,-1 2.1875,-2.296875 z m -2.1875,1.65625 c -0.6875,0 -1.40625,-0.5625 -1.40625,-1.765625 0,-1.203125 0.75,-1.6875 1.40625,-1.6875 0.703125,0 1.40625,0.515625 1.40625,1.6875 0,1.1875 -0.671875,1.765625 -1.40625,1.765625 z m 0,0"
               transform="translate(153.85967,134.765)"
               id="path56477" />
          </g>
          <g
             style="fill:#000000;fill-opacity:1;stroke-width:0.04749928"
             id="g56485">
            <path
               inkscape:connector-curvature="0"
               style="stroke:none;stroke-width:0"
               d="M 4.09375,-4.171875 C 3.5,-4.5 3.15625,-4.59375 2.546875,-4.59375 c -1.375,0 -2.1875,1.203125 -2.1875,2.375 0,1.234375 0.90625,2.328125 2.15625,2.328125 0.53125,0 1.078125,-0.140625 1.625,-0.515625 l -0.0625,-0.65625 c -0.515625,0.390625 -1.046875,0.53125 -1.5625,0.53125 -0.828125,0 -1.375,-0.71875 -1.375,-1.6875 C 1.140625,-3 1.5,-3.953125 2.5625,-3.953125 c 0.515625,0 0.859375,0.078125 1.40625,0.4375 z m 0,0"
               transform="translate(159.11993,134.765)"
               id="path56481" />
            <path
               inkscape:connector-curvature="0"
               style="stroke:none;stroke-width:0"
               d="M 2.796875,-2.71875 4.46875,-4.421875 H 3.578125 l -2.015625,2.0625 v -4.5625 H 0.84375 V 0 h 0.6875 V -1.40625 L 2.328125,-2.234375 3.875,0 h 0.8125 z m 0,0"
               transform="translate(163.54731,134.765)"
               id="path56483" />
          </g>
          <g
             style="fill:#000000;fill-opacity:1;stroke-width:0.04749928"
             id="g56489">
            <path
               inkscape:connector-curvature="0"
               style="stroke:none;stroke-width:0"
               d="M 0.96875,-6.921875 V 0 h 2.625 c 1.4375,0 2.484375,-0.890625 2.484375,-1.875 0,-0.859375 -0.859375,-1.578125 -1.921875,-1.75 0.90625,-0.21875 1.65625,-0.796875 1.65625,-1.5625 0,-0.90625 -1.0625,-1.734375 -2.484375,-1.734375 z m 0.828125,3.03125 v -2.46875 h 1.25 c 1.109375,0 1.984375,0.53125 1.984375,1.1875 0,0.59375 -0.703125,1.28125 -2.078125,1.28125 z m 0,3.328125 v -2.734375 h 1.4375 c 1.0625,0 2.046875,0.609375 2.046875,1.40625 0,0.75 -0.890625,1.328125 -1.96875,1.328125 z m 0,0"
               transform="translate(171.73557,134.765)"
               id="path56487" />
          </g>
          <g
             style="fill:#000000;fill-opacity:1;stroke-width:0.04749928"
             id="g56493">
            <path
               inkscape:connector-curvature="0"
               style="stroke:none;stroke-width:0"
               d="m 5.1875,-1.578125 c 0.109375,0 0.28125,0 0.28125,-0.15625 0,-0.1875 -0.171875,-0.1875 -0.28125,-0.1875 H 1.03125 c -0.109375,0 -0.28125,0 -0.28125,0.171875 0,0.171875 0.15625,0.171875 0.28125,0.171875 z m 0,0"
               transform="translate(178.379,136.259)"
               id="path56491" />
          </g>
          <g
             style="fill:#000000;fill-opacity:1;stroke-width:0.04749928"
             id="g56497">
            <path
               inkscape:connector-curvature="0"
               style="stroke:none;stroke-width:0"
               d="m 3.875,-2.65625 0.65625,-0.671875 c 0.890625,-0.875 1.171875,-1.140625 1.796875,-1.1875 0.09375,0 0.171875,0 0.171875,-0.140625 0,-0.078125 -0.078125,-0.109375 -0.09375,-0.109375 -0.203125,0 -0.453125,0.03125 -0.65625,0.03125 -0.1875,0 -0.625,-0.03125 -0.8125,-0.03125 -0.046875,0 -0.140625,0.03125 -0.140625,0.15625 0,0.015625 0,0.09375 0.109375,0.09375 0.0625,0.015625 0.234375,0.03125 0.234375,0.1875 0,0.09375 -0.109375,0.203125 -0.171875,0.28125 C 4.90625,-4 4.03125,-3.140625 3.765625,-2.875 L 3.0625,-4.234375 C 3.046875,-4.265625 3.03125,-4.3125 3.03125,-4.328125 c 0,-0.0625 0.125,-0.171875 0.375,-0.1875 0.046875,0 0.140625,0 0.140625,-0.140625 0,-0.015625 0,-0.109375 -0.125,-0.109375 -0.140625,0 -0.3125,0.03125 -0.453125,0.03125 -0.15625,0 -0.3125,0 -0.453125,0 -0.125,0 -0.296875,0 -0.421875,0 -0.109375,-0.015625 -0.265625,-0.03125 -0.375,-0.03125 -0.03125,0 -0.140625,0 -0.140625,0.15625 0,0.09375 0.09375,0.09375 0.203125,0.09375 0.40625,0 0.4375,0.078125 0.5,0.21875 L 3.265625,-2.375 2.875,-1.984375 c -0.140625,0.125 -0.46875,0.4375 -0.59375,0.5625 -0.84375,0.84375 -1.125,1.140625 -1.765625,1.171875 -0.09375,0 -0.171875,0 -0.171875,0.15625 C 0.34375,-0.0625 0.375,0 0.453125,0 c 0.1875,0 0.4375,-0.03125 0.640625,-0.03125 0.125,0 0.296875,0 0.40625,0.015625 C 1.625,-0.015625 1.78125,0 1.90625,0 1.9375,0 2.046875,0 2.046875,-0.140625 2.046875,-0.25 1.96875,-0.25 1.921875,-0.25 c -0.0625,-0.015625 -0.21875,-0.03125 -0.21875,-0.171875 0,-0.109375 0.09375,-0.203125 0.25,-0.359375 l 1.40625,-1.390625 0.84375,1.65625 C 4.25,-0.453125 4.25,-0.4375 4.25,-0.421875 c 0,0.03125 -0.125,0.15625 -0.375,0.171875 -0.0625,0 -0.140625,0 -0.140625,0.15625 0,0 0,0.09375 0.109375,0.09375 C 4,0 4.171875,-0.015625 4.3125,-0.015625 c 0.140625,0 0.3125,-0.015625 0.453125,-0.015625 0.125,0 0.28125,0 0.40625,0.015625 C 5.296875,-0.015625 5.4375,0 5.546875,0 5.59375,0 5.703125,0 5.703125,-0.15625 5.703125,-0.25 5.609375,-0.25 5.5,-0.25 5.09375,-0.25 5.0625,-0.328125 5,-0.453125 Z m 0,0"
               transform="translate(184.606,136.259)"
               id="path56495" />
          </g>
        </g>
      </g>
      <g
         id="g56904"
         ns1:jacobian_sqrt="63.500253"
         inkscapeversion="0.92.3"
         ns1:alignment="middle center"
         ns1:scale="180.0"
         ns1:preamble="/home/xmrazek7/.config/inkscape/extensions/default_packages.tex"
         ns1:text="\\textsf{dock A$_{+X}$}"
         ns1:pdfconverter="pdf2svg"
         ns1:texconverter="pdflatex"
         ns1:version="0.8.1"
         transform="matrix(431.4363,0,0,-431.4363,280709.88,257244.53)"
         style="stroke-width:0.05217323">
        <g
           id="g56902"
           style="stroke-width:0.05217323">
          <g
             id="g56882"
             style="fill:#000000;fill-opacity:1;stroke-width:0.05217323">
            <path
               id="path56878"
               transform="translate(148.712,134.765)"
               d="m 4.328125,-6.921875 h -0.75 v 2.9375 C 3.046875,-4.421875 2.5,-4.53125 2.125,-4.53125 c -0.984375,0 -1.765625,1.03125 -1.765625,2.3125 0,1.3125 0.765625,2.328125 1.71875,2.328125 0.328125,0 0.90625,-0.09375 1.46875,-0.625 V 0 h 0.78125 z m -0.78125,5.53125 C 3.546875,-1.25 3.53125,-1.0625 3.21875,-0.78125 2.984375,-0.578125 2.734375,-0.5 2.484375,-0.5 c -0.625,0 -1.34375,-0.46875 -1.34375,-1.703125 0,-1.3125 0.859375,-1.71875 1.4375,-1.71875 0.453125,0 0.75,0.21875 0.96875,0.546875 z m 0,0"
               style="stroke:none;stroke-width:0"
               inkscape:connector-curvature="0" />
            <path
               id="path56880"
               transform="translate(153.85967,134.765)"
               d="m 4.671875,-2.1875 c 0,-1.34375 -1,-2.40625 -2.171875,-2.40625 -1.234375,0 -2.203125,1.09375 -2.203125,2.40625 0,1.3125 1.015625,2.296875 2.1875,2.296875 1.1875,0 2.1875,-1 2.1875,-2.296875 z m -2.1875,1.65625 c -0.6875,0 -1.40625,-0.5625 -1.40625,-1.765625 0,-1.203125 0.75,-1.6875 1.40625,-1.6875 0.703125,0 1.40625,0.515625 1.40625,1.6875 0,1.1875 -0.671875,1.765625 -1.40625,1.765625 z m 0,0"
               style="stroke:none;stroke-width:0"
               inkscape:connector-curvature="0" />
          </g>
          <g
             id="g56888"
             style="fill:#000000;fill-opacity:1;stroke-width:0.05217323">
            <path
               id="path56884"
               transform="translate(159.11993,134.765)"
               d="M 4.09375,-4.171875 C 3.5,-4.5 3.15625,-4.59375 2.546875,-4.59375 c -1.375,0 -2.1875,1.203125 -2.1875,2.375 0,1.234375 0.90625,2.328125 2.15625,2.328125 0.53125,0 1.078125,-0.140625 1.625,-0.515625 l -0.0625,-0.65625 c -0.515625,0.390625 -1.046875,0.53125 -1.5625,0.53125 -0.828125,0 -1.375,-0.71875 -1.375,-1.6875 C 1.140625,-3 1.5,-3.953125 2.5625,-3.953125 c 0.515625,0 0.859375,0.078125 1.40625,0.4375 z m 0,0"
               style="stroke:none;stroke-width:0"
               inkscape:connector-curvature="0" />
            <path
               id="path56886"
               transform="translate(163.54731,134.765)"
               d="M 2.796875,-2.71875 4.46875,-4.421875 H 3.578125 l -2.015625,2.0625 v -4.5625 H 0.84375 V 0 h 0.6875 V -1.40625 L 2.328125,-2.234375 3.875,0 h 0.8125 z m 0,0"
               style="stroke:none;stroke-width:0"
               inkscape:connector-curvature="0" />
          </g>
          <g
             id="g56892"
             style="fill:#000000;fill-opacity:1;stroke-width:0.05217323">
            <path
               id="path56890"
               transform="translate(171.73557,134.765)"
               d="M 3.765625,-6.921875 H 2.875 L 0.28125,0 H 1.015625 L 1.78125,-2.03125 H 4.6875 L 5.4375,0 H 6.359375 Z M 4.46875,-2.59375 H 2 l 0.640625,-1.796875 c 0.203125,-0.59375 0.515625,-1.4375 0.59375,-1.8125 0.03125,0.140625 0.09375,0.390625 0.328125,1.046875 z m 0,0"
               style="stroke:none;stroke-width:0"
               inkscape:connector-curvature="0" />
          </g>
          <g
             id="g56896"
             style="fill:#000000;fill-opacity:1;stroke-width:0.05217323">
            <path
               id="path56894"
               transform="translate(178.379,136.259)"
               d="m 3.21875,-1.578125 h 2.140625 c 0.09375,0 0.25,0 0.25,-0.15625 0,-0.1875 -0.15625,-0.1875 -0.25,-0.1875 H 3.21875 V -4.0625 c 0,-0.078125 0,-0.25 -0.15625,-0.25 -0.171875,0 -0.171875,0.15625 -0.171875,0.25 v 2.140625 H 0.75 c -0.09375,0 -0.265625,0 -0.265625,0.171875 0,0.171875 0.15625,0.171875 0.265625,0.171875 H 2.890625 V 0.5625 c 0,0.09375 0,0.265625 0.15625,0.265625 0.171875,0 0.171875,-0.171875 0.171875,-0.265625 z m 0,0"
               style="stroke:none;stroke-width:0"
               inkscape:connector-curvature="0" />
          </g>
          <g
             id="g56900"
             style="fill:#000000;fill-opacity:1;stroke-width:0.05217323">
            <path
               id="path56898"
               transform="translate(184.495,136.259)"
               d="m 3.875,-2.65625 0.65625,-0.671875 c 0.890625,-0.875 1.171875,-1.140625 1.796875,-1.1875 0.09375,0 0.171875,0 0.171875,-0.140625 0,-0.078125 -0.078125,-0.109375 -0.09375,-0.109375 -0.203125,0 -0.453125,0.03125 -0.65625,0.03125 -0.1875,0 -0.625,-0.03125 -0.8125,-0.03125 -0.046875,0 -0.140625,0.03125 -0.140625,0.15625 0,0.015625 0,0.09375 0.109375,0.09375 0.0625,0.015625 0.234375,0.03125 0.234375,0.1875 0,0.09375 -0.109375,0.203125 -0.171875,0.28125 C 4.90625,-4 4.03125,-3.140625 3.765625,-2.875 L 3.0625,-4.234375 C 3.046875,-4.265625 3.03125,-4.3125 3.03125,-4.328125 c 0,-0.0625 0.125,-0.171875 0.375,-0.1875 0.046875,0 0.140625,0 0.140625,-0.140625 0,-0.015625 0,-0.109375 -0.125,-0.109375 -0.140625,0 -0.3125,0.03125 -0.453125,0.03125 -0.15625,0 -0.3125,0 -0.453125,0 -0.125,0 -0.296875,0 -0.421875,0 -0.109375,-0.015625 -0.265625,-0.03125 -0.375,-0.03125 -0.03125,0 -0.140625,0 -0.140625,0.15625 0,0.09375 0.09375,0.09375 0.203125,0.09375 0.40625,0 0.4375,0.078125 0.5,0.21875 L 3.265625,-2.375 2.875,-1.984375 c -0.140625,0.125 -0.46875,0.4375 -0.59375,0.5625 -0.84375,0.84375 -1.125,1.140625 -1.765625,1.171875 -0.09375,0 -0.171875,0 -0.171875,0.15625 C 0.34375,-0.0625 0.375,0 0.453125,0 c 0.1875,0 0.4375,-0.03125 0.640625,-0.03125 0.125,0 0.296875,0 0.40625,0.015625 C 1.625,-0.015625 1.78125,0 1.90625,0 1.9375,0 2.046875,0 2.046875,-0.140625 2.046875,-0.25 1.96875,-0.25 1.921875,-0.25 c -0.0625,-0.015625 -0.21875,-0.03125 -0.21875,-0.171875 0,-0.109375 0.09375,-0.203125 0.25,-0.359375 l 1.40625,-1.390625 0.84375,1.65625 C 4.25,-0.453125 4.25,-0.4375 4.25,-0.421875 c 0,0.03125 -0.125,0.15625 -0.375,0.171875 -0.0625,0 -0.140625,0 -0.140625,0.15625 0,0 0,0.09375 0.109375,0.09375 C 4,0 4.171875,-0.015625 4.3125,-0.015625 c 0.140625,0 0.3125,-0.015625 0.453125,-0.015625 0.125,0 0.28125,0 0.40625,0.015625 C 5.296875,-0.015625 5.4375,0 5.546875,0 5.59375,0 5.703125,0 5.703125,-0.15625 5.703125,-0.25 5.609375,-0.25 5.5,-0.25 5.09375,-0.25 5.0625,-0.328125 5,-0.453125 Z m 0,0"
               style="stroke:none;stroke-width:0"
               inkscape:connector-curvature="0" />
          </g>
        </g>
      </g>
      <g
         style="stroke-width:0.04749928"
         transform="matrix(473.88978,0,0,-473.88978,242648.74,302875.64)"
         ns1:version="0.8.1"
         ns1:texconverter="pdflatex"
         ns1:pdfconverter="pdf2svg"
         ns1:text="\\textsf{dock A$_{-X}$}"
         ns1:preamble="/home/xmrazek7/.config/inkscape/extensions/default_packages.tex"
         ns1:scale="180.0"
         ns1:alignment="middle center"
         inkscapeversion="0.92.3"
         ns1:jacobian_sqrt="63.500253"
         id="g57329">
        <g
           style="stroke-width:0.04749928"
           id="g57327">
          <g
             style="fill:#000000;fill-opacity:1;stroke-width:0.04749928"
             id="g57307">
            <path
               inkscape:connector-curvature="0"
               style="stroke:none;stroke-width:0"
               d="m 4.328125,-6.921875 h -0.75 v 2.9375 C 3.046875,-4.421875 2.5,-4.53125 2.125,-4.53125 c -0.984375,0 -1.765625,1.03125 -1.765625,2.3125 0,1.3125 0.765625,2.328125 1.71875,2.328125 0.328125,0 0.90625,-0.09375 1.46875,-0.625 V 0 h 0.78125 z m -0.78125,5.53125 C 3.546875,-1.25 3.53125,-1.0625 3.21875,-0.78125 2.984375,-0.578125 2.734375,-0.5 2.484375,-0.5 c -0.625,0 -1.34375,-0.46875 -1.34375,-1.703125 0,-1.3125 0.859375,-1.71875 1.4375,-1.71875 0.453125,0 0.75,0.21875 0.96875,0.546875 z m 0,0"
               transform="translate(148.712,134.765)"
               id="path57303" />
            <path
               inkscape:connector-curvature="0"
               style="stroke:none;stroke-width:0"
               d="m 4.671875,-2.1875 c 0,-1.34375 -1,-2.40625 -2.171875,-2.40625 -1.234375,0 -2.203125,1.09375 -2.203125,2.40625 0,1.3125 1.015625,2.296875 2.1875,2.296875 1.1875,0 2.1875,-1 2.1875,-2.296875 z m -2.1875,1.65625 c -0.6875,0 -1.40625,-0.5625 -1.40625,-1.765625 0,-1.203125 0.75,-1.6875 1.40625,-1.6875 0.703125,0 1.40625,0.515625 1.40625,1.6875 0,1.1875 -0.671875,1.765625 -1.40625,1.765625 z m 0,0"
               transform="translate(153.85967,134.765)"
               id="path57305" />
          </g>
          <g
             style="fill:#000000;fill-opacity:1;stroke-width:0.04749928"
             id="g57313">
            <path
               inkscape:connector-curvature="0"
               style="stroke:none;stroke-width:0"
               d="M 4.09375,-4.171875 C 3.5,-4.5 3.15625,-4.59375 2.546875,-4.59375 c -1.375,0 -2.1875,1.203125 -2.1875,2.375 0,1.234375 0.90625,2.328125 2.15625,2.328125 0.53125,0 1.078125,-0.140625 1.625,-0.515625 l -0.0625,-0.65625 c -0.515625,0.390625 -1.046875,0.53125 -1.5625,0.53125 -0.828125,0 -1.375,-0.71875 -1.375,-1.6875 C 1.140625,-3 1.5,-3.953125 2.5625,-3.953125 c 0.515625,0 0.859375,0.078125 1.40625,0.4375 z m 0,0"
               transform="translate(159.11993,134.765)"
               id="path57309" />
            <path
               inkscape:connector-curvature="0"
               style="stroke:none;stroke-width:0"
               d="M 2.796875,-2.71875 4.46875,-4.421875 H 3.578125 l -2.015625,2.0625 v -4.5625 H 0.84375 V 0 h 0.6875 V -1.40625 L 2.328125,-2.234375 3.875,0 h 0.8125 z m 0,0"
               transform="translate(163.54731,134.765)"
               id="path57311" />
          </g>
          <g
             style="fill:#000000;fill-opacity:1;stroke-width:0.04749928"
             id="g57317">
            <path
               inkscape:connector-curvature="0"
               style="stroke:none;stroke-width:0"
               d="M 3.765625,-6.921875 H 2.875 L 0.28125,0 H 1.015625 L 1.78125,-2.03125 H 4.6875 L 5.4375,0 H 6.359375 Z M 4.46875,-2.59375 H 2 l 0.640625,-1.796875 c 0.203125,-0.59375 0.515625,-1.4375 0.59375,-1.8125 0.03125,0.140625 0.09375,0.390625 0.328125,1.046875 z m 0,0"
               transform="translate(171.73557,134.765)"
               id="path57315" />
          </g>
          <g
             style="fill:#000000;fill-opacity:1;stroke-width:0.04749928"
             id="g57321">
            <path
               inkscape:connector-curvature="0"
               style="stroke:none;stroke-width:0"
               d="m 5.1875,-1.578125 c 0.109375,0 0.28125,0 0.28125,-0.15625 0,-0.1875 -0.171875,-0.1875 -0.28125,-0.1875 H 1.03125 c -0.109375,0 -0.28125,0 -0.28125,0.171875 0,0.171875 0.15625,0.171875 0.28125,0.171875 z m 0,0"
               transform="translate(178.379,136.259)"
               id="path57319" />
          </g>
          <g
             style="fill:#000000;fill-opacity:1;stroke-width:0.04749928"
             id="g57325">
            <path
               inkscape:connector-curvature="0"
               style="stroke:none;stroke-width:0"
               d="m 3.875,-2.65625 0.65625,-0.671875 c 0.890625,-0.875 1.171875,-1.140625 1.796875,-1.1875 0.09375,0 0.171875,0 0.171875,-0.140625 0,-0.078125 -0.078125,-0.109375 -0.09375,-0.109375 -0.203125,0 -0.453125,0.03125 -0.65625,0.03125 -0.1875,0 -0.625,-0.03125 -0.8125,-0.03125 -0.046875,0 -0.140625,0.03125 -0.140625,0.15625 0,0.015625 0,0.09375 0.109375,0.09375 0.0625,0.015625 0.234375,0.03125 0.234375,0.1875 0,0.09375 -0.109375,0.203125 -0.171875,0.28125 C 4.90625,-4 4.03125,-3.140625 3.765625,-2.875 L 3.0625,-4.234375 C 3.046875,-4.265625 3.03125,-4.3125 3.03125,-4.328125 c 0,-0.0625 0.125,-0.171875 0.375,-0.1875 0.046875,0 0.140625,0 0.140625,-0.140625 0,-0.015625 0,-0.109375 -0.125,-0.109375 -0.140625,0 -0.3125,0.03125 -0.453125,0.03125 -0.15625,0 -0.3125,0 -0.453125,0 -0.125,0 -0.296875,0 -0.421875,0 -0.109375,-0.015625 -0.265625,-0.03125 -0.375,-0.03125 -0.03125,0 -0.140625,0 -0.140625,0.15625 0,0.09375 0.09375,0.09375 0.203125,0.09375 0.40625,0 0.4375,0.078125 0.5,0.21875 L 3.265625,-2.375 2.875,-1.984375 c -0.140625,0.125 -0.46875,0.4375 -0.59375,0.5625 -0.84375,0.84375 -1.125,1.140625 -1.765625,1.171875 -0.09375,0 -0.171875,0 -0.171875,0.15625 C 0.34375,-0.0625 0.375,0 0.453125,0 c 0.1875,0 0.4375,-0.03125 0.640625,-0.03125 0.125,0 0.296875,0 0.40625,0.015625 C 1.625,-0.015625 1.78125,0 1.90625,0 1.9375,0 2.046875,0 2.046875,-0.140625 2.046875,-0.25 1.96875,-0.25 1.921875,-0.25 c -0.0625,-0.015625 -0.21875,-0.03125 -0.21875,-0.171875 0,-0.109375 0.09375,-0.203125 0.25,-0.359375 l 1.40625,-1.390625 0.84375,1.65625 C 4.25,-0.453125 4.25,-0.4375 4.25,-0.421875 c 0,0.03125 -0.125,0.15625 -0.375,0.171875 -0.0625,0 -0.140625,0 -0.140625,0.15625 0,0 0,0.09375 0.109375,0.09375 C 4,0 4.171875,-0.015625 4.3125,-0.015625 c 0.140625,0 0.3125,-0.015625 0.453125,-0.015625 0.125,0 0.28125,0 0.40625,0.015625 C 5.296875,-0.015625 5.4375,0 5.546875,0 5.59375,0 5.703125,0 5.703125,-0.15625 5.703125,-0.25 5.609375,-0.25 5.5,-0.25 5.09375,-0.25 5.0625,-0.328125 5,-0.453125 Z m 0,0"
               transform="translate(184.606,136.259)"
               id="path57323" />
          </g>
        </g>
      </g>
      <g
         id="g57776"
         ns1:jacobian_sqrt="63.500253"
         inkscapeversion="0.92.3"
         ns1:alignment="middle center"
         ns1:scale="180.0"
         ns1:preamble="/home/xmrazek7/.config/inkscape/extensions/default_packages.tex"
         ns1:text="\\textsf{dock A$_{-Z}$}"
         ns1:pdfconverter="pdf2svg"
         ns1:texconverter="pdflatex"
         ns1:version="0.8.1"
         transform="matrix(473.88978,0,0,-473.88978,222325.59,310123.38)"
         style="stroke-width:0.04749928">
        <g
           id="g57774"
           style="stroke-width:0.04749928">
          <g
             id="g57754"
             style="fill:#000000;fill-opacity:1;stroke-width:0.04749928">
            <path
               id="path57750"
               transform="translate(148.712,134.765)"
               d="m 4.328125,-6.921875 h -0.75 v 2.9375 C 3.046875,-4.421875 2.5,-4.53125 2.125,-4.53125 c -0.984375,0 -1.765625,1.03125 -1.765625,2.3125 0,1.3125 0.765625,2.328125 1.71875,2.328125 0.328125,0 0.90625,-0.09375 1.46875,-0.625 V 0 h 0.78125 z m -0.78125,5.53125 C 3.546875,-1.25 3.53125,-1.0625 3.21875,-0.78125 2.984375,-0.578125 2.734375,-0.5 2.484375,-0.5 c -0.625,0 -1.34375,-0.46875 -1.34375,-1.703125 0,-1.3125 0.859375,-1.71875 1.4375,-1.71875 0.453125,0 0.75,0.21875 0.96875,0.546875 z m 0,0"
               style="stroke:none;stroke-width:0"
               inkscape:connector-curvature="0" />
            <path
               id="path57752"
               transform="translate(153.85967,134.765)"
               d="m 4.671875,-2.1875 c 0,-1.34375 -1,-2.40625 -2.171875,-2.40625 -1.234375,0 -2.203125,1.09375 -2.203125,2.40625 0,1.3125 1.015625,2.296875 2.1875,2.296875 1.1875,0 2.1875,-1 2.1875,-2.296875 z m -2.1875,1.65625 c -0.6875,0 -1.40625,-0.5625 -1.40625,-1.765625 0,-1.203125 0.75,-1.6875 1.40625,-1.6875 0.703125,0 1.40625,0.515625 1.40625,1.6875 0,1.1875 -0.671875,1.765625 -1.40625,1.765625 z m 0,0"
               style="stroke:none;stroke-width:0"
               inkscape:connector-curvature="0" />
          </g>
          <g
             id="g57760"
             style="fill:#000000;fill-opacity:1;stroke-width:0.04749928">
            <path
               id="path57756"
               transform="translate(159.11993,134.765)"
               d="M 4.09375,-4.171875 C 3.5,-4.5 3.15625,-4.59375 2.546875,-4.59375 c -1.375,0 -2.1875,1.203125 -2.1875,2.375 0,1.234375 0.90625,2.328125 2.15625,2.328125 0.53125,0 1.078125,-0.140625 1.625,-0.515625 l -0.0625,-0.65625 c -0.515625,0.390625 -1.046875,0.53125 -1.5625,0.53125 -0.828125,0 -1.375,-0.71875 -1.375,-1.6875 C 1.140625,-3 1.5,-3.953125 2.5625,-3.953125 c 0.515625,0 0.859375,0.078125 1.40625,0.4375 z m 0,0"
               style="stroke:none;stroke-width:0"
               inkscape:connector-curvature="0" />
            <path
               id="path57758"
               transform="translate(163.54731,134.765)"
               d="M 2.796875,-2.71875 4.46875,-4.421875 H 3.578125 l -2.015625,2.0625 v -4.5625 H 0.84375 V 0 h 0.6875 V -1.40625 L 2.328125,-2.234375 3.875,0 h 0.8125 z m 0,0"
               style="stroke:none;stroke-width:0"
               inkscape:connector-curvature="0" />
          </g>
          <g
             id="g57764"
             style="fill:#000000;fill-opacity:1;stroke-width:0.04749928">
            <path
               id="path57762"
               transform="translate(171.73557,134.765)"
               d="M 3.765625,-6.921875 H 2.875 L 0.28125,0 H 1.015625 L 1.78125,-2.03125 H 4.6875 L 5.4375,0 H 6.359375 Z M 4.46875,-2.59375 H 2 l 0.640625,-1.796875 c 0.203125,-0.59375 0.515625,-1.4375 0.59375,-1.8125 0.03125,0.140625 0.09375,0.390625 0.328125,1.046875 z m 0,0"
               style="stroke:none;stroke-width:0"
               inkscape:connector-curvature="0" />
          </g>
          <g
             id="g57768"
             style="fill:#000000;fill-opacity:1;stroke-width:0.04749928">
            <path
               id="path57766"
               transform="translate(178.379,136.259)"
               d="m 5.1875,-1.578125 c 0.109375,0 0.28125,0 0.28125,-0.15625 0,-0.1875 -0.171875,-0.1875 -0.28125,-0.1875 H 1.03125 c -0.109375,0 -0.28125,0 -0.28125,0.171875 0,0.171875 0.15625,0.171875 0.28125,0.171875 z m 0,0"
               style="stroke:none;stroke-width:0"
               inkscape:connector-curvature="0" />
          </g>
          <g
             id="g57772"
             style="fill:#000000;fill-opacity:1;stroke-width:0.04749928">
            <path
               id="path57770"
               transform="translate(184.606,136.259)"
               d="m 5.453125,-4.484375 c 0.0625,-0.0625 0.09375,-0.109375 0.09375,-0.203125 0,-0.078125 -0.046875,-0.078125 -0.1875,-0.078125 h -3.25 C 1.9375,-4.765625 1.921875,-4.75 1.875,-4.625 L 1.484375,-3.359375 C 1.46875,-3.28125 1.46875,-3.28125 1.46875,-3.25 c 0,0.03125 0.015625,0.09375 0.109375,0.09375 0.09375,0 0.109375,-0.046875 0.125,-0.109375 0.34375,-0.984375 0.875,-1.25 1.78125,-1.25 h 1.25 L 0.671875,-0.3125 C 0.625,-0.265625 0.5625,-0.1875 0.5625,-0.078125 0.5625,0 0.625,0 0.75,0 h 3.375 c 0.171875,0 0.1875,0 0.21875,-0.140625 l 0.5,-1.546875 C 4.875,-1.78125 4.875,-1.796875 4.875,-1.8125 c 0,0 0,-0.09375 -0.109375,-0.09375 -0.09375,0 -0.109375,0.03125 -0.15625,0.1875 -0.3125,0.953125 -0.671875,1.4375 -1.890625,1.4375 H 1.390625 Z m 0,0"
               style="stroke:none;stroke-width:0"
               inkscape:connector-curvature="0" />
          </g>
        </g>
      </g>
    </g>
  </g>
</svg>
